<?xml version="1.0" encoding="UTF-8"?>
<svg version="1.1" xmlns="http://www.w3.org/2000/svg" width="320" height="320">
<path d="M0 0 C0.99569504 -0.0098568 0.99569504 -0.0098568 2.01150513 -0.01991272 C4.20648314 -0.03960984 6.40139286 -0.05130021 8.59643555 -0.0612793 C9.34744223 -0.06535482 10.09844891 -0.06943035 10.87221336 -0.07362938 C14.84726052 -0.0944748 18.82227332 -0.10878311 22.79736328 -0.11816406 C26.89643858 -0.12922564 30.9949706 -0.16362638 35.09385395 -0.20333576 C38.25179533 -0.22951867 41.40960756 -0.23785734 44.56764793 -0.24144554 C46.0782863 -0.24630718 47.58891907 -0.25790926 49.09945107 -0.27648354 C51.2177768 -0.3009126 53.33470064 -0.29990421 55.453125 -0.29296875 C57.25823296 -0.30176811 57.25823296 -0.30176811 59.09980774 -0.31074524 C64.43679122 0.47312076 67.4932205 3.20912579 71.1472168 7.02246094 C73.48084773 10.26052422 74.63322467 12.84799985 75.7956543 16.6496582 C75.99710556 17.294552 76.19855682 17.9394458 76.40611267 18.60388184 C77.09159887 20.81170492 77.75588553 23.02535955 78.4206543 25.23950195 C78.92673629 26.88626215 79.43403137 28.5326499 79.94238281 30.17871094 C81.43988766 35.0436506 82.91709668 39.91459067 84.39215088 44.78637695 C86.08988416 50.38322456 87.80125866 55.97590641 89.51057816 61.5692234 C92.36266026 70.90370359 95.20883793 80.23995224 98.04077148 89.58056641 C98.26479078 90.31942613 98.48881008 91.05828585 98.71961784 91.81953526 C99.17558658 93.32349207 99.63154905 94.82745078 100.08750534 96.33141136 C100.31474918 97.08096407 100.54199303 97.83051678 100.77612305 98.6027832 C101.00420277 99.35514063 101.23228249 100.10749805 101.46727371 100.88265419 C104.84052565 112.00672967 108.24244495 123.12172055 111.66255379 134.23147392 C113.12794292 138.99449135 114.58908236 143.75881445 116.05019665 148.52314472 C117.21932663 152.33389916 118.39141547 156.14369187 119.57028198 159.95144653 C120.67289244 163.51293013 121.76801542 167.07663191 122.85767174 170.64209938 C123.44687432 172.5627954 124.04419174 174.4809963 124.64179993 176.39909363 C126.5624734 182.70749295 127.9647895 188.59248381 128.4206543 195.17700195 C127.54509888 194.78535858 127.54509888 194.78535858 126.65185547 194.38580322 C111.7524344 187.73492967 96.58709606 181.20276618 80.5378418 177.9152832 C79.5768457 177.71451172 78.61584961 177.51374023 77.62573242 177.30688477 C75.78453852 176.93775652 73.93653778 176.60064547 72.08276367 176.30102539 C71.25325195 176.13763672 70.42374023 175.97424805 69.5690918 175.8059082 C68.83867676 175.6828833 68.10826172 175.5598584 67.35571289 175.43310547 C64.07773911 173.30527616 63.5064107 169.75184982 62.4206543 166.17700195 C62.09342377 165.13252396 61.76619324 164.08804596 61.42904663 163.01191711 C60.23671929 159.15426029 59.07590909 155.28806103 57.9206543 151.41918945 C57.48373535 149.96298332 57.04661231 148.5068384 56.60929871 147.05075073 C55.44821132 143.18169076 54.29084919 139.31152667 53.1345787 135.44102478 C52.420574 133.05173327 51.70562903 130.66272509 50.99038696 128.27380371 C45.47244833 109.84177023 39.96865718 91.40555671 34.6081543 72.92700195 C34.38200439 72.14999939 34.15585449 71.37299683 33.92285156 70.57244873 C33.30818655 68.45718047 32.69743594 66.3408359 32.08862305 64.22387695 C31.76144287 63.08789062 31.4342627 61.9519043 31.09716797 60.78149414 C30.4206543 58.17700195 30.4206543 58.17700195 30.4206543 56.17700195 C28.4406543 56.17700195 26.4606543 56.17700195 24.4206543 56.17700195 C24.13544922 57.40592163 24.13544922 57.40592163 23.84448242 58.65966797 C20.5653024 72.28494799 16.51440717 85.68079859 12.51711273 99.10910416 C11.5111763 102.49123873 10.50916937 105.87453644 9.50708008 109.2578125 C9.10294076 110.62214808 8.69879647 111.98648218 8.29464722 113.35081482 C8.09488155 114.02520536 7.89511589 114.69959591 7.68929672 115.39442253 C7.086021 117.43041292 6.48229753 119.46627004 5.87844849 121.50209045 C2.32332699 133.48985486 -1.19787022 145.48742464 -4.7043457 157.48950195 C-5.21149743 159.22444946 -5.71865854 160.95939422 -6.22583008 162.69433594 C-7.34443047 166.52166914 -8.46220548 170.34924231 -9.5793457 174.17700195 C-10.12010742 174.28657227 -10.66086914 174.39614258 -11.21801758 174.5090332 C-32.9543112 178.99111889 -53.52461502 185.65606921 -73.5793457 195.17700195 C-73.06326414 186.65194647 -70.55030539 178.8596017 -68.00512695 170.7668457 C-67.52770858 169.22749495 -67.05105407 167.68790711 -66.57510376 166.14810181 C-65.55539775 162.85429117 -64.5307739 159.56206832 -63.50216675 156.27102661 C-61.87536382 151.06566711 -60.25957953 145.85693125 -58.64599609 140.64746094 C-56.97453354 135.25235215 -55.30269949 129.85736316 -53.62736511 124.4634552 C-48.10219735 106.67102477 -42.65265487 88.85578367 -37.21737289 71.03572464 C-36.30112114 68.0323893 -35.38407941 65.02929556 -34.46689129 62.02624607 C-34.02612988 60.58298081 -33.58548558 59.13967977 -33.14496326 57.69634151 C-32.09905924 54.269599 -31.05187593 50.84326098 -30.0014801 47.41789246 C-28.15770716 41.39886208 -26.33673163 35.37506427 -24.58374023 29.32885742 C-24.27481339 28.27601059 -23.96588654 27.22316376 -23.64759827 26.13841248 C-23.08858271 24.22801221 -22.53878876 22.3148723 -22.00120544 20.39833069 C-19.71471516 12.63081737 -16.53489787 5.75302311 -9.5793457 1.17700195 C-6.19068688 0.04744901 -3.57332817 0.02928896 0 0 Z " fill="#000000" transform="translate(132.579345703125,15.822998046875)"/>
<path d="M0 0 C0.66 0 1.32 0 2 0 C2.763125 1.03125 3.52625 2.0625 4.3125 3.125 C12.90952572 13.43308424 29.33976834 15.79320338 42 17 C58.06272151 17.99704971 79.78880557 17.58040873 93.1640625 7.34375 C95 6 95 6 98 6 C100.62829329 18.71689601 100.11106742 28.87347909 93 40 C87.54443458 47.80623531 80.47099115 52.70871134 72.47192383 57.62646484 C66.2674103 61.50687742 61.35005923 65.5634856 58.625 72.5 C57.38542209 79.44163632 58.28990522 85.26650179 60 92 C52.65351067 91.30491731 48.78401679 87.34215208 44 82 C39.519742 75.01487048 37.97659564 69.02476951 37.625 60.8125 C37.23521942 52.02468419 37.23521942 52.02468419 34 44 C30.21706253 41.52654088 27.87233331 41 23.375 41 C19.22233329 42.23041977 17.61559004 43.56236738 15 47 C14.06907069 49.34186906 13.53476356 51.52064169 13 54 C7.06684661 51.54490205 4.36353741 45.94644519 1.76171875 40.32421875 C-1.36855968 32.64080806 -2.18208109 26.46217196 -2.1875 18.1875 C-2.19974609 17.21490234 -2.21199219 16.24230469 -2.22460938 15.24023438 C-2.23575193 9.75438154 -1.82847804 5.18189231 0 0 Z " fill="#FE5C00" transform="translate(112,212)"/>
</svg>
