<?xml version="1.0" encoding="UTF-8"?>
<svg version="1.1" xmlns="http://www.w3.org/2000/svg" width="1280" height="1441">
<path d="M0 0 C2.14550269 0.01611324 4.28912304 0.00001681 6.43457031 -0.01904297 C19.18203617 -0.03930329 31.88397273 1.60469888 43.89550781 6.07861328 C44.66096924 6.362771 45.42643066 6.64692871 46.21508789 6.93969727 C58.2601461 11.71791191 69.33321734 18.78116917 80.44573975 25.38409424 C84.03038713 27.50780055 87.63406312 29.59898879 91.23461914 31.69555664 C93.17962521 32.82849862 95.12346964 33.96343718 97.06616211 35.1003418 C104.7294551 39.58331437 112.43181634 43.99574223 120.14550781 48.39111328 C129.86675287 53.93097261 139.5544565 59.5248626 149.21240234 65.17456055 C159.73635406 71.3287807 170.29930919 77.41481324 180.86328125 83.5 C186.29210724 86.62791476 191.71870062 89.75969776 197.14550781 92.89111328 C199.31216364 94.14113207 201.47883031 95.39113207 203.64550781 96.64111328 C268.64550781 134.14111328 333.64550781 171.64111328 398.64550781 209.14111328 C399.71816895 209.75994385 400.79083008 210.37877441 401.89599609 211.01635742 C404.06107852 212.26546846 406.22611763 213.51465457 408.39111328 214.76391602 C413.83166487 217.90313638 419.27297997 221.04101891 424.71582031 224.17626953 C435.16756981 230.19858657 445.60850329 236.23780665 456.02050781 242.32861328 C464.69813023 247.40386451 473.41156349 252.41370095 482.14550781 257.39111328 C491.86666398 262.93113058 501.55445439 268.52486137 511.21240234 274.17456055 C518.46762538 278.41728619 525.73906853 282.63104571 533.02050781 286.82861328 C534.09800293 287.44986084 535.17549805 288.0711084 536.28564453 288.71118164 C541.78688809 291.88188346 547.28990045 295.04949595 552.79394531 298.21533203 C557.15230242 300.72247953 561.50601791 303.23742128 565.85644531 305.75830078 C569.97267804 308.14325339 574.10326387 310.49975331 578.24707031 312.83642578 C588.72840255 318.80144708 597.73708356 324.70790392 606.14550781 333.39111328 C606.85191406 334.04080078 607.55832031 334.69048828 608.28613281 335.35986328 C626.36729354 352.15968191 640.58519733 380.26856783 642.33072917 405.01723672 C642.40249331 407.84885784 642.41454685 410.67424488 642.40277672 413.50675297 C642.40628279 414.58700393 642.40978887 415.6672549 642.41340119 416.78024074 C642.4226947 420.39497318 642.41779706 424.00954379 642.41293335 427.62428284 C642.41667064 430.24417198 642.42127247 432.86406 642.42666399 435.48394626 C642.43694973 441.17768597 642.43981027 446.87139169 642.43775177 452.56513977 C642.43469805 461.03238373 642.44303402 469.49959015 642.45350102 477.9668268 C642.47283285 493.97127419 642.47846895 509.97570876 642.47961514 525.98016644 C642.48053466 538.34200891 642.48465359 550.70384635 642.49101639 563.06568718 C642.49281152 566.62564545 642.49459114 570.18560373 642.49636614 573.74556202 C642.49680824 574.63061448 642.49725034 575.51566694 642.49770583 576.42753918 C642.51001275 601.3196685 642.51790712 626.21179607 642.51701927 651.10392857 C642.51698811 652.04223882 642.51695696 652.98054907 642.51692486 653.94729296 C642.51675864 658.70289468 642.51656056 663.45849639 642.51635544 668.2140981 C642.5162956 669.63078192 642.5162956 669.63078192 642.51623456 671.0760856 C642.51615369 672.98600597 642.51607009 674.89592634 642.51598378 676.80584672 C642.51475857 706.51373184 642.52976646 736.2215713 642.55712891 765.92944336 C642.58786834 799.31741814 642.60506026 832.70536291 642.60320246 866.09335274 C642.6030532 869.6555115 642.60295579 873.21767026 642.60289383 876.77982903 C642.60285887 878.09543779 642.60285887 878.09543779 642.6028232 879.43762451 C642.60276172 893.53558397 642.6155189 907.63350369 642.63275836 921.73145135 C642.64973488 935.90788838 642.65167291 950.08426746 642.63853972 964.26070905 C642.63116383 972.67559398 642.63476763 981.09030251 642.6544244 989.50516864 C642.66646212 995.13563945 642.66379143 1000.7659831 642.6494834 1006.39644818 C642.64175208 1009.59831063 642.64231793 1012.7997678 642.6563981 1016.00161833 C642.80577687 1052.39338886 630.8757699 1082.9247114 605.39941406 1109.24267578 C594.76985827 1119.77935507 581.68906061 1126.65841837 568.66894531 1133.79345703 C562.49340864 1137.17930428 556.40397739 1140.69689183 550.33300781 1144.26611328 C541.63752826 1149.3678732 532.9053584 1154.40105993 524.14550781 1159.39111328 C514.42407797 1164.93064432 504.73655477 1170.52486515 495.07861328 1176.17456055 C484.55466157 1182.3287807 473.99170644 1188.41481324 463.42773438 1194.5 C457.99890839 1197.62791476 452.572315 1200.75969776 447.14550781 1203.89111328 C444.97885199 1205.14113207 442.81218532 1206.39113207 440.64550781 1207.64111328 C439.57300781 1208.25986328 438.50050781 1208.87861328 437.39550781 1209.51611328 C271.64550781 1305.14111329 271.64550781 1305.14111329 268.39501953 1307.01635742 C266.22993711 1308.26546846 264.06489799 1309.51465457 261.89990234 1310.76391602 C256.45935075 1313.90313638 251.01803566 1317.04101891 245.57519531 1320.17626953 C235.12344582 1326.19858657 224.68251233 1332.23780665 214.27050781 1338.32861328 C205.00051004 1343.75032506 195.68719029 1349.09316243 186.35705566 1354.41033936 C177.23267941 1359.61156457 168.14418007 1364.87139206 159.07861328 1370.17456055 C148.55466157 1376.3287807 137.99170644 1382.41481324 127.42773438 1388.5 C123.08051419 1391.00472832 118.73475311 1393.51198107 114.38916016 1396.01953125 C112.23078312 1397.26491123 110.07225501 1398.51002942 107.91357422 1399.75488281 C102.39454025 1402.93775608 96.87763502 1406.12423135 91.36425781 1409.31689453 C50.47350107 1432.98442553 14.21298294 1449.65698391 -33.87280273 1436.95166016 C-49.34814147 1432.43170369 -63.43679152 1423.38800343 -77.18261719 1415.16845703 C-82.84941829 1411.78404838 -88.57188268 1408.49684343 -94.29199219 1405.20361328 C-95.39889404 1404.56584961 -96.5057959 1403.92808594 -97.64624023 1403.27099609 C-99.91718712 1401.96266392 -102.18826573 1400.65456037 -104.45947266 1399.34667969 C-109.92619198 1396.19779275 -115.39024106 1393.04428064 -120.85449219 1389.89111328 C-123.0211453 1388.64108978 -125.18781198 1387.39108981 -127.35449219 1386.14111328 C-157.68782552 1368.64111328 -188.02115885 1351.14111328 -218.35449219 1333.64111328 C-219.42715332 1333.02228271 -220.49981445 1332.40345215 -221.60498047 1331.76586914 C-223.77006289 1330.5167581 -225.93510201 1329.26757199 -228.10009766 1328.01831055 C-233.54064925 1324.87909019 -238.98196434 1321.74120765 -244.42480469 1318.60595703 C-254.87655418 1312.58363999 -265.31748767 1306.54441991 -275.72949219 1300.45361328 C-284.4071146 1295.37836205 -293.12054787 1290.36852562 -301.85449219 1285.39111328 C-311.57564835 1279.85109598 -321.26343877 1274.25736519 -330.92138672 1268.60766602 C-341.44533843 1262.45344587 -352.00829356 1256.36741332 -362.57226562 1250.28222656 C-368.00109161 1247.1543118 -373.427685 1244.0225288 -378.85449219 1240.89111328 C-381.02114801 1239.64109449 -383.18781468 1238.3910945 -385.35449219 1237.14111328 C-456.85449219 1195.89111328 -456.85449219 1195.89111328 -528.35449219 1154.64111328 C-529.42779785 1154.02196045 -530.50110352 1153.40280762 -531.60693359 1152.76489258 C-533.76567922 1151.51933757 -535.9242092 1150.27340874 -538.08251953 1149.02709961 C-543.61863645 1145.83093484 -549.15876562 1142.64207222 -554.70605469 1139.46533203 C-593.95304562 1116.968632 -623.45809447 1093.70120153 -635.85449219 1048.39111328 C-637.60579541 1041.29413874 -638.14206978 1034.5693278 -638.11176109 1027.27547359 C-638.11526717 1026.19522263 -638.11877324 1025.11497166 -638.12238556 1024.00198582 C-638.13167908 1020.38725338 -638.12678144 1016.77268278 -638.12191772 1013.15794373 C-638.12565501 1010.53805458 -638.13025685 1007.91816656 -638.13564837 1005.2982803 C-638.14593411 999.60454059 -638.14879465 993.91083487 -638.14673615 988.21708679 C-638.14368243 979.74984283 -638.15201839 971.28263641 -638.1624854 962.81539976 C-638.18181723 946.81095237 -638.18745333 930.80651781 -638.18859951 914.80206012 C-638.18951903 902.44021766 -638.19363797 890.07838021 -638.20000076 877.71653938 C-638.20179589 874.15658111 -638.20357552 870.59662283 -638.20535052 867.03666455 C-638.20579261 866.15161208 -638.20623471 865.26655962 -638.2066902 864.35468738 C-638.21899713 839.46255807 -638.22689149 814.57043049 -638.22600365 789.678298 C-638.22597249 788.73998775 -638.22594133 787.80167749 -638.22590923 786.8349336 C-638.22574302 782.07933188 -638.22554494 777.32373017 -638.22533982 772.56812846 C-638.22529992 771.62367258 -638.22526003 770.67921671 -638.22521893 769.70614096 C-638.22513806 767.79622059 -638.22505446 765.88630022 -638.22496815 763.97637985 C-638.22374295 734.26849472 -638.23875084 704.56065526 -638.26611328 674.8527832 C-638.29685271 641.46480842 -638.31404463 608.07686365 -638.31218684 574.68887383 C-638.31203758 571.12671506 -638.31194016 567.5645563 -638.3118782 564.00239754 C-638.3118549 563.12532503 -638.31183159 562.24825252 -638.31180757 561.34460205 C-638.3117461 547.24664259 -638.32450328 533.14872287 -638.34174273 519.05077522 C-638.35871925 504.87433818 -638.36065729 490.6979591 -638.34752409 476.52151751 C-638.34014821 468.10663258 -638.34375201 459.69192405 -638.36340877 451.27705792 C-638.37544649 445.64658711 -638.37277581 440.01624347 -638.35846777 434.38577839 C-638.35073645 431.18391593 -638.35130231 427.98245877 -638.36538248 424.78060823 C-638.51031125 389.472949 -627.17548546 360.17975269 -602.85449219 334.39111328 C-601.82582031 333.24835938 -601.82582031 333.24835938 -600.77636719 332.08251953 C-589.38141717 319.90680442 -573.44678464 312.65348608 -559.08886719 304.50830078 C-552.60694545 300.83061318 -546.16081279 297.09417942 -539.72949219 293.32861328 C-528.22605924 286.59853175 -516.68525464 279.93455366 -505.13671875 273.28222656 C-499.70789276 270.1543118 -494.28129938 267.0225288 -488.85449219 263.89111328 C-486.68783636 262.64109449 -484.52116969 261.3910945 -482.35449219 260.14111328 C-481.28199219 259.52236328 -480.20949219 258.90361328 -479.10449219 258.26611328 C-313.35449219 162.64111328 -313.35449219 162.64111328 -310.10400391 160.76586914 C-307.93892148 159.5167581 -305.77388237 158.26757199 -303.60888672 157.01831055 C-298.16833513 153.87909019 -292.72702003 150.74120765 -287.28417969 147.60595703 C-276.83243019 141.58363999 -266.39149671 135.54441991 -255.97949219 129.45361328 C-246.70949441 124.03190151 -237.39617467 118.68906413 -228.06604004 113.37188721 C-218.94166379 108.17066199 -209.85316445 102.9108345 -200.78759766 97.60766602 C-190.26364594 91.45344587 -179.70069081 85.36741332 -169.13671875 79.28222656 C-163.70789276 76.1543118 -158.28129938 73.0225288 -152.85449219 69.89111328 C-150.68783636 68.64109449 -148.52116969 67.3910945 -146.35449219 66.14111328 C-145.28199219 65.52236328 -144.20949219 64.90361328 -143.10449219 64.26611328 C-131.18782552 57.39111328 -119.27115885 50.51611328 -107.35449219 43.64111328 C-105.74429199 42.71214233 -105.74429199 42.71214233 -104.1015625 41.7644043 C-101.94468315 40.5200633 -99.78778227 39.27575964 -97.63085938 38.03149414 C-90.91737162 34.15860141 -84.2044884 30.28466508 -77.49291992 26.40844727 C-75.25656809 25.11826288 -73.01912169 23.82997366 -70.78051758 22.54370117 C-64.21218282 18.76953328 -64.21218282 18.76953328 -57.70996094 14.88330078 C-51.80660064 11.3345379 -45.93803812 8.43351317 -39.47949219 6.07861328 C-38.8561499 5.84779053 -38.23280762 5.61696777 -37.59057617 5.37915039 C-25.36183224 1.20987707 -12.83941135 -0.11406311 0 0 Z " fill="#659AD2" transform="translate(637.8544921875,-0.39111328125)"/>
<path d="M0 0 C8.62125719 17.11103551 15.16301511 33.22054113 15.13422108 52.62344837 C15.13657331 53.69908396 15.13892554 54.77471955 15.14134905 55.88295016 C15.14803355 59.50602735 15.14758099 63.12906864 15.14717102 66.75215149 C15.15046999 69.36858763 15.15419563 71.98502327 15.1583125 74.60145825 C15.16763267 81.05034769 15.17155957 87.49923026 15.17383147 93.94812559 C15.1767951 101.67232957 15.18549351 109.39652446 15.19424575 117.12072367 C15.21508562 135.79172357 15.22555961 154.46272504 15.23437535 173.13373386 C15.23858291 181.96853285 15.24380478 190.80333117 15.24905988 199.63812959 C15.26695055 229.88684807 15.28194569 260.13556676 15.28938007 290.38428974 C15.28985483 292.28319224 15.29033072 294.18209474 15.29080774 296.08099724 C15.2911623 297.49351151 15.2911623 297.49351151 15.29152403 298.93456142 C15.29272521 303.7054791 15.29394067 308.47639678 15.29516602 313.24731445 C15.29540617 314.19411418 15.29564632 315.14091392 15.29589374 316.11640455 C15.30378431 346.80464932 15.3272109 377.49285541 15.35972196 408.18108329 C15.39403958 440.63390963 15.41373305 473.08671334 15.41702431 505.53955811 C15.41744184 509.10402597 15.41792141 512.66849381 15.41844749 516.23296165 C15.41857069 517.11062017 15.41869388 517.98827868 15.4188208 518.8925329 C15.42115052 533.00187336 15.43679781 547.11116881 15.45728934 561.22049324 C15.47757111 575.41085719 15.48301354 589.60116723 15.47351871 603.79154298 C15.46831276 612.21529809 15.47413822 620.6388734 15.49605338 629.06260254 C15.50960529 634.6991217 15.50844592 640.33551771 15.49565142 645.97203823 C15.48878372 649.17743092 15.49023071 652.38241516 15.50521151 655.58778993 C15.66474598 691.99008533 3.73796204 722.5256438 -21.74609375 748.8515625 C-32.37564955 759.38824179 -45.4564472 766.26730509 -58.4765625 773.40234375 C-64.65209917 776.78819099 -70.74153043 780.30577855 -76.8125 783.875 C-85.50797956 788.97675992 -94.24014941 794.00994665 -103 799 C-112.72142984 804.53953103 -122.40895304 810.13375187 -132.06689453 815.78344727 C-142.59084625 821.93766742 -153.15380137 828.02369996 -163.71777344 834.10888672 C-169.14659942 837.23680148 -174.57319281 840.36858448 -180 843.5 C-182.16665583 844.75001879 -184.3333225 846.00001878 -186.5 847.25 C-188.10875 848.178125 -188.10875 848.178125 -189.75 849.125 C-355.49999999 944.75 -355.49999999 944.75 -358.75048828 946.62524414 C-360.91557071 947.87435518 -363.08060982 949.12354129 -365.24560547 950.37280273 C-370.68615706 953.51202309 -376.12747216 956.64990563 -381.5703125 959.78515625 C-392.02206199 965.80747329 -402.46299548 971.84669337 -412.875 977.9375 C-422.14499777 983.35921178 -431.45831752 988.70204915 -440.78845215 994.01922607 C-449.9128284 999.22045129 -459.00132774 1004.48027878 -468.06689453 1009.78344727 C-478.59084625 1015.93766742 -489.15380137 1022.02369996 -499.71777344 1028.10888672 C-504.06499362 1030.61361504 -508.41075471 1033.12086779 -512.75634766 1035.62841797 C-514.91472469 1036.87379795 -517.0732528 1038.11891614 -519.23193359 1039.36376953 C-524.75096756 1042.5466428 -530.26787279 1045.73311807 -535.78125 1048.92578125 C-576.67200675 1072.59331225 -612.93252488 1089.26587063 -661.01831055 1076.56054688 C-676.49364929 1072.04059041 -690.58229933 1062.99689015 -704.328125 1054.77734375 C-709.99492611 1051.3929351 -715.71739049 1048.10573015 -721.4375 1044.8125 C-722.54440186 1044.17473633 -723.65130371 1043.53697266 -724.79174805 1042.87988281 C-727.06269493 1041.57155064 -729.33377354 1040.26344709 -731.60498047 1038.95556641 C-737.0716998 1035.80667946 -742.53574887 1032.65316736 -748 1029.5 C-750.16665311 1028.2499765 -752.33331979 1026.99997653 -754.5 1025.75 C-784.83333333 1008.25 -815.16666667 990.75 -845.5 973.25 C-846.57266113 972.63116943 -847.64532227 972.01233887 -848.75048828 971.37475586 C-850.91557071 970.12564482 -853.08060982 968.87645871 -855.24560547 967.62719727 C-860.68615706 964.48797691 -866.12747216 961.35009437 -871.5703125 958.21484375 C-882.02206199 952.19252671 -892.46299548 946.15330663 -902.875 940.0625 C-911.55262241 934.98724877 -920.26605568 929.97741233 -929 925 C-938.72115617 919.4599827 -948.40894658 913.86625191 -958.06689453 908.21655273 C-968.59084625 902.06233258 -979.15380137 895.97630004 -989.71777344 889.89111328 C-995.14659942 886.76319852 -1000.57319281 883.63141552 -1006 880.5 C-1008.16665583 879.24998121 -1010.3333225 877.99998122 -1012.5 876.75 C-1060.16666667 849.25 -1107.83333333 821.75 -1155.5 794.25 C-1156.57330566 793.63084717 -1157.64661133 793.01169434 -1158.75244141 792.3737793 C-1160.91118703 791.12822429 -1163.06971701 789.88229546 -1165.22802734 788.63598633 C-1170.76414426 785.43982156 -1176.30427343 782.25095894 -1181.8515625 779.07421875 C-1208.75589941 763.65243016 -1232.85524694 749.38654424 -1249 722 C-1249 721.34 -1249 720.68 -1249 720 C-1248.42894531 719.67950684 -1247.85789062 719.35901367 -1247.26953125 719.02880859 C-1235.18625718 712.24037143 -1223.15439352 705.37311092 -1211.19287109 698.37231445 C-1200.58353211 692.16403197 -1189.93371497 686.02671226 -1179.28222656 679.89111328 C-1173.85340058 676.76319852 -1168.42680719 673.63141552 -1163 670.5 C-1160.83334417 669.24998121 -1158.6666775 667.99998122 -1156.5 666.75 C-1155.4275 666.13125 -1154.355 665.5125 -1153.25 664.875 C-1065.50000001 614.25000001 -1065.50000001 614.25000001 -1062.24951172 612.37475586 C-1060.08442929 611.12564482 -1057.91939018 609.87645871 -1055.75439453 608.62719727 C-1050.31384294 605.48797691 -1044.87252784 602.35009437 -1039.4296875 599.21484375 C-1038.34502197 598.58964844 -1037.26035645 597.96445312 -1036.14282227 597.3203125 C-1033.98254002 596.0756284 -1031.82158102 594.83211805 -1029.65991211 593.58984375 C-1024.12683586 590.40470831 -1018.61694414 587.18534738 -1013.13671875 583.91015625 C-1012.03279785 583.254104 -1010.92887695 582.59805176 -1009.79150391 581.92211914 C-1007.68058178 580.66555708 -1005.57454372 579.40074399 -1003.47412109 578.12670898 C-1002.5352002 577.56927002 -1001.5962793 577.01183105 -1000.62890625 576.4375 C-999.80463135 575.94121094 -998.98035645 575.44492187 -998.13110352 574.93359375 C-996 574 -996 574 -993 575 C-991.82421875 576.51196289 -991.82421875 576.51196289 -990.6875 578.47265625 C-990.25775879 579.19912354 -989.82801758 579.92559082 -989.38525391 580.67407227 C-988.92812012 581.46225342 -988.47098633 582.25043457 -988 583.0625 C-973.78367059 606.90382847 -956.70072082 628.53029207 -938 649 C-937.10395069 649.98938778 -936.20812723 650.97898013 -935.3125 651.96875 C-927.9321166 660.10249656 -920.43637793 668.03487298 -912.08984375 675.19140625 C-909.7302808 677.23342054 -907.42986585 679.33399528 -905.125 681.4375 C-900.23179802 685.83696021 -895.21013094 689.98168651 -890 694 C-889.31679688 694.52867676 -888.63359375 695.05735352 -887.9296875 695.60205078 C-875.67519986 705.0499492 -863.11020549 713.78461533 -850 722 C-849.37416016 722.39848145 -848.74832031 722.79696289 -848.10351562 723.20751953 C-784.02586415 763.94669828 -705.88671486 786.30049646 -630.0625 786.1875 C-629.18362122 786.18623108 -628.30474243 786.18496216 -627.39923096 786.18365479 C-531.47013511 785.92140539 -438.96002973 755.10752313 -363 696 C-362.0925 695.29488281 -361.185 694.58976562 -360.25 693.86328125 C-357.81001137 691.93553382 -355.39941542 689.97799911 -353 688 C-352.0203125 687.19433594 -351.040625 686.38867188 -350.03125 685.55859375 C-334.38169238 672.5662357 -319.15929798 658.53452396 -306 643 C-305.13117187 642.00871094 -304.26234375 641.01742187 -303.3671875 639.99609375 C-287.80666658 622.19967201 -274.0806829 603.05969932 -261.6875 582.9375 C-261.21296387 582.16929932 -260.73842773 581.40109863 -260.24951172 580.60961914 C-257.85601395 577.06009796 -257.85601395 577.06009796 -257 573 C-257.61593018 572.6596875 -258.23186035 572.319375 -258.86645508 571.96875 C-271.11845702 565.18600925 -283.28526329 558.30011893 -295.3125 551.125 C-304.51244423 545.63704597 -313.75315007 540.23702065 -323.0625 534.9375 C-323.64405853 534.60640228 -324.22561707 534.27530457 -324.82479858 533.93417358 C-327.16124598 532.60419459 -329.49776939 531.27434945 -331.83451843 529.94490051 C-341.17296332 524.62874082 -350.46956139 519.23960869 -359.7734375 513.86328125 C-363.03524007 511.9796495 -366.29861844 510.09877679 -369.5625 508.21875 C-381.03195592 501.61106806 -392.48438143 494.97577042 -403.91308594 488.29785156 C-411.7208987 483.73875318 -419.54426574 479.20707033 -427.375 474.6875 C-428.50550781 474.03458984 -429.63601563 473.38167969 -430.80078125 472.70898438 C-431.84363281 472.10763672 -432.88648438 471.50628906 -433.9609375 470.88671875 C-434.88696777 470.35264404 -435.81299805 469.81856934 -436.76708984 469.26831055 C-438.1590113 468.4776882 -439.56820979 467.71589511 -441 467 C-441.268125 467.721875 -441.53625 468.44375 -441.8125 469.1875 C-447.98581791 483.8085161 -460.12517698 496.66004032 -471 508 C-471.50402344 508.53125488 -472.00804687 509.06250977 -472.52734375 509.60986328 C-496.1920205 534.44744639 -525.72508469 551.78027775 -558 563 C-558.69367676 563.24975586 -559.38735352 563.49951172 -560.10205078 563.75683594 C-577.34878159 569.93873647 -596.42918962 573.11280961 -614.73828125 573.203125 C-615.65852585 573.20882507 -616.57877045 573.21452515 -617.52690125 573.22039795 C-619.47080352 573.22980222 -621.41472141 573.23636363 -623.35864258 573.24023438 C-626.26608941 573.24984656 -629.17279948 573.28087498 -632.08007812 573.3125 C-649.65308355 573.41164512 -666.1779147 571.11070972 -683 566 C-683.75410156 565.77892578 -684.50820313 565.55785156 -685.28515625 565.33007812 C-729.24697911 552.3108866 -770.20556128 524.47126201 -797 487 C-797.47888672 486.33307129 -797.95777344 485.66614258 -798.45117188 484.97900391 C-824.74624191 447.93851676 -838.13584079 405.67551613 -838.24023438 360.42089844 C-838.24990391 357.9000501 -838.28101638 355.38003214 -838.3125 352.859375 C-838.38581253 341.61441406 -837.24137846 331.01246889 -835 320 C-834.80116211 318.99211426 -834.60232422 317.98422852 -834.39746094 316.94580078 C-822.79778941 261.02106863 -788.77207588 212.14549156 -741.12353516 180.76416016 C-713.94784505 163.43670539 -683.91784892 152.39265446 -652 148 C-650.81277344 147.814375 -649.62554688 147.62875 -648.40234375 147.4375 C-642.11337257 146.67359841 -635.76303124 146.80135125 -629.4375 146.8125 C-628.75325958 146.81343658 -628.06901917 146.81437317 -627.36404419 146.81533813 C-566.66938563 146.99454509 -512.52614636 170.23222123 -469.7890625 213.203125 C-441 242.8375149 -441 242.8375149 -441 253 C-433.09464461 249.15618294 -425.43491929 245.04462732 -417.875 240.5625 C-415.76597714 239.32231764 -413.65658939 238.08275562 -411.546875 236.84375 C-410.46857422 236.20953125 -409.39027344 235.5753125 -408.27929688 234.921875 C-402.91005225 231.77515867 -397.51789165 228.66846039 -392.125 225.5625 C-391.04734375 224.94133301 -389.9696875 224.32016602 -388.859375 223.68017578 C-384.47640193 221.15409621 -380.09266824 218.629338 -375.70898438 216.10449219 C-364.12318234 209.43043688 -352.54446647 202.74535916 -341 196 C-329.45270484 189.25298806 -317.87097973 182.56660682 -306.28222656 175.89111328 C-300.85340058 172.76319852 -295.42680719 169.63141552 -290 166.5 C-287.83334417 165.24998121 -285.6666775 163.99998122 -283.5 162.75 C-282.4275 162.13125 -281.355 161.5125 -280.25 160.875 C-166.5 95.25 -166.5 95.25 -163.24951172 93.37475586 C-161.08442929 92.12564482 -158.91939018 90.87645871 -156.75439453 89.62719727 C-151.31384294 86.48797691 -145.87252784 83.35009437 -140.4296875 80.21484375 C-129.97793801 74.19252671 -119.53700452 68.15330663 -109.125 62.0625 C-99.85500223 56.64078822 -90.54168248 51.29795085 -81.21154785 45.98077393 C-72.0937264 40.78328518 -63.01115483 35.52824513 -53.95288086 30.22753906 C-45.41395928 25.23282072 -36.84629019 20.2889044 -28.27099609 15.35693359 C-23.38197276 12.54181563 -18.50128098 9.71575237 -13.65234375 6.83203125 C-12.45919556 6.12288574 -12.45919556 6.12288574 -11.24194336 5.39941406 C-9.79114478 4.53427489 -8.34257863 3.66537628 -6.89672852 2.79199219 C-2.21791331 0 -2.21791331 0 0 0 Z " fill="#00599C" transform="translate(1265,360)"/>
<path d="M0 0 C1.37686132 0.23312747 2.75381744 0.46569565 4.13085938 0.69775391 C13.45966394 2.28361448 22.73742267 4.06421945 32 6 C32.92458008 6.19142578 33.84916016 6.38285156 34.80175781 6.58007812 C89.10197685 18.13513062 142.54115448 44.14499929 187 77 C187.63502441 77.46374023 188.27004883 77.92748047 188.92431641 78.40527344 C202.04281818 87.98731645 214.27387124 98.36874419 226.18359375 109.40625 C228.86117029 111.87214573 231.58111745 114.28157631 234.3125 116.6875 C237.91498157 119.91711326 241.11686349 123.28351824 244.23046875 126.98046875 C246.18076714 129.20630598 248.25347156 131.24959756 250.375 133.3125 C254.46980823 137.35880796 258.10574983 141.64723726 261.69921875 146.140625 C263.99704973 148.99633345 266.36819499 151.77667313 268.75 154.5625 C279.10399341 166.97442999 288.24594686 180.42508942 297 194 C297.39654785 194.61343262 297.7930957 195.22686523 298.20166016 195.85888672 C299.35274617 197.64983143 300.49156833 199.44784111 301.625 201.25 C302.27726563 202.28640625 302.92953125 203.3228125 303.6015625 204.390625 C305 207 305 207 305 210 C303.9790625 210.55945313 302.958125 211.11890625 301.90625 211.6953125 C292.00197797 217.14753535 282.20288134 222.76256796 272.44677734 228.4753418 C265.02161248 232.82310157 257.58005904 237.14120282 250.125 241.4375 C249.04541016 242.05971436 247.96582031 242.68192871 246.85351562 243.32299805 C244.6631748 244.58511517 242.47274498 245.84707785 240.28222656 247.10888672 C234.85340062 250.23680146 229.42677993 253.36853731 224 256.5 C217.47766725 260.26363919 210.95486238 264.02644622 204.4296875 267.78515625 C192.95574831 274.39633074 181.49792415 281.03357053 170.06494141 287.71533203 C161.4210387 292.76343976 152.75307087 297.76916794 144.078125 302.76367188 C143.0675 303.34568359 142.056875 303.92769531 141.015625 304.52734375 C139.53739258 305.37594971 139.53739258 305.37594971 138.02929688 306.24169922 C135.90119716 307.47691635 133.78353227 308.73020208 131.67382812 309.99658203 C130.06411133 310.95927002 130.06411133 310.95927002 128.421875 311.94140625 C127.4534668 312.52736572 126.48505859 313.1133252 125.48730469 313.71704102 C123 315 123 315 120 315 C118.48407922 312.94224409 117.17649561 310.93816965 115.875 308.75 C115.06985248 307.45098265 114.26118717 306.15413981 113.44921875 304.859375 C112.83506104 303.88000977 112.83506104 303.88000977 112.20849609 302.88085938 C82.49110188 256.62978765 32.64604211 225.91861869 -20.25 213.5625 C-46.76078534 207.97601733 -76.47463397 207.59474315 -103 213 C-104.10843262 213.20882812 -104.10843262 213.20882812 -105.23925781 213.421875 C-122.48828837 216.67442027 -139.37764225 222.04003248 -155.04101562 230.00488281 C-156.42589209 230.70836692 -157.81574185 231.40210087 -159.20898438 232.08886719 C-208.83078067 256.56812426 -246.58030701 299.94906692 -265 352 C-272.16640055 373.25660986 -276.37347735 394.39687433 -276.26074219 416.83984375 C-276.2500431 419.36482918 -276.26069011 421.88909878 -276.2734375 424.4140625 C-276.28222265 434.77743818 -275.5447047 444.74945239 -274 455 C-273.89026855 455.81404297 -273.78053711 456.62808594 -273.66748047 457.46679688 C-268.55867333 495.01058888 -250.67748382 531.49861779 -226 560 C-225.29488281 560.81597656 -224.58976562 561.63195312 -223.86328125 562.47265625 C-213.81372791 573.85733876 -203.28546415 584.07362316 -191 593 C-190.34854004 593.47405273 -189.69708008 593.94810547 -189.02587891 594.43652344 C-164.80590696 611.8136133 -138.12134627 623.83384492 -109 630 C-107.79085938 630.32226562 -106.58171875 630.64453125 -105.3359375 630.9765625 C-92.51872601 634.13873373 -79.87280386 634.39993223 -66.75 634.375 C-65.77533783 634.37512085 -64.80067566 634.3752417 -63.79647827 634.37536621 C-48.4762074 634.34832165 -33.99322813 633.33646245 -19 630 C-17.48893371 629.7049717 -15.97723889 629.41313879 -14.46484375 629.125 C17.69814176 622.67330853 49.567147 605.64052694 74 584 C74.79792969 583.31035156 75.59585938 582.62070312 76.41796875 581.91015625 C78.98890087 579.6498614 81.50157257 577.34020596 84 575 C84.49226074 574.54173828 84.98452148 574.08347656 85.49169922 573.61132812 C99.45294892 560.50715732 110.22407402 545.39619189 120 529 C126.18163604 530.62838399 131.31095843 533.94241683 136.75 537.1875 C138.91105633 538.46292098 141.072529 539.73763673 143.234375 541.01171875 C144.35005859 541.67091309 145.46574219 542.33010742 146.61523438 543.00927734 C152.05592025 546.20917294 157.52821474 549.35368231 163 552.5 C171.34837951 557.30782754 179.68243649 562.13905955 188 567 C200.63743454 574.38414893 213.31675298 581.69490135 226 589 C239.65876116 596.86696006 253.30774389 604.74904615 266.9152832 612.7043457 C272.32654217 615.86536927 277.74562051 619.01221782 283.17578125 622.140625 C283.77349335 622.4850061 284.37120544 622.82938721 284.98703003 623.1842041 C287.89465649 624.85891632 290.80326482 626.53188674 293.71289062 628.203125 C294.75251953 628.80125 295.79214844 629.399375 296.86328125 630.015625 C297.78407471 630.54446289 298.70486816 631.07330078 299.65356445 631.61816406 C301.47062767 632.68824811 303.24541946 633.83027964 305 635 C303.75525638 639.14511711 302.25025962 642.51239583 299.875 646.125 C298.9466333 647.54510376 298.9466333 647.54510376 297.99951172 648.99389648 C297.33967285 649.98591064 296.67983398 650.9779248 296 652 C295.3208252 653.02875244 294.64165039 654.05750488 293.94189453 655.11743164 C285.38097322 668.02783692 276.34350302 680.27285327 266.47070312 692.20898438 C265.20879009 693.74573637 263.96928135 695.30083802 262.734375 696.859375 C249.8528426 713.08420589 234.83092583 728.62413753 219 742 C217.98710059 742.88667391 216.97550034 743.77483301 215.96484375 744.6640625 C207.30623352 752.24502914 198.30675044 759.23526896 189 766 C188.33129883 766.48968262 187.66259766 766.97936523 186.97363281 767.48388672 C154.00788633 791.55348447 118.1004439 809.63551813 80 824 C79.01515625 824.37543945 78.0303125 824.75087891 77.015625 825.13769531 C42.725578 838.10421797 5.35062458 845.71194647 -31.23535156 847.82739258 C-33.18666348 847.94922034 -35.13657757 848.0945349 -37.08496094 848.2565918 C-47.27073375 849.09009445 -57.41218523 849.19928951 -67.625 849.1875 C-68.5128418 849.18722809 -69.40068359 849.18695618 -70.31542969 849.18667603 C-82.18065795 849.1699618 -93.88674546 848.96879485 -105.65478516 847.31640625 C-108.31146277 846.95797879 -110.97166692 846.66451443 -113.63671875 846.375 C-128.28011768 844.74251938 -142.61037183 842.14214644 -157 839 C-157.99016113 838.79036621 -158.98032227 838.58073242 -160.00048828 838.36474609 C-232.32794494 822.92966047 -298.67337201 785.62447781 -353 736 C-354.45212891 734.68708984 -354.45212891 734.68708984 -355.93359375 733.34765625 C-364.44100252 725.63628621 -372.76930853 717.77897929 -380.23828125 709.0390625 C-382.19605739 706.7730777 -384.22228948 704.57856506 -386.25 702.375 C-391.3068307 696.76200349 -395.95675868 690.87279977 -400.55419922 684.8828125 C-401.51603689 683.63024713 -402.48119898 682.38022738 -403.44970703 681.1328125 C-431.49899575 644.97164323 -453.25144688 603.56605699 -468.18164062 560.36572266 C-468.90517958 558.27410797 -469.64482832 556.18921591 -470.390625 554.10546875 C-477.32229801 534.20981237 -481.42075732 513.7198382 -485 493 C-485.30144443 491.30717777 -485.60346716 489.61445835 -485.90625 487.921875 C-489.69013196 466.43948531 -491.23758974 444.79858824 -491.3125 423 C-491.31545074 422.22617981 -491.31840149 421.45235962 -491.32144165 420.65509033 C-491.33261144 407.48707429 -490.49666585 394.47424615 -489.1875 381.375 C-489.10472809 380.53952637 -489.02195618 379.70405273 -488.93667603 378.84326172 C-487.27019114 362.35790234 -484.90710756 345.98149307 -481.25 329.8125 C-480.99250977 328.67159912 -480.73501953 327.53069824 -480.46972656 326.35522461 C-465.29352066 260.55371001 -434.34736564 199.6782482 -391 148 C-390.15767822 146.98800537 -389.31535645 145.97601074 -388.44750977 144.93334961 C-381.43811671 136.58442778 -374.04193643 128.72855369 -366.30883789 121.0480957 C-364.42811472 119.17816859 -362.55843181 117.29767362 -360.68945312 115.41601562 C-354.4786434 109.19877644 -348.21852876 103.28399987 -341.30761719 97.84228516 C-339.05151355 96.04112582 -336.92826446 94.15037892 -334.8125 92.1875 C-316.85361993 76.15053517 -295.80626146 62.99364335 -275 51 C-273.83937205 50.30677872 -272.67922431 49.61275289 -271.51953125 48.91796875 C-247.07963522 34.49394 -220.05018421 23.44438633 -193 15 C-192.29472168 14.77248047 -191.58944336 14.54496094 -190.86279297 14.31054688 C-177.07011949 9.86607637 -163.09744645 6.6094564 -148.92382812 3.62109375 C-146.56412858 3.11983493 -144.21094093 2.60013917 -141.859375 2.0625 C-96.86302881 -7.79971286 -45.25369313 -7.9058367 0 0 Z " fill="#FEFEFE" transform="translate(704,298)"/>
<path d="M0 0 C1.17578125 1.51196289 1.17578125 1.51196289 2.3125 3.47265625 C2.95711182 4.56235718 2.95711182 4.56235718 3.61474609 5.67407227 C4.07187988 6.46225342 4.52901367 7.25043457 5 8.0625 C19.21632941 31.90382847 36.29927918 53.53029207 55 74 C55.89604931 74.98938778 56.79187277 75.97898013 57.6875 76.96875 C65.0678834 85.10249656 72.56362207 93.03487298 80.91015625 100.19140625 C83.2697192 102.23342054 85.57013415 104.33399528 87.875 106.4375 C92.76820198 110.83696021 97.78986906 114.98168651 103 119 C103.68320312 119.52867676 104.36640625 120.05735352 105.0703125 120.60205078 C117.32480014 130.0499492 129.88979451 138.78461533 143 147 C143.62583984 147.39848145 144.25167969 147.79696289 144.89648438 148.20751953 C208.97413585 188.94669828 287.11328514 211.30049646 362.9375 211.1875 C363.81637878 211.18623108 364.69525757 211.18496216 365.60076904 211.18365479 C461.52986489 210.92140539 554.03997027 180.10752313 630 121 C630.9075 120.29488281 631.815 119.58976562 632.75 118.86328125 C635.18998863 116.93553382 637.60058458 114.97799911 640 113 C640.9796875 112.19433594 641.959375 111.38867188 642.96875 110.55859375 C658.61830762 97.5662357 673.84070202 83.53452396 687 68 C687.86882813 67.00871094 688.73765625 66.01742187 689.6328125 64.99609375 C705.421518 46.93869945 719.54444239 27.49693407 731.8425293 6.89819336 C733.70625572 3.8235463 734.95894786 2.02736809 738 0 C741.98290637 0.33228677 744.85170028 1.84674956 748.26171875 3.8515625 C749.28458984 4.44775391 750.30746094 5.04394531 751.36132812 5.65820312 C753.0077832 6.63176758 753.0077832 6.63176758 754.6875 7.625 C755.84916922 8.30478918 757.01128693 8.98381248 758.17382812 9.66210938 C760.58817446 11.07158303 763.00055922 12.48432987 765.41162109 13.89941406 C770.92318583 17.13055521 776.4629938 20.31272995 782 23.5 C784.16679965 24.74976947 786.3334659 25.99977024 788.5 27.25 C790.10875 28.178125 790.10875 28.178125 791.75 29.125 C812.33333333 41 832.91666667 52.875 853.5 64.75 C854.57266113 65.36883057 855.64532227 65.98766113 856.75048828 66.62524414 C858.91557071 67.87435518 861.08060982 69.12354129 863.24560547 70.37280273 C868.68615706 73.51202309 874.12747216 76.64990563 879.5703125 79.78515625 C890.02206199 85.80747329 900.46299548 91.84669337 910.875 97.9375 C919.55262439 103.01275239 928.26612926 108.02245629 937 113 C955.42854959 123.50364431 973.72855828 134.22580746 992 145 C982.83795656 170.60673679 956.92284672 186.12819322 934.5234375 198.40234375 C928.34790083 201.78819099 922.25846957 205.30577855 916.1875 208.875 C907.49202044 213.97675992 898.75985059 219.00994665 890 224 C880.27857016 229.53953103 870.59104696 235.13375187 860.93310547 240.78344727 C850.40915375 246.93766742 839.84619863 253.02369996 829.28222656 259.10888672 C823.85340058 262.23680148 818.42680719 265.36858448 813 268.5 C810.83334417 269.75001879 808.6666775 271.00001878 806.5 272.25 C805.4275 272.86875 804.355 273.4875 803.25 274.125 C637.50000001 369.75 637.50000001 369.75 634.24951172 371.62524414 C632.08442929 372.87435518 629.91939018 374.12354129 627.75439453 375.37280273 C622.31384294 378.51202309 616.87252784 381.64990563 611.4296875 384.78515625 C600.97793801 390.80747329 590.53700452 396.84669337 580.125 402.9375 C570.85500223 408.35921178 561.54168248 413.70204915 552.21154785 419.01922607 C543.0871716 424.22045129 533.99867226 429.48027878 524.93310547 434.78344727 C514.40915375 440.93766742 503.84619863 447.02369996 493.28222656 453.10888672 C488.93500638 455.61361504 484.58924529 458.12086779 480.24365234 460.62841797 C478.08527531 461.87379795 475.9267472 463.11891614 473.76806641 464.36376953 C468.24903244 467.5466428 462.73212721 470.73311807 457.21875 473.92578125 C416.32799325 497.59331225 380.06747512 514.26587063 331.98168945 501.56054688 C316.50635071 497.04059041 302.41770067 487.99689015 288.671875 479.77734375 C283.00507389 476.3929351 277.28260951 473.10573015 271.5625 469.8125 C270.45559814 469.17473633 269.34869629 468.53697266 268.20825195 467.87988281 C265.93730507 466.57155064 263.66622646 465.26344709 261.39501953 463.95556641 C255.9283002 460.80667946 250.46425113 457.65316736 245 454.5 C242.83334689 453.2499765 240.66668021 451.99997653 238.5 450.75 C208.16666667 433.25 177.83333333 415.75 147.5 398.25 C146.42733887 397.63116943 145.35467773 397.01233887 144.24951172 396.37475586 C142.08442929 395.12564482 139.91939018 393.87645871 137.75439453 392.62719727 C132.31384294 389.48797691 126.87252784 386.35009437 121.4296875 383.21484375 C110.97793801 377.19252671 100.53700452 371.15330663 90.125 365.0625 C81.44737759 359.98724877 72.73394432 354.97741233 64 350 C54.27884383 344.4599827 44.59105342 338.86625191 34.93310547 333.21655273 C24.40915375 327.06233258 13.84619863 320.97630004 3.28222656 314.89111328 C-2.14659942 311.76319852 -7.57319281 308.63141552 -13 305.5 C-15.16665583 304.24998121 -17.3333225 302.99998122 -19.5 301.75 C-67.16666667 274.25 -114.83333333 246.75 -162.5 219.25 C-163.57330566 218.63084717 -164.64661133 218.01169434 -165.75244141 217.3737793 C-167.91118703 216.12822429 -170.06971701 214.88229546 -172.22802734 213.63598633 C-177.76414426 210.43982156 -183.30427343 207.25095894 -188.8515625 204.07421875 C-215.75589941 188.65243016 -239.85524694 174.38654424 -256 147 C-256 146.34 -256 145.68 -256 145 C-255.14341797 144.51926025 -255.14341797 144.51926025 -254.26953125 144.02880859 C-242.18625718 137.24037143 -230.15439352 130.37311092 -218.19287109 123.37231445 C-207.58353211 117.16403197 -196.93371497 111.02671226 -186.28222656 104.89111328 C-180.85340058 101.76319852 -175.42680719 98.63141552 -170 95.5 C-167.83334417 94.24998121 -165.6666775 92.99998122 -163.5 91.75 C-162.4275 91.13125 -161.355 90.5125 -160.25 89.875 C-72.5 39.25 -72.5 39.25 -69.24951172 37.37475586 C-67.08442929 36.12564482 -64.91939018 34.87645871 -62.75439453 33.62719727 C-57.31384294 30.48797691 -51.87252784 27.35009437 -46.4296875 24.21484375 C-45.34502197 23.58964844 -44.26035645 22.96445312 -43.14282227 22.3203125 C-40.98254002 21.0756284 -38.82158102 19.83211805 -36.65991211 18.58984375 C-31.12683586 15.40470831 -25.61694414 12.18534738 -20.13671875 8.91015625 C-19.03279785 8.254104 -17.92887695 7.59805176 -16.79150391 6.92211914 C-14.68058178 5.66555708 -12.57454372 4.40074399 -10.47412109 3.12670898 C-9.5352002 2.56927002 -8.5962793 2.01183105 -7.62890625 1.4375 C-6.80463135 0.94121094 -5.98035645 0.44492187 -5.13110352 -0.06640625 C-3 -1 -3 -1 0 0 Z " fill="#004482" transform="translate(272,935)"/>
<path d="M0 0 C1.02636063 0.00140488 1.02636063 0.00140488 2.07345581 0.00283813 C62.76811437 0.18204509 116.91135364 23.41972123 159.6484375 66.390625 C188.4375 96.0250149 188.4375 96.0250149 188.4375 106.1875 C189.0975 106.5175 189.7575 106.8475 190.4375 107.1875 C189.45740967 107.71972168 189.45740967 107.71972168 188.45751953 108.26269531 C173.52414929 116.38801149 158.64343527 124.62502711 144.02075195 133.29907227 C137.7091483 137.04097839 131.35757734 140.71182671 125 144.375 C123.89277588 145.01300537 122.78555176 145.65101074 121.64477539 146.30834961 C119.37412932 147.61639477 117.10337642 148.92425448 114.83251953 150.23193359 C109.3658002 153.38082054 103.90175113 156.53433264 98.4375 159.6875 C96.27084689 160.9375235 94.10418021 162.18752347 91.9375 163.4375 C90.865 164.05625 89.7925 164.675 88.6875 165.3125 C0.9375 215.9375 0.9375 215.9375 -2.31298828 217.81274414 C-4.47807071 219.06185518 -6.64310982 220.31104129 -8.80810547 221.56030273 C-14.24865706 224.69952309 -19.68997216 227.83740563 -25.1328125 230.97265625 C-35.58456199 236.99497329 -46.02549548 243.03419337 -56.4375 249.125 C-65.70749777 254.54671178 -75.02081752 259.88954915 -84.35095215 265.20672607 C-93.4753284 270.40795129 -102.56382774 275.66777878 -111.62939453 280.97094727 C-121.03779159 286.47281086 -130.47703673 291.92036282 -139.921875 297.359375 C-143.92059809 299.66239181 -147.91626586 301.97050925 -151.90756226 304.28636169 C-153.68681825 305.31866402 -155.46662278 306.35001434 -157.24658203 307.38110352 C-159.47779576 308.67401699 -161.70800259 309.96867029 -163.93701172 311.26538086 C-169.4010219 314.42832076 -174.87744682 317.44040596 -180.5625 320.1875 C-199.40189975 286.83507622 -208.7146285 251.80229316 -208.80273438 213.60839844 C-208.81240391 211.0875501 -208.84351638 208.56753214 -208.875 206.046875 C-208.94831253 194.80191406 -207.80387846 184.19996889 -205.5625 173.1875 C-205.36366211 172.17961426 -205.16482422 171.17172852 -204.95996094 170.13330078 C-193.36028941 114.20856863 -159.33457588 65.33299156 -111.68603516 33.95166016 C-84.51034505 16.62420539 -54.48034892 5.58015446 -22.5625 1.1875 C-20.78166016 0.9090625 -20.78166016 0.9090625 -18.96484375 0.625 C-12.67587257 -0.13890159 -6.32553124 -0.01114875 0 0 Z " fill="#659AD2" transform="translate(635.5625,506.8125)"/>
<path d="M0 0 C2.6328125 1.16015625 2.6328125 1.16015625 6.125 3.0625 C6.77750732 3.41755615 7.43001465 3.7726123 8.10229492 4.13842773 C16.34732972 8.6704168 24.44517225 13.46466417 32.55859375 18.2265625 C38.97976754 21.99430219 45.42403933 25.72104311 51.875 29.4375 C52.95434814 30.05955322 54.03369629 30.68160645 55.14575195 31.32250977 C57.33632735 32.58480624 59.52700131 33.8469317 61.71777344 35.10888672 C67.14659942 38.23680148 72.57319281 41.36858448 78 44.5 C80.16665583 45.75001879 82.3333225 47.00001878 84.5 48.25 C97.5 55.75 110.5 63.25 123.5 70.75 C124.57338623 71.3692334 125.64677246 71.9884668 126.75268555 72.62646484 C128.91049803 73.87141282 131.06821353 75.1165289 133.22583008 76.36181641 C138.77716592 79.56552651 144.33036541 82.7659363 149.88671875 85.9609375 C161.32032959 92.53921282 172.73299389 99.13939727 184 106 C183.52976523 111.17258247 180.85901372 114.58030387 177.9375 118.6875 C177.19040771 119.75315186 177.19040771 119.75315186 176.42822266 120.84033203 C148.98124344 159.67573298 111.87454692 187.40027037 67 203 C66.30632324 203.24975586 65.61264648 203.49951172 64.89794922 203.75683594 C47.65121841 209.93873647 28.57081038 213.11280961 10.26171875 213.203125 C9.34147415 213.20882507 8.42122955 213.21452515 7.47309875 213.22039795 C5.52919648 213.22980222 3.58527859 213.23636363 1.64135742 213.24023438 C-1.26608941 213.24984656 -4.17279948 213.28087498 -7.08007812 213.3125 C-24.65308355 213.41164512 -41.1779147 211.11070972 -58 206 C-59.13115234 205.66838867 -59.13115234 205.66838867 -60.28515625 205.33007812 C-109.15191899 190.85830007 -150.26272975 159.2796549 -178.6875 117.3125 C-179.21762695 116.53342285 -179.74775391 115.7543457 -180.29394531 114.95166016 C-180.77831055 114.22124512 -181.26267578 113.49083008 -181.76171875 112.73828125 C-182.19444092 112.08899658 -182.62716309 111.43971191 -183.07299805 110.77075195 C-184 109 -184 109 -184 106 C-183.2879541 105.59386475 -182.5759082 105.18772949 -181.84228516 104.76928711 C-165.60954545 95.50808466 -149.39940195 86.2092014 -133.21777344 76.85888672 C-127.81329355 73.73675395 -122.40652588 70.61858796 -117 67.5 C-114.8333225 66.25001878 -112.66665583 65.00001879 -110.5 63.75 C-71.5 41.25 -71.5 41.25 -68.24951172 39.37475586 C-66.08442929 38.12564482 -63.91939018 36.87645871 -61.75439453 35.62719727 C-56.31384294 32.48797691 -50.87252784 29.35009437 -45.4296875 26.21484375 C-33.39407851 19.27988723 -21.37436389 12.31922349 -9.38623047 5.30249023 C-7.97301514 4.47599976 -7.97301514 4.47599976 -6.53125 3.6328125 C-5.70173828 3.14699707 -4.87222656 2.66118164 -4.01757812 2.16064453 C-2.69953424 1.40241841 -1.3600431 0.68002155 0 0 Z " fill="#004482" transform="translate(640,720)"/>
<path d="M0 0 C15.51 0 31.02 0 47 0 C47 15.84 47 31.68 47 48 C62.84 48 78.68 48 95 48 C95 63.51 95 79.02 95 95 C79.16 95 63.32 95 47 95 C47 110.51 47 126.02 47 142 C31.49 142 15.98 142 0 142 C0 126.49 0 110.98 0 95 C-15.84 95 -31.68 95 -48 95 C-48 79.16 -48 63.32 -48 47 C-32.16 47 -16.32 47 0 47 C0 31.49 0 15.98 0 0 Z " fill="#FDFDFE" transform="translate(972,649)"/>
<path d="M0 0 C15.51 0 31.02 0 47 0 C47 15.51 47 31.02 47 47 C62.51 47 78.02 47 94 47 C94 62.84 94 78.68 94 95 C78.49 95 62.98 95 47 95 C47 110.51 47 126.02 47 142 C31.49 142 15.98 142 0 142 C0 126.49 0 110.98 0 95 C-15.84 95 -31.68 95 -48 95 C-48 79.49 -48 63.98 -48 48 C-32.16 48 -16.32 48 0 48 C0 32.16 0 16.32 0 0 Z " fill="#FDFEFE" transform="translate(1150,649)"/>
</svg>
