<?xml version="1.0" encoding="UTF-8"?>
<svg version="1.1" xmlns="http://www.w3.org/2000/svg" width="910" height="1024">
<path d="M0 0 C1.16789062 0.41636719 2.33578125 0.83273438 3.5390625 1.26171875 C17.13090408 6.71276258 29.66698477 14.61233509 42.27880859 21.99298096 C44.90288335 23.52825079 47.52975443 25.05872011 50.15625 26.58984375 C53.0799612 28.29530147 56.00304928 30.00178456 58.92431641 31.71142578 C66.54691759 36.16874151 74.20441948 40.56346188 81.875 44.9375 C94.20025196 51.96603507 106.49722067 59.04240434 118.78222656 66.14111328 C124.18670645 69.26324605 129.59347412 72.38141204 135 75.5 C137.1666775 76.74998122 139.33334417 77.99998121 141.5 79.25 C142.5725 79.86875 143.645 80.4875 144.75 81.125 C180.5 101.75 180.5 101.75 183.74951172 103.62475586 C185.91776264 104.8756448 188.08605697 106.12645852 190.25439453 107.37719727 C195.64717915 110.48798335 201.03922093 113.60004238 206.4296875 116.71484375 C218.23629484 123.53502637 230.06027 130.3232326 241.90472412 137.07736206 C250.94471708 142.23416608 259.94525321 147.45543769 268.92675781 152.71337891 C276.54905778 157.16916344 284.20531311 161.56397146 291.875 165.9375 C304.20025196 172.96603507 316.49722067 180.04240434 328.78222656 187.14111328 C333.10348135 189.63747397 337.4261882 192.13131235 341.74926758 194.62451172 C343.90586452 195.86874587 346.06195714 197.11385458 348.2175293 198.35986328 C353.2228058 201.25196928 358.23185418 204.13663068 363.25863647 206.99118042 C365.01799419 207.99078168 366.77581069 208.99304198 368.53320312 209.99609375 C370.72291813 211.24484688 372.91541413 212.48874267 375.11132812 213.7265625 C398.15364535 226.89782925 415.14038361 243.5183419 423.140625 269.30859375 C425.86048225 280.99161694 426.29083092 292.28921634 426.26742554 304.20875549 C426.2711682 306.02888503 426.27577216 307.84901295 426.28115618 309.66913837 C426.29332558 314.64066882 426.2931329 319.61213167 426.29076743 324.5836736 C426.29035772 329.95743974 426.3014131 335.33118466 426.31088257 340.7049408 C426.32746048 351.22226714 426.33299067 361.73957106 426.33410732 372.25690938 C426.33505936 380.81096973 426.33917744 389.36502271 426.34550858 397.91908073 C426.36311257 422.20015284 426.37234881 446.4812073 426.37084763 470.76228584 C426.37072776 472.72375684 426.37072776 472.72375684 426.37060547 474.72485352 C426.37052371 476.03410752 426.37044195 477.34336152 426.37035771 478.69228988 C426.36954515 499.90112247 426.38867752 521.10988399 426.4168822 542.31869603 C426.44564995 564.1239285 426.45942034 585.92912636 426.45769465 607.73437828 C426.45703207 619.96499919 426.46246626 632.1955456 426.48405075 644.42614937 C426.50231383 654.84102988 426.50656791 665.2558021 426.4930319 675.67069174 C426.48652799 680.97750889 426.48629135 686.28411861 426.5037384 691.59091568 C426.51958891 696.46249956 426.51648473 701.33371361 426.49917014 706.20528912 C426.49612637 707.95423709 426.49963177 709.7032135 426.51089029 711.45212788 C426.67006608 737.96503436 420.1866446 761.22517043 401.6875 780.8125 C390.4451452 791.37876817 376.51214575 798.46714071 363.19932556 806.03813171 C357.15722983 809.47472228 351.14167583 812.95667594 345.125 816.4375 C335.46622353 822.01557678 325.78439732 827.55228004 316.09527588 833.07736206 C308.03736788 837.67394223 300.00582214 842.3132416 292 847 C283.40477328 852.0318069 274.7768787 857.00389072 266.125 861.9375 C253.79974804 868.96603507 241.50277933 876.04240434 229.21777344 883.14111328 C222.72874904 886.88978034 216.2366305 890.63308667 209.74511719 894.37744141 C204.35251686 897.48818339 198.96062178 900.60013327 193.5703125 903.71484375 C181.76370516 910.53502637 169.93973 917.3232326 158.09527588 924.07736206 C150.03736788 928.67394223 142.00582214 933.3132416 134 938 C125.40477328 943.0318069 116.7768787 948.00389072 108.125 952.9375 C95.79974804 959.96603507 83.50277933 967.04240434 71.21777344 974.14111328 C67.98175371 976.01054076 64.74494423 977.87859255 61.5078125 979.74609375 C60.43313721 980.36613281 59.35846191 980.98617187 58.2512207 981.625 C56.09388596 982.8691489 53.9361745 984.11264483 51.77807617 985.35546875 C46.7751325 988.23786674 41.77617639 991.12643171 36.79293823 994.04275513 C35.05118148 995.06160218 33.30803075 996.0780227 31.56445312 997.09375 C29.39500814 998.35852764 27.22811193 999.62769297 25.06445312 1000.90234375 C1.19489256 1014.78896593 -23.63431767 1021.95556881 -50.98046875 1015.02734375 C-70.48599906 1009.66017763 -87.70607189 998.11867938 -105 988 C-107.03106419 986.81478568 -109.0623079 985.62987896 -111.09375 984.4453125 C-114.05218401 982.71980318 -117.01039893 980.99392626 -119.96777344 979.26660156 C-136.84543998 969.41163435 -153.79323706 959.67888827 -170.76739502 949.99130249 C-182.46031689 943.31733874 -194.12493608 936.59487959 -205.78222656 929.85888672 C-211.18670641 926.73675397 -216.59344718 923.61854119 -222 920.5 C-228.47766885 916.76363085 -234.95489983 913.02651653 -241.4296875 909.28515625 C-252.60449102 902.82980858 -263.79154303 896.39670656 -275 890 C-289.43125789 881.76402941 -303.8225623 873.45951132 -318.20898438 865.14550781 C-330.45658605 858.0687021 -342.71475118 851.01123553 -355 844 C-367.27957699 836.99200141 -379.53174196 829.93725374 -391.7734375 822.86328125 C-396.13070232 820.34703994 -400.49091376 817.8359264 -404.85107422 815.32470703 C-408.09245254 813.45626151 -411.33156133 811.58393244 -414.5703125 809.7109375 C-418.91093289 807.20128896 -423.26096963 804.70902757 -427.6171875 802.2265625 C-429.74490377 801.00540363 -431.8725121 799.78405667 -434 798.5625 C-434.9605127 798.01972412 -435.92102539 797.47694824 -436.91064453 796.91772461 C-443.44491304 793.1496336 -449.21469943 788.82704846 -455 784 C-455.87479004 783.3097876 -456.74958008 782.6195752 -457.65087891 781.90844727 C-469.93695435 771.92712824 -476.93854334 756.93764209 -481 742 C-481.17488374 741.36576868 -481.34976749 740.73153736 -481.52995074 740.07808691 C-483.59051624 731.41604162 -483.28432283 722.63302778 -483.26742554 713.79014587 C-483.27116536 711.93334426 -483.27576821 710.07654421 -483.28115618 708.21974665 C-483.2933607 703.13303264 -483.29312871 698.04638452 -483.29076743 692.95965922 C-483.29035861 687.46728738 -483.30140467 681.97493649 -483.31088257 676.48257446 C-483.32748007 665.72721432 -483.33299157 654.97187609 -483.33410732 644.21650421 C-483.33505849 635.47069876 -483.33917219 626.72490053 -483.34550858 617.97909737 C-483.36025408 597.20279844 -483.37255865 576.42650383 -483.37151146 555.65019894 C-483.3714803 554.98621783 -483.37144914 554.32223673 -483.37141704 553.63813499 C-483.37125084 550.27309489 -483.37105276 546.90805479 -483.37084763 543.5430147 C-483.37078779 542.54062164 -483.37078779 542.54062164 -483.37072675 541.51797822 C-483.37064587 540.16658941 -483.37056228 538.8152006 -483.37047596 537.46381178 C-483.36925111 516.44956102 -483.38425376 495.43537486 -483.41162109 474.42114258 C-483.44238456 450.78964719 -483.45952566 427.15818274 -483.45769465 403.52666384 C-483.4570315 391.02278588 -483.46249074 378.51898077 -483.48405075 366.01511955 C-483.50229311 355.36731925 -483.50658484 344.7196248 -483.4930319 334.0718156 C-483.48651744 328.64387672 -483.48632997 323.21614074 -483.5037384 317.78822136 C-483.51954171 312.80935264 -483.51653178 307.8308465 -483.49917014 302.85198624 C-483.49611614 301.06060661 -483.49967152 299.26919943 -483.51089029 297.47785234 C-483.60273953 281.75791773 -481.57635229 267.04505074 -474 253 C-473.55914062 252.16210938 -473.11828125 251.32421875 -472.6640625 250.4609375 C-468.94835911 243.83015189 -464.23397898 238.47526169 -459 233 C-458.45859375 232.38382813 -457.9171875 231.76765625 -457.359375 231.1328125 C-446.82358442 219.58601171 -430.68553048 212.74862856 -417.2265625 205.11328125 C-410.78742704 201.46011623 -404.38683537 197.74393279 -398 194 C-389.4050965 188.96764668 -380.77687312 183.9961061 -372.125 179.0625 C-363.02920013 173.87557574 -353.94287737 168.67318494 -344.875 163.4375 C-343.80894531 162.82197266 -342.74289062 162.20644531 -341.64453125 161.57226562 C-338.42942477 159.71529806 -335.21464622 157.85776421 -332 156 C-318.09571421 147.96462608 -304.1796502 139.95097002 -290.23205566 131.99102783 C-277.4635186 124.70310446 -264.72924124 117.35630831 -252 110 C-238.05155632 101.93910696 -224.08996112 93.90290574 -210.09527588 85.92263794 C-202.03736788 81.32605777 -194.00582214 76.6867584 -186 72 C-177.40477328 66.9681931 -168.7768787 61.99610928 -160.125 57.0625 C-147.80258417 50.03558224 -135.50861547 42.96057463 -123.2265625 35.86328125 C-119.96475993 33.9796495 -116.70138156 32.09877679 -113.4375 30.21875 C-111.81026001 29.28095703 -111.81026001 29.28095703 -110.15014648 28.32421875 C-107.97840436 27.07313987 -105.80604725 25.82312788 -103.63305664 24.57421875 C-98.25000488 21.4751207 -92.88810446 18.34666128 -87.55859375 15.15625 C-76.9845329 8.84340228 -66.77369618 2.76927683 -55 -1 C-54.04867188 -1.33386719 -53.09734375 -1.66773438 -52.1171875 -2.01171875 C-35.83467537 -6.80963233 -15.88228844 -5.701776 0 0 Z " fill="#390091" transform="translate(483,4)"/>
<path d="M0 0 C3.15476041 -0.00218339 6.3091684 -0.02039417 9.46386719 -0.03930664 C21.60041806 -0.07357892 33.40711119 0.48144686 45.42480469 2.18530273 C46.54113281 2.34200439 47.65746094 2.49870605 48.80761719 2.66015625 C51.72836305 3.0939373 54.63901935 3.56435202 57.54980469 4.06030273 C59.08314453 4.32073364 59.08314453 4.32073364 60.64746094 4.58642578 C69.03329498 6.04905588 77.22626108 7.88272538 85.42480469 10.18530273 C86.73819824 10.54664307 86.73819824 10.54664307 88.078125 10.9152832 C153.05420594 28.86891098 217.00842395 64.76110911 259.33105469 118.53295898 C261.56152401 121.35849755 263.89407415 124.07776965 266.23730469 126.81030273 C274.70135576 136.96716402 282.1077266 147.93754894 289.23730469 159.06030273 C289.67623047 159.73222656 290.11515625 160.40415039 290.56738281 161.09643555 C291.60218512 162.74379325 292.52456592 164.46072354 293.42480469 166.18530273 C292.16277168 169.97140176 291.04286566 170.26881029 287.62402344 172.19702148 C286.59841309 172.78169189 285.57280273 173.3663623 284.51611328 173.96875 C283.39285645 174.5970874 282.26959961 175.2254248 281.11230469 175.87280273 C279.93812689 176.53848496 278.76447006 177.20508686 277.59130859 177.87255859 C275.12385133 179.2747444 272.65365901 180.67192325 270.18115234 182.06518555 C264.79278518 185.1031167 259.42371133 188.17476429 254.05386353 191.24526978 C252.28701478 192.25511281 250.51942966 193.26365683 248.75170898 194.27197266 C241.28426602 198.53387661 233.84486254 202.84146173 226.42480469 207.18530273 C217.82957812 212.21710954 209.20169305 217.18921029 200.54980469 222.12280273 C191.16215888 227.47606556 181.78485903 232.84641545 172.42480469 238.24780273 C171.39371582 238.84262451 170.36262695 239.43744629 169.30029297 240.05029297 C168.31013184 240.62207275 167.3199707 241.19385254 166.29980469 241.78295898 C165.33945312 242.33483887 164.37910156 242.88671875 163.38964844 243.45532227 C161.28497142 244.68339715 159.19517167 245.93712823 157.11621094 247.20825195 C156.04242187 247.85938965 154.96863281 248.51052734 153.86230469 249.18139648 C152.89164063 249.78008545 151.92097656 250.37877441 150.92089844 250.99560547 C148.42480469 252.18530273 148.42480469 252.18530273 145.42480469 251.18530273 C143.98730469 249.17358398 143.98730469 249.17358398 142.42480469 246.49780273 C120.42392326 211.00365723 84.4793257 185.60293366 44.02954102 175.5925293 C41.72762259 175.06196313 39.4221532 174.55512889 37.11230469 174.06030273 C36.34080078 173.89143555 35.56929688 173.72256836 34.77441406 173.54858398 C32.65918439 173.08740945 30.54346168 172.63046411 28.42480469 172.18530273 C27.6872998 172.00660645 26.94979492 171.82791016 26.18994141 171.64379883 C22.49717973 171.0314903 18.84105546 171.00368437 15.10839844 170.98217773 C13.90127701 170.97158829 13.90127701 170.97158829 12.66976929 170.96078491 C-17.5140094 170.7563473 -44.10973561 173.78837966 -71.57519531 187.18530273 C-72.52386475 187.64525635 -72.52386475 187.64525635 -73.49169922 188.11450195 C-112.03145293 207.06509714 -142.15050069 241.62291941 -156.36035156 282.11499023 C-161.21517654 296.67367183 -164.62881497 311.4431011 -164.84863281 326.83764648 C-164.86129684 327.64653824 -164.87396088 328.45542999 -164.88700867 329.28883362 C-165.40334067 370.24652054 -156.01972592 407.32457238 -130.57519531 440.18530273 C-129.846875 441.13663086 -129.11855469 442.08795898 -128.36816406 443.06811523 C-111.56750654 464.31867664 -90.05160816 479.88707903 -65.57519531 491.18530273 C-64.43050781 491.72026367 -63.28582031 492.25522461 -62.10644531 492.80639648 C-46.27815142 499.66888877 -27.82359801 504.19684421 -10.57519531 505.18530273 C-9.72683105 505.23444824 -8.8784668 505.28359375 -8.00439453 505.33422852 C24.13234495 506.87612883 55.30062861 499.73245615 83.42480469 484.18530273 C84.48828125 483.61038086 85.55175781 483.03545898 86.64746094 482.44311523 C98.89613044 475.58386032 109.3196588 466.82236285 119.42480469 457.18530273 C120.26785156 456.40670898 121.11089844 455.62811523 121.97949219 454.82592773 C131.96077185 445.32298416 140.06788784 433.80148723 147.42480469 422.18530273 C151.05537514 422.75475713 153.67768453 423.69367575 156.81152344 425.59936523 C157.65360352 426.10516113 158.49568359 426.61095703 159.36328125 427.13208008 C160.27045898 427.68589355 161.17763672 428.23970703 162.11230469 428.81030273 C164.09979557 430.00432764 166.08811099 431.19698092 168.07714844 432.38842773 C169.11726074 433.01297852 170.15737305 433.6375293 171.22900391 434.28100586 C176.51246839 437.42928875 181.84293205 440.49494883 187.17480469 443.56030273 C188.25963135 444.18493408 189.34445801 444.80956543 190.4621582 445.453125 C192.67505 446.72706602 194.88818559 448.00058365 197.1015625 449.27368164 C211.88263646 457.77616541 226.64902565 466.30251749 241.37084961 474.90722656 C248.85253226 479.27693348 256.35443463 483.61077394 263.86230469 487.93530273 C267.06156623 489.780857 270.26043467 491.62708929 273.45898438 493.47387695 C275.37296466 494.57833874 277.28762903 495.68161628 279.203125 496.78344727 C281.63419417 498.18311232 284.06133313 499.58932656 286.48730469 500.99780273 C287.18976318 501.4003125 287.89222168 501.80282227 288.6159668 502.2175293 C293.31033377 504.95636089 293.31033377 504.95636089 294.42480469 507.18530273 C293.68725586 508.8425293 293.68725586 508.8425293 292.46777344 510.82592773 C292.01982422 511.55972656 291.571875 512.29352539 291.11035156 513.04956055 C290.61599609 513.83685547 290.12164063 514.62415039 289.61230469 515.43530273 C289.10892578 516.24580078 288.60554687 517.05629883 288.08691406 517.89135742 C280.33419384 530.24999111 271.64577003 541.88782471 262.42480469 553.18530273 C261.95800293 553.75796875 261.49120117 554.33063477 261.01025391 554.9206543 C254.0397667 563.38973688 246.52827398 571.28058365 238.79980469 579.06030273 C237.9414502 579.92792236 237.0830957 580.79554199 236.19873047 581.68945312 C230.24882084 587.61045768 223.98186361 592.95196932 217.42480469 598.18530273 C216.25117603 599.16211168 215.08011672 600.14202676 213.91308594 601.12670898 C184.77125132 625.35556993 150.90397006 643.5149735 115.30029297 656.16235352 C113.47002076 656.8134692 111.64251378 657.47245055 109.81884766 658.1418457 C86.63321407 666.65187739 62.00682687 671.92833235 37.42480469 674.18530273 C36.44825928 674.27811523 35.47171387 674.37092773 34.46557617 674.46655273 C23.19517659 675.40975288 11.91556624 675.4267237 0.61230469 675.43530273 C-0.43122162 675.43664215 -1.47474792 675.43798157 -2.54989624 675.43936157 C-17.26232878 675.43526745 -31.62259247 675.03986511 -46.16259766 672.58666992 C-48.4280313 672.20978539 -50.6923708 671.89418531 -52.96972656 671.59936523 C-76.77177717 668.34342435 -100.292444 660.94681457 -122.57519531 652.18530273 C-123.43532227 651.85030762 -124.29544922 651.5153125 -125.18164062 651.17016602 C-137.44013032 646.3507324 -149.04181494 640.53023898 -160.57519531 634.18530273 C-161.51588867 633.67531738 -161.51588867 633.67531738 -162.47558594 633.1550293 C-184.47412073 621.20984916 -204.7854788 606.13513033 -223.25488281 589.28686523 C-225.26917263 587.4624748 -227.31668145 585.69436471 -229.38769531 583.93530273 C-233.11658438 580.68389336 -236.63259994 577.23642351 -240.13769531 573.74780273 C-240.93300659 572.95937988 -240.93300659 572.95937988 -241.74438477 572.1550293 C-245.88581694 567.99764645 -249.75652324 563.63926153 -253.57519531 559.18530273 C-254.12151611 558.55100342 -254.66783691 557.9167041 -255.23071289 557.26318359 C-264.50168595 546.42372429 -272.76656961 535.11464362 -280.57519531 523.18530273 C-281.23962646 522.18297607 -281.23962646 522.18297607 -281.91748047 521.16040039 C-301.08042337 492.14727785 -316.05903086 458.91231526 -324.57519531 425.18530273 C-324.85242432 424.13850342 -324.85242432 424.13850342 -325.13525391 423.07055664 C-331.03374862 400.72260519 -335.35888262 377.34277869 -335.57519531 354.18530273 C-335.59420898 352.99211426 -335.61322266 351.79892578 -335.6328125 350.56958008 C-335.9098241 332.6755419 -335.55972038 314.99170156 -333.57519531 297.18530273 C-333.48931152 296.32098633 -333.40342773 295.45666992 -333.31494141 294.56616211 C-329.26940735 254.24795828 -315.48187646 214.8258861 -296.57519531 179.18530273 C-296.19395508 178.46536133 -295.81271484 177.74541992 -295.41992188 177.00366211 C-283.14290541 153.99291248 -268.03203601 132.57024687 -250.57519531 113.18530273 C-249.82109375 112.34660645 -249.82109375 112.34660645 -249.05175781 111.4909668 C-240.05733737 101.53204315 -230.81540609 91.87778394 -220.57519531 83.18530273 C-219.66640625 82.38737305 -218.75761719 81.58944336 -217.82128906 80.76733398 C-208.85108518 72.94700864 -199.32687673 65.99537923 -189.57519531 59.18530273 C-188.92260742 58.72736328 -188.27001953 58.26942383 -187.59765625 57.79760742 C-177.65462368 50.85976448 -167.2857315 44.8569967 -156.57519531 39.18530273 C-155.59196289 38.66371582 -155.59196289 38.66371582 -154.58886719 38.1315918 C-106.67926416 12.94833893 -54.07980167 -0.00417669 0 0 Z " fill="#FEFEFE" transform="translate(454.5751953125,172.814697265625)"/>
<path d="M0 0 C1.16789062 0.41636719 2.33578125 0.83273438 3.5390625 1.26171875 C17.13090408 6.71276258 29.66698477 14.61233509 42.27880859 21.99298096 C44.90288335 23.52825079 47.52975443 25.05872011 50.15625 26.58984375 C53.0799612 28.29530147 56.00304928 30.00178456 58.92431641 31.71142578 C66.54691759 36.16874151 74.20441948 40.56346188 81.875 44.9375 C94.20025196 51.96603507 106.49722067 59.04240434 118.78222656 66.14111328 C124.18670645 69.26324605 129.59347412 72.38141204 135 75.5 C137.1666775 76.74998122 139.33334417 77.99998121 141.5 79.25 C142.5725 79.86875 143.645 80.4875 144.75 81.125 C180.5 101.75 180.5 101.75 183.74951172 103.62475586 C185.91776264 104.8756448 188.08605697 106.12645852 190.25439453 107.37719727 C195.64717915 110.48798335 201.03922093 113.60004238 206.4296875 116.71484375 C218.23629484 123.53502637 230.06027 130.3232326 241.90472412 137.07736206 C250.94471708 142.23416608 259.94525321 147.45543769 268.92675781 152.71337891 C276.54905778 157.16916344 284.20531311 161.56397146 291.875 165.9375 C304.20025196 172.96603507 316.49722067 180.04240434 328.78222656 187.14111328 C333.10348135 189.63747397 337.4261882 192.13131235 341.74926758 194.62451172 C343.90586452 195.86874587 346.06195714 197.11385458 348.2175293 198.35986328 C353.2228058 201.25196928 358.23185418 204.13663068 363.25863647 206.99118042 C365.01799419 207.99078168 366.77581069 208.99304198 368.53320312 209.99609375 C370.72291813 211.24484688 372.91541413 212.48874267 375.11132812 213.7265625 C389.56130854 221.98634578 409.39183551 234.17550654 415 251 C414.27748047 251.41137207 413.55496094 251.82274414 412.81054688 252.24658203 C400.17548066 259.44410001 387.54829585 266.65186998 375 274 C366.40484283 279.0319249 357.77687759 284.00389135 349.125 288.9375 C336.81284227 295.95856802 324.5291162 303.02769256 312.25732422 310.11914062 C308.90339437 312.05578247 305.5476497 313.98924573 302.19140625 315.921875 C290.09303001 322.89008107 278.01464786 329.88826554 266 337 C262.79140519 333.18162699 260.18811107 329.13695424 257.625 324.875 C248.42812424 309.91479533 237.71215403 296.06527041 226 283 C225.32638428 282.24178955 225.32638428 282.24178955 224.63916016 281.46826172 C214.72035741 270.32634503 204.41476255 259.38458004 192.6875 250.12890625 C189.8531103 247.88364115 187.12002994 245.54091562 184.375 243.1875 C145.06804208 210.46547059 95.81045239 188.01096064 46 177 C45.18241211 176.81888672 44.36482422 176.63777344 43.52246094 176.45117188 C31.13365002 173.77276228 18.79857821 172.16553973 6.16210938 171.23364258 C4 171 4 171 1.65490723 170.49447632 C-0.84703266 170.02849016 -3.10105792 169.86717455 -5.640625 169.85473633 C-6.53346191 169.84835648 -7.42629883 169.84197662 -8.34619141 169.83540344 C-9.30444824 169.83429062 -10.26270508 169.8331778 -11.25 169.83203125 C-12.25853027 169.82870285 -13.26706055 169.82537445 -14.30615234 169.82194519 C-16.44791205 169.81688395 -18.58967963 169.81453662 -20.73144531 169.81469727 C-23.9330851 169.81254498 -27.13436024 169.79447714 -30.3359375 169.77539062 C-84.43260098 169.62731342 -137.27888608 183.68481715 -185 209 C-185.71994141 209.38124023 -186.43988281 209.76248047 -187.18164062 210.15527344 C-222.16111853 228.81801294 -255.45352023 254.535226 -281 285 C-281.44972168 285.53592773 -281.89944336 286.07185547 -282.36279297 286.62402344 C-295.518879 302.37384738 -307.32671302 318.70313309 -317.56347656 336.50292969 C-318.50104585 338.13268133 -319.44541563 339.758545 -320.39746094 341.37988281 C-336.10987266 368.17684901 -346.62205444 396.94971834 -354 427 C-354.23106445 427.91442871 -354.46212891 428.82885742 -354.70019531 429.77099609 C-361.02732199 454.88489161 -363.23550117 480.46880224 -363.125 506.3125 C-363.12245209 507.03354919 -363.11990417 507.75459839 -363.11727905 508.49749756 C-363.09734495 513.33195076 -363.05358017 518.16580812 -363 523 C-362.99274902 523.94311035 -362.98549805 524.8862207 -362.97802734 525.85791016 C-362.3598693 577.6050721 -343.33742359 627.63060251 -320 673 C-322.26213474 675.47490306 -324.55254003 677.02495856 -327.48046875 678.64453125 C-328.83628052 679.40117065 -328.83628052 679.40117065 -330.21948242 680.1730957 C-331.19892822 680.71409912 -332.17837402 681.25510254 -333.1875 681.8125 C-335.29247252 682.98814163 -337.39661462 684.16527112 -339.5 685.34375 C-341.12228516 686.25253906 -341.12228516 686.25253906 -342.77734375 687.1796875 C-347.77841513 690.00453509 -352.73360087 692.90595806 -357.6875 695.8125 C-366.38606344 700.90834012 -375.11723604 705.94425078 -383.875 710.9375 C-396.19470103 717.96258657 -408.48554987 725.03644721 -420.76464844 732.13232422 C-424.05223929 734.03015625 -427.34218856 735.92383871 -430.6328125 737.81640625 C-444.47856902 745.7832106 -458.26900113 753.83691909 -472 762 C-474.8773709 759.29529114 -476.0725172 756.89804024 -477.5 753.1875 C-477.9021875 752.17042969 -478.304375 751.15335938 -478.71875 750.10546875 C-482.80777027 737.79770983 -483.43493275 726.12871153 -483.38768005 713.30912781 C-483.39186018 711.44887259 -483.3973414 709.58861992 -483.40399987 707.72837192 C-483.4183842 702.65066199 -483.41423177 697.57311534 -483.40683305 692.49539673 C-483.40208623 687.00581686 -483.41462461 681.51627154 -483.42485046 676.02670288 C-483.44201436 665.28524687 -483.44288344 654.54384942 -483.43763756 643.80238327 C-483.43359002 635.06811228 -483.43504635 626.33385856 -483.44038582 617.59958839 C-483.44113424 616.35470562 -483.44188266 615.10982285 -483.44265376 613.82721636 C-483.4441853 611.29792826 -483.44572365 608.76864017 -483.44726873 606.23935208 C-483.45709172 589.26679068 -483.46126736 572.29423635 -483.45364285 555.32167339 C-483.45334567 554.65875635 -483.4530485 553.99583931 -483.45274232 553.31283388 C-483.45029369 547.9303835 -483.44768195 542.54793319 -483.44505819 537.16548289 C-483.43495855 516.1774302 -483.4433093 495.18945755 -483.46655273 474.20141602 C-483.49266069 450.58893189 -483.50541428 426.97648393 -483.49836498 403.3639825 C-483.49487673 390.87358256 -483.49707883 378.3832483 -483.51461601 365.89285851 C-483.52936079 355.25978858 -483.52994368 344.6268306 -483.5125451 333.99376281 C-483.50405141 328.5739012 -483.50184568 323.15423938 -483.51719666 317.73438835 C-483.53110233 312.7630743 -483.52620541 307.7921301 -483.50695742 302.82083712 C-483.50321506 301.03227153 -483.50606783 299.24367589 -483.51656907 297.45513722 C-483.60217306 281.74550276 -481.57109127 267.03529786 -474 253 C-473.55914062 252.16210938 -473.11828125 251.32421875 -472.6640625 250.4609375 C-468.94835911 243.83015189 -464.23397898 238.47526169 -459 233 C-458.45859375 232.38382813 -457.9171875 231.76765625 -457.359375 231.1328125 C-446.82358442 219.58601171 -430.68553048 212.74862856 -417.2265625 205.11328125 C-410.78742704 201.46011623 -404.38683537 197.74393279 -398 194 C-389.4050965 188.96764668 -380.77687312 183.9961061 -372.125 179.0625 C-363.02920013 173.87557574 -353.94287737 168.67318494 -344.875 163.4375 C-343.80894531 162.82197266 -342.74289062 162.20644531 -341.64453125 161.57226562 C-338.42942477 159.71529806 -335.21464622 157.85776421 -332 156 C-318.09571421 147.96462608 -304.1796502 139.95097002 -290.23205566 131.99102783 C-277.4635186 124.70310446 -264.72924124 117.35630831 -252 110 C-238.05155632 101.93910696 -224.08996112 93.90290574 -210.09527588 85.92263794 C-202.03736788 81.32605777 -194.00582214 76.6867584 -186 72 C-177.40477328 66.9681931 -168.7768787 61.99610928 -160.125 57.0625 C-147.80258417 50.03558224 -135.50861547 42.96057463 -123.2265625 35.86328125 C-119.96475993 33.9796495 -116.70138156 32.09877679 -113.4375 30.21875 C-111.81026001 29.28095703 -111.81026001 29.28095703 -110.15014648 28.32421875 C-107.97840436 27.07313987 -105.80604725 25.82312788 -103.63305664 24.57421875 C-98.25000488 21.4751207 -92.88810446 18.34666128 -87.55859375 15.15625 C-76.9845329 8.84340228 -66.77369618 2.76927683 -55 -1 C-54.04867188 -1.33386719 -53.09734375 -1.66773438 -52.1171875 -2.01171875 C-35.83467537 -6.80963233 -15.88228844 -5.701776 0 0 Z " fill="#A179DC" transform="translate(483,4)"/>
<path d="M0 0 C1.58337653 2.51513271 3.05474691 5.03172094 4.5 7.625 C9.1906948 15.81320265 14.33740476 23.45949195 20 31 C20.40718262 31.5460791 20.81436523 32.0921582 21.23388672 32.65478516 C48.82851 69.5534266 82.78000346 101.24891378 123 124 C123.78503906 124.45052734 124.57007813 124.90105469 125.37890625 125.36523438 C176.37486678 154.52246677 232.97865028 169.48013533 291.625 169.4375 C292.59902771 169.43781219 293.57305542 169.43812439 294.57659912 169.43844604 C307.82468078 169.40606116 320.84713878 168.55921924 334 167 C335.0219043 166.88519287 336.04380859 166.77038574 337.09667969 166.65209961 C375.04104731 162.21093436 412.00955422 150.34133347 446 133 C446.87140625 132.56010742 447.7428125 132.12021484 448.640625 131.66699219 C467.92122985 121.82708228 486.1943889 109.63201931 503 96 C503.91136719 95.27941406 504.82273437 94.55882812 505.76171875 93.81640625 C522.60452921 80.33735252 538.74731011 65.02569769 552 48 C552.93739296 46.84934846 553.87768676 45.70105623 554.8203125 44.5546875 C564.66862926 32.52898934 573.5017362 19.9581007 581.24609375 6.4765625 C583.11278151 3.84074949 583.96556979 2.97035337 587 2 C589.24462891 2.82006836 589.24462891 2.82006836 591.7265625 4.33984375 C592.66242187 4.90058594 593.59828125 5.46132813 594.5625 6.0390625 C595.573125 6.66554688 596.58375 7.29203125 597.625 7.9375 C599.8040745 9.2497164 601.98378371 10.56087927 604.1640625 11.87109375 C605.29231445 12.5554248 606.42056641 13.23975586 607.58300781 13.94482422 C613.00999326 17.20892564 618.50555511 20.35126998 624 23.5 C633.3399244 28.8768799 642.6564184 34.29260336 651.9609375 39.73046875 C659.29283806 44.0122217 666.64274377 48.26198442 674 52.5 C693.74066698 63.87483207 713.40038726 75.38390056 733 87 C732.31668589 94.50543399 727.84832538 98.57146519 723 104 C722.44054687 104.64324219 721.88109375 105.28648437 721.3046875 105.94921875 C710.72183258 117.35636639 695.52751918 124.45831076 682.19929504 132.03816223 C676.15719187 135.47471156 670.14166368 138.95668296 664.125 142.4375 C654.46622353 148.01557678 644.78439732 153.55228004 635.09527588 159.07736206 C627.03736788 163.67394223 619.00582214 168.3132416 611 173 C602.40477328 178.0318069 593.7768787 183.00389072 585.125 187.9375 C572.79974804 194.96603507 560.50277933 202.04240434 548.21777344 209.14111328 C541.72874904 212.88978034 535.2366305 216.63308667 528.74511719 220.37744141 C523.35251686 223.48818339 517.96062178 226.60013327 512.5703125 229.71484375 C500.76370516 236.53502637 488.93973 243.3232326 477.09527588 250.07736206 C469.03736788 254.67394223 461.00582214 259.3132416 453 264 C444.40477328 269.0318069 435.7768787 274.00389072 427.125 278.9375 C414.79974804 285.96603507 402.50277933 293.04240434 390.21777344 300.14111328 C386.98175371 302.01054076 383.74494423 303.87859255 380.5078125 305.74609375 C379.43313721 306.36613281 378.35846191 306.98617188 377.2512207 307.625 C375.09388596 308.8691489 372.9361745 310.11264483 370.77807617 311.35546875 C365.7751325 314.23786674 360.77617639 317.12643171 355.79293823 320.04275513 C354.05118148 321.06160218 352.30803075 322.0780227 350.56445312 323.09375 C348.39500814 324.35852764 346.22811193 325.62769297 344.06445312 326.90234375 C320.19489256 340.78896593 295.36568233 347.95556881 268.01953125 341.02734375 C248.51400094 335.66017763 231.29392811 324.11867938 214 314 C211.96893581 312.81478568 209.9376921 311.62987896 207.90625 310.4453125 C204.94781599 308.71980318 201.98960107 306.99392626 199.03222656 305.26660156 C182.15456002 295.41163435 165.20676294 285.67888827 148.23260498 275.99130249 C136.53968311 269.31733874 124.87506392 262.59487959 113.21777344 255.85888672 C107.81329359 252.73675397 102.40655282 249.61854119 97 246.5 C90.52233115 242.76363085 84.04510017 239.02651653 77.5703125 235.28515625 C66.39550898 228.82980858 55.20845697 222.39670656 44 216 C29.56874211 207.76402941 15.1774377 199.45951132 0.79101562 191.14550781 C-11.45658605 184.0687021 -23.71475118 177.01123553 -36 170 C-48.27957699 162.99200141 -60.53174196 155.93725374 -72.7734375 148.86328125 C-77.13070232 146.34703994 -81.49091376 143.8359264 -85.85107422 141.32470703 C-89.09245254 139.45626151 -92.33156133 137.58393244 -95.5703125 135.7109375 C-99.91093289 133.20128896 -104.26096963 130.70902757 -108.6171875 128.2265625 C-110.74490377 127.00540363 -112.8725121 125.78405667 -115 124.5625 C-115.9605127 124.01972412 -116.92102539 123.47694824 -117.91064453 122.91772461 C-124.44491304 119.1496336 -130.21469943 114.82704846 -136 110 C-136.87188965 109.31486328 -137.7437793 108.62972656 -138.64208984 107.92382812 C-141.35915267 105.70696593 -143.42376932 103.28945416 -145.625 100.5625 C-146.75808594 99.17224609 -146.75808594 99.17224609 -147.9140625 97.75390625 C-153.05747268 90.96344898 -153.05747268 90.96344898 -152.88330078 88.04370117 C-151.60634262 85.08919127 -149.84308835 84.40963082 -147.03125 82.8984375 C-145.47579468 82.0477771 -145.47579468 82.0477771 -143.88891602 81.17993164 C-142.77057373 80.5843042 -141.65223145 79.98867676 -140.5 79.375 C-138.18543236 78.11207911 -135.87163069 76.84775343 -133.55859375 75.58203125 C-132.42663574 74.96666504 -131.29467773 74.35129883 -130.12841797 73.71728516 C-126.2258607 71.57505105 -122.38507096 69.34353181 -118.5625 67.0625 C-101.85819092 57.14901232 -84.97103691 47.54610597 -68.0977478 37.92401123 C-59.07460666 32.77684101 -50.09058191 27.56577392 -41.12597656 22.31738281 C-32.9864338 17.55909064 -24.81158932 12.86420195 -16.625 8.1875 C-16.00383301 7.83244385 -15.38266602 7.4773877 -14.74267578 7.11157227 C-2.29700979 0 -2.29700979 0 0 0 Z " fill="#280068" transform="translate(164,678)"/>
<path d="M0 0 C2.47474085 -0.00437362 4.94769068 -0.04087316 7.42211914 -0.07861328 C19.11912442 -0.15912464 29.8414685 1.56036703 41.17407227 4.37060547 C42.21756836 4.61464111 43.26106445 4.85867676 44.33618164 5.11010742 C63.39255171 9.65905988 82.39398527 18.88286802 98.17407227 30.37060547 C98.70145996 30.74991211 99.22884766 31.12921875 99.7722168 31.52001953 C117.86592982 44.65677018 134.63945976 61.48007836 145.17407227 81.37060547 C145.17407227 82.03060547 145.17407227 82.69060547 145.17407227 83.37060547 C144.46202637 83.77674072 143.74998047 84.18287598 143.01635742 84.60131836 C126.78361771 93.86252081 110.57347421 103.16140407 94.3918457 112.51171875 C88.98736581 115.63385152 83.58059814 118.75201751 78.17407227 121.87060547 C76.00739476 123.12058668 73.84072809 124.37058668 71.67407227 125.62060547 C67.34073893 128.12060547 63.0074056 130.62060547 58.67407227 133.12060547 C57.6017334 133.7392749 56.52939453 134.35794434 55.42456055 134.99536133 C53.25630962 136.24625027 51.0880153 137.49706398 48.91967773 138.74780273 C43.52689311 141.85858882 38.13485134 144.97064785 32.74438477 148.08544922 C21.5695801 154.54079755 10.38242366 160.97371286 -0.82592773 167.37060547 C-18.16530274 177.26764721 -35.46673058 187.22888445 -52.70092773 197.30810547 C-61.33880094 202.35889564 -70.00912324 207.3508485 -78.70092773 212.30810547 C-87.83668534 217.51874189 -96.9653301 222.74101932 -106.07592773 227.99560547 C-107.65446533 228.90536133 -107.65446533 228.90536133 -109.26489258 229.83349609 C-114.76226343 233.00678209 -120.24699444 236.20041386 -125.71655273 239.42138672 C-127.38089355 240.39954346 -127.38089355 240.39954346 -129.07885742 241.39746094 C-131.20158375 242.6465178 -133.32212611 243.89929563 -135.44018555 245.15625 C-136.85315918 245.98745361 -136.85315918 245.98745361 -138.29467773 246.83544922 C-139.53894531 247.57202759 -139.53894531 247.57202759 -140.80834961 248.32348633 C-142.82592773 249.37060547 -142.82592773 249.37060547 -144.82592773 249.37060547 C-145.15592773 250.03060547 -145.48592773 250.69060547 -145.82592773 251.37060547 C-152.73474151 237.71812052 -158.67556225 224.11644326 -162.82592773 209.37060547 C-163.05038574 208.60538574 -163.27484375 207.84016602 -163.50610352 207.05175781 C-167.09792148 194.27503006 -167.21264916 181.35658362 -167.26342773 168.18310547 C-167.26978241 167.33855804 -167.27613708 166.49401062 -167.28268433 165.62387085 C-167.35501874 150.14487064 -165.7588779 135.06313017 -161.07592773 120.24560547 C-160.8198877 119.41778564 -160.56384766 118.58996582 -160.30004883 117.73706055 C-157.72993052 109.67116484 -154.53487448 101.9744356 -150.82592773 94.37060547 C-150.51929199 93.73815918 -150.21265625 93.10571289 -149.89672852 92.45410156 C-145.11820295 82.7360322 -139.40186202 73.96242369 -132.82592773 65.37060547 C-132.10663086 64.42572266 -131.38733398 63.48083984 -130.64624023 62.50732422 C-108.91427346 35.00404759 -78.44671034 15.12525914 -44.82592773 5.37060547 C-43.82561523 5.07541016 -42.82530273 4.78021484 -41.79467773 4.47607422 C-28.09776598 0.73887921 -14.11920318 -0.00277527 0 0 Z " fill="#A179DB" transform="translate(455.825927734375,342.62939453125)"/>
<path d="M0 0 C2.65527344 1.25244141 2.65527344 1.25244141 5.359375 2.8515625 C6.88908936 3.74597046 6.88908936 3.74597046 8.44970703 4.65844727 C9.53880371 5.30740967 10.62790039 5.95637207 11.75 6.625 C12.90551279 7.30428217 14.06161137 7.98256873 15.21826172 8.65991211 C17.62074891 10.06781594 20.02066241 11.47996691 22.41894531 12.89501953 C27.96272213 16.16057039 33.54658088 19.35663803 39.125 22.5625 C48.4219768 27.9210001 57.69689727 33.31634829 66.96142578 38.73071289 C74.2931253 43.01244947 81.64287304 47.26212437 89 51.5 C107.05670596 61.90306822 125.04939219 72.41499485 143 83 C132.24810459 113.5106142 97.00330302 138.71543872 69.328125 152.046875 C28.10546599 171.15191863 -18.01635833 173.30607362 -60.82080078 157.99072266 C-72.55974193 153.48876545 -83.53515994 147.95491204 -94 141 C-94.8664917 140.43442383 -94.8664917 140.43442383 -95.75048828 139.85742188 C-105.78347506 133.25258179 -114.43855436 125.39437545 -123 117 C-123.90238403 116.12504883 -123.90238403 116.12504883 -124.82299805 115.23242188 C-134.02183894 106.20854881 -142.02956753 95.44054936 -148 84 C-148 83.01 -148 82.02 -148 81 C-147.2879541 80.59386475 -146.5759082 80.18772949 -145.84228516 79.76928711 C-128.53359871 69.89422891 -111.25365115 59.97099316 -94 50 C-81.23243142 42.62154208 -68.45905523 35.25432842 -55.64929199 27.94937134 C-46.03381243 22.46570337 -36.43651571 16.95242604 -26.875 11.375 C-25.92222168 10.8193335 -24.96944336 10.26366699 -23.98779297 9.69116211 C-23.08174316 9.16143799 -22.17569336 8.63171387 -21.2421875 8.0859375 C-20.37045898 7.58030273 -19.49873047 7.07466797 -18.60058594 6.55371094 C-16.81436331 5.4865385 -15.0525883 4.37769068 -13.31347656 3.23535156 C-12.44948242 2.67557617 -11.58548828 2.11580078 -10.6953125 1.5390625 C-9.93492676 1.02811035 -9.17454102 0.5171582 -8.39111328 -0.00927734 C-5.15789155 -1.34891526 -3.3481329 -0.92128749 0 0 Z " fill="#280068" transform="translate(459,511)"/>
<path d="M0 0 C7.92 0 15.84 0 24 0 C24 15.84 24 31.68 24 48 C39.51 48 55.02 48 71 48 C71 32.16 71 16.32 71 0 C79.25 0 87.5 0 96 0 C96 15.84 96 31.68 96 48 C111.84 48 127.68 48 144 48 C144 55.92 144 63.84 144 72 C128.16 72 112.32 72 96 72 C96 87.84 96 103.68 96 120 C111.51 120 127.02 120 143 120 C143 127.92 143 135.84 143 144 C127.49 144 111.98 144 96 144 C96 159.84 96 175.68 96 192 C88.08 192 80.16 192 72 192 C72 176.16 72 160.32 72 144 C56.16 144 40.32 144 24 144 C24 159.84 24 175.68 24 192 C16.08 192 8.16 192 0 192 C0 176.16 0 160.32 0 144 C-15.84 144 -31.68 144 -48 144 C-48 136.08 -48 128.16 -48 120 C-32.16 120 -16.32 120 0 120 C0 104.16 0 88.32 0 72 C-15.84 72 -31.68 72 -48 72 C-48 64.08 -48 56.16 -48 48 C-32.16 48 -16.32 48 0 48 C0 32.16 0 16.32 0 0 Z " fill="#FCFBFD" transform="translate(694,413)"/>
<path d="M0 0 C15.84 0 31.68 0 48 0 C48 15.84 48 31.68 48 48 C32.16 48 16.32 48 0 48 C0 32.16 0 16.32 0 0 Z " fill="#3B0392" transform="translate(718,485)"/>
</svg>
