<?xml version="1.0" encoding="UTF-8"?>
<svg version="1.1" xmlns="http://www.w3.org/2000/svg" width="225" height="225">
<path d="M0 0 C7.92 0 15.84 0 24 0 C25.25282725 3.75848174 25.12381835 7.25490919 25.09765625 11.16796875 C25.09553383 12.36018791 25.09553383 12.36018791 25.09336853 13.57649231 C25.08777378 16.11353325 25.07522228 18.65048575 25.0625 21.1875 C25.05748432 22.90820185 25.05292153 24.62890508 25.04882812 26.34960938 C25.03865722 30.56646769 25.01908084 34.78313491 25 39 C31.27 39 37.54 39 44 39 C44.74985062 43.49910373 45.13535874 47.25430641 45.125 51.75 C45.12757813 52.87921875 45.13015625 54.0084375 45.1328125 55.171875 C45 58 45 58 44 60 C47.37609596 59.72023292 50.75056245 59.4240573 54.125 59.125 C55.07632813 59.04636719 56.02765625 58.96773437 57.0078125 58.88671875 C61.94633821 58.44087962 66.35191009 57.86236599 71 56 C70.53761754 53.14864152 70.07413816 50.31794824 69.41796875 47.50390625 C67.61306213 39.29449228 68.02483268 32.52829451 71.8125 24.9375 C74 22 74 22 76.375 20.6875 C80.00189704 21.11927346 81.41759243 22.86349223 83.86328125 25.45703125 C85 27 85 27 85 29 C85.66 29 86.32 29 87 29 C87.6509259 30.24735567 88.29551669 31.49801832 88.9375 32.75 C89.29714844 33.44609375 89.65679687 34.1421875 90.02734375 34.859375 C90.95558182 36.90224433 91.53166578 38.81115376 92 41 C92.88300781 40.95359375 93.76601562 40.9071875 94.67578125 40.859375 C102.49955938 40.6240734 110.16639826 40.70080201 117 45 C117.79296875 47.140625 117.79296875 47.140625 118 49 C117.34 49 116.68 49 116 49 C116 49.99 116 50.98 116 52 C115.34 52 114.68 52 114 52 C113.731875 52.598125 113.46375 53.19625 113.1875 53.8125 C111.99012525 56.01819033 110.95521016 57.43583187 109 59 C108.01 59 107.02 59 106 59 C106 59.66 106 60.32 106 61 C99.66692592 62.85102717 93.57534861 64.37968409 87 65 C86.67 66.65 86.34 68.3 86 70 C85.34 70 84.68 70 84 70 C83.34 71.65 82.68 73.3 82 75 C88.94989552 75.51480708 93.69234563 73.78970859 100 71 C100.99 70.67 101.98 70.34 103 70 C103 70.99 103 71.98 103 73 C103.66 73 104.32 73 105 73 C105 73.66 105 74.32 105 75 C106.0725 75.28875 107.145 75.5775 108.25 75.875 C111.1200153 76.73600459 113.38744547 77.62436288 116 79 C108.50297498 79.9181738 101.11097608 80.1528713 93.5625 80.125 C92.48806641 80.12886719 91.41363281 80.13273437 90.30664062 80.13671875 C89.27861328 80.13542969 88.25058594 80.13414062 87.19140625 80.1328125 C86.26529541 80.13168457 85.33918457 80.13055664 84.38500977 80.12939453 C82 80 82 80 79 79 C78.72027344 79.57621094 78.44054687 80.15242188 78.15234375 80.74609375 C71.08861216 94.56227384 59.7628545 103.75128012 47 112 C46.01 112.66 45.02 113.32 44 114 C43.01 114 42.02 114 41 114 C40.67 114.66 40.34 115.32 40 116 C37.59151462 117.07543066 35.22279995 118.03387907 32.75 118.9375 C32.02345215 119.20401367 31.2969043 119.47052734 30.54833984 119.74511719 C9.62219639 127.23872192 -19.80515217 131.93814112 -40.75 122.6875 C-42.50994225 121.81136039 -44.26057009 120.91618827 -46 120 C-46.79277344 119.60683594 -47.58554687 119.21367187 -48.40234375 118.80859375 C-53.86232051 115.98060579 -58.80653873 112.53625102 -63 108 C-63 107.34 -63 106.68 -63 106 C-63.66 106 -64.32 106 -65 106 C-71.4053871 98.86887939 -76 89.68327918 -76 80 C-76.84594727 80.00785522 -76.84594727 80.00785522 -77.70898438 80.01586914 C-80.30597789 80.03687267 -82.90295344 80.04973362 -85.5 80.0625 C-86.386875 80.07087891 -87.27375 80.07925781 -88.1875 80.08789062 C-93.55823086 80.10763596 -98.68633663 79.78835893 -104 79 C-101.97833874 77.97781172 -99.95415114 76.97898948 -97.89453125 76.03515625 C-97.20746094 75.71417969 -96.52039063 75.39320312 -95.8125 75.0625 C-95.11769531 74.74410156 -94.42289063 74.42570312 -93.70703125 74.09765625 C-91.66365617 73.03583404 -91.66365617 73.03583404 -91 70 C-90.44828125 70.29648438 -89.8965625 70.59296875 -89.328125 70.8984375 C-86.83876712 72.07628804 -84.3939116 72.85965717 -81.75 73.625 C-80.41195312 74.01558594 -80.41195312 74.01558594 -79.046875 74.4140625 C-78.37140625 74.60742188 -77.6959375 74.80078125 -77 75 C-77.185625 74.01 -77.37125 73.02 -77.5625 72 C-78 68 -78 68 -77 60 C-68.585 59.505 -68.585 59.505 -60 59 C-60.33 52.73 -60.66 46.46 -61 40 C-50.605 39.505 -50.605 39.505 -40 39 C-40 32.73 -40 26.46 -40 20 C-26.8 20 -13.6 20 0 20 C-0.495 19.01 -0.495 19.01 -1 18 C-1.09756755 15.71003214 -1.12976516 13.41704047 -1.125 11.125 C-1.12757812 9.89007813 -1.13015625 8.65515625 -1.1328125 7.3828125 C-1 4 -1 4 0 0 Z " fill="#19576D" transform="translate(106,49)"/>
<path d="M0 0 C1.485 0.99 1.485 0.99 3 2 C3.33 1.34 3.66 0.68 4 0 C19.59424215 -0.02334753 35.18847959 -0.04098831 50.78273487 -0.05181217 C58.02321265 -0.05697118 65.26367958 -0.06400638 72.50415039 -0.07543945 C78.81402696 -0.08539833 85.12389568 -0.09185631 91.4337799 -0.09408849 C94.77562952 -0.09539355 98.11745666 -0.09846648 101.45929909 -0.10573006 C105.18747942 -0.11295406 108.91561266 -0.11399036 112.64379883 -0.11352539 C114.31075302 -0.1189183 114.31075302 -0.1189183 116.01138306 -0.12442017 C117.02520554 -0.1230455 118.03902802 -0.12167084 119.08357239 -0.12025452 C119.96572827 -0.12117631 120.84788416 -0.1220981 121.75677204 -0.12304783 C124 0 124 0 127 1 C127.33 0.67 127.66 0.34 128 0 C130.18639453 -0.07258946 132.37500389 -0.08373783 134.5625 -0.0625 C136.35880859 -0.04896484 136.35880859 -0.04896484 138.19140625 -0.03515625 C139.11824219 -0.02355469 140.04507813 -0.01195312 141 0 C140.52949219 0.73605469 140.05898437 1.47210938 139.57421875 2.23046875 C138.95160156 3.20628906 138.32898438 4.18210938 137.6875 5.1875 C137.07261719 6.15042969 136.45773438 7.11335937 135.82421875 8.10546875 C134.66084404 9.95142306 133.52248262 11.81354813 132.41796875 13.6953125 C129.53540973 18.38046353 126.26125272 21.34646343 121 23 C121 23.66 121 24.32 121 25 C116.3238355 29.07531654 111.35009445 30.65492397 105.296875 31.4453125 C102.61315666 32.09342135 101.14439252 33.30464694 99 35 C98.34 35 97.68 35 97 35 C97 35.66 97 36.32 97 37 C80.48647012 46.30457775 55.06366449 44.79827548 37 42 C37 42.66 37 43.32 37 44 C32.52368395 45.49210535 30.03525244 43.4298367 25.91796875 41.4609375 C19.35002161 38.17256771 13.48517001 34.92258847 8 30 C8.99 30 9.98 30 11 30 C11 27.23776722 9.68574837 26.10718546 8 24 C9.92199219 23.94392578 9.92199219 23.94392578 11.8828125 23.88671875 C22.26081733 23.51578851 31.91974141 22.65357801 42 20 C39.78198115 18.62098502 39.78198115 18.62098502 36.22265625 19.9296875 C29.98211664 21.4176142 23.81879561 21.2168172 17.4375 21.125 C15.63829102 21.11146484 15.63829102 21.11146484 13.80273438 21.09765625 C10.86827691 21.07427412 7.93424766 21.0415028 5 21 C3.30349167 16.01039207 1.66704446 11.03316726 0.3125 5.9375 C0.06113281 4.99777344 -0.19023438 4.05804688 -0.44921875 3.08984375 C-0.63097656 2.40019531 -0.81273437 1.71054688 -1 1 C-0.67 0.67 -0.34 0.34 0 0 Z " fill="#0295C0" transform="translate(37,129)"/>
<path d="M0 0 C3.09010211 1.35108361 4.96910153 2.79017933 7.125 5.375 C7.62257812 5.96023437 8.12015625 6.54546875 8.6328125 7.1484375 C12.15608322 11.9199527 12.19336868 15.19893973 12 21 C13.28197266 20.51273438 13.28197266 20.51273438 14.58984375 20.015625 C18.10052131 18.97006238 20.91165561 18.7327587 24.5625 18.75 C25.65691406 18.74484375 26.75132812 18.7396875 27.87890625 18.734375 C30.98086614 18.99837159 33.19776037 19.68498252 36 21 C35.52018228 25.31835944 33.25012912 27.29155907 30 30 C22.96707767 34.52744375 16.16128783 34.45410566 8 34 C7.6596875 35.4540625 7.6596875 35.4540625 7.3125 36.9375 C5.97765027 41.69229318 3.50824121 45.77811307 1 50 C-0.051875 49.67 -1.10375 49.34 -2.1875 49 C-7.05287527 47.72383599 -9.47689563 47.25115665 -14.04296875 49.49609375 C-18.59118677 51.48704983 -22.91034803 51.45350093 -27.8125 51.375 C-29.13991211 51.36412354 -29.13991211 51.36412354 -30.49414062 51.35302734 C-37.56537743 51.203213 -43.85957549 50.32850689 -50.09765625 46.8203125 C-50.72542969 46.54960938 -51.35320312 46.27890625 -52 46 C-54.52066803 47.22851628 -54.52066803 47.22851628 -57 49 C-63.38957755 52.14914894 -71.04401927 52.06938921 -78 51 C-82.31368837 49.43963323 -86.13462117 47.45978653 -90 45 C-90 45.66 -90 46.32 -90 47 C-97.77419782 49.59139927 -104.02280238 51.20510397 -112.25 51.25 C-113.17941406 51.270625 -114.10882813 51.29125 -115.06640625 51.3125 C-120.86653766 51.34531545 -124.85182886 50.69666107 -130 48 C-130.66 47.67 -131.32 47.34 -132 47 C-133.90163222 47.73396331 -135.80226588 48.4707307 -137.6953125 49.2265625 C-141.35614476 50.45511299 -145.13970281 50.96621184 -149 51 C-150 50 -150 50 -150.09765625 47.27734375 C-150.08605469 46.17519531 -150.07445312 45.07304688 -150.0625 43.9375 C-150.05347656 42.83277344 -150.04445312 41.72804687 -150.03515625 40.58984375 C-150.02355469 39.73519531 -150.01195312 38.88054687 -150 38 C-149.30831034 37.99761165 -148.61662067 37.99522329 -147.90397072 37.99276257 C-131.04305051 37.93352521 -114.18229023 37.85791954 -97.32152748 37.76428509 C-89.1676526 37.71939465 -81.01382073 37.67996456 -72.85986328 37.65356445 C-65.74961593 37.63052953 -58.63950549 37.59707054 -51.52936685 37.55129844 C-47.76753955 37.52743997 -44.00584721 37.50866306 -40.24394608 37.50238609 C-36.69636403 37.49630159 -33.14912699 37.47618196 -29.60167313 37.44572449 C-27.69280269 37.43286596 -25.78385142 37.43450496 -23.87493896 37.4367218 C-14.12392117 37.33115001 -5.86518598 36.00237877 2 30 C1.6390625 29.57332031 1.278125 29.14664063 0.90625 28.70703125 C-3.75087084 22.43285456 -3.88915766 16.61341244 -3 9 C-2.22931329 5.8209173 -1.2373553 3.04183178 0 0 Z " fill="#44AFD4" transform="translate(182,75)"/>
<path d="M0 0 C3.6623017 0.20346121 4.99414338 0.99492426 7.8125 3.4375 C10 6 10 6 10 8 C10.66 8 11.32 8 12 8 C12.6509259 9.24735567 13.29551669 10.49801832 13.9375 11.75 C14.47697266 12.79414062 14.47697266 12.79414062 15.02734375 13.859375 C15.95558182 15.90224433 16.53166578 17.81115376 17 20 C18.32451172 19.93039063 18.32451172 19.93039063 19.67578125 19.859375 C27.49955938 19.6240734 35.16639826 19.70080201 42 24 C42.79296875 26.140625 42.79296875 26.140625 43 28 C42.34 28 41.68 28 41 28 C41 28.99 41 29.98 41 31 C40.34 31 39.68 31 39 31 C38.731875 31.598125 38.46375 32.19625 38.1875 32.8125 C36.99012525 35.01819033 35.95521016 36.43583187 34 38 C33.01 38 32.02 38 31 38 C31 38.66 31 39.32 31 40 C24.66692592 41.85102717 18.57534861 43.37968409 12 44 C11.67 45.65 11.34 47.3 11 49 C10.34 49 9.68 49 9 49 C8.34 50.65 7.68 52.3 7 54 C13.94989552 54.51480708 18.69234563 52.78970859 25 50 C25.99 49.67 26.98 49.34 28 49 C28 49.99 28 50.98 28 52 C28.66 52 29.32 52 30 52 C30 52.66 30 53.32 30 54 C31.0725 54.28875 32.145 54.5775 33.25 54.875 C36.1200153 55.73600459 38.38744547 56.62436288 41 58 C33.50297498 58.9181738 26.11097608 59.1528713 18.5625 59.125 C17.48806641 59.12886719 16.41363281 59.13273437 15.30664062 59.13671875 C14.27861328 59.13542969 13.25058594 59.13414062 12.19140625 59.1328125 C11.26529541 59.13168457 10.33918457 59.13055664 9.38500977 59.12939453 C7 59 7 59 4 58 C3.58041016 58.86431641 3.58041016 58.86431641 3.15234375 59.74609375 C-3.91138784 73.56227384 -15.2371455 82.75128012 -28 91 C-28.99 91.66 -29.98 92.32 -31 93 C-31.99 93 -32.98 93 -34 93 C-34.33 93.66 -34.66 94.32 -35 95 C-37.40848538 96.07543066 -39.77720005 97.03387907 -42.25 97.9375 C-42.97654785 98.20401367 -43.7030957 98.47052734 -44.45166016 98.74511719 C-63.48354322 105.56039155 -87.1790295 109.2234087 -107 104 C-107 103.01 -107 102.02 -107 101 C-105.94312988 101.02094727 -104.88625977 101.04189453 -103.79736328 101.06347656 C-99.7828591 101.13723642 -95.76841106 101.18228026 -91.75341797 101.21972656 C-90.03326265 101.23953887 -88.31317176 101.26659668 -86.59326172 101.30175781 C-74.14642682 101.54938355 -63.02947665 100.20245272 -51 97 C-49.6671852 96.66459933 -48.3339802 96.3307351 -47 96 C-47 95.34 -47 94.68 -47 94 C-43.12546693 91.52689378 -39.97077247 89.84518639 -35.4375 89 C-31.09595348 88.18503393 -28.5397068 86.59002936 -25 84 C-24.34 84 -23.68 84 -23 84 C-23 83.34 -23 82.68 -23 82 C-21.5390625 80.7109375 -21.5390625 80.7109375 -19.625 79.375 C-18.99851563 78.92898437 -18.37203125 78.48296875 -17.7265625 78.0234375 C-16 77 -16 77 -14 77 C-13.75507813 76.13117188 -13.51015625 75.26234375 -13.2578125 74.3671875 C-11.90612167 70.74868597 -10.19875901 68.1983587 -7.875 65.125 C-7.15054688 64.15820312 -6.42609375 63.19140625 -5.6796875 62.1953125 C-5.12539062 61.47085938 -4.57109375 60.74640625 -4 60 C-5.95825873 59.97305149 -7.91662226 59.95362782 -9.875 59.9375 C-10.96554688 59.92589844 -12.05609375 59.91429687 -13.1796875 59.90234375 C-15.95177546 59.80255697 -15.95177546 59.80255697 -18 61 C-18.66 60.67 -19.32 60.34 -20 60 C-21.59618383 59.8956055 -23.19662177 59.85346936 -24.7961731 59.84178162 C-25.80862091 59.8319928 -26.82106873 59.82220398 -27.86419678 59.81211853 C-28.97909485 59.80636307 -30.09399292 59.8006076 -31.24267578 59.79467773 C-32.4133963 59.78477814 -33.58411682 59.77487854 -34.79031372 59.76467896 C-38.00495592 59.73845892 -41.21959274 59.71661018 -44.43427896 59.69667697 C-47.79222206 59.67483113 -51.15011969 59.6474356 -54.50802612 59.62062073 C-60.86864238 59.57067484 -67.22928386 59.52574306 -73.58994949 59.48259836 C-80.83051684 59.43324217 -88.07103858 59.37831806 -95.31156182 59.32291877 C-110.20766538 59.20906962 -125.10381188 59.10223699 -140 59 C-140.33 59.99 -140.66 60.98 -141 62 C-141.99 61.34 -142.98 60.68 -144 60 C-143.80664062 60.68964844 -143.61328125 61.37929687 -143.4140625 62.08984375 C-143.15367187 63.02957031 -142.89328125 63.96929687 -142.625 64.9375 C-142.36976563 65.85402344 -142.11453125 66.77054687 -141.8515625 67.71484375 C-140.79569994 71.78814841 -139.89091535 75.88795103 -139 80 C-134.89535024 79.88856155 -130.79149275 79.75831866 -126.6875 79.625 C-125.53958984 79.5940625 -124.39167969 79.563125 -123.20898438 79.53125 C-115.97034645 79.28517732 -109.08176558 78.52861953 -102 77 C-102 77.99 -102 78.98 -102 80 C-113.02920113 82.86075527 -123.65696647 83.6493092 -135 84 C-133.68 85.65 -132.36 87.3 -131 89 C-134.10551666 89 -135.35261084 88.4606285 -138 87 C-138 86.34 -138 85.68 -138 85 C-138.66 85 -139.32 85 -140 85 C-143.12364352 81.62009304 -146.75788184 77.58734111 -147.19921875 72.87109375 C-146.86890588 70.90115556 -146.43330538 68.94987422 -146 67 C-146.33 64.03 -146.66 61.06 -147 58 C-74.73 57.505 -74.73 57.505 -1 57 C-2.32 56.34 -3.64 55.68 -5 55 C-3.92621094 54.99097656 -2.85242188 54.98195312 -1.74609375 54.97265625 C1.90030769 54.41565775 1.90030769 54.41565775 3.23388672 52.51123047 C4.26679606 50.52099052 5.12418236 48.52698349 5.9375 46.4375 C6.23978516 45.72658203 6.54207031 45.01566406 6.85351562 44.28320312 C7.59378577 42.53240548 8.30027422 40.76739246 9 39 C9.83402344 38.97421875 10.66804687 38.9484375 11.52734375 38.921875 C20.44321392 38.47250697 27.11750172 37.31630061 34 31.4375 C36.16813654 29.09108756 36.16813654 29.09108756 37 26 C33.13116676 25.09222907 29.53269271 24.86564737 25.5625 24.875 C24.47066406 24.87242188 23.37882813 24.86984375 22.25390625 24.8671875 C19.08807476 24.99640511 16.10964455 25.40902683 13 26 C12.88785156 25.05640625 12.88785156 25.05640625 12.7734375 24.09375 C11.76227884 17.5113054 9.82367996 12.70828092 5 8 C2.902176 6.78841834 2.902176 6.78841834 1 6 C-1.19158584 12.98567986 -3.13148317 22.10685604 -0.1015625 29.0625 C1.09293885 30.80422608 1.09293885 30.80422608 3 33 C3 33.99 3 34.98 3 36 C-1.42000392 39.64650323 -5.42767259 40.84710467 -11 42 C-11 41.34 -11 40.68 -11 40 C-12.65 39.67 -14.3 39.34 -16 39 C-16 38.67 -16 38.34 -16 38 C-12.04 37.01 -8.08 36.02 -4 35 C-4.71618024 30.66256781 -4.71618024 30.66256781 -5.60546875 26.359375 C-7.4299025 18.18003442 -7.0603211 11.35253721 -2.9375 3.9375 C-1 1 -1 1 0 0 Z " fill="#59747E" transform="translate(181,70)"/>
<path d="M0 0 C5.94 0 11.88 0 18 0 C18 5.61 18 11.22 18 17 C18.66 17 19.32 17 20 17 C20 11.39 20 5.78 20 0 C25.94 0 31.88 0 38 0 C38 12.21 38 24.42 38 37 C32.06 37 26.12 37 20 37 C19.67 31.72 19.34 26.44 19 21 C18.67 26.28 18.34 31.56 18 37 C12.06 37 6.12 37 0 37 C0 24.66666667 0 12.33333333 0 0 Z " fill="#2D859B" transform="translate(89,73)"/>
<path d="M0 0 C0 3 0 3 -1.875 5.1875 C-4 7 -4 7 -6 7 C-6 7.66 -6 8.32 -6 9 C-6.66 9 -7.32 9 -8 9 C-8.66 10.32 -9.32 11.64 -10 13 C-10.66 13 -11.32 13 -12 13 C-12.20625 13.61875 -12.4125 14.2375 -12.625 14.875 C-14.62835938 17.97110086 -16.43534588 18.10290855 -20 19 C-23.25436321 19.30286562 -26.48311558 19.33261328 -29.75 19.3125 C-30.63945312 19.30976074 -31.52890625 19.30702148 -32.4453125 19.30419922 C-39.55069504 19.19089858 -45.8275865 18.34649698 -52.09765625 14.8203125 C-52.72542969 14.54960938 -53.35320312 14.27890625 -54 14 C-56.52066803 15.22851628 -56.52066803 15.22851628 -59 17 C-65.38957755 20.14914894 -73.04401927 20.06938921 -80 19 C-84.31368837 17.43963323 -88.13462117 15.45978653 -92 13 C-92 13.66 -92 14.32 -92 15 C-99.77419782 17.59139927 -106.02280238 19.20510397 -114.25 19.25 C-115.17941406 19.270625 -116.10882813 19.29125 -117.06640625 19.3125 C-122.80306887 19.34495637 -126.98973745 18.89782753 -132 16 C-132.33 15.01 -132.66 14.02 -133 13 C-133.99 13 -134.98 13 -136 13 C-136.66 11.35 -137.32 9.7 -138 8 C-137.3795408 7.99761165 -136.75908159 7.99522329 -136.11982059 7.99276257 C-120.99504022 7.93352445 -105.87043676 7.85791837 -90.7458353 7.76428509 C-83.4315644 7.71939516 -76.11734145 7.679965 -68.80297852 7.65356445 C-62.42483341 7.63052906 -56.04684092 7.59706966 -49.66881698 7.55129844 C-46.29434631 7.52744048 -42.92002608 7.50866328 -39.5454731 7.50238609 C-35.77040391 7.49273845 -31.99588138 7.46466922 -28.22094727 7.43237305 C-26.55829834 7.43452568 -26.55829834 7.43452568 -24.86206055 7.4367218 C-19.05681883 7.36666014 -14.24717872 6.79487421 -8.83207607 4.64104939 C-7 4 -7 4 -4 4 C-4 3.34 -4 2.68 -4 2 C-2.68 1.34 -1.36 0.68 0 0 Z " fill="#28B7E8" transform="translate(184,107)"/>
<path d="M0 0 C13.2 0 26.4 0 40 0 C40 0.33 40 0.66 40 1 C27.13 1 14.26 1 1 1 C1.495 3.97 1.495 3.97 2 7 C2.33 6.01 2.66 5.02 3 4 C8.94 4 14.88 4 21 4 C21 16.21 21 28.42 21 41 C20.01 41 19.02 41 18 41 C16.49843126 37.99686252 16.90718796 35.20932478 16.9375 31.875 C16.94652344 30.59367187 16.95554687 29.31234375 16.96484375 27.9921875 C16.97644531 27.00476563 16.98804687 26.01734375 17 25 C15.68 25 14.36 25 13 25 C13 29.62 13 34.24 13 39 C12.67 39 12.34 39 12 39 C12 34.38 12 29.76 12 25 C11.34 25 10.68 25 10 25 C10 29.62 10 34.24 10 39 C9.67 39 9.34 39 9 39 C9 34.38 9 29.76 9 25 C7.68 25 6.36 25 5 25 C5 30.28 5 35.56 5 41 C1.37 41 -2.26 41 -6 41 C-5.01 40.34 -4.02 39.68 -3 39 C-3.33 34.71 -3.66 30.42 -4 26 C-4.99 25.67 -5.98 25.34 -7 25 C-7 29.62 -7 34.24 -7 39 C-7.33 39 -7.66 39 -8 39 C-8 34.38 -8 29.76 -8 25 C-8.66 25 -9.32 25 -10 25 C-10 29.62 -10 34.24 -10 39 C-10.99 39 -11.98 39 -13 39 C-13 34.38 -13 29.76 -13 25 C-13.66 25 -14.32 25 -15 25 C-14.97679687 25.98742187 -14.95359375 26.97484375 -14.9296875 27.9921875 C-14.91164062 29.27351563 -14.89359375 30.55484375 -14.875 31.875 C-14.85179687 33.15117188 -14.82859375 34.42734375 -14.8046875 35.7421875 C-15 39 -15 39 -17 41 C-17.02683987 38.02077407 -17.04676037 35.04178705 -17.0625 32.0625 C-17.07087891 31.21236328 -17.07925781 30.36222656 -17.08789062 29.48632812 C-17.09111328 28.67744141 -17.09433594 27.86855469 -17.09765625 27.03515625 C-17.10289307 26.2862915 -17.10812988 25.53742676 -17.11352539 24.76586914 C-17 23 -17 23 -16 22 C-16.99 21.67 -17.98 21.34 -19 21 C-19 27.6 -19 34.2 -19 41 C-24.61 41 -30.22 41 -36 41 C-36 46.28 -36 51.56 -36 57 C-36.66 57 -37.32 57 -38 57 C-38 57.66 -38 58.32 -38 59 C-37.34 59.33 -36.68 59.66 -36 60 C-39.16664666 60.02940458 -42.33325747 60.04693315 -45.5 60.0625 C-46.386875 60.07087891 -47.27375 60.07925781 -48.1875 60.08789062 C-53.55823086 60.10763596 -58.68633663 59.78835893 -64 59 C-61.97833874 57.97781172 -59.95415114 56.97898948 -57.89453125 56.03515625 C-56.86392578 55.55369141 -56.86392578 55.55369141 -55.8125 55.0625 C-55.11769531 54.74410156 -54.42289063 54.42570312 -53.70703125 54.09765625 C-51.66365617 53.03583404 -51.66365617 53.03583404 -51 50 C-50.17242187 50.44472656 -50.17242187 50.44472656 -49.328125 50.8984375 C-46.83876712 52.07628804 -44.3939116 52.85965717 -41.75 53.625 C-40.41195312 54.01558594 -40.41195312 54.01558594 -39.046875 54.4140625 C-38.37140625 54.60742188 -37.6959375 54.80078125 -37 55 C-37.185625 54.01 -37.37125 53.02 -37.5625 52 C-38 48 -38 48 -37 40 C-28.585 39.505 -28.585 39.505 -20 39 C-20.33 32.73 -20.66 26.46 -21 20 C-10.605 19.505 -10.605 19.505 0 19 C0 12.73 0 6.46 0 0 Z " fill="#869EA5" transform="translate(66,69)"/>
<path d="M0 0 C5.94 0 11.88 0 18 0 C18 0.33 18 0.66 18 1 C13.05 1.33 8.1 1.66 3 2 C3 8.6 3 15.2 3 22 C-2.94 22.33 -8.88 22.66 -15 23 C-14.67 26.96 -14.34 30.92 -14 35 C-11.93643105 34.7159949 -9.8741715 34.42246648 -7.8125 34.125 C-6.08966797 33.88136719 -6.08966797 33.88136719 -4.33203125 33.6328125 C-1.03168422 33.12461374 -1.03168422 33.12461374 1.76171875 31.84765625 C2.50035156 31.56792969 3.23898438 31.28820312 4 31 C6.625 32.3125 6.625 32.3125 9 34 C13.35317695 35.45105898 17.56425868 35.22487195 22.125 35.25 C23.03765625 35.270625 23.9503125 35.29125 24.890625 35.3125 C30.44662564 35.34415812 34.93847235 34.68512466 40.12060547 32.64746094 C42 32 42 32 45 32 C45 31.34 45 30.68 45 30 C47.78828787 31.09841643 50.49213497 32.23853788 53.19140625 33.546875 C57.04222596 35.19333141 60.71892282 35.49758786 64.875 35.4375 C65.92445801 35.43266602 65.92445801 35.43266602 66.99511719 35.42773438 C72.03004613 35.29234917 75.85867826 34.37740132 80.203125 31.875 C82 31 82 31 86 31 C88.34824702 31.9644586 90.68191636 32.96514123 93 34 C97.55823573 35.37706882 102.0879409 35.22259139 106.8125 35.25 C107.68970703 35.270625 108.56691406 35.29125 109.47070312 35.3125 C115.17987643 35.3466611 118.86728972 34.44014095 124 32 C128.28409945 32.21420497 130.42102749 32.61401833 134 35 C133.67 35.33 133.34 35.66 133 36 C133.99 36.66 134.98 37.32 136 38 C86.83 38 37.66 38 -13 38 C-12.34 40.97 -11.68 43.94 -11 47 C-10.92823909 49.33222958 -10.90079899 51.66877637 -11 54 C-14.88263251 50.76447291 -15.96742977 47.9047086 -17 43 C-17.125 40.0625 -17.125 40.0625 -17 38 C-17.66 38 -18.32 38 -19 38 C-19 37.34 -19 36.68 -19 36 C-18.34 36 -17.68 36 -17 36 C-17 30.72 -17 25.44 -17 20 C-11.39 20 -5.78 20 0 20 C0 13.4 0 6.8 0 0 Z " fill="#19576E" transform="translate(47,90)"/>
<path d="M0 0 C1.73828125 1.94140625 1.73828125 1.94140625 3.3125 4.5625 C7.88966895 11.5874593 13.24821256 16.70549034 21 20 C21 20.33 21 20.66 21 21 C4.1070615 21.18451025 4.1070615 21.18451025 -3 20 C-3 20.66 -3 21.32 -3 22 C-7.47631605 23.49210535 -9.96474756 21.4298367 -14.08203125 19.4609375 C-20.64997839 16.17256771 -26.51482999 12.92258847 -32 8 C-31.01 8 -30.02 8 -29 8 C-29 5.23776722 -30.31425163 4.10718546 -32 2 C-31.43079834 1.97494385 -30.86159668 1.9498877 -30.27514648 1.92407227 C-27.66242687 1.80706106 -25.04997638 1.6848172 -22.4375 1.5625 C-21.09461914 1.50352539 -21.09461914 1.50352539 -19.72460938 1.44335938 C-13.33868224 1.13926761 -6.2499208 -0.9573889 0 0 Z " fill="#B9D7DB" transform="translate(77,151)"/>
<path d="M0 0 C0.99 0 1.98 0 3 0 C3 5.28 3 10.56 3 16 C8.94 15.67 14.88 15.34 21 15 C21 15.99 21 16.98 21 18 C15.06 18 9.12 18 3 18 C3 23.61 3 29.22 3 35 C2.34 35 1.68 35 1 35 C1 29.39 1 23.78 1 18 C-4.94 18 -10.88 18 -17 18 C-16.87625 20.76375 -16.7525 23.5275 -16.625 26.375 C-16.59100098 27.24431152 -16.55700195 28.11362305 -16.52197266 29.00927734 C-16.45208915 33.47543818 -16.45208915 33.47543818 -14 37 C-14.99 37 -15.98 37 -17 37 C-17 42.94 -17 48.88 -17 55 C-11.06 55 -5.12 55 1 55 C0.92096705 49.82425198 0.92096705 49.82425198 0.81982422 44.64892578 C0.80522783 42.76504951 0.90056518 40.88130688 1 39 C1.66 38.34 2.32 37.68 3 37 C3 42.94 3 48.88 3 55 C8.94 55 14.88 55 21 55 C21 49.06 21 43.12 21 37 C18.36 37 15.72 37 13 37 C13 36.67 13 36.34 13 36 C15.64 36 18.28 36 21 36 C21.33 35.01 21.66 34.02 22 33 C22.81434143 35.85160391 23.11881242 38.36626131 23.09765625 41.328125 C23.09443359 42.12734375 23.09121094 42.9265625 23.08789062 43.75 C23.07532227 44.9875 23.07532227 44.9875 23.0625 46.25 C23.05798828 47.09046875 23.05347656 47.9309375 23.04882812 48.796875 C23.03707961 50.86461401 23.01914522 52.93231624 23 55 C23.83144531 54.97679687 24.66289062 54.95359375 25.51953125 54.9296875 C26.60621094 54.91164062 27.69289063 54.89359375 28.8125 54.875 C29.89144531 54.85179687 30.97039062 54.82859375 32.08203125 54.8046875 C35 55 35 55 38 57 C30.34192785 57.04629168 22.68387016 57.08185303 15.02569008 57.10362434 C11.46987601 57.11407224 7.9141575 57.12824959 4.35839844 57.15087891 C0.272777 57.17671832 -3.81274369 57.18646444 -7.8984375 57.1953125 C-9.17866791 57.20563507 -10.45889832 57.21595764 -11.77792358 57.22659302 C-13.54953354 57.22681961 -13.54953354 57.22681961 -15.35693359 57.22705078 C-16.40062103 57.231492 -17.44430847 57.23593323 -18.5196228 57.24050903 C-21 57 -21 57 -23 55 C-21.68 55 -20.36 55 -19 55 C-19 49.06 -19 43.12 -19 37 C-21.97 37 -24.94 37 -28 37 C-28 36.67 -28 36.34 -28 36 C-25.03 36 -22.06 36 -19 36 C-19 30.06 -19 24.12 -19 18 C-24.94 18 -30.88 18 -37 18 C-37.33 23.61 -37.66 29.22 -38 35 C-38.33 35 -38.66 35 -39 35 C-39 28.4 -39 21.8 -39 15 C-26.13 15 -13.26 15 0 15 C0 10.05 0 5.1 0 0 Z " fill="#1C5161" transform="translate(106,55)"/>
<path d="M0 0 C1.09441406 -0.00515625 2.18882812 -0.0103125 3.31640625 -0.015625 C6.41836614 0.24837159 8.63526037 0.93498252 11.4375 2.25 C10.95768228 6.56835944 8.68762912 8.54155907 5.4375 11.25 C-1.59542233 15.77744375 -8.40121217 15.70410566 -16.5625 15.25 C-16.789375 16.219375 -17.01625 17.18875 -17.25 18.1875 C-18.59266329 22.97012543 -21.06543313 26.97870141 -23.5625 31.25 C-27.1925 30.26 -30.8225 29.27 -34.5625 28.25 C-34.5625 26.25 -34.5625 26.25 -32.6875 24.125 C-30.5625 22.25 -30.5625 22.25 -28.5625 22.25 C-28.5625 21.59 -28.5625 20.93 -28.5625 20.25 C-26.57989574 18.56267723 -24.5792658 16.89633943 -22.5625 15.25 C-22.2325 14.59 -21.9025 13.93 -21.5625 13.25 C-20.5725 13.25 -19.5825 13.25 -18.5625 13.25 C-18.2325 11.6 -17.9025 9.95 -17.5625 8.25 C-16.9025 8.25 -16.2425 8.25 -15.5625 8.25 C-15.253125 7.63125 -14.94375 7.0125 -14.625 6.375 C-12.5625 2.25 -12.5625 2.25 -9.91015625 1.140625 C-6.45911603 0.22249528 -3.56371593 -0.01682983 0 0 Z " fill="#06A9D8" transform="translate(206.5625,93.75)"/>
<path d="M0 0 C48.18 0 96.36 0 146 0 C145.07377893 3.70488428 144.32789515 5.16604069 142 8 C141.01 7.67 140.02 7.34 139 7 C140.32 5.35 141.64 3.7 143 2 C141.04174127 1.97305149 139.08337774 1.95362782 137.125 1.9375 C136.03445312 1.92589844 134.94390625 1.91429687 133.8203125 1.90234375 C131.04822454 1.80255697 131.04822454 1.80255697 129 3 C128.01 2.505 128.01 2.505 127 2 C125.40381617 1.8956055 123.80337823 1.85346936 122.2038269 1.84178162 C121.19137909 1.8319928 120.17893127 1.82220398 119.13580322 1.81211853 C118.02090515 1.80636307 116.90600708 1.8006076 115.75732422 1.79467773 C114.00124344 1.77982834 114.00124344 1.77982834 112.20968628 1.76467896 C108.99504408 1.73845892 105.78040726 1.71661018 102.56572104 1.69667697 C99.20777794 1.67483113 95.84988031 1.6474356 92.49197388 1.62062073 C86.13135762 1.57067484 79.77071614 1.52574306 73.41005051 1.48259836 C66.16948316 1.43324217 58.92896142 1.37831806 51.68843818 1.32291877 C36.79233462 1.20906962 21.89618812 1.10223699 7 1 C6.67 1.99 6.34 2.98 6 4 C5.01 3.34 4.02 2.68 3 2 C3.19335938 2.68964844 3.38671875 3.37929687 3.5859375 4.08984375 C3.84632812 5.02957031 4.10671875 5.96929687 4.375 6.9375 C4.63023438 7.85402344 4.88546875 8.77054688 5.1484375 9.71484375 C6.20430006 13.78814841 7.10908465 17.88795103 8 22 C12.10464976 21.88856155 16.20850725 21.75831866 20.3125 21.625 C21.46041016 21.5940625 22.60832031 21.563125 23.79101562 21.53125 C31.02965355 21.28517732 37.91823442 20.52861953 45 19 C45 19.99 45 20.98 45 22 C33.97079887 24.86075527 23.34303353 25.6493092 12 26 C13.32 27.65 14.64 29.3 16 31 C12.89448334 31 11.64738916 30.4606285 9 29 C9 28.34 9 27.68 9 27 C8.34 27 7.68 27 7 27 C3.87635648 23.62009304 0.24211816 19.58734111 -0.19921875 14.87109375 C0.13109412 12.90115556 0.56669462 10.94987422 1 9 C0.67 6.03 0.34 3.06 0 0 Z " fill="#1D90B3" transform="translate(34,128)"/>
<path d="M0 0 C7.26 0 14.52 0 22 0 C22.020625 2.784375 22.04125 5.56875 22.0625 8.4375 C22.071604 9.31591553 22.08070801 10.19433105 22.09008789 11.09936523 C22.09723091 13.06645974 22.05031893 15.03353621 22 17 C21 18 21 18 17.18359375 18.09765625 C15.60153318 18.09098089 14.01948841 18.07901875 12.4375 18.0625 C11.63119141 18.05798828 10.82488281 18.05347656 9.99414062 18.04882812 C7.99606244 18.03700518 5.99802217 18.01906914 4 18 C3.67 16.35 3.34 14.7 3 13 C2.01 13.33 1.02 13.66 0 14 C0 9.38 0 4.76 0 0 Z " fill="#4B9BB4" transform="translate(105,53)"/>
<path d="M0 0 C5.94 0 11.88 0 18 0 C18 6.6 18 13.2 18 20 C12.39 20 6.78 20 1 20 C0.09761253 17.29283758 -0.11851302 15.76223232 -0.09765625 12.98828125 C-0.09515869 12.30548096 -0.09266113 11.62268066 -0.09008789 10.91918945 C-0.07643188 9.62887817 -0.07643188 9.62887817 -0.0625 8.3125 C-0.041875 5.569375 -0.02125 2.82625 0 0 Z " fill="#197189" transform="translate(69,73)"/>
<path d="M0 0 C3.09010211 1.35108361 4.96910153 2.79017933 7.125 5.375 C7.62257812 5.96023437 8.12015625 6.54546875 8.6328125 7.1484375 C11.30927056 10.77312641 12.29178851 13.47108795 12.3125 18 C12.32925781 18.845625 12.34601563 19.69125 12.36328125 20.5625 C11.92731274 23.48770804 11.02443938 24.87212211 9 27 C8.34 27 7.68 27 7 27 C6.67 28.65 6.34 30.3 6 32 C5.01 32 4.02 32 3 32 C1.5 29.8125 1.5 29.8125 0 27 C-0.51820313 26.24589844 -1.03640625 25.49179688 -1.5703125 24.71484375 C-4.48652665 19.17722398 -3.74342378 12.1146893 -2.3203125 6.15234375 C-1.62819892 4.07270722 -0.82585944 2.03023779 0 0 Z " fill="#28B8EA" transform="translate(182,75)"/>
<path d="M0 0 C5.94 0 11.88 0 18 0 C18 5.94 18 11.88 18 18 C12.06 18 6.12 18 0 18 C0 12.06 0 6.12 0 0 Z " fill="#2B86A0" transform="translate(109,92)"/>
<path d="M0 0 C7.92 0 15.84 0 24 0 C25.25282725 3.75848174 25.12381835 7.25490919 25.09765625 11.16796875 C25.0962413 11.96278152 25.09482635 12.7575943 25.09336853 13.57649231 C25.08777378 16.11353325 25.07522228 18.65048575 25.0625 21.1875 C25.05748432 22.90820185 25.05292153 24.62890508 25.04882812 26.34960938 C25.03865722 30.56646769 25.01908084 34.78313491 25 39 C31.27 39 37.54 39 44 39 C44.74985062 43.49910373 45.13535874 47.25430641 45.125 51.75 C45.12886719 53.44382812 45.12886719 53.44382812 45.1328125 55.171875 C45 58 45 58 44 60 C48.62 60 53.24 60 58 60 C58 60.33 58 60.66 58 61 C53.05 61 48.1 61 43 61 C43 54.4 43 47.8 43 41 C42.01 41.66 41.02 42.32 40 43 C38.00708008 43.22705078 38.00708008 43.22705078 35.76953125 43.1953125 C34.96708984 43.18886719 34.16464844 43.18242188 33.33789062 43.17578125 C32.50451172 43.15902344 31.67113281 43.14226562 30.8125 43.125 C29.96751953 43.11597656 29.12253906 43.10695312 28.25195312 43.09765625 C26.16784757 43.07410703 24.08388783 43.03823647 22 43 C20.69648613 39.04886452 20.87387719 35.06175257 20.90234375 30.953125 C20.9037587 30.18192322 20.90517365 29.41072144 20.90663147 28.6161499 C20.91221466 26.16072662 20.92476405 23.70539558 20.9375 21.25 C20.94251717 19.58203257 20.9470797 17.91406371 20.95117188 16.24609375 C20.96132634 12.16399864 20.98090493 8.0821022 21 4 C10.605 4.495 10.605 4.495 0 5 C0 3.35 0 1.7 0 0 Z " fill="#6F858A" transform="translate(106,49)"/>
<path d="M0 0 C5.61 0 11.22 0 17 0 C17 5.61 17 11.22 17 17 C11.39 17 5.78 17 0 17 C0 11.39 0 5.78 0 0 Z " fill="#2E849B" transform="translate(129,93)"/>
<path d="M0 0 C5.94 0 11.88 0 18 0 C18 2.97 18 5.94 18 9 C17.34 9 16.68 9 16 9 C15.67 11.31 15.34 13.62 15 16 C15.66 16.33 16.32 16.66 17 17 C11.39 17 5.78 17 0 17 C0 11.39 0 5.78 0 0 Z " fill="#46A1BB" transform="translate(89,73)"/>
<path d="M0 0 C5.94 0 11.88 0 18 0 C18 0.33 18 0.66 18 1 C13.05 1.33 8.1 1.66 3 2 C3 8.6 3 15.2 3 22 C-2.94 22.33 -8.88 22.66 -15 23 C-14.67 26.96 -14.34 30.92 -14 35 C-11.93643105 34.7159949 -9.8741715 34.42246648 -7.8125 34.125 C-6.08966797 33.88136719 -6.08966797 33.88136719 -4.33203125 33.6328125 C-1.03168422 33.12461374 -1.03168422 33.12461374 1.76171875 31.84765625 C2.50035156 31.56792969 3.23898438 31.28820312 4 31 C6.625 32.3125 6.625 32.3125 9 34 C10.485 34.495 10.485 34.495 12 35 C12 35.66 12 36.32 12 37 C-0.375 37.495 -0.375 37.495 -13 38 C-12.34 40.97 -11.68 43.94 -11 47 C-10.92823909 49.33222958 -10.90079899 51.66877637 -11 54 C-14.88263251 50.76447291 -15.96742977 47.9047086 -17 43 C-17.125 40.0625 -17.125 40.0625 -17 38 C-17.66 38 -18.32 38 -19 38 C-19 37.34 -19 36.68 -19 36 C-18.34 36 -17.68 36 -17 36 C-17 30.72 -17 25.44 -17 20 C-11.39 20 -5.78 20 0 20 C0 13.4 0 6.8 0 0 Z " fill="#21566A" transform="translate(47,90)"/>
<path d="M0 0 C3.375 0.25 3.375 0.25 7 1 C8.83328414 3.23182418 8.97273635 4.77098534 9.3125 7.625 C9.209375 8.40875 9.10625 9.1925 9 10 C8.01 10.66 7.02 11.32 6 12 C5.67 12.66 5.34 13.32 5 14 C2.67843403 14.40729228 0.3431213 14.74438677 -2 15 C-2 16.32 -2 17.64 -2 19 C-2 19.66 -2 20.32 -2 21 C-1.34 21 -0.68 21 0 21 C0 21.99 0 22.98 0 24 C0.556875 24.226875 1.11375 24.45375 1.6875 24.6875 C4.63246684 26.35896766 6.68156544 28.55276352 9 31 C8.67 31.66 8.34 32.32 8 33 C1.47522374 27.64081484 -3.51326198 22.7625799 -7 15 C-6.01 14.34 -5.02 13.68 -4 13 C-4.63526611 13.1429248 -5.27053223 13.28584961 -5.92504883 13.43310547 C-13.57850748 15.00653399 -20.89294677 15.2387891 -28.6875 15.125 C-29.87794922 15.11597656 -31.06839844 15.10695312 -32.29492188 15.09765625 C-35.19683367 15.07434772 -38.09830317 15.04163123 -41 15 C-41.66 12.69 -42.32 10.38 -43 8 C-42.01 8.33 -41.02 8.66 -40 9 C-39.67 9.99 -39.34 10.98 -39 12 C-34.81936147 13.00303228 -30.85587757 13.16588178 -26.5625 13.1875 C-24.64630859 13.20876953 -24.64630859 13.20876953 -22.69140625 13.23046875 C-19.06549822 13.00408931 -16.39181553 12.23041032 -13 11 C-11.38280371 10.73788562 -9.75657211 10.52332474 -8.125 10.375 C-7.34382813 10.30023438 -6.56265625 10.22546875 -5.7578125 10.1484375 C-4.88769531 10.07496094 -4.88769531 10.07496094 -4 10 C-3.67 7.69 -3.34 5.38 -3 3 C-2.34 3 -1.68 3 -1 3 C-0.67 2.01 -0.34 1.02 0 0 Z " fill="#1594B1" transform="translate(83,135)"/>
<path d="M0 0 C2.64 0 5.28 0 8 0 C8 0.66 8 1.32 8 2 C9.98 2 11.96 2 14 2 C14.268125 2.804375 14.53625 3.60875 14.8125 4.4375 C15.204375 5.283125 15.59625 6.12875 16 7 C16.99 7.33 17.98 7.66 19 8 C15.11692099 10.65684354 11.89265721 11.59876754 7.25 12.25 C6.10015625 12.42015625 4.9503125 12.5903125 3.765625 12.765625 C2.85296875 12.84296875 1.9403125 12.9203125 1 13 C0 12 0 12 -0.09765625 9.27734375 C-0.08605469 8.17519531 -0.07445313 7.07304688 -0.0625 5.9375 C-0.05347656 4.83277344 -0.04445313 3.72804688 -0.03515625 2.58984375 C-0.02355469 1.73519531 -0.01195313 0.88054687 0 0 Z " fill="#2AB6E9" transform="translate(32,113)"/>
<path d="M0 0 C3.96 0 7.92 0 12 0 C12.33 5.28 12.66 10.56 13 16 C8.71 16 4.42 16 0 16 C0 10.72 0 5.44 0 0 Z " fill="#24849C" transform="translate(71,94)"/>
<path d="M0 0 C0.99 0.66 1.98 1.32 3 2 C2.67 2.33 2.34 2.66 2 3 C2.99 3.66 3.98 4.32 5 5 C-0.99161487 5.02501477 -6.98319827 5.04300652 -12.97485352 5.05493164 C-15.00643443 5.0599114 -17.03801186 5.06669762 -19.06958008 5.07543945 C-30.7603968 5.12442735 -42.34761471 5.01959808 -54 4 C-49.3828125 -0.0234375 -49.3828125 -0.0234375 -45.9375 0.1875 C-44.34471491 0.62805758 -42.7528998 1.0725468 -41.16723633 1.53808594 C-36.43987334 2.54565277 -31.50111082 2.22798234 -26.6875 2.25 C-25.57181641 2.270625 -24.45613281 2.29125 -23.30664062 2.3125 C-15.16080352 2.35112875 -7.64126623 -1.91031656 0 0 Z " fill="#1D5566" transform="translate(178,123)"/>
<path d="M0 0 C2.77564896 2.57004533 2.31584151 5.88639276 2.6875 9.5625 C12.5523327 9.84110929 21.67091129 10.08677443 31.21875 7.23046875 C34.50446159 6.34145501 37.3092841 6.3321671 40.6875 6.5625 C37.01663158 9.95174095 33.05826124 10.73241264 28.3125 11.75 C27.51682617 11.92217041 26.72115234 12.09434082 25.90136719 12.27172852 C16.58594948 14.15699162 7.2028269 15.6219716 -1.3125 10.5625 C-2.375 8.6875 -2.375 8.6875 -3.3125 6.5625 C-4.95944485 4.87634218 -6.62376121 3.20679829 -8.3125 1.5625 C-8.3125 1.2325 -8.3125 0.9025 -8.3125 0.5625 C-5.3693415 -0.10639966 -2.98565945 -0.56485449 0 0 Z " fill="#088BB3" transform="translate(93.3125,158.4375)"/>
<path d="M0 0 C0.66 0 1.32 0 2 0 C2.66 2.31 3.32 4.62 4 7 C8.10464976 6.88856155 12.20850725 6.75831866 16.3125 6.625 C17.46041016 6.5940625 18.60832031 6.563125 19.79101562 6.53125 C27.02965355 6.28517732 33.91823442 5.52861953 41 4 C41 4.99 41 5.98 41 7 C29.97079887 9.86075527 19.34303353 10.6493092 8 11 C9.32 12.65 10.64 14.3 12 16 C8.89448334 16 7.64738916 15.4606285 5 14 C5 13.34 5 12.68 5 12 C4.34 12 3.68 12 3 12 C2.896875 11.236875 2.79375 10.47375 2.6875 9.6875 C2.2401537 6.95645104 2.2401537 6.95645104 0.375 5.4375 C-0.07875 4.963125 -0.5325 4.48875 -1 4 C-0.6875 1.8125 -0.6875 1.8125 0 0 Z " fill="#2F5156" transform="translate(38,143)"/>
<path d="M0 0 C5.61 0 11.22 0 17 0 C17 5.61 17 11.22 17 17 C15.02 17 13.04 17 11 17 C11.66 16.67 12.32 16.34 13 16 C13 11.38 13 6.76 13 2 C12.34 2 11.68 2 11 2 C11 5.96 11 9.92 11 14 C10.01 14.33 9.02 14.66 8 15 C8 10.71 8 6.42 8 2 C7.34 2 6.68 2 6 2 C6 6.29 6 10.58 6 15 C5.01 15 4.02 15 3 15 C3 10.38 3 5.76 3 1 C2.34 1 1.68 1 1 1 C1 5.62 1 10.24 1 15 C0.67 15 0.34 15 0 15 C0 10.05 0 5.1 0 0 Z " fill="#3D97AE" transform="translate(70,73)"/>
<path d="M0 0 C0.66 0 1.32 0 2 0 C2 0.99 2 1.98 2 3 C2.66 3 3.32 3 4 3 C4 3.66 4 4.32 4 5 C5.0725 5.28875 6.145 5.5775 7.25 5.875 C10.1200153 6.73600459 12.38744547 7.62436288 15 9 C7.50785527 9.90817042 0.10584003 10.18285794 -7.4375 10.1875 C-8.51193359 10.19974609 -9.58636719 10.21199219 -10.69335938 10.22460938 C-12.23540039 10.22750977 -12.23540039 10.22750977 -13.80859375 10.23046875 C-14.73470459 10.23457764 -15.66081543 10.23868652 -16.61499023 10.24291992 C-19 10 -19 10 -22 8 C-18.91154544 6.45577272 -15.81256796 6.98232535 -12.41015625 7.0625 C-9.85433812 7.11340636 -9.85433812 7.11340636 -7 6 C-7 5.34 -7 4.68 -7 4 C-6.030625 3.525625 -5.06125 3.05125 -4.0625 2.5625 C-1.19522563 1.29806053 -1.19522563 1.29806053 0 0 Z " fill="#767F84" transform="translate(207,119)"/>
<path d="M0 0 C3.96 0 7.92 0 12 0 C12.33 4.95 12.66 9.9 13 15 C9.59112017 15.85221996 7.19565369 16.10783755 3.75 16.0625 C2.1825 16.041875 0.615 16.02125 -1 16 C-0.67 10.72 -0.34 5.44 0 0 Z " fill="#19748B" transform="translate(51,94)"/>
<path d="M0 0 C0.495 0.99 0.495 0.99 1 2 C0.566875 2.391875 0.13375 2.78375 -0.3125 3.1875 C-2.1110383 4.96791977 -2.1110383 4.96791977 -3.29296875 7.3828125 C-5.21943732 10.33643708 -7.07344772 11.74953011 -10 13.6875 C-11.299375 14.55955078 -11.299375 14.55955078 -12.625 15.44921875 C-13.800625 16.21685547 -13.800625 16.21685547 -15 17 C-15.99 17.66 -16.98 18.32 -18 19 C-18.99 19 -19.98 19 -21 19 C-21.33 19.66 -21.66 20.32 -22 21 C-24.9313883 22.46569415 -27.88632266 22.62086218 -31.125 23.0625 C-32.40632812 23.23910156 -33.68765625 23.41570312 -35.0078125 23.59765625 C-36.48894531 23.79681641 -36.48894531 23.79681641 -38 24 C-37.67 23.34 -37.34 22.68 -37 22 C-36.01 22 -35.02 22 -34 22 C-34 21.34 -34 20.68 -34 20 C-30.12546693 17.52689378 -26.97077247 15.84518639 -22.4375 15 C-18.09595348 14.18503393 -15.5397068 12.59002936 -12 10 C-11.34 10 -10.68 10 -10 10 C-10 9.34 -10 8.68 -10 8 C-8.5390625 6.7109375 -8.5390625 6.7109375 -6.625 5.375 C-5.99851563 4.92898437 -5.37203125 4.48296875 -4.7265625 4.0234375 C-3 3 -3 3 -1 3 C-0.67 2.01 -0.34 1.02 0 0 Z " fill="#1D7D9B" transform="translate(168,144)"/>
<path d="M0 0 C5.61 0 11.22 0 17 0 C17 5.61 17 11.22 17 17 C14.69 17 12.38 17 10 17 C10.99 16.34 11.98 15.68 13 15 C12.67 10.71 12.34 6.42 12 2 C11.01 1.67 10.02 1.34 9 1 C9 5.62 9 10.24 9 15 C8.67 15 8.34 15 8 15 C8 10.38 8 5.76 8 1 C7.34 1 6.68 1 6 1 C6 5.62 6 10.24 6 15 C5.01 15 4.02 15 3 15 C3 10.38 3 5.76 3 1 C2.34 1 1.68 1 1 1 C1 5.62 1 10.24 1 15 C0.67 15 0.34 15 0 15 C0 10.05 0 5.1 0 0 Z " fill="#3B8EA4" transform="translate(50,93)"/>
<path d="M0 0 C18.36004646 -0.89198606 18.36004646 -0.89198606 26 4 C26.7890625 6.140625 26.7890625 6.140625 27 8 C26.34 8 25.68 8 25 8 C25 8.99 25 9.98 25 11 C24.34 11 23.68 11 23 11 C22.731875 11.598125 22.46375 12.19625 22.1875 12.8125 C20.99012525 15.01819033 19.95521016 16.43583187 18 18 C17.01 18 16.02 18 15 18 C15 18.66 15 19.32 15 20 C14.01 20 13.02 20 12 20 C12 19.01 12 18.02 12 17 C12.60328125 16.76539062 13.2065625 16.53078125 13.828125 16.2890625 C16.53132927 14.6846427 17.32315896 13.14941313 18.75 10.375 C19.17796875 9.55773437 19.6059375 8.74046875 20.046875 7.8984375 C20.36140625 7.27195312 20.6759375 6.64546875 21 6 C18.525 5.505 18.525 5.505 16 5 C16 4.34 16 3.68 16 3 C15.01257813 3.01160156 14.02515625 3.02320312 13.0078125 3.03515625 C11.72648438 3.04417969 10.44515625 3.05320312 9.125 3.0625 C7.84882813 3.07410156 6.57265625 3.08570312 5.2578125 3.09765625 C2 3 2 3 0 2 C0 1.34 0 0.68 0 0 Z " fill="#29545A" transform="translate(197,90)"/>
<path d="M0 0 C0.33 0 0.66 0 1 0 C1 2.31 1 4.62 1 7 C1.66 7 2.32 7 3 7 C3 9.64 3 12.28 3 15 C9.6 15 16.2 15 23 15 C23 15.33 23 15.66 23 16 C16.62641289 16.96205088 10.44070471 17.10655578 4 17 C3.67 17.66 3.34 18.32 3 19 C-2.61 18.67 -8.22 18.34 -14 18 C-14 23.61 -14 29.22 -14 35 C-14.33 35 -14.66 35 -15 35 C-15.02689449 32.04160645 -15.04678741 29.08345573 -15.0625 26.125 C-15.07087891 25.28324219 -15.07925781 24.44148438 -15.08789062 23.57421875 C-15.09111328 22.76855469 -15.09433594 21.96289062 -15.09765625 21.1328125 C-15.10289307 20.38918457 -15.10812988 19.64555664 -15.11352539 18.87939453 C-15 17 -15 17 -14 15 C-10.83984375 14.5859375 -10.83984375 14.5859375 -6.9375 14.375 C-3.5034375 14.189375 -3.5034375 14.189375 0 14 C0 9.38 0 4.76 0 0 Z " fill="#21677A" transform="translate(104,75)"/>
<path d="M0 0 C5.94 0 11.88 0 18 0 C18 0.33 18 0.66 18 1 C13.05 1.33 8.1 1.66 3 2 C3 8.6 3 15.2 3 22 C-6.405 22.495 -6.405 22.495 -16 23 C-15.835 25.083125 -15.67 27.16625 -15.5 29.3125 C-15.24293869 32.557899 -15 35.74441735 -15 39 C-16.32 38.67 -17.64 38.34 -19 38 C-19 37.34 -19 36.68 -19 36 C-18.34 36 -17.68 36 -17 36 C-17 30.72 -17 25.44 -17 20 C-11.39 20 -5.78 20 0 20 C0 13.4 0 6.8 0 0 Z " fill="#334C51" transform="translate(47,90)"/>
<path d="M0 0 C3.09010211 1.35108361 4.96910153 2.79017933 7.125 5.375 C7.62257812 5.96023437 8.12015625 6.54546875 8.6328125 7.1484375 C12.15608322 11.9199527 12.19336868 15.19893973 12 21 C11.67 21 11.34 21 11 21 C10.9175 19.72125 10.835 18.4425 10.75 17.125 C10.5315231 14.94491471 10.5315231 14.94491471 10 13 C8.16427296 11.45599341 8.16427296 11.45599341 6 11 C5.34 10.67 4.68 10.34 4 10 C4 9.01 4 8.02 4 7 C3.01 7 2.02 7 1 7 C-0.95749522 10.91499044 -0.36853459 15.72258219 0 20 C1.43999707 23.3850877 1.43999707 23.3850877 3 26 C2.67 26.99 2.34 27.98 2 29 C-1.28045401 26.01776908 -2.84024867 23.54979539 -3.30078125 19.08203125 C-3.32605135 12.03167313 -2.66092489 6.54144035 0 0 Z " fill="#31B6E2" transform="translate(182,75)"/>
<path d="M0 0 C5.61 0 11.22 0 17 0 C17 5.61 17 11.22 17 17 C16.01 17 15.02 17 14 17 C12.49843126 13.99686252 12.90718796 11.20932478 12.9375 7.875 C12.94652344 6.59367187 12.95554687 5.31234375 12.96484375 3.9921875 C12.97644531 3.00476563 12.98804687 2.01734375 13 1 C11.68 1 10.36 1 9 1 C9 5.62 9 10.24 9 15 C8.67 15 8.34 15 8 15 C8 10.38 8 5.76 8 1 C7.34 1 6.68 1 6 1 C6 5.62 6 10.24 6 15 C5.67 15 5.34 15 5 15 C5 10.38 5 5.76 5 1 C3.68 1 2.36 1 1 1 C1 6.28 1 11.56 1 17 C0.67 17 0.34 17 0 17 C0 11.39 0 5.78 0 0 Z " fill="#4FA1BA" transform="translate(70,93)"/>
<path d="M0 0 C0.8353125 0.433125 0.8353125 0.433125 1.6875 0.875 C4.08494645 2.0413253 6.51596939 3.0339881 9 4 C9 4.66 9 5.32 9 6 C9.99 6 10.98 6 12 6 C11.67 7.32 11.34 8.64 11 10 C-5.8929385 10.18451025 -5.8929385 10.18451025 -13 9 C-10.97833874 7.97781172 -8.95415114 6.97898948 -6.89453125 6.03515625 C-6.20746094 5.71417969 -5.52039063 5.39320312 -4.8125 5.0625 C-4.11769531 4.74410156 -3.42289063 4.42570312 -2.70703125 4.09765625 C-0.66365617 3.03583404 -0.66365617 3.03583404 0 0 Z " fill="#4A5860" transform="translate(15,119)"/>
<path d="M0 0 C1.65 0 3.3 0 5 0 C5 0.66 5 1.32 5 2 C5.66 2 6.32 2 7 2 C7 6.62 7 11.24 7 16 C13.93 16.495 13.93 16.495 21 17 C21 17.33 21 17.66 21 18 C15.39 18 9.78 18 4 18 C3.67 16.35 3.34 14.7 3 13 C2.01 13.33 1.02 13.66 0 14 C0 9.38 0 4.76 0 0 Z " fill="#317E91" transform="translate(105,53)"/>
<path d="M0 0 C1.98 0 3.96 0 6 0 C6 4.95 6 9.9 6 15 C4.02 15 2.04 15 0 15 C0 10.05 0 5.1 0 0 Z " fill="#14798F" transform="translate(111,74)"/>
<path d="M0 0 C0.85658203 0.56267578 0.85658203 0.56267578 1.73046875 1.13671875 C8.50935702 5.41528575 15.45610003 8.32770941 23 11 C22.67 11.66 22.34 12.32 22 13 C16.42611156 13.37206958 12.5536606 12.31113716 7.6875 9.75 C7.06810547 9.44964844 6.44871094 9.14929688 5.81054688 8.83984375 C3.15352737 7.48392717 1.24780308 6.35307035 -0.48046875 3.890625 C-1 2 -1 2 0 0 Z " fill="#616F74" transform="translate(51,159)"/>
<path d="M0 0 C2.31 0.33 4.62 0.66 7 1 C7 1.66 7 2.32 7 3 C17.23 3 27.46 3 38 3 C33.40218172 7.59781828 25.73303436 6.24607918 19.65673828 6.25317383 C13.58923351 6.18428753 7.41840997 6.06203168 2 3 C1.34 2.01 0.68 1.02 0 0 Z " fill="#36A8D0" transform="translate(132,120)"/>
<path d="M0 0 C5.94 0 11.88 0 18 0 C18 6.6 18 13.2 18 20 C24.16321491 19.63192305 24.16321491 19.63192305 30.32568359 19.25170898 C31.09219238 19.20860596 31.85870117 19.16550293 32.6484375 19.12109375 C33.43395996 19.0739624 34.21948242 19.02683105 35.02880859 18.97827148 C37 19 37 19 39 20 C39 20.66 39 21.32 39 22 C35.70835171 22.02895225 32.41673601 22.0467823 29.125 22.0625 C28.18785156 22.07087891 27.25070313 22.07925781 26.28515625 22.08789062 C24.94130859 22.09272461 24.94130859 22.09272461 23.5703125 22.09765625 C22.32918701 22.10551147 22.32918701 22.10551147 21.06298828 22.11352539 C19 22 19 22 17 21 C17 14.4 17 7.8 17 1 C11.39 1 5.78 1 0 1 C0 0.67 0 0.34 0 0 Z " fill="#2C444B" transform="translate(131,90)"/>
<path d="M0 0 C0.33 0 0.66 0 1 0 C1.44191386 3.33559982 1.73356734 5.91875231 -0.21875 8.79638672 C-1.91177291 10.59980204 -3.66640375 12.27735205 -5.5 13.9375 C-6.43005859 14.82018555 -6.43005859 14.82018555 -7.37890625 15.72070312 C-8.90388741 17.16356992 -10.44995475 18.58409328 -12 20 C-12.33 19.01 -12.66 18.02 -13 17 C-12.01 16.67 -11.02 16.34 -10 16 C-10.103125 15.13375 -10.20625 14.2675 -10.3125 13.375 C-9.89457163 8.86137358 -8.16041392 7.16041392 -5 4 C-2.75 2.75 -2.75 2.75 -1 2 C-0.67 1.34 -0.34 0.68 0 0 Z " fill="#3D7488" transform="translate(178,132)"/>
<path d="M0 0 C2.31 0 4.62 0 7 0 C6.67 1.32 6.34 2.64 6 4 C5.01 3.34 4.02 2.68 3 2 C3.2165625 2.77085937 3.433125 3.54171875 3.65625 4.3359375 C3.9346875 5.33882812 4.213125 6.34171875 4.5 7.375 C4.7784375 8.37273437 5.056875 9.37046875 5.34375 10.3984375 C6 13 6 13 6 15 C5.34 15 4.68 15 4 15 C4 16.98 4 18.96 4 21 C4.99 21.33 5.98 21.66 7 22 C7 22.99 7 23.98 7 25 C4.35247996 22.42215154 2.05567935 20.08351902 0 17 C0.23079588 15.08769124 0.46939422 13.17547567 0.7734375 11.2734375 C1.15322242 7.46249224 0.56726702 3.77014388 0 0 Z " fill="#1784AB" transform="translate(34,128)"/>
<path d="M0 0 C2.97 0.495 2.97 0.495 6 1 C6 5.95 6 10.9 6 16 C4.02 16 2.04 16 0 16 C0 10.72 0 5.44 0 0 Z " fill="#27829C" transform="translate(121,94)"/>
<path d="M0 0 C2.97 0.495 2.97 0.495 6 1 C6 5.95 6 10.9 6 16 C4.02 16.33 2.04 16.66 0 17 C0 11.39 0 5.78 0 0 Z " fill="#207E97" transform="translate(89,73)"/>
<path d="M0 0 C-3.67127605 3.3896173 -7.62909762 4.16895939 -12.375 5.1875 C-13.16777344 5.36039551 -13.96054688 5.53329102 -14.77734375 5.71142578 C-21.80613458 7.14285088 -28.83600474 7.91682082 -36 7 C-36.66 6.34 -37.32 5.68 -38 5 C-31.73 5 -25.46 5 -19 5 C-19 4.34 -19 3.68 -19 3 C-6.51480638 -0.44419134 -6.51480638 -0.44419134 0 0 Z " fill="#1C7A99" transform="translate(134,165)"/>
<path d="M0 0 C3.625 0.375 3.625 0.375 7 1 C7.6875 3.3125 7.6875 3.3125 8 6 C6.875 7.8125 6.875 7.8125 5 9 C2.4375 9.3125 2.4375 9.3125 0 9 C-2 7 -2 7 -2.25 4.5 C-2 2 -2 2 0 0 Z " fill="#97E5EF" transform="translate(83,138)"/>
<path d="M0 0 C-6.14144587 5.62965871 -14.71802105 5.340496 -22.5625 5.3125 C-23.46935547 5.32861328 -24.37621094 5.34472656 -25.31054688 5.36132812 C-30.98924614 5.36544611 -34.95116396 4.62484068 -40 2 C-37.30193844 0.65096922 -35.91781464 1.379194 -33 2 C-29.35599794 2.21242101 -25.71213619 2.1851005 -22.0625 2.1875 C-21.08603516 2.19974609 -20.10957031 2.21199219 -19.10351562 2.22460938 C-12.45744546 2.23812681 -6.45663124 -0.37980184 0 0 Z " fill="#36A6CD" transform="translate(92,121)"/>
<path d="M0 0 C0.66 0.33 1.32 0.66 2 1 C1.67 1.99 1.34 2.98 1 4 C-0.65 4 -2.3 4 -4 4 C-4.103125 4.639375 -4.20625 5.27875 -4.3125 5.9375 C-4.539375 6.618125 -4.76625 7.29875 -5 8 C-8.56045177 9.18681726 -11.43808337 9.09689832 -15.1875 9.0625 C-16.45980469 9.05347656 -17.73210937 9.04445313 -19.04296875 9.03515625 C-20.50669922 9.01775391 -20.50669922 9.01775391 -22 9 C-22.33 8.01 -22.66 7.02 -23 6 C-22.16597656 5.97421875 -21.33195313 5.9484375 -20.47265625 5.921875 C-9.40289953 5.41453882 -9.40289953 5.41453882 0 0 Z " fill="#2A5A6B" transform="translate(213,103)"/>
<path d="M0 0 C3.63 0 7.26 0 11 0 C12.52634923 3.05269846 11.83794444 5.75845689 11.5625 9.125 C11.46066406 10.40632813 11.35882813 11.68765625 11.25390625 13.0078125 C11.17011719 13.99523437 11.08632812 14.98265625 11 16 C10.67 16 10.34 16 10 16 C10 11.05 10 6.1 10 1 C8.68 1 7.36 1 6 1 C6 6.28 6 11.56 6 17 C2.37 17 -1.26 17 -5 17 C-5 16.34 -5 15.68 -5 15 C-3.02 15 -1.04 15 1 15 C1.33 10.71 1.66 6.42 2 2 C2.33 2 2.66 2 3 2 C3 6.29 3 10.58 3 15 C3.66 15 4.32 15 5 15 C5 10.38 5 5.76 5 1 C3.35 1 1.7 1 0 1 C0 0.67 0 0.34 0 0 Z " fill="#5AB1C9" transform="translate(115,93)"/>
<path d="M0 0 C2.31 0 4.62 0 7 0 C7 5.28 7 10.56 7 16 C5.68 16 4.36 16 3 16 C2.95101562 15.07316406 2.90203125 14.14632812 2.8515625 13.19140625 C2.77679688 11.99386719 2.70203125 10.79632813 2.625 9.5625 C2.55539063 8.36753906 2.48578125 7.17257813 2.4140625 5.94140625 C2.27742188 4.97074219 2.14078125 4.00007813 2 3 C1.34 2.67 0.68 2.34 0 2 C0 1.34 0 0.68 0 0 Z " fill="#26849D" transform="translate(110,53)"/>
<path d="M0 0 C1.80078125 2.1875 1.80078125 2.1875 3.3125 5 C3.82425781 5.928125 4.33601563 6.85625 4.86328125 7.8125 C5.23839844 8.534375 5.61351563 9.25625 6 10 C3 9 3 9 1 7 C0.01 7.495 0.01 7.495 -1 8 C-1 7.34 -1 6.68 -1 6 C-1.99 6.33 -2.98 6.66 -4 7 C-7.1875 6.0625 -7.1875 6.0625 -10 5 C-10 4.01 -10 3.02 -10 2 C-6.51182704 0.40540665 -3.83676228 -0.56840923 0 0 Z " fill="#BFEBF1" transform="translate(77,151)"/>
<path d="M0 0 C0.99 0.33 1.98 0.66 3 1 C-0.12621626 4.39417765 -2.56541027 6.6062718 -7 8 C-7 8.66 -7 9.32 -7 10 C-10.34880626 12.74219867 -13.67076296 14.86153781 -18 15.3125 C-18.99 15.1578125 -18.99 15.1578125 -20 15 C-16.25616039 10.80689964 -12.00476667 8.32563235 -6.875 6.0625 C-4.11909403 4.50081995 -2.16501691 2.28529563 0 0 Z " fill="#1782A6" transform="translate(165,144)"/>
<path d="M0 0 C4.13830989 0.30096799 6.51847024 0.67898016 10 3 C10.66 2.34 11.32 1.68 12 1 C14.3828125 1.2421875 14.3828125 1.2421875 17.125 1.875 C18.49011719 2.18050781 18.49011719 2.18050781 19.8828125 2.4921875 C20.93082031 2.74355469 20.93082031 2.74355469 22 3 C21.67 3.66 21.34 4.32 21 5 C18.4784979 5.08172936 15.95970083 5.14083373 13.4375 5.1875 C12.73302734 5.21263672 12.02855469 5.23777344 11.30273438 5.26367188 C6.11996685 5.33532304 2.63735818 4.32172598 -2 2 C-1.34 1.34 -0.68 0.68 0 0 Z " fill="#34A8D8" transform="translate(99,121)"/>
<path d="M0 0 C5.94 0 11.88 0 18 0 C17.67 0.66 17.34 1.32 17 2 C12.38 2 7.76 2 3 2 C3 6.62 3 11.24 3 16 C2.34 16 1.68 16 1 16 C0.67 16.66 0.34 17.32 0 18 C0 12.06 0 6.12 0 0 Z " fill="#2D8092" transform="translate(109,92)"/>
<path d="M0 0 C0 6.6 0 13.2 0 20 C0.66 20.33 1.32 20.66 2 21 C0.68 21 -0.64 21 -2 21 C-2 14.73 -2 8.46 -2 2 C-7.61 2 -13.22 2 -19 2 C-19 1.67 -19 1.34 -19 1 C-16.20837429 0.83262201 -13.41670379 0.66606598 -10.625 0.5 C-9.8309375 0.45230469 -9.036875 0.40460938 -8.21875 0.35546875 C-2.2265625 0 -2.2265625 0 0 0 Z " fill="#2C6475" transform="translate(148,91)"/>
<path d="M0 0 C1.32 0 2.64 0 4 0 C4 4.95 4 9.9 4 15 C2.68 15 1.36 15 0 15 C0 10.05 0 5.1 0 0 Z " fill="#2A788C" transform="translate(96,74)"/>
<path d="M0 0 C1.32 0 2.64 0 4 0 C4 4.95 4 9.9 4 15 C2.68 15 1.36 15 0 15 C0 10.05 0 5.1 0 0 Z " fill="#1D7E98" transform="translate(121,54)"/>
<path d="M0 0 C0.66 0 1.32 0 2 0 C2 0.99 2 1.98 2 3 C2.66 2.01 3.32 1.02 4 0 C4.66 0.99 5.32 1.98 6 3 C0.99350015 6.96347905 -2.7311841 8.79022851 -9 10 C-9 9.34 -9 8.68 -9 8 C-10.65 7.67 -12.3 7.34 -14 7 C-14 6.67 -14 6.34 -14 6 C-9.71 5.34 -5.42 4.68 -1 4 C-0.67 2.68 -0.34 1.36 0 0 Z " fill="#497283" transform="translate(179,102)"/>
<path d="M0 0 C9.9 0 19.8 0 30 0 C30 0.33 30 0.66 30 1 C20.24721934 3.59930938 10.92910488 2.80830997 1 2 C0.67 2.99 0.34 3.98 0 5 C0 3.35 0 1.7 0 0 Z " fill="#255565" transform="translate(68,71)"/>
<path d="M0 0 C1.12148437 -0.01417969 2.24296875 -0.02835937 3.3984375 -0.04296875 C6.57384842 0.18384632 8.76734718 0.83359332 11.625 2.1875 C11.08273019 5.98338866 9.42372437 7.65961993 6.625 10.1875 C6.625 9.1975 6.625 8.2075 6.625 7.1875 C7.285 7.1875 7.945 7.1875 8.625 7.1875 C8.625 5.5375 8.625 3.8875 8.625 2.1875 C-1.77 2.6825 -1.77 2.6825 -12.375 3.1875 C-8.0742674 0.32034493 -5.0753871 0.0290354 0 0 Z " fill="#2198BA" transform="translate(206.375,93.8125)"/>
<path d="M0 0 C-1 2 -1 2 -2.82373047 2.64599609 C-10.03082871 4.14329149 -16.80096159 4.05081619 -24.125 3.625 C-25.27226563 3.56828125 -26.41953125 3.5115625 -27.6015625 3.453125 C-30.40180698 3.31311278 -33.2009483 3.16186516 -36 3 C-36 2.67 -36 2.34 -36 2 C-34.98015015 1.970271 -34.98015015 1.970271 -33.93969727 1.93994141 C-30.81362259 1.84378718 -27.68813527 1.73447934 -24.5625 1.625 C-23.49322266 1.5940625 -22.42394531 1.563125 -21.32226562 1.53125 C-15.61130998 1.32167365 -10.33579614 0.85573024 -4.82006836 -0.68212891 C-3 -1 -3 -1 0 0 Z " fill="#20596F" transform="translate(80,148)"/>
<path d="M0 0 C0.99 0.33 1.98 0.66 3 1 C3.33 1.99 3.66 2.98 4 4 C8.37555541 5.08101957 12.64558031 5.15287504 17.125 5.125 C18.24636353 5.12209961 18.24636353 5.12209961 19.39038086 5.11914062 C25.29702902 5.07339698 31.13352434 4.70955213 37 4 C37 4.33 37 4.66 37 5 C29.38646243 7.06827652 22.29966009 7.23812461 14.4375 7.125 C13.23802734 7.11597656 12.03855469 7.10695312 10.80273438 7.09765625 C7.86827691 7.07427412 4.93424766 7.0415028 2 7 C1.34 4.69 0.68 2.38 0 0 Z " fill="#1F87AA" transform="translate(40,143)"/>
<path d="M0 0 C1.32 0 2.64 0 4 0 C4 4.62 4 9.24 4 14 C2.68 14 1.36 14 0 14 C0 9.38 0 4.76 0 0 Z " fill="#1B7692" transform="translate(71,94)"/>
<path d="M0 0 C1.32 0 2.64 0 4 0 C4 4.62 4 9.24 4 14 C2.68 14 1.36 14 0 14 C0 9.38 0 4.76 0 0 Z " fill="#107288" transform="translate(141,94)"/>
<path d="M0 0 C2.64 0 5.28 0 8 0 C7.67 0.99 7.34 1.98 7 3 C6.01 2.67 5.02 2.34 4 2 C4 2.66 4 3.32 4 4 C3.34 4 2.68 4 2 4 C2.33 5.98 2.66 7.96 3 10 C5.31 10.33 7.62 10.66 10 11 C10 11.33 10 11.66 10 12 C8.52168779 12.19412181 7.04230684 12.38012131 5.5625 12.5625 C4.73878906 12.66691406 3.91507813 12.77132812 3.06640625 12.87890625 C2.38449219 12.91886719 1.70257813 12.95882812 1 13 C0 12 0 12 -0.09765625 9.27734375 C-0.08605469 8.17519531 -0.07445313 7.07304688 -0.0625 5.9375 C-0.05347656 4.83277344 -0.04445313 3.72804688 -0.03515625 2.58984375 C-0.02355469 1.73519531 -0.01195313 0.88054687 0 0 Z " fill="#2395B6" transform="translate(32,113)"/>
<path d="M0 0 C0.66 0 1.32 0 2 0 C2 0.99 2 1.98 2 3 C2.66 3 3.32 3 4 3 C4 3.66 4 4.32 4 5 C5.0725 5.28875 6.145 5.5775 7.25 5.875 C10.1200153 6.73600459 12.38744547 7.62436288 15 9 C13.37536158 9.05395478 11.75021459 9.09277195 10.125 9.125 C8.76761719 9.15980469 8.76761719 9.15980469 7.3828125 9.1953125 C4.11482131 8.92744437 3.26463231 7.26463231 1 5 C-1.57061311 4.35232207 -1.57061311 4.35232207 -4 4 C-4.33 4.66 -4.66 5.32 -5 6 C-5.66 5.34 -6.32 4.68 -7 4 C-6.030625 3.525625 -5.06125 3.05125 -4.0625 2.5625 C-1.19522563 1.29806053 -1.19522563 1.29806053 0 0 Z " fill="#82898D" transform="translate(207,119)"/>
<path d="M0 0 C0.99 0.33 1.98 0.66 3 1 C2.03644647 12.52164009 2.03644647 12.52164009 1 18 C0.34 18 -0.32 18 -1 18 C-2.20287276 11.50448709 -1.58444052 6.39014027 0 0 Z " fill="#5F767E" transform="translate(176,78)"/>
<path d="M0 0 C1.38529821 5.45461169 2.2396943 10.36718401 2 16 C-1.87794328 12.7683806 -2.95160018 9.89253251 -4 5 C-4 3.68 -4 2.36 -4 1 C-2 0 -2 0 0 0 Z " fill="#43646C" transform="translate(34,128)"/>
<path d="M0 0 C2.37531394 -0.0543965 4.74935883 -0.09385864 7.125 -0.125 C7.79015625 -0.14175781 8.4553125 -0.15851563 9.140625 -0.17578125 C13.49516056 -0.21847278 16.95600114 0.40003783 21 2 C17.24229075 4.51477465 13.67978802 4.0709725 9.375 3.6875 C8.3540625 3.61499023 8.3540625 3.61499023 7.3125 3.54101562 C2.29934499 3.1496725 2.29934499 3.1496725 0 2 C0 1.34 0 0.68 0 0 Z " fill="#6C7E7E" transform="translate(197,90)"/>
<path d="M0 0 C-1.41788087 2.83576173 -3.51563111 3.35832224 -6.390625 4.40234375 C-11.51849721 5.57684143 -16.77353059 5.21511383 -22 5 C-20 3 -20 3 -17.8359375 2.8046875 C-16.61777344 2.83949219 -16.61777344 2.83949219 -15.375 2.875 C-14.14910156 2.90207031 -14.14910156 2.90207031 -12.8984375 2.9296875 C-11.95871094 2.96449219 -11.95871094 2.96449219 -11 3 C-11 2.34 -11 1.68 -11 1 C-7.32589215 -0.17571451 -3.83070817 -0.07366746 0 0 Z " fill="#199DC0" transform="translate(212,104)"/>
<path d="M0 0 C0.33 0.66 0.66 1.32 1 2 C0.3503125 2.5878125 0.3503125 2.5878125 -0.3125 3.1875 C-2.11872612 4.97428906 -2.11872612 4.97428906 -3.3125 7.4375 C-5.43040848 10.65358324 -7.63224511 12.17579944 -11 14 C-11.99 13.67 -12.98 13.34 -14 13 C-13.34 12.01 -12.68 11.02 -12 10 C-11.34 10 -10.68 10 -10 10 C-10 9.34 -10 8.68 -10 8 C-8.5390625 6.7109375 -8.5390625 6.7109375 -6.625 5.375 C-5.99851563 4.92898437 -5.37203125 4.48296875 -4.7265625 4.0234375 C-3 3 -3 3 -1 3 C-0.67 2.01 -0.34 1.02 0 0 Z " fill="#3D636C" transform="translate(168,144)"/>
<path d="M0 0 C1.32 0.33 2.64 0.66 4 1 C4 3.64 4 6.28 4 9 C2.33388095 9.042721 0.66617115 9.04063832 -1 9 C-2 8 -2 8 -2.0625 4.9375 C-2.041875 3.968125 -2.02125 2.99875 -2 2 C-1.34 2 -0.68 2 0 2 C0 1.34 0 0.68 0 0 Z " fill="#06A8D4" transform="translate(36,115)"/>
<path d="M0 0 C0.33 0 0.66 0 1 0 C1 5.61 1 11.22 1 17 C0.01 17 -0.98 17 -2 17 C-2.05383848 14.54137599 -2.09359038 12.0839245 -2.125 9.625 C-2.14175781 8.92632812 -2.15851563 8.22765625 -2.17578125 7.5078125 C-2.19344267 5.67102514 -2.10303261 3.83398037 -2 2 C-1.34 1.34 -0.68 0.68 0 0 Z " fill="#20697C" transform="translate(69,93)"/>
<path d="M0 0 C0 5.61 0 11.22 0 17 C-0.99 17 -1.98 17 -3 17 C-3 11.72 -3 6.44 -3 1 C-1 0 -1 0 0 0 Z " fill="#2E778E" transform="translate(127,73)"/>
<path d="M0 0 C0.33 0 0.66 0 1 0 C1.495 6.93 1.495 6.93 2 14 C4.31 14.33 6.62 14.66 9 15 C9 15.33 9 15.66 9 16 C7.56260487 16.02712066 6.12506137 16.04645067 4.6875 16.0625 C3.48673828 16.07990234 3.48673828 16.07990234 2.26171875 16.09765625 C0 16 0 16 -3 15 C-4.40664926 14.85507877 -5.8181133 14.75371069 -7.23046875 14.68359375 C-8.03291016 14.64169922 -8.83535156 14.59980469 -9.66210938 14.55664062 C-10.49548828 14.51732422 -11.32886719 14.47800781 -12.1875 14.4375 C-13.03248047 14.39431641 -13.87746094 14.35113281 -14.74804688 14.30664062 C-16.83184433 14.20068482 -18.91590103 14.0998498 -21 14 C-21 13.67 -21 13.34 -21 13 C-14.4 13 -7.8 13 -1 13 C-0.67 8.71 -0.34 4.42 0 0 Z " fill="#47646D" transform="translate(68,76)"/>
<path d="M0 0 C3.09010211 1.35108361 4.96910153 2.79017933 7.125 5.375 C7.62257812 5.96023437 8.12015625 6.54546875 8.6328125 7.1484375 C12.15608322 11.9199527 12.19336868 15.19893973 12 21 C11.67 21 11.34 21 11 21 C10.7525 19.824375 10.505 18.64875 10.25 17.4375 C8.98378854 12.41723907 7.28955879 7.46277367 2.75 4.5625 C2.1725 4.376875 1.595 4.19125 1 4 C0.01 5.32 -0.98 6.64 -2 8 C-1.125 1.125 -1.125 1.125 0 0 Z " fill="#40A7C9" transform="translate(182,75)"/>
<path d="M0 0 C0.99 0 1.98 0 3 0 C3 4.95 3 9.9 3 15 C2.01 15.33 1.02 15.66 0 16 C0 10.72 0 5.44 0 0 Z " fill="#2D7D91" transform="translate(84,73)"/>
<path d="M0 0 C0.763125 0.20625 1.52625 0.4125 2.3125 0.625 C0.37995228 2.6495738 -1.31908688 4.04605792 -3.6875 5.625 C-4.6775 5.625 -5.6675 5.625 -6.6875 5.625 C-7.0175 6.285 -7.3475 6.945 -7.6875 7.625 C-9.75 8.25 -9.75 8.25 -11.6875 8.625 C-11.3575 7.305 -11.0275 5.985 -10.6875 4.625 C-10.0275 4.625 -9.3675 4.625 -8.6875 4.625 C-7.66553008 3.64746356 -6.66770375 2.6444119 -5.6875 1.625 C-2.6875 -0.375 -2.6875 -0.375 0 0 Z " fill="#577480" transform="translate(153.6875,157.375)"/>
<path d="M0 0 C1.0725 0.28875 2.145 0.5775 3.25 0.875 C4.87385547 1.23437785 6.49891987 1.58832605 8.125 1.9375 C9.50035581 2.24843027 10.8754817 2.56038803 12.25 2.875 C12.25 3.205 12.25 3.535 12.25 3.875 C5.65 3.875 -0.95 3.875 -7.75 3.875 C-2.75 -0.125 -2.75 -0.125 0 0 Z " fill="#314F56" transform="translate(131.75,123.125)"/>
<path d="M0 0 C0 1.32 0 2.64 0 4 C3.3 4 6.6 4 10 4 C10 4.33 10 4.66 10 5 C2.58165418 5.09377123 -4.66236293 5.17402193 -12 4 C-4.28571429 0 -4.28571429 0 0 0 Z " fill="#979DA0" transform="translate(14,124)"/>
<path d="M0 0 C1.65 0.33 3.3 0.66 5 1 C5 1.99 5 2.98 5 4 C5.66 4.33 6.32 4.66 7 5 C2.05 5 -2.9 5 -8 5 C-5.4345406 2.4345406 -3.52313332 2.45953913 0 2 C0 1.34 0 0.68 0 0 Z " fill="#315056" transform="translate(94,122)"/>
<path d="M0 0 C0.49628906 0.38671875 0.99257812 0.7734375 1.50390625 1.171875 C5.84883147 4.50270951 10.18629161 7.39257462 15 10 C15 10.33 15 10.66 15 11 C9.72 11 4.44 11 -1 11 C-1 10.67 -1 10.34 -1 10 C3.455 9.505 3.455 9.505 8 9 C6.865625 8.2575 5.73125 7.515 4.5625 6.75 C2.20702019 5.2082314 1.17720492 4.53257263 0.27734375 1.828125 C0.18582031 1.22484375 0.09429687 0.6215625 0 0 Z " fill="#9AD2E2" transform="translate(83,161)"/>
<path d="M0 0 C3.96 0.33 7.92 0.66 12 1 C12 1.33 12 1.66 12 2 C9.36 2.33 6.72 2.66 4 3 C3.67 4.65 3.34 6.3 3 8 C2.34 8 1.68 8 1 8 C0.34 9.32 -0.32 10.64 -1 12 C-1.02698189 10.37509046 -1.04638757 8.75005367 -1.0625 7.125 C-1.07410156 6.22007813 -1.08570313 5.31515625 -1.09765625 4.3828125 C-1 2 -1 2 0 0 Z " fill="#7799A0" transform="translate(189,111)"/>
<path d="M0 0 C5.94 0 11.88 0 18 0 C17.07377893 3.70488428 16.32789515 5.16604069 14 8 C13.01 7.67 12.02 7.34 11 7 C12.32 5.35 13.64 3.7 15 2 C10.05 1.67 5.1 1.34 0 1 C0 0.67 0 0.34 0 0 Z " fill="#1D85A5" transform="translate(162,128)"/>
<path d="M0 0 C0.79921875 0.20367187 1.5984375 0.40734375 2.421875 0.6171875 C3.02515625 0.78476563 3.6284375 0.95234375 4.25 1.125 C4.25 1.785 4.25 2.445 4.25 3.125 C-0.04 3.125 -4.33 3.125 -8.75 3.125 C-8.75 2.465 -8.75 1.805 -8.75 1.125 C-5.45750312 -0.91393155 -3.7130065 -0.98285466 0 0 Z " fill="#2A515E" transform="translate(54.75,123.875)"/>
<path d="M0 0 C0.33 0 0.66 0 1 0 C1.10957031 0.72445312 1.21914062 1.44890625 1.33203125 2.1953125 C2.23572951 7.70566773 3.38703756 12.02292869 6 17 C5.67 17.99 5.34 18.98 5 20 C1.56566445 16.87787677 0.08887278 14.47173328 -0.1953125 9.765625 C-0.17210937 8.60546875 -0.14890625 7.4453125 -0.125 6.25 C-0.09792969 4.49429688 -0.09792969 4.49429688 -0.0703125 2.703125 C-0.04710937 1.81109375 -0.02390625 0.9190625 0 0 Z " fill="#3BABCC" transform="translate(179,84)"/>
<path d="M0 0 C1.828125 0.8203125 1.828125 0.8203125 4 2 C5.7394795 2.57455535 7.49033048 3.11562198 9.25 3.625 C10.58804688 4.01558594 10.58804688 4.01558594 11.953125 4.4140625 C12.62859375 4.60742188 13.3040625 4.80078125 14 5 C14 5.33 14 5.66 14 6 C9.80755948 5.56212288 5.65156772 5.11635138 1.5 4.375 C0.675 4.25125 -0.15 4.1275 -1 4 C-1.33 4.33 -1.66 4.66 -2 5 C-4.33297433 5.04092937 -6.66705225 5.04241723 -9 5 C-8.443125 4.731875 -7.88625 4.46375 -7.3125 4.1875 C-4.9025035 3.01612631 -4.9025035 3.01612631 -2.5 1.25 C-1.675 0.8375 -0.85 0.425 0 0 Z " fill="#1E6174" transform="translate(130,120)"/>
<path d="M0 0 C1.95825873 -0.02694851 3.91662226 -0.04637218 5.875 -0.0625 C6.96554688 -0.07410156 8.05609375 -0.08570313 9.1796875 -0.09765625 C12 0 12 0 14 1 C14 1.66 14 2.32 14 3 C12.41753293 3.08153933 10.83383727 3.13943557 9.25 3.1875 C8.36828125 3.22230469 7.4865625 3.25710937 6.578125 3.29296875 C3.55328417 2.94923684 2.24416398 1.99772541 0 0 Z " fill="#486573" transform="translate(96,172)"/>
<path d="M0 0 C2.0625 0.4375 2.0625 0.4375 4 1 C-2.15034169 8.48291572 -2.15034169 8.48291572 -6 11 C-5.67 9.68 -5.34 8.36 -5 7 C-4.34 7 -3.68 7 -3 7 C-2.690625 6.030625 -2.38125 5.06125 -2.0625 4.0625 C-1 1 -1 1 0 0 Z " fill="#62757F" transform="translate(171,141)"/>
<path d="M0 0 C0.33 0.66 0.66 1.32 1 2 C3.71446979 2.31241455 6.33909361 2.51336592 9.0625 2.625 C10.20041992 2.68300781 10.20041992 2.68300781 11.36132812 2.7421875 C13.24047195 2.83673562 15.12020336 2.91946756 17 3 C17 3.33 17 3.66 17 4 C16.13117188 4.06058594 15.26234375 4.12117188 14.3671875 4.18359375 C13.21476563 4.26738281 12.06234375 4.35117188 10.875 4.4375 C9.16957031 4.55931641 9.16957031 4.55931641 7.4296875 4.68359375 C4.2459522 4.97730965 1.14489093 5.43124313 -2 6 C-1.49396008 3.83125748 -1.00016187 2.00032373 0 0 Z " fill="#1E5469" transform="translate(196,90)"/>
<path d="M0 0 C-5.48371854 4.85098178 -12.08550661 4.13828987 -19 4 C-12.8100177 0.73344615 -6.8974189 -0.28739245 0 0 Z " fill="#1B81A7" transform="translate(134,165)"/>
<path d="M0 0 C3.465 1.98 3.465 1.98 7 4 C7 5.32 7 6.64 7 8 C1.38461538 6.53511706 1.38461538 6.53511706 -0.4375 4 C-1 2 -1 2 0 0 Z " fill="#637677" transform="translate(51,159)"/>
<path d="M0 0 C1.65 0 3.3 0 5 0 C5.28875 0.598125 5.5775 1.19625 5.875 1.8125 C7.04742026 4.19327792 7.04742026 4.19327792 9 7 C5.89448334 7 4.64738916 6.4606285 2 5 C2 4.34 2 3.68 2 3 C1.34 3 0.68 3 0 3 C0 2.01 0 1.02 0 0 Z " fill="#4E6262" transform="translate(41,152)"/>
<path d="M0 0 C-0.61468882 3.99547736 -2.65459376 6.77506642 -5 10 C-5.33 10 -5.66 10 -6 10 C-5.67 7.03 -5.34 4.06 -5 1 C-2 0 -2 0 0 0 Z " fill="#52727B" transform="translate(185,127)"/>
<path d="M0 0 C0 0.66 0 1.32 0 2 C-6.27 2 -12.54 2 -19 2 C-19 1.67 -19 1.34 -19 1 C-18.22914063 0.93941406 -17.45828125 0.87882812 -16.6640625 0.81640625 C-15.15972656 0.69072266 -15.15972656 0.69072266 -13.625 0.5625 C-12.62726563 0.48128906 -11.62953125 0.40007812 -10.6015625 0.31640625 C-3.06666667 -0.6 -3.06666667 -0.6 0 0 Z " fill="#2C515E" transform="translate(170,110)"/>
<path d="M0 0 C0.66 0 1.32 0 2 0 C3.98362069 2.91708924 3.9876191 4.12380904 3.625 7.75 C3.41875 8.8225 3.2125 9.895 3 11 C1 10 1 10 0.33203125 8.22265625 C0.07486328 7.15337891 0.07486328 7.15337891 -0.1875 6.0625 C-0.36667969 5.35222656 -0.54585937 4.64195313 -0.73046875 3.91015625 C-1 2 -1 2 0 0 Z " fill="#4A6673" transform="translate(193,82)"/>
<path d="M0 0 C7.59 0 15.18 0 23 0 C23 0.33 23 0.66 23 1 C22.44538086 1.01981934 21.89076172 1.03963867 21.31933594 1.06005859 C18.79576307 1.15557651 16.27298776 1.26514567 13.75 1.375 C12.87730469 1.4059375 12.00460938 1.436875 11.10546875 1.46875 C10.26113281 1.50742187 9.41679688 1.54609375 8.546875 1.5859375 C7.77182617 1.6173584 6.99677734 1.6487793 6.19824219 1.68115234 C3.79134258 2.03026506 2.10397705 2.80551104 0 4 C0 2.68 0 1.36 0 0 Z " fill="#2A3D42" transform="translate(106,50)"/>
<path d="M0 0 C3.375 0.25 3.375 0.25 7 1 C9.30634419 3.80772336 9.19642641 6.46432469 9 10 C8.34 9.67 7.68 9.34 7 9 C7 7.35 7 5.7 7 4 C4.36 3.34 1.72 2.68 -1 2 C-0.67 1.34 -0.34 0.68 0 0 Z " fill="#169CB8" transform="translate(83,135)"/>
<path d="M0 0 C0.66 0.33 1.32 0.66 2 1 C0.71700242 3.86207152 -0.530636 6.0245088 -3 8 C-3.99 8 -4.98 8 -6 8 C-6 8.66 -6 9.32 -6 10 C-6.99 10 -7.98 10 -9 10 C-9 9.01 -9 8.02 -9 7 C-6.36095629 5.58622659 -3.92879371 4.62759865 -1 4 C-0.67 2.68 -0.34 1.36 0 0 Z " fill="#748187" transform="translate(218,100)"/>
<path d="M0 0 C1.32 0 2.64 0 4 0 C3.67 4.29 3.34 8.58 3 13 C2.01 13.33 1.02 13.66 0 14 C0 9.38 0 4.76 0 0 Z " fill="#90A2A6" transform="translate(105,53)"/>
<path d="M0 0 C2 2 2 2 2.125 5.625 C2.08375 6.73875 2.0425 7.8525 2 9 C2.99 9.33 3.98 9.66 5 10 C5 10.99 5 11.98 5 13 C2.35247996 10.42215154 0.05567935 8.08351902 -2 5 C-1 2 -1 2 0 0 Z " fill="#758D94" transform="translate(36,140)"/>
<path d="M0 0 C0 0.99 0 1.98 0 3 C-1.32 3.33 -2.64 3.66 -4 4 C-4 4.66 -4 5.32 -4 6 C-8.1205746 7.99785435 -11.45194365 8.17835515 -16 8 C-12.4348862 6.18089865 -8.79447939 4.58581235 -5.12109375 3 C-2.78164665 1.96053783 -2.78164665 1.96053783 0 0 Z " fill="#39ABCE" transform="translate(184,105)"/>
<path d="M0 0 C0.33 0 0.66 0 1 0 C1 4.29 1 8.58 1 13 C1.66 13 2.32 13 3 13 C3 13.66 3 14.32 3 15 C-0.3 15 -3.6 15 -7 15 C-7 14.34 -7 13.68 -7 13 C-5.02 13 -3.04 13 -1 13 C-0.67 8.71 -0.34 4.42 0 0 Z " fill="#4EA3BC" transform="translate(117,95)"/>
<path d="M0 0 C0.33 0 0.66 0 1 0 C1 2.31 1 4.62 1 7 C1.66 7 2.32 7 3 7 C3 9.64 3 12.28 3 15 C2.01 14.67 1.02 14.34 0 14 C0 9.38 0 4.76 0 0 Z " fill="#2A768B" transform="translate(104,75)"/>
<path d="M0 0 C2 0 2 0 3.625 1.5 C4.07875 1.995 4.5325 2.49 5 3 C4.34 4.32 3.68 5.64 3 7 C1.68 6.67 0.36 6.34 -1 6 C-1.042721 4.33388095 -1.04063832 2.66617115 -1 1 C-0.67 0.67 -0.34 0.34 0 0 Z " fill="#31545A" transform="translate(84,139)"/>
<path d="M0 0 C0.66 0.99 1.32 1.98 2 3 C-4.4 3.36923077 -4.4 3.36923077 -7.4375 1.5 C-7.953125 1.005 -8.46875 0.51 -9 0 C-5.85135005 -1.57432497 -3.35512575 -0.71895552 0 0 Z " fill="#2EB4D4" transform="translate(106,122)"/>
<path d="M0 0 C1.32 0.66 2.64 1.32 4 2 C3.67 3.98 3.34 5.96 3 8 C1.0625 7.6875 1.0625 7.6875 -1 7 C-2 4 -2 4 -1.0625 1.8125 C-0.5365625 0.9153125 -0.5365625 0.9153125 0 0 Z " fill="#647072" transform="translate(15,119)"/>
<path d="M0 0 C0.66 0 1.32 0 2 0 C2 0.99 2 1.98 2 3 C2.66 2.01 3.32 1.02 4 0 C4.66 0.99 5.32 1.98 6 3 C3.28817788 5.60334924 2.10866187 5.99456691 -1.75 6.1875 C-2.8225 6.125625 -3.895 6.06375 -5 6 C-4.360625 5.7525 -3.72125 5.505 -3.0625 5.25 C-0.81258459 4.18437567 -0.81258459 4.18437567 -0.25 1.875 C-0.1675 1.25625 -0.085 0.6375 0 0 Z " fill="#235666" transform="translate(179,102)"/>
<path d="M0 0 C-6.33333333 4.22222222 -6.33333333 4.22222222 -10.8125 3.625 C-11.534375 3.41875 -12.25625 3.2125 -13 3 C-8.48332093 -0.01111938 -5.3360009 -0.10067926 0 0 Z " fill="#72868E" transform="translate(142,166)"/>
<path d="M0 0 C4.08718695 -0.24042276 7.17679443 0.57741188 11 2 C11 2.99 11 3.98 11 5 C7.37 4.01 3.74 3.02 0 2 C0 1.34 0 0.68 0 0 Z " fill="#2197B7" transform="translate(172,120)"/>
<path d="M0 0 C0.66 0 1.32 0 2 0 C0.78184562 4.68520915 -0.69559987 8.70543612 -3 13 C-4.31223496 9.06329512 -3.24296256 6.87511856 -2 3 C-1.34 3 -0.68 3 0 3 C0 2.01 0 1.02 0 0 Z " fill="#1BA0C1" transform="translate(188,109)"/>
<path d="M0 0 C0.99 0.33 1.98 0.66 3 1 C3 1.66 3 2.32 3 3 C7.95 3 12.9 3 18 3 C18 3.33 18 3.66 18 4 C12.06 4 6.12 4 0 4 C0 2.68 0 1.36 0 0 Z " fill="#2C555C" transform="translate(128,88)"/>
<path d="M0 0 C-0.33 1.65 -0.66 3.3 -1 5 C-3.97 4.505 -3.97 4.505 -7 4 C-7 3.01 -7 2.02 -7 1 C-4.53721199 -0.231394 -2.7204945 -0.07159196 0 0 Z " fill="#D0ECF6" transform="translate(74,152)"/>
<path d="M0 0 C4.18333056 0.22410699 6.49223439 0.6614896 10 3 C5.71 3 1.42 3 -3 3 C-2.01 2.01 -1.02 1.02 0 0 Z " fill="#225775" transform="translate(171,122)"/>
<path d="M0 0 C1.65 0 3.3 0 5 0 C5 1.32 5 2.64 5 4 C3.02 4 1.04 4 -1 4 C-0.67 2.68 -0.34 1.36 0 0 Z " fill="#3D4A52" transform="translate(203,123)"/>
<path d="M0 0 C4.25177923 0.47241991 6.29969203 2.84964071 9 6 C9 6.99 9 7.98 9 9 C7.49704815 7.69088122 5.99770689 6.37761608 4.5 5.0625 C3.6646875 4.33160156 2.829375 3.60070312 1.96875 2.84765625 C1.3190625 2.23792969 0.669375 1.62820312 0 1 C0 0.67 0 0.34 0 0 Z " fill="#1884A2" transform="translate(82,159)"/>
<path d="M0 0 C2.64 0 5.28 0 8 0 C8 0.66 8 1.32 8 2 C5.36 2.33 2.72 2.66 0 3 C0 2.01 0 1.02 0 0 Z " fill="#4D6164" transform="translate(74,171)"/>
<path d="M0 0 C0 0.99 0 1.98 0 3 C-3.96 3.66 -7.92 4.32 -12 5 C-11 3 -11 3 -9.00390625 2.1484375 C-8.19824219 1.89320313 -7.39257812 1.63796875 -6.5625 1.375 C-5.75941406 1.11460937 -4.95632812 0.85421875 -4.12890625 0.5859375 C-2 0 -2 0 0 0 Z " fill="#235767" transform="translate(142,163)"/>
<path d="M0 0 C0.99 1.32 1.98 2.64 3 4 C-0.75 6 -0.75 6 -3 6 C-2.625 3.5625 -2.625 3.5625 -2 1 C-1.34 0.67 -0.68 0.34 0 0 Z " fill="#019CC9" transform="translate(93,146)"/>
<path d="M0 0 C3.85645121 -0.22036864 6.49223216 0.39644899 10 2 C10 2.33 10 2.66 10 3 C6.7 3 3.4 3 0 3 C0 2.01 0 1.02 0 0 Z " fill="#707679" transform="translate(212,125)"/>
<path d="M0 0 C0.66 0.33 1.32 0.66 2 1 C1.67 3.31 1.34 5.62 1 8 C-0.32 7.34 -1.64 6.68 -3 6 C-2.01 4.02 -1.02 2.04 0 0 Z " fill="#2F5E75" transform="translate(187,116)"/>
<path d="M0 0 C1.98 0.495 1.98 0.495 4 1 C4 1.99 4 2.98 4 4 C3.34 4 2.68 4 2 4 C2 4.99 2 5.98 2 7 C0 6 0 6 -0.6875 4.0625 C-1 2 -1 2 0 0 Z " fill="#95A0A0" transform="translate(220,94)"/>
<path d="M0 0 C0.66 0 1.32 0 2 0 C2.66 2.31 3.32 4.62 4 7 C2.0625 6.6875 2.0625 6.6875 0 6 C-1 3 -1 3 0 0 Z " fill="#216276" transform="translate(38,143)"/>
<path d="M0 0 C2.31 0.33 4.62 0.66 7 1 C7.33 1.99 7.66 2.98 8 4 C5.125 3.6875 5.125 3.6875 2 3 C1.34 2.01 0.68 1.02 0 0 Z " fill="#3AAACE" transform="translate(132,120)"/>
<path d="M0 0 C-3.44069624 2.29379749 -4.72290301 3 -9 3 C-9 2.34 -9 1.68 -9 1 C-5.57367167 -0.61798838 -3.61944899 -1.34053666 0 0 Z " fill="#39A9D2" transform="translate(51,121)"/>
<path d="M0 0 C1.44360116 4.33080349 2.08427519 6.54242423 1 11 C0.67 11 0.34 11 0 11 C-0.38909985 9.54536519 -0.76088029 8.08608793 -1.125 6.625 C-1.33382812 5.81289062 -1.54265625 5.00078125 -1.7578125 4.1640625 C-1.83773437 3.44992188 -1.91765625 2.73578125 -2 2 C-1.34 1.34 -0.68 0.68 0 0 Z " fill="#598094" transform="translate(179,73)"/>
<path d="M0 0 C0.99 0.99 1.98 1.98 3 3 C0.36095629 4.41377341 -2.07120629 5.37240135 -5 6 C-4.34 4.68 -3.68 3.36 -3 2 C-2.01 2 -1.02 2 0 2 C0 1.34 0 0.68 0 0 Z " fill="#2B4C56" transform="translate(183,71)"/>
<path d="M0 0 C0.99 0.33 1.98 0.66 3 1 C3.33 1.99 3.66 2.98 4 4 C5.65 4.33 7.3 4.66 9 5 C9 5.33 9 5.66 9 6 C6.69 6 4.38 6 2 6 C1.34 4.02 0.68 2.04 0 0 Z " fill="#0F87AE" transform="translate(40,143)"/>
<path d="M0 0 C1.98 0.66 3.96 1.32 6 2 C5.67 2.66 5.34 3.32 5 4 C3.35 4 1.7 4 0 4 C-0.33 3.01 -0.66 2.02 -1 1 C-0.67 0.67 -0.34 0.34 0 0 Z " fill="#49565A" transform="translate(58,164)"/>
<path d="M0 0 C0.33 0.66 0.66 1.32 1 2 C0.319375 2.61875 0.319375 2.61875 -0.375 3.25 C-2.05950374 5.06408095 -2.99265971 6.75285627 -4 9 C-4.66 8.34 -5.32 7.68 -6 7 C-4.625 5 -4.625 5 -3 3 C-2.34 3 -1.68 3 -1 3 C-0.67 2.01 -0.34 1.02 0 0 Z " fill="#325A6B" transform="translate(168,144)"/>
<path d="M0 0 C0.99 0.33 1.98 0.66 3 1 C3 1.99 3 2.98 3 4 C3.66 4.33 4.32 4.66 5 5 C3.02 5 1.04 5 -1 5 C-0.67 3.35 -0.34 1.7 0 0 Z " fill="#29565F" transform="translate(96,122)"/>
<path d="M0 0 C0.99 0 1.98 0 3 0 C3.33 1.32 3.66 2.64 4 4 C3.34 4 2.68 4 2 4 C1.34 5.32 0.68 6.64 0 8 C0 5.36 0 2.72 0 0 Z " fill="#728189" transform="translate(188,115)"/>
<path d="" fill="#FFFFFF" transform="translate(0,0)"/>
<path d="" fill="#FFFFFF" transform="translate(0,0)"/>
<path d="" fill="#FFFFFF" transform="translate(0,0)"/>
<path d="" fill="#FFFFFF" transform="translate(0,0)"/>
<path d="" fill="#FFFFFF" transform="translate(0,0)"/>
<path d="" fill="#FFFFFF" transform="translate(0,0)"/>
<path d="" fill="#FFFFFF" transform="translate(0,0)"/>
<path d="" fill="#FFFFFF" transform="translate(0,0)"/>
<path d="" fill="#FFFFFF" transform="translate(0,0)"/>
<path d="" fill="#FFFFFF" transform="translate(0,0)"/>
<path d="" fill="#FFFFFF" transform="translate(0,0)"/>
<path d="" fill="#FFFFFF" transform="translate(0,0)"/>
<path d="" fill="#FFFFFF" transform="translate(0,0)"/>
<path d="" fill="#FFFFFF" transform="translate(0,0)"/>
<path d="" fill="#FFFFFF" transform="translate(0,0)"/>
<path d="" fill="#FFFFFF" transform="translate(0,0)"/>
<path d="" fill="#FFFFFF" transform="translate(0,0)"/>
<path d="" fill="#FFFFFF" transform="translate(0,0)"/>
<path d="" fill="#FFFFFF" transform="translate(0,0)"/>
<path d="" fill="#FFFFFF" transform="translate(0,0)"/>
<path d="" fill="#FFFFFF" transform="translate(0,0)"/>
<path d="" fill="#FFFFFF" transform="translate(0,0)"/>
<path d="" fill="#FFFFFF" transform="translate(0,0)"/>
<path d="" fill="#FFFFFF" transform="translate(0,0)"/>
<path d="" fill="#FFFFFF" transform="translate(0,0)"/>
<path d="" fill="#FFFFFF" transform="translate(0,0)"/>
<path d="" fill="#FFFFFF" transform="translate(0,0)"/>
<path d="" fill="#FFFFFF" transform="translate(0,0)"/>
<path d="" fill="#FFFFFF" transform="translate(0,0)"/>
<path d="" fill="#FFFFFF" transform="translate(0,0)"/>
<path d="" fill="#FFFFFF" transform="translate(0,0)"/>
<path d="" fill="#FFFFFF" transform="translate(0,0)"/>
<path d="" fill="#FFFFFF" transform="translate(0,0)"/>
<path d="" fill="#FFFFFF" transform="translate(0,0)"/>
<path d="" fill="#FFFFFF" transform="translate(0,0)"/>
<path d="" fill="#FFFFFF" transform="translate(0,0)"/>
<path d="" fill="#FFFFFF" transform="translate(0,0)"/>
<path d="" fill="#FFFFFF" transform="translate(0,0)"/>
<path d="" fill="#FFFFFF" transform="translate(0,0)"/>
<path d="" fill="#FFFFFF" transform="translate(0,0)"/>
<path d="" fill="#FFFFFF" transform="translate(0,0)"/>
<path d="" fill="#FFFFFF" transform="translate(0,0)"/>
<path d="" fill="#FFFFFF" transform="translate(0,0)"/>
<path d="" fill="#FFFFFF" transform="translate(0,0)"/>
<path d="" fill="#FFFFFF" transform="translate(0,0)"/>
<path d="" fill="#FFFFFF" transform="translate(0,0)"/>
<path d="" fill="#FFFFFF" transform="translate(0,0)"/>
<path d="" fill="#FFFFFF" transform="translate(0,0)"/>
<path d="" fill="#FFFFFF" transform="translate(0,0)"/>
<path d="" fill="#FFFFFF" transform="translate(0,0)"/>
<path d="" fill="#FFFFFF" transform="translate(0,0)"/>
<path d="" fill="#FFFFFF" transform="translate(0,0)"/>
<path d="" fill="#FFFFFF" transform="translate(0,0)"/>
<path d="" fill="#FFFFFF" transform="translate(0,0)"/>
<path d="" fill="#FFFFFF" transform="translate(0,0)"/>
<path d="" fill="#FFFFFF" transform="translate(0,0)"/>
<path d="" fill="#FFFFFF" transform="translate(0,0)"/>
<path d="" fill="#FFFFFF" transform="translate(0,0)"/>
<path d="" fill="#FFFFFF" transform="translate(0,0)"/>
<path d="" fill="#FFFFFF" transform="translate(0,0)"/>
<path d="" fill="#FFFFFF" transform="translate(0,0)"/>
<path d="" fill="#FFFFFF" transform="translate(0,0)"/>
<path d="" fill="#FFFFFF" transform="translate(0,0)"/>
</svg>
