<?xml version="1.0" encoding="UTF-8"?>
<svg version="1.1" xmlns="http://www.w3.org/2000/svg" width="1843" height="1129">
<path d="M0 0 C3.73673375 1.45013488 7.03476838 3.45818706 10.4375 5.5625 C12.46908971 6.7646487 14.50168408 7.9651008 16.53515625 9.1640625 C18.11901123 10.11007324 18.11901123 10.11007324 19.73486328 11.07519531 C25.2191812 14.3082118 30.79962764 17.36512676 36.375 20.4375 C38.66450743 21.70622868 40.95356997 22.97576051 43.2421875 24.24609375 C44.36850586 24.87112793 45.49482422 25.49616211 46.65527344 26.14013672 C52.96240998 29.64727294 59.25656783 33.17759899 65.5480957 36.71264648 C71.11240214 39.83585495 76.68970407 42.93309097 82.28515625 46 C84.11721554 47.00714049 85.9490246 48.01473463 87.78076172 49.02246094 C89.50767139 49.96991864 91.23815668 50.91085007 92.96875 51.8515625 C112.7560428 62.74056969 112.7560428 62.74056969 116 73 C116.1883162 75.93717271 116.27200814 78.77787445 116.25726891 81.71392536 C116.26077498 82.59525213 116.26428105 83.47657889 116.26789337 84.38461253 C116.27723448 87.35268744 116.27227705 90.3205673 116.26742554 93.28865051 C116.27116043 95.43216207 116.2757613 97.57567226 116.28115618 99.71918029 C116.29342149 105.62127255 116.29312156 111.52330828 116.29076743 117.42541039 C116.29036016 123.78614374 116.30138984 130.14685876 116.31088257 136.50758362 C116.32751278 148.97379394 116.33301891 161.43998477 116.33410732 173.90620521 C116.33502603 184.03664672 116.33914071 194.16708208 116.34550858 204.29752159 C116.34730363 207.21241988 116.34908326 210.12731818 116.35085833 213.04221648 C116.35152148 214.12916233 116.35152148 214.12916233 116.35219802 215.23806667 C116.36450832 235.62367794 116.37239895 256.00928708 116.37151146 276.39490223 C116.37146472 277.54803549 116.37146472 277.54803549 116.37141704 278.72446437 C116.37125083 282.62093217 116.37105274 286.51739996 116.37084763 290.41386775 C116.37080774 291.1877351 116.37076785 291.96160245 116.37072675 292.75892032 C116.37064587 294.32386905 116.37056228 295.88881778 116.37047596 297.45376652 C116.36925037 321.80359283 116.38426448 346.15336345 116.41162109 370.50317383 C116.44233576 397.85329098 116.45955396 425.20337154 116.45769465 452.55350703 C116.45754539 455.46934839 116.45744797 458.38518975 116.45738602 461.30103111 C116.45736271 462.01899748 116.4573394 462.73696384 116.45731538 463.47668676 C116.45725381 475.03546823 116.47003078 486.59420138 116.48725055 498.15296848 C116.50419629 509.76795421 116.50584574 521.38285337 116.4930319 532.9978464 C116.48648655 539.29143927 116.48644167 545.58485686 116.5037384 551.87843323 C116.51940469 557.63789295 116.51667141 563.39703748 116.49917014 569.15648922 C116.49608602 571.24193402 116.49978539 573.32740197 116.51089029 575.41281948 C116.52497544 578.2451131 116.51445312 581.07629566 116.49777794 583.90855122 C116.5077143 584.7203655 116.51765066 585.53217978 116.52788812 586.3685945 C116.44834503 592.74831818 114.68619193 598.11628277 110.27685547 602.84985352 C109.68791504 603.25131592 109.09897461 603.65277832 108.4921875 604.06640625 C107.79319336 604.54480957 107.09419922 605.02321289 106.37402344 605.51611328 C101.69031713 608.44367055 96.93134914 611.21659802 92.125 613.9375 C90.38838923 614.92984901 88.65178313 615.92220632 86.91546631 616.91506958 C85.12456461 617.9383062 83.3323964 618.95929616 81.54003906 619.97998047 C76.01329764 623.13005314 70.50790181 626.3171448 65 629.5 C62.83343102 630.7501693 60.66676408 632.00016887 58.5 633.25 C56.89125 634.178125 56.89125 634.178125 55.25 635.125 C34.66666667 647 14.08333333 658.875 -6.5 670.75 C-7.57290283 671.3689917 -8.64580566 671.9879834 -9.7512207 672.62573242 C-11.91378583 673.8733474 -14.07638339 675.12090616 -16.23901367 676.3684082 C-21.71870371 679.52943449 -27.19779358 682.69149309 -32.67578125 685.85546875 C-43.10724983 691.87938214 -53.54308249 697.89534414 -64 703.875 C-64.88469971 704.38119873 -65.76939941 704.88739746 -66.6809082 705.40893555 C-67.4874585 705.86953369 -68.29400879 706.33013184 -69.125 706.8046875 C-69.82882812 707.20671387 -70.53265625 707.60874023 -71.2578125 708.02294922 C-76.81931753 711.14194349 -82.76082234 710.66402207 -89 710 C-93.02762059 708.54637944 -96.39758343 706.29119215 -100 704 C-101.97538134 702.88304692 -103.96663439 701.79820019 -105.95996094 700.71362305 C-115.98204264 695.25332404 -125.81646249 689.46966793 -135.6640625 683.703125 C-142.05281992 679.96365411 -148.46116076 676.25874966 -154.875 672.5625 C-155.95458984 671.94028564 -157.03417969 671.31807129 -158.14648438 670.67700195 C-160.3368252 669.41488483 -162.52725502 668.15292215 -164.71777344 666.89111328 C-170.14659942 663.76319852 -175.57319281 660.63141552 -181 657.5 C-183.16665583 656.24998121 -185.3333225 654.99998122 -187.5 653.75 C-200.5 646.25 -213.5 638.75 -226.5 631.25 C-228.11116699 630.3209082 -228.11116699 630.3209082 -229.75488281 629.37304688 C-231.90627302 628.1312875 -234.05667629 626.88781654 -236.20605469 625.64257812 C-241.2489437 622.7237362 -246.29958724 619.8224644 -251.38757324 616.98303223 C-253.1865989 615.97798253 -254.98239801 614.96739349 -256.77734375 613.95507812 C-259.02893356 612.68745079 -261.28644473 611.43026204 -263.55078125 610.18554688 C-270.8027931 606.08279681 -276.68660749 601.86709237 -280 594 C-281.01997426 589.15684845 -281.14590867 584.41550587 -281.14044189 579.48724365 C-281.14341302 578.64387742 -281.14638414 577.80051119 -281.1494453 576.93158841 C-281.15809892 574.11291078 -281.15963771 571.29427579 -281.16113281 568.47558594 C-281.16576332 566.45154226 -281.1707883 564.42749944 -281.17617798 562.40345764 C-281.18928091 556.90951539 -281.19574274 551.41558534 -281.20018864 545.92162991 C-281.20312256 542.48723372 -281.20722796 539.05284086 -281.21169281 535.61844635 C-281.22536174 524.86711161 -281.23503155 514.11578446 -281.2388947 503.36444163 C-281.24337512 490.96436262 -281.26092488 478.56439386 -281.2898953 466.16434836 C-281.31152675 456.57179151 -281.32159975 446.97926564 -281.32293582 437.38668466 C-281.32398272 431.66090163 -281.32986638 425.93522232 -281.34775543 420.20946503 C-281.36426151 414.82172676 -281.36637924 409.43416991 -281.35761642 404.04641533 C-281.35684743 402.07361044 -281.36117051 400.10079569 -281.37107468 398.12801552 C-281.47797322 375.50090652 -281.47797322 375.50090652 -275.875 368.25 C-268.62862198 362.57892155 -260.73000182 358.02585359 -252.72924805 353.51123047 C-249.61618921 351.75427589 -246.50958283 349.98597011 -243.40234375 348.21875 C-242.77395599 347.86167969 -242.14556824 347.50460937 -241.49813843 347.13671875 C-235.63867315 343.80338813 -229.8157652 340.40895356 -224 337 C-215.36527328 331.94327056 -206.69393245 326.9539263 -198 322 C-188.27875494 316.46014067 -178.59105132 310.86625068 -168.93310547 305.21655273 C-158.42106079 299.06929561 -147.86966542 292.9909246 -137.31738281 286.91308594 C-133.94645692 284.96912249 -130.57834086 283.02037066 -127.2109375 281.0703125 C-117.35869495 275.36750717 -107.50317355 269.6726888 -97.5625 264.125 C-96.82902344 263.71403076 -96.09554688 263.30306152 -95.33984375 262.87963867 C-89.25314577 259.50507578 -84.87433041 258.31480824 -78 259 C-70.23504428 261.30770798 -63.34298755 265.49458353 -56.4375 269.625 C-54.87237671 270.54563232 -54.87237671 270.54563232 -53.27563477 271.48486328 C-48.45653167 274.32389294 -43.66203679 277.19674739 -38.90625 280.140625 C-37.76265015 280.83937744 -37.76265015 280.83937744 -36.59594727 281.55224609 C-35.20257982 282.40613873 -33.81693444 283.27282373 -32.44116211 284.15478516 C-28.15975312 286.76993706 -25.00041841 287.70463251 -20 287 C-17.87026811 283.80540216 -17.74913451 283.01334977 -17.7438736 279.35004616 C-17.7376415 278.38922272 -17.73140941 277.42839929 -17.72498846 276.43845999 C-17.72828743 275.38059833 -17.73158641 274.32273668 -17.73498535 273.2328186 C-17.73060408 272.11080626 -17.72622281 270.98879391 -17.72170877 269.8327812 C-17.70933547 266.05335715 -17.71120051 262.27407093 -17.71289062 258.49462891 C-17.70798732 255.79296774 -17.70004951 253.09131765 -17.69218445 250.3896637 C-17.6767152 244.56202641 -17.66831675 238.73441338 -17.66447449 232.90675735 C-17.65873148 224.47545656 -17.64015183 216.04422105 -17.61803395 207.61294906 C-17.58229676 193.92719806 -17.55399138 180.24144336 -17.53173828 166.55566406 C-17.53040329 165.73625306 -17.5290683 164.91684205 -17.52769285 164.07260041 C-17.51826594 158.25673391 -17.50910332 152.44086701 -17.5 146.625 C-17.48960509 139.98502574 -17.47908763 133.3450517 -17.46826172 126.70507812 C-17.46693098 125.88726953 -17.46560023 125.06946093 -17.46422917 124.22687025 C-17.44180633 110.59539274 -17.41161367 96.96394307 -17.37586927 83.33249414 C-17.35419345 74.92174899 -17.33958064 66.51104717 -17.33403051 58.10027562 C-17.32978603 52.33758728 -17.31855542 46.57494019 -17.30180657 40.81227471 C-17.29239372 37.48610672 -17.28737996 34.1600822 -17.28886986 30.83389091 C-17.29002433 27.22955442 -17.27904983 23.62545327 -17.26501465 20.02114868 C-17.26831362 18.96774847 -17.2716126 17.91434825 -17.27501154 16.82902682 C-17.26877944 15.86298789 -17.26254735 14.89694896 -17.2561264 13.90163612 C-17.25433514 12.65384626 -17.25433514 12.65384626 -17.25250769 11.38084853 C-16.83240286 7.41975742 -15.59448698 4.68737558 -13 1.6875 C-8.6404588 -0.76474193 -4.90774116 -0.70933889 0 0 Z M-89.921875 412.4375 C-90.85225586 412.9955835 -91.78263672 413.55366699 -92.74121094 414.12866211 C-93.73411133 414.74620361 -94.72701172 415.36374512 -95.75 416 C-97.89518467 417.29404467 -100.04104248 418.58697398 -102.1875 419.87890625 C-103.30125 420.5558252 -104.415 421.23274414 -105.5625 421.93017578 C-111.23527089 425.36266304 -116.99821614 428.63978831 -122.75 431.9375 C-125.82256097 433.70543055 -128.89405544 435.47512127 -131.96289062 437.24951172 C-134.10291506 438.48295024 -136.24793165 439.70774732 -138.39648438 440.92626953 C-139.48767578 441.55001465 -140.57886719 442.17375977 -141.703125 442.81640625 C-142.69473633 443.3791626 -143.68634766 443.94191895 -144.70800781 444.52172852 C-147.10990132 445.79542553 -147.10990132 445.79542553 -148 448 C-148.13853227 450.30569135 -148.21179658 452.61538507 -148.25634766 454.92480469 C-148.27095032 455.63722321 -148.28555298 456.34964172 -148.30059814 457.08364868 C-148.4265734 463.65457786 -148.49534129 470.22671135 -148.54844093 476.79859543 C-148.58421638 481.21363226 -148.63754942 485.62684892 -148.73388672 490.04101562 C-148.82677261 494.30994464 -148.87536978 498.57726282 -148.89283371 502.84714508 C-148.90691772 504.47239228 -148.93653606 506.09758347 -148.98213577 507.72225189 C-149.52801986 516.52328433 -149.52801986 516.52328433 -146.14836121 524.23976135 C-143.82612394 525.81973866 -141.59183336 526.93005149 -139 528 C-137.95078369 528.63091553 -136.90156738 529.26183105 -135.82055664 529.91186523 C-134.86012451 530.45528564 -133.89969238 530.99870605 -132.91015625 531.55859375 C-131.80824951 532.18515869 -130.70634277 532.81172363 -129.57104492 533.45727539 C-128.40174806 534.11773655 -127.23222789 534.77780251 -126.0625 535.4375 C-123.57980654 536.83952048 -121.09800319 538.24309695 -118.6171875 539.6484375 C-117.98864365 540.00424393 -117.36009979 540.36005035 -116.71250916 540.72663879 C-112.31381986 543.22667804 -107.96595635 545.80240819 -103.6328125 548.4140625 C-102.45335116 549.11843515 -101.27358737 549.82230163 -100.09350586 550.52563477 C-97.86650243 551.85743103 -95.64809617 553.20373786 -93.43969727 554.56616211 C-87.78493216 557.95149934 -87.78493216 557.95149934 -81.4375 559.28125 C-76.36831425 557.39182622 -71.91968034 554.7531258 -67.3125 551.9375 C-65.18450845 550.66513561 -63.05556035 549.39436999 -60.92578125 548.125 C-59.8063916 547.4546875 -58.68700195 546.784375 -57.53369141 546.09375 C-50.81810415 542.09543203 -43.99954488 538.2724159 -37.20108032 534.41744995 C-25.75302875 529.10245883 -25.75302875 529.10245883 -17 521 C-16.86670685 518.72482181 -16.79869992 516.4457348 -16.75952148 514.16699219 C-16.74002693 513.11299477 -16.74002693 513.11299477 -16.72013855 512.03770447 C-16.59341257 504.68904889 -16.5366786 497.33924857 -16.48510742 489.98974609 C-16.45835774 486.50309922 -16.40962524 483.01781867 -16.34155273 479.53173828 C-16.2595451 475.32120107 -16.21691583 471.11196536 -16.20204353 466.90067291 C-16.1898047 465.29779941 -16.16379129 463.69496831 -16.12359428 462.09255219 C-15.62019145 453.49204566 -15.62019145 453.49204566 -18.62579346 445.77366638 C-20.68168119 444.18815345 -22.64611659 443.08358706 -25 442 C-26.01175293 441.36908447 -27.02350586 440.73816895 -28.06591797 440.08813477 C-29.51442139 439.27300415 -29.51442139 439.27300415 -30.9921875 438.44140625 C-32.09739746 437.81500244 -33.20260742 437.18859863 -34.34130859 436.54321289 C-35.51908488 435.8827597 -36.69698487 435.22252708 -37.875 434.5625 C-40.36571657 433.15825361 -42.85469993 431.7509476 -45.34375 430.34375 C-46.29089371 429.80942101 -46.29089371 429.80942101 -47.25717163 429.26429749 C-51.66634904 426.77174361 -56.0430893 424.22837531 -60.40625 421.65625 C-61.58992891 420.96137495 -62.77368408 420.26662981 -63.95751953 419.57202148 C-66.19180221 418.25823518 -68.42213522 416.93770255 -70.64794922 415.60961914 C-72.16412842 414.72197876 -72.16412842 414.72197876 -73.7109375 413.81640625 C-74.59056152 413.29506104 -75.47018555 412.77371582 -76.37646484 412.23657227 C-81.60617724 409.77160918 -84.95405187 409.38829808 -89.921875 412.4375 Z " fill="#333333" transform="translate(1245,0)"/>
<path d="M0 0 C2.10902286 1.24018236 4.21841061 2.47974438 6.328125 3.71875 C7.94557617 4.67007812 7.94557617 4.67007812 9.59570312 5.640625 C14.96494733 8.78734108 20.35708191 11.89408619 25.75 15 C27.36865967 15.93283813 27.36865967 15.93283813 29.02001953 16.88452148 C31.21082951 18.14699731 33.4017476 19.40928556 35.59277344 20.67138672 C41.02159942 23.79930148 46.44819281 26.93108448 51.875 30.0625 C54.04165583 31.31251879 56.2083225 32.56251878 58.375 33.8125 C71.375 41.3125 84.375 48.8125 97.375 56.3125 C98.4482251 56.93165283 99.5214502 57.55080566 100.62719727 58.1887207 C102.78659395 59.4345577 104.94593669 60.68048818 107.10522461 61.92651367 C113.76387036 65.76871661 120.42448505 69.6074761 127.08691406 73.44311523 C130.35891224 75.32968778 133.62680829 77.2232225 136.89453125 79.1171875 C140.60195886 81.26318935 144.32400514 83.37507204 148.07421875 85.4453125 C164.07832595 94.36141168 164.07832595 94.36141168 166.91559124 104.15402412 C167.99293663 108.57037906 168.15788587 112.74863103 168.13569641 117.27780151 C168.13952196 118.11879304 168.14334751 118.95978457 168.14728898 119.82626069 C168.15755111 122.6249613 168.1536398 125.42345415 168.1496582 128.22216797 C168.15400844 130.23665556 168.15919263 132.2511415 168.16514587 134.265625 C168.17851366 139.72434501 168.179117 145.18299569 168.17658257 150.64172888 C168.17551134 155.20425602 168.18040014 159.76676922 168.185188 164.32929337 C168.19627554 175.09600441 168.19672484 185.86268055 168.19067383 196.62939453 C168.1846341 207.72431518 168.19694682 218.81910901 168.2182439 229.91400802 C168.23587589 239.45140988 168.24185872 248.98877142 168.23860615 258.52618897 C168.23679569 264.21728154 168.23940592 269.90828365 168.25332069 275.59936142 C168.26592035 280.95266532 168.26393462 286.30577192 168.25090981 291.65907288 C168.24854913 293.61897474 168.25126038 295.57889057 168.25953293 297.5387764 C168.34774054 320.06836518 168.34774054 320.06836518 162.75 327.3125 C155.2991311 333.14361479 147.14008625 337.81990536 138.9375 342.5 C137.2076544 343.49242138 135.47781157 344.48484765 133.74813843 345.47756958 C131.96560128 346.50014091 130.18231803 347.52140134 128.39892578 348.54248047 C122.88310212 351.70219911 117.37979254 354.88361722 111.875 358.0625 C109.70839031 359.31259875 107.5417235 360.56259851 105.375 361.8125 C104.3025 362.43125 103.23 363.05 102.125 363.6875 C81.54166667 375.5625 60.95833333 387.4375 40.375 399.3125 C39.30169434 399.9317334 38.22838867 400.5509668 37.12255859 401.18896484 C34.96409502 402.43419484 32.80556677 403.67931272 30.64697266 404.92431641 C25.10425259 408.12136337 19.56279992 411.32057595 14.0234375 414.5234375 C-22.70273277 435.75082756 -22.70273277 435.75082756 -29 436 C-30.04929687 436.06058594 -31.09859375 436.12117188 -32.1796875 436.18359375 C-41.92787493 434.6489781 -50.86059904 428.09891068 -59.25 423.125 C-61.35902286 421.88481764 -63.46841061 420.64525562 -65.578125 419.40625 C-67.19557617 418.45492187 -67.19557617 418.45492187 -68.84570312 417.484375 C-74.21494733 414.33765892 -79.60708191 411.23091381 -85 408.125 C-86.61865967 407.19216187 -86.61865967 407.19216187 -88.27001953 406.24047852 C-90.46082951 404.97800269 -92.6517476 403.71571444 -94.84277344 402.45361328 C-100.27159942 399.32569852 -105.69819281 396.19391552 -111.125 393.0625 C-113.29165583 391.81248121 -115.4583225 390.56248122 -117.625 389.3125 C-130.625 381.8125 -143.625 374.3125 -156.625 366.8125 C-158.23483765 365.88377075 -158.23483765 365.88377075 -159.87719727 364.9362793 C-162.03659395 363.6904423 -164.19593669 362.44451182 -166.35522461 361.19848633 C-173.01390548 357.35626312 -179.67465715 353.5176597 -186.33691406 349.68164062 C-189.60840867 347.79559681 -192.87665223 345.90401836 -196.14453125 344.01171875 C-199.85711047 341.86332565 -203.58111495 339.73924233 -207.32421875 337.64453125 C-208.10273193 337.20278564 -208.88124512 336.76104004 -209.68334961 336.3059082 C-211.07520249 335.51625612 -212.47261201 334.7362582 -213.87719727 333.96948242 C-220.72109532 330.05135753 -225.02231423 325.23431893 -227.125 317.5625 C-227.40379905 314.65500725 -227.39945354 311.76563719 -227.38569641 308.84646606 C-227.38952196 307.98127094 -227.39334751 307.11607582 -227.39728898 306.22466266 C-227.40758886 303.33216732 -227.40363254 300.4398716 -227.3996582 297.54736328 C-227.40400635 295.47081316 -227.40918985 293.39426464 -227.41514587 291.31771851 C-227.42853632 285.68133469 -227.42911446 280.04501793 -227.42658257 274.40862131 C-227.42551285 269.70185712 -227.4303963 264.9951065 -227.435188 260.28834522 C-227.44628345 249.183268 -227.44672043 238.07822461 -227.44067383 226.97314453 C-227.43463374 215.52036391 -227.44694591 204.06770614 -227.4682439 192.61494648 C-227.48586259 182.77868051 -227.49186081 172.94245362 -227.48860615 163.10617244 C-227.48679351 157.23290916 -227.48942763 151.35973351 -227.50332069 145.48648453 C-227.51589861 139.96249397 -227.51395513 134.43869482 -227.50090981 128.91470718 C-227.49854438 126.88946467 -227.5012775 124.86420869 -227.50953293 122.83898163 C-227.52000485 120.06993331 -227.51189604 117.30152673 -227.4992218 114.53250122 C-227.50659609 113.73501563 -227.51397037 112.93753004 -227.52156812 112.11587822 C-227.46294943 106.00954981 -226.37833994 100.42706432 -222.49951172 95.49609375 C-216.79786411 90.80871831 -210.68648642 87.15594705 -204.25 83.5625 C-202.51331793 82.57700184 -200.77664386 81.59148925 -199.04046631 80.60510254 C-197.250208 79.58943574 -195.4577933 78.57765977 -193.66503906 77.56640625 C-188.1286009 74.43861187 -182.62901368 71.24687537 -177.125 68.0625 C-174.95850157 66.81220844 -172.79183443 65.56220916 -170.625 64.3125 C-169.5525 63.69375 -168.48 63.075 -167.375 62.4375 C-146.79166667 50.5625 -126.20833333 38.6875 -105.625 26.8125 C-104.55209717 26.1935083 -103.47919434 25.5745166 -102.3737793 24.93676758 C-100.21121417 23.6891526 -98.04861661 22.44159384 -95.88598633 21.1940918 C-89.29501329 17.39200831 -82.70528498 13.58777861 -76.11645508 9.78198242 C-72.86801803 7.90704399 -69.61771762 6.03536929 -66.3671875 4.1640625 C-62.25954973 1.79844062 -58.16157946 -0.58275031 -54.0703125 -2.9765625 C-52.19274547 -4.06777224 -50.31514317 -5.15892129 -48.4375 -6.25 C-47.59469482 -6.74781982 -46.75188965 -7.24563965 -45.88354492 -7.75854492 C-28.17136671 -18.00745285 -16.23360901 -9.62458721 0 0 Z " fill="#6AA759" transform="translate(710.125,270.4375)"/>
<path d="M0 0 C0.91265625 -0.02578125 1.8253125 -0.0515625 2.765625 -0.078125 C10.52173978 0.77464155 17.52438932 5.79551969 24.1875 9.5625 C25.83915161 10.4918335 25.83915161 10.4918335 27.52416992 11.43994141 C35.90169721 16.16885319 44.22109357 20.9932681 52.51977539 25.85888672 C60.19185604 30.3541443 67.90014463 34.78377914 75.625 39.1875 C87.95048783 46.21561901 100.24722356 53.29240601 112.53222656 60.39111328 C116.85247643 62.88689344 121.17422987 65.38006297 125.49609375 67.87304688 C128.74496496 69.74709563 131.99357632 71.62159428 135.2421875 73.49609375 C140.69547935 76.64234975 146.15040157 79.78576474 151.60644531 82.92724609 C153.771505 84.17602044 155.93494171 85.42761318 158.09667969 86.68212891 C163.53857053 89.83875691 168.9985774 92.95048615 174.5078125 95.98828125 C176.14339111 96.90468384 176.14339111 96.90468384 177.81201172 97.83959961 C179.86921252 98.99171398 181.93545085 100.12790529 184.01220703 101.24438477 C191.33017122 105.38048747 196.05466211 110.16398634 198.75 118.25 C198.84294378 119.82816085 198.87910731 121.40997108 198.88142776 122.99086475 C198.88526891 123.97197186 198.88911005 124.95307897 198.8930676 125.9639166 C198.89220112 127.04444183 198.89133463 128.12496706 198.89044189 129.23823547 C198.89489858 130.95694761 198.89489858 130.95694761 198.8994453 132.71038121 C198.90663225 135.89587035 198.90930513 139.08132667 198.91004276 142.2668227 C198.91189248 145.70046079 198.9194394 149.13408717 198.92617798 152.56771851 C198.93976509 160.07803316 198.94578657 167.58834248 198.95018864 175.09866738 C198.95295035 179.78716091 198.95718757 184.47565238 198.96169281 189.16414452 C198.97388584 202.14245251 198.98418517 215.12075885 198.9875679 228.09907246 C198.98778747 228.92985648 198.98800703 229.76064051 198.98823325 230.61659981 C198.98845153 231.44938314 198.98866981 232.28216647 198.9888947 233.14018565 C198.98933817 234.82775072 198.98978473 236.51531579 198.99023438 238.20288086 C198.9904558 239.03997324 198.99067723 239.87706563 198.99090537 240.73952445 C198.99485391 254.30531091 199.01230948 267.87104368 199.0355939 281.4368094 C199.05930075 295.36094829 199.07176944 309.28506023 199.07293582 323.20921963 C199.07385294 331.02859654 199.07961461 338.84790348 199.09775543 346.66726112 C199.11314742 353.3252807 199.11828224 359.98320868 199.11001733 366.64124266 C199.10610763 370.03844787 199.10705581 373.43546857 199.12107468 376.83265114 C199.13372112 380.515532 199.1279567 384.19793652 199.11749268 387.8808136 C199.12957728 389.49156319 199.12957728 389.49156319 199.14190602 391.13485318 C199.10561013 396.58173622 198.89003218 400.57852469 195.75 405.25 C191.819292 408.52559 188.75554983 408.58209037 183.75 408.25 C180.85766602 407.09521484 180.85766602 407.09521484 178.00390625 405.4609375 C176.93188965 404.85628662 175.85987305 404.25163574 174.75537109 403.62866211 C173.61922363 402.96745361 172.48307617 402.30624512 171.3125 401.625 C170.10827539 400.93832171 168.90334809 400.2528744 167.69775391 399.56860352 C164.03617702 397.48345276 160.3915924 395.36980867 156.75 393.25 C155.69377441 392.63656738 154.63754883 392.02313477 153.54931641 391.39111328 C149.59090608 389.08879211 145.63562619 386.78134368 141.6875 384.46142578 C134.44776587 380.21227719 127.14651045 376.08400023 119.8125 372 C111.39874995 367.31285568 103.03721124 362.5587495 94.765625 357.625 C91.90160844 355.91853532 89.01398039 354.26139741 86.109375 352.625 C85.33851563 352.18575195 84.56765625 351.74650391 83.7734375 351.29394531 C82.30998112 350.46100729 80.84155541 349.63670983 79.3671875 348.82324219 C72.98138764 345.16134625 68.9034138 340.80349937 66.36500359 333.73321533 C65.0862209 328.56984256 65.3479249 323.27269592 65.38110352 317.984375 C65.37532201 315.96616608 65.36953781 313.94795716 65.36365211 311.92974854 C65.36018087 309.77380167 65.36400578 307.61797673 65.36987495 305.46203613 C65.38151544 300.95604293 65.369248 296.45030434 65.35325623 291.94433594 C65.31716179 280.75538644 65.31083072 269.56644389 65.31335449 258.37744141 C65.31506796 249.67348056 65.30788809 240.96972947 65.27337593 232.26582718 C65.25663445 227.79205689 65.25833029 223.31879958 65.27419865 218.84503174 C65.28138197 215.40181606 65.26274358 211.95881588 65.24829102 208.515625 C65.26290627 206.67007019 65.26290627 206.67007019 65.27781677 204.78723145 C65.20845041 196.5032392 64.23815892 190.82549936 58.25390625 184.69140625 C53.39146907 181.04495836 47.96698947 178.17349747 42.6875 175.1875 C40.94808789 174.19554709 39.20867716 173.20359174 37.46942139 172.21136475 C35.70802677 171.20759857 33.9451277 170.20651174 32.18212891 169.20556641 C28.94993102 167.36391717 25.72877171 165.5046683 22.51171875 163.63671875 C21.08001343 162.80829468 21.08001343 162.80829468 19.61938477 161.96313477 C17.82772781 160.92632945 16.03776887 159.88658273 14.24975586 158.84350586 C13.44803955 158.38210205 12.64632324 157.92069824 11.8203125 157.4453125 C11.12695801 157.04328613 10.43360352 156.64125977 9.71923828 156.22705078 C5.45455325 154.1110987 1.47955899 153.92330358 -3.25 154.25 C-6.62643584 155.43759313 -6.62643584 155.43759313 -10.0625 157.3125 C-10.72483643 157.65539062 -11.38717285 157.99828125 -12.06958008 158.3515625 C-22.34420733 163.76227773 -32.35491089 169.67800202 -42.36230469 175.56298828 C-44.77330388 176.97151081 -47.19590986 178.35193989 -49.6328125 179.71484375 C-55.77789611 183.24931667 -60.67875433 186.39790382 -63.25 193.25 C-64.11129993 196.88032487 -64.37841355 200.2471381 -64.38803101 203.97398376 C-64.39348434 205.11651108 -64.39893768 206.25903839 -64.40455627 207.43618774 C-64.4055986 208.68048553 -64.40664093 209.92478333 -64.40771484 211.20678711 C-64.41551375 213.22926959 -64.42331672 215.25175207 -64.43127275 217.27423394 C-64.43897387 219.44345605 -64.44436354 221.612674 -64.44923019 223.78190422 C-64.45993643 228.30805687 -64.48018724 232.8341355 -64.50234985 237.36024475 C-64.56418928 250.22897965 -64.61829738 263.09770931 -64.65136719 275.96655273 C-64.66972145 283.07788704 -64.69866375 290.18909638 -64.7393719 297.3003388 C-64.76042123 301.06085778 -64.77589628 304.82121947 -64.77817917 308.58180046 C-64.78072852 312.77598169 -64.80620362 316.96972513 -64.83349609 321.16381836 C-64.82898689 323.0272287 -64.82898689 323.0272287 -64.8243866 324.92828369 C-64.89555369 332.27626204 -65.48814279 337.00075623 -70.375 342.75 C-77.71053294 349.12872429 -86.31931281 353.61462945 -94.8125 358.25 C-97.22986976 359.57841173 -99.64478121 360.91123035 -102.05859375 362.24609375 C-102.66505737 362.58144638 -103.271521 362.91679901 -103.8963623 363.26231384 C-109.77493667 366.52324865 -115.58076248 369.90418175 -121.375 373.3125 C-130.46700443 378.65781996 -139.62854611 383.86058178 -148.85546875 388.96948242 C-154.26339246 391.9748765 -159.61621724 395.04614588 -164.9140625 398.2421875 C-165.99751953 398.891875 -167.08097656 399.5415625 -168.19726562 400.2109375 C-170.26378946 401.45567834 -172.32288114 402.71287156 -174.37304688 403.984375 C-179.58393694 407.11451519 -183.12589585 409.19339986 -189.25 408.25 C-192.96653349 406.56066659 -195.08766126 404.68608166 -197.25 401.25 C-197.62834883 398.93498302 -197.62834883 398.93498302 -197.63311005 396.32920456 C-197.64216669 395.33340622 -197.65122333 394.33760787 -197.66055441 393.31163383 C-197.65522648 392.21982188 -197.64989856 391.12800994 -197.64440918 390.00311279 C-197.65050028 388.8415272 -197.65659139 387.6799416 -197.66286707 386.48315644 C-197.67665107 383.25808761 -197.67694374 380.03334133 -197.6714921 376.80825782 C-197.66882485 373.33026604 -197.68334812 369.85233977 -197.69558716 366.37437439 C-197.71665798 359.55958417 -197.72118101 352.744879 -197.71939927 345.93006006 C-197.71809221 340.39007194 -197.72189297 334.85011038 -197.72932434 329.31012726 C-197.73142353 327.714957 -197.73352113 326.11978674 -197.73561716 324.52461648 C-197.73666069 323.73066634 -197.73770422 322.9367162 -197.73877937 322.11870697 C-197.75768919 307.09678021 -197.75662958 292.07490226 -197.74981004 277.05296853 C-197.7442369 263.31394863 -197.76504883 249.57511535 -197.79817051 235.83613905 C-197.83191592 221.7288829 -197.84707459 207.62171611 -197.84245348 193.51441884 C-197.84020927 185.59434942 -197.84544441 177.67445236 -197.87034607 169.75441742 C-197.89137051 163.01004891 -197.89494027 156.26594724 -197.87604648 149.52156773 C-197.86689454 146.08146749 -197.86572783 142.64186457 -197.88640213 139.20180321 C-197.90454335 135.46902083 -197.89188067 131.73756371 -197.87145996 128.00482178 C-197.88397781 126.92193272 -197.89649566 125.83904367 -197.90939283 124.7233398 C-197.83009745 117.96458934 -196.64734252 113.47448382 -192.25 108.25 C-189.10539737 105.33352248 -185.70533304 103.22573301 -181.98828125 101.10546875 C-180.96541016 100.51894531 -179.94253906 99.93242187 -178.88867188 99.328125 C-177.79103516 98.70421875 -176.69339844 98.0803125 -175.5625 97.4375 C-174.40013283 96.77258588 -173.23802819 96.10721263 -172.07617188 95.44140625 C-169.6645854 94.0599087 -167.25188656 92.68038435 -164.83837891 91.30224609 C-159.29829019 88.1366143 -153.7750887 84.9417122 -148.25 81.75 C-146.08079688 80.49858054 -143.91152585 79.24727878 -141.7421875 77.99609375 C-137.43398349 75.51069098 -133.12677211 73.02358023 -128.8203125 70.53515625 C-117.05793427 63.74038436 -105.27984493 56.97406844 -93.48205566 50.24102783 C-80.71351532 42.95310258 -67.97958227 35.60572244 -55.25 28.25 C-47.62361042 23.84433911 -39.99585116 19.44107536 -32.36425781 15.04443359 C-30.28248592 13.8449178 -28.20110759 12.64471872 -26.12011719 11.44384766 C-23.18584631 9.75143051 -20.24949762 8.06267965 -17.3125 6.375 C-16.4361792 5.86880127 -15.5598584 5.36260254 -14.65698242 4.84106445 C-13.85365479 4.38046631 -13.05032715 3.91986816 -12.22265625 3.4453125 C-11.52406494 3.04328613 -10.82547363 2.64125977 -10.10571289 2.22705078 C-6.68244115 0.42466511 -3.80959227 0.06384792 0 0 Z " fill="#333333" transform="translate(197.25,253.75)"/>
<path d="M0 0 C0.86786133 0.49653076 1.73572266 0.99306152 2.62988281 1.50463867 C5.24331318 3.00604725 7.84152084 4.53116113 10.4375 6.0625 C11.84727073 6.88347487 13.25740077 7.70383319 14.66796875 8.5234375 C17.40653294 10.12154214 20.13716384 11.73232276 22.86328125 13.3515625 C28.18482926 16.51126845 33.52904467 19.63181394 38.875 22.75 C40.3923877 23.63522339 40.3923877 23.63522339 41.94042969 24.53833008 C50.51952382 29.53787578 59.12018395 34.49960273 67.72436523 39.45581055 C75.96606062 44.20598051 84.18560261 48.99311933 92.3984375 53.79296875 C99.73033846 58.07472194 107.08027948 62.32442191 114.4375 66.5625 C125.83835185 73.13298646 137.2275934 79.72249286 148.57568359 86.38378906 C150.49649194 87.51051472 152.41871396 88.63483358 154.34228516 89.75683594 C157.10785216 91.37177246 159.86716825 92.99689778 162.625 94.625 C163.44468262 95.10155029 164.26436523 95.57810059 165.10888672 96.0690918 C171.25884986 99.72408681 176.13563103 103.55234974 179.4375 110.0625 C179.83190918 113.07759094 179.83190918 113.07759094 179.85742188 116.4699707 C179.87333374 117.74512039 179.88924561 119.02027008 179.90563965 120.33406067 C179.90690723 121.7188003 179.90708356 123.10354129 179.90625 124.48828125 C179.91335779 125.9192891 179.92105769 127.35029413 179.92932129 128.78129578 C179.94275002 131.7780245 179.94434297 134.77448989 179.93847656 137.77124023 C179.93259142 141.5945561 179.96312794 145.41659726 180.00359344 149.23966694 C180.02956411 152.19529417 180.03233932 155.15061863 180.02870178 158.10634422 C180.03038531 159.5148456 180.03995347 160.92336214 180.05784607 162.33175087 C180.14931064 170.42315377 180.13433078 176.90151452 174.4375 183.0625 C172.22314453 185.10913086 172.22314453 185.10913086 169.9453125 186.58984375 C168.63675293 187.44425049 168.63675293 187.44425049 167.30175781 188.31591797 C162.61334797 191.17484092 157.87967848 193.93972076 153.09075928 196.62698364 C149.99217339 198.3660098 146.90322399 200.12205244 143.8125 201.875 C143.18761688 202.22877213 142.56273376 202.58254425 141.91891479 202.94703674 C136.02055742 206.28929182 130.16221582 209.69837387 124.3125 213.125 C114.95979104 218.59825696 105.5898105 224.04042809 96.18530273 229.42431641 C90.6711235 232.58748899 85.19859859 235.80080413 79.77734375 239.12109375 C78.70162109 239.77207031 77.62589844 240.42304688 76.51757812 241.09375 C74.48156942 242.32876833 72.45479103 243.57918675 70.43945312 244.84765625 C64.78369196 248.25617384 60.11831669 250.41191339 53.4375 249.0625 C49.31618551 246.69493636 47.88851754 244.49593843 46.4375 240.0625 C46.19267273 237.36889648 46.19267273 237.36889648 46.19799805 234.43359375 C46.19426682 233.32894775 46.19053558 232.22430176 46.18669128 231.08618164 C46.19082535 229.9027417 46.19495941 228.71930176 46.19921875 227.5 C46.1838049 224.98697373 46.1675017 222.47395279 46.15039062 219.9609375 C46.13390795 216.00411226 46.12502642 212.04767722 46.13208008 208.09082031 C46.13469425 204.26843099 46.10662519 200.44723077 46.07421875 196.625 C46.08952888 194.84984009 46.08952888 194.84984009 46.10514832 193.03881836 C46.10382279 186.59364995 46.10382279 186.59364995 43.25390625 180.99365234 C40.45572764 179.07499832 37.70060302 177.25770003 34.73828125 175.6015625 C33.62308105 174.97193604 32.50788086 174.34230957 31.35888672 173.69360352 C30.15596627 173.02482717 28.95300306 172.35612774 27.75 171.6875 C26.51006191 170.9904217 25.27064828 170.29240975 24.03173828 169.59350586 C22.11389345 168.51176921 20.19571958 167.43066745 18.27581787 166.35258484 C11.42071229 162.50210474 4.61582254 158.56601017 -2.1875 154.625 C-4.3460167 153.37571882 -6.50484145 152.12696966 -8.6640625 150.87890625 C-9.56463379 150.35756104 -10.46520508 149.83621582 -11.39306641 149.29907227 C-15.14681186 147.15944581 -17.16632823 146.61186736 -21.5625 147.0625 C-24.67407369 148.33758383 -27.53240183 150.00145138 -30.4375 151.6875 C-31.29883545 152.17460449 -32.1601709 152.66170898 -33.04760742 153.16357422 C-35.89502307 154.78116431 -38.72955034 156.41971889 -41.5625 158.0625 C-42.56394043 158.64 -43.56538086 159.2175 -44.59716797 159.8125 C-49.72486976 162.77181912 -54.8393848 165.75170778 -59.9375 168.76171875 C-63.37245884 170.78920205 -66.82196748 172.77691046 -70.3125 174.70703125 C-71.00947998 175.10067871 -71.70645996 175.49432617 -72.42456055 175.89990234 C-74.22031444 176.9127534 -76.02575402 177.90838103 -77.83203125 178.90234375 C-81.21158561 181.57601122 -82.52930148 183.96650335 -83.5625 188.0625 C-84.00056083 192.87261217 -83.98542839 197.67421305 -83.9609375 202.5 C-83.96296173 203.90812327 -83.96587606 205.31624552 -83.96963501 206.72436523 C-83.97404201 209.66628056 -83.96768021 212.60792143 -83.95361328 215.54980469 C-83.93652199 219.30561678 -83.94637197 223.06078556 -83.96433067 226.8165741 C-83.9752128 229.72152483 -83.97170201 232.62632505 -83.9639473 235.53128052 C-83.96195749 236.91545693 -83.96436134 238.29964736 -83.97138596 239.68380737 C-84.20037889 249.84978864 -84.20037889 249.84978864 -80.5625 259.0625 C-78.35228287 261.01279799 -78.35228287 261.01279799 -75.64453125 262.31640625 C-74.65026123 262.85313965 -73.65599121 263.38987305 -72.6315918 263.94287109 C-71.5569165 264.49797363 -70.48224121 265.05307617 -69.375 265.625 C-67.08478147 266.85592445 -64.79574625 268.08905272 -62.5078125 269.32421875 C-61.34411133 269.94603027 -60.18041016 270.5678418 -58.98144531 271.20849609 C-53.83389561 273.99987659 -48.7923106 276.96144567 -43.75 279.9375 C-35.09528442 285.01640073 -26.40532763 290.03040264 -17.6875 295 C-8.63160415 300.16304499 0.41210062 305.3462369 9.4375 310.5625 C18.3829996 315.73089011 27.34121994 320.87651301 36.3125 326 C36.8915509 326.33077545 37.47060181 326.6615509 38.06719971 327.00234985 C43.99254977 330.38692514 49.91968969 333.76833041 55.85018921 337.14387512 C62.27954567 340.80342949 68.70120867 344.47596378 75.11621094 348.16064453 C78.38652796 350.0333121 81.665697 351.88977351 84.9453125 353.74609375 C86.943211 354.89235349 88.94063337 356.03944363 90.9375 357.1875 C92.2994751 357.94969849 92.2994751 357.94969849 93.68896484 358.72729492 C98.63218667 361.59581382 101.90687699 363.86182572 104.4375 369.0625 C104.85546875 371.40625 104.85546875 371.40625 104.625 373.5625 C104.57730469 374.2740625 104.52960938 374.985625 104.48046875 375.71875 C101.07314085 383.37566662 91.42420412 386.99745665 84.4375 390.625 C82.08876134 391.86650667 79.74101827 393.1097286 77.39453125 394.35546875 C76.80460892 394.66768372 76.21468658 394.97989868 75.60688782 395.30157471 C70.05499331 398.24678382 64.58350189 401.32355371 59.125 404.4375 C49.30502504 410.02700233 39.42905391 415.50949619 29.52563477 420.94921875 C23.27766158 424.38273391 17.04408254 427.83865706 10.8359375 431.34375 C9.00024238 432.37668148 7.16427533 433.40912809 5.32824707 434.44146729 C3.60880993 435.41137723 1.8936944 436.38893592 0.17871094 437.36669922 C-8.5462085 442.2692602 -15.50899871 445.4186128 -25.5625 443.0625 C-29.12626804 441.6365707 -32.37687216 439.8090763 -35.6875 437.875 C-36.63343018 437.34108643 -37.57936035 436.80717285 -38.55395508 436.25708008 C-41.56938218 434.5464646 -44.56766243 432.80888254 -47.5625 431.0625 C-48.52559082 430.50272461 -49.48868164 429.94294922 -50.48095703 429.36621094 C-54.40743473 427.08111338 -58.33066812 424.79070856 -62.24658203 422.48754883 C-69.78808022 418.06043918 -77.40547531 413.78618014 -85.0625 409.5625 C-94.62551906 404.28614045 -104.09042376 398.87010926 -113.50390625 393.33203125 C-120.96114309 388.95986999 -128.4939593 384.73859923 -136.0625 380.5625 C-145.6597123 375.26647319 -155.16459494 369.83847665 -164.61157227 364.27929688 C-173.0341188 359.33533852 -181.54674331 354.56191985 -190.10400391 349.85522461 C-211.0081335 338.27694162 -211.0081335 338.27694162 -214.62066936 329.4881115 C-215.76254007 325.33491743 -215.84338263 321.62984662 -215.82319641 317.34646606 C-215.82702196 316.48127094 -215.83084751 315.61607582 -215.83478898 314.72466266 C-215.84508886 311.83216732 -215.84113254 308.9398716 -215.8371582 306.04736328 C-215.84150635 303.97081316 -215.84668985 301.89426464 -215.85264587 299.81771851 C-215.86603632 294.18133469 -215.86661446 288.54501793 -215.86408257 282.90862131 C-215.86301285 278.20185712 -215.8678963 273.4951065 -215.872688 268.78834522 C-215.88378345 257.683268 -215.88422043 246.57822461 -215.87817383 235.47314453 C-215.87213374 224.02036391 -215.88444591 212.56770614 -215.9057439 201.11494648 C-215.92336259 191.27868051 -215.92936081 181.44245362 -215.92610615 171.60617244 C-215.92429351 165.73290916 -215.92692763 159.85973351 -215.94082069 153.98648453 C-215.95339861 148.46249397 -215.95145513 142.93869482 -215.93840981 137.41470718 C-215.93604438 135.38946467 -215.9387775 133.36420869 -215.94703293 131.33898163 C-215.95750485 128.56993331 -215.94939604 125.80152673 -215.9367218 123.03250122 C-215.94409609 122.23501563 -215.95147037 121.43753004 -215.95906812 120.61587822 C-215.89713461 114.1642435 -214.33055315 109.08179076 -211.0390625 103.4609375 C-207.16846711 99.71244291 -202.61533169 97.31575088 -197.9375 94.6875 C-196.87644043 94.080271 -195.81538086 93.47304199 -194.72216797 92.84741211 C-192.47392483 91.56117188 -190.2233762 90.27895423 -187.97070312 89.00048828 C-183.60299262 86.51690046 -179.25381283 84.00195413 -174.90478516 81.48583984 C-171.64944264 79.60298807 -168.39153416 77.72465282 -165.1328125 75.84765625 C-158.60763757 72.08894619 -152.0848655 68.3260825 -145.5625 64.5625 C-143.39584417 63.31248121 -141.2291775 62.06248122 -139.0625 60.8125 C-137.99 60.19375 -136.9175 59.575 -135.8125 58.9375 C-115.22916667 47.0625 -94.64583333 35.1875 -74.0625 23.3125 C-72.98863037 22.6927832 -71.91476074 22.07306641 -70.80834961 21.43457031 C-68.65613582 20.1932634 -66.50330999 18.953017 -64.34985352 17.71386719 C-59.30564237 14.80961282 -54.26797629 11.89559985 -49.25228882 8.94238281 C-47.48027291 7.89970374 -45.70627499 6.8604808 -43.93164062 5.82226562 C-41.70888281 4.52049113 -39.48986853 3.21229469 -37.27539062 1.89648438 C-23.56807123 -6.10747047 -14.14319885 -8.39840933 0 0 Z " fill="#333333" transform="translate(1663.5625,261.9375)"/>
<path d="M0 0 C1.23362091 0.71838294 2.46784534 1.4357304 3.70263672 2.15209961 C6.23676783 3.62408739 8.76763018 5.10146182 11.29589844 6.58349609 C15.82565782 9.23678401 20.37585818 11.85425104 24.92626953 14.47192383 C28.14045948 16.32139551 31.35185986 18.17562369 34.5625 20.03125 C38.89408507 22.5342949 43.22744603 25.03421773 47.5625 27.53125 C59.04959095 34.14909168 70.51945745 40.79487232 81.96582031 47.48291016 C94.74719295 54.94604203 107.57751437 62.32440004 120.40380859 69.70996094 C121.53254395 70.3599707 122.6612793 71.00998047 123.82421875 71.6796875 C124.94344727 72.32413818 126.06267578 72.96858887 127.21582031 73.63256836 C130.48894802 75.52008474 133.75822765 77.41414047 137.02734375 79.30859375 C140.70955302 81.43990591 144.40550502 83.53923238 148.12890625 85.59765625 C160.08492363 92.26785542 168.10717766 98.97099276 172.5340147 112.36583614 C173.22039373 115.87762092 173.14801508 119.37544245 173.14717102 122.93959045 C173.15084771 123.77237516 173.1545244 124.60515987 173.1583125 125.46318048 C173.16933918 128.25809335 173.17319149 131.05296903 173.17700195 133.84790039 C173.18326746 135.85032265 173.18991434 137.85274375 173.19691467 139.85516357 C173.21795019 146.43598624 173.22831779 153.01680912 173.23828125 159.59765625 C173.24232924 161.86460317 173.24644618 164.13154996 173.25063133 166.39849663 C173.26968327 177.05106001 173.28391331 187.70361646 173.2922433 198.3561936 C173.30201081 210.64368501 173.32831773 222.93099604 173.36874419 235.2184239 C173.39893257 244.72093483 173.41371484 254.22339415 173.41702431 263.72595209 C173.41937202 269.39873822 173.42829612 275.07133165 173.45348549 280.74406624 C173.47681817 286.08503554 173.48097845 291.42568599 173.47072411 296.76669312 C173.47022987 298.72134399 173.47651694 300.67601084 173.49028015 302.63061333 C173.57323419 315.11537525 173.33994634 326.60682202 165 336.75 C158.80145432 342.96124068 152.14490154 347.26151621 144.4375 351.375 C142.20467858 352.5957366 139.97293359 353.81844384 137.7421875 355.04296875 C136.61651367 355.65833496 135.49083984 356.27370117 134.33105469 356.90771484 C129.19184262 359.75002606 124.1256624 362.71241322 119.0625 365.6875 C117.07176135 366.85441709 115.08087466 368.02108165 113.08984375 369.1875 C112.0932373 369.77144531 111.09663086 370.35539062 110.06982422 370.95703125 C104.7667275 374.05437038 99.44605065 377.12113858 94.125 380.1875 C93.04484619 380.81003662 91.96469238 381.43257324 90.85180664 382.07397461 C88.66203666 383.33576826 86.47217645 384.59740534 84.28222656 385.85888672 C78.85340058 388.98680148 73.42680719 392.11858448 68 395.25 C65.83334417 396.50001879 63.6666775 397.75001878 61.5 399 C60.4275 399.61875 59.355 400.2375 58.25 400.875 C48.5 406.5 48.5 406.5 45.24731445 408.37646484 C43.08950197 409.62141282 40.93178647 410.8665289 38.77416992 412.11181641 C33.22283408 415.31552651 27.66963459 418.5159363 22.11328125 421.7109375 C19.84632408 423.01557272 17.57939654 424.32025943 15.3125 425.625 C14.22396729 426.25051758 13.13543457 426.87603516 12.01391602 427.52050781 C6.73893875 430.55978948 1.50010542 433.64024702 -3.67871094 436.84057617 C-14.35192661 443.40966653 -24.23423392 446.84910328 -37 444.75 C-45.1656765 442.36023743 -52.40710182 437.85250562 -59.6875 433.5625 C-60.84933014 432.88396176 -62.0114423 432.20590619 -63.17382812 431.52832031 C-66.45517066 429.61226206 -69.72861603 427.68301845 -73 425.75 C-73.78197754 425.28835449 -74.56395508 424.82670898 -75.36962891 424.35107422 C-78.96256196 422.22407864 -82.53430016 420.0653345 -86.09863281 417.890625 C-88.33976331 416.54617691 -90.60305466 415.24281951 -92.8671875 413.9375 C-94.53656714 412.95851884 -96.20583934 411.97935447 -97.875 411 C-98.66777344 410.55172852 -99.46054687 410.10345703 -100.27734375 409.64160156 C-105.77503984 406.38128356 -105.77503984 406.38128356 -107.0078125 402.921875 C-107.00523437 402.20515625 -107.00265625 401.4884375 -107 400.75 C-105.2984375 400.0075 -105.2984375 400.0075 -103.5625 399.25 C-98.68078918 397.0794801 -93.83811565 394.82807522 -89 392.5625 C-88.23373291 392.20542969 -87.46746582 391.84835937 -86.67797852 391.48046875 C-83.09513837 389.9887992 -83.09513837 389.9887992 -80 387.75 C-75.16420895 387.31101734 -72.4317758 388.23232359 -68.2890625 390.6796875 C-67.21624023 391.30609131 -66.14341797 391.93249512 -65.03808594 392.57788086 C-63.3486084 393.59120483 -63.3486084 393.59120483 -61.625 394.625 C-60.45668343 395.31169909 -59.28773389 395.99732237 -58.11816406 396.68188477 C-53.00336754 399.68921545 -47.93377472 402.75875796 -42.9453125 405.97265625 C-42.22263184 406.43752441 -41.49995117 406.90239258 -40.75537109 407.38134766 C-39.45999049 408.22506402 -38.17307893 409.08199544 -36.89697266 409.95458984 C-33.02564351 412.50223781 -30.58981045 413.13704903 -26 412.75 C-23.47078823 411.74874066 -23.47078823 411.74874066 -21.078125 410.21484375 C-20.14887207 409.66062744 -19.21961914 409.10641113 -18.26220703 408.53540039 C-17.26817871 407.92559326 -16.27415039 407.31578613 -15.25 406.6875 C-13.08647353 405.39233333 -10.92239208 404.09809337 -8.7578125 402.8046875 C-7.64180664 402.13276367 -6.52580078 401.46083984 -5.37597656 400.76855469 C0.00384799 397.55186468 5.43934597 394.43359355 10.875 391.3125 C13.06005495 390.05366157 15.24494995 388.79454545 17.4296875 387.53515625 C18.51475586 386.91012207 19.59982422 386.28508789 20.71777344 385.64111328 C26.14659942 382.51319852 31.57319281 379.38141552 37 376.25 C39.16665583 374.99998121 41.3333225 373.74998122 43.5 372.5 C44.5725 371.88125 45.645 371.2625 46.75 370.625 C82.5 350 82.5 350 85.75317383 348.12329102 C87.90940213 346.87923208 90.06549049 345.63493058 92.22143555 344.39038086 C97.21406952 341.50869341 102.20787516 338.62912878 107.20706177 335.75881958 C108.95024732 334.7578019 110.69296372 333.75597217 112.43554688 332.75390625 C114.60129618 331.50881961 116.76788871 330.2651979 118.93554688 329.0234375 C120.88367278 327.90266694 122.82068793 326.76224562 124.74326801 325.59819794 C128 323.75 128 323.75 131.38199902 322.32569122 C137.73390186 319.42590352 137.73390186 319.42590352 141.73733544 313.91662979 C142.94890412 308.23755112 142.62745134 302.43593423 142.47583008 296.66601562 C142.47216045 294.71412401 142.47422669 292.76221446 142.48158264 290.81033325 C142.48530674 285.52427052 142.4089934 280.2420574 142.31812119 274.9568882 C142.23674453 269.42910009 142.22920946 263.90121947 142.21379089 258.3729248 C142.17341586 247.91046488 142.06678241 237.44977498 141.93624753 226.98809385 C141.79084133 215.07544732 141.71943987 203.16271535 141.65420687 191.24940205 C141.51839375 166.74862076 141.28979788 142.24940963 141 117.75 C140.23186478 117.45039368 139.46372955 117.15078735 138.6723175 116.84210205 C135.69766389 115.62644362 133.01740078 114.14689336 130.23046875 112.546875 C129.10705078 111.90363281 127.98363281 111.26039063 126.82617188 110.59765625 C125.61321505 109.89855234 124.40032616 109.19933056 123.1875 108.5 C121.92393897 107.77454649 120.66026552 107.04928874 119.39648438 106.32421875 C110.60068817 101.27219693 101.83620262 96.1670285 93.08276367 91.04199219 C85.41756808 86.55992487 77.71479895 82.14583691 70 77.75 C60.32518781 72.23736165 50.68717863 66.66575433 41.078125 61.0390625 C32.82805577 56.21560933 24.533381 51.47254576 16.23013306 46.74157715 C5.76294908 40.77607447 -4.65395199 34.72800146 -15.05078125 28.640625 C-16.335896 27.8971582 -16.335896 27.8971582 -17.64697266 27.13867188 C-19.11864434 26.27014433 -20.57490347 25.37429002 -22.00537109 24.43945312 C-24.83856686 22.62856045 -26.48895042 21.70781868 -29.89282227 21.98876953 C-33.011385 22.75278922 -35.1808614 23.73591015 -37.921875 25.3828125 C-38.85112793 25.93380615 -39.78038086 26.4847998 -40.73779297 27.05249023 C-41.73182129 27.65391846 -42.72584961 28.25534668 -43.75 28.875 C-45.91360121 30.16093269 -48.07768002 31.4460621 -50.2421875 32.73046875 C-51.35819336 33.3961084 -52.47419922 34.06174805 -53.62402344 34.74755859 C-59.01253101 37.94372139 -64.44352595 41.06510214 -69.875 44.1875 C-72.05998436 45.44646096 -74.24487972 46.70557638 -76.4296875 47.96484375 C-77.51475586 48.58987793 -78.59982422 49.21491211 -79.71777344 49.85888672 C-85.14659942 52.98680148 -90.57319281 56.11858448 -96 59.25 C-98.16665583 60.50001879 -100.3333225 61.75001878 -102.5 63 C-103.5725 63.61875 -104.645 64.2375 -105.75 64.875 C-141.5 85.5 -141.5 85.5 -144.75390625 87.37719727 C-146.9076172 88.61976019 -149.06126367 89.86243489 -151.21484375 91.10522461 C-156.23684262 94.00314623 -161.25942807 96.90003349 -166.28442383 99.79275513 C-168.05045522 100.80947198 -169.81627431 101.82655658 -171.58203125 102.84375 C-173.78734155 104.11400873 -175.99304216 105.38359018 -178.19921875 106.65234375 C-183.86414009 109.91638294 -189.48323534 113.23428892 -195.0390625 116.68139648 C-197 117.75 -197 117.75 -199 117.75 C-199.07001058 143.38377762 -199.12294914 169.01754095 -199.15543652 194.65139484 C-199.17092037 206.55302942 -199.19203887 218.45460467 -199.22631836 230.35620117 C-199.25617426 240.72688195 -199.27556394 251.09751978 -199.28226548 261.46824235 C-199.28618421 266.96195331 -199.29542521 272.45554137 -199.31719017 277.94921303 C-199.33749516 283.11605217 -199.34384596 288.28271734 -199.33932304 293.44959259 C-199.34015093 295.34954714 -199.3461521 297.24950728 -199.35761642 299.14942741 C-199.37246698 301.7366195 -199.36898106 304.32314828 -199.36076355 306.91035461 C-199.37387134 308.04702205 -199.37387134 308.04702205 -199.38724393 309.20665246 C-199.37791152 313.17538813 -199.37791152 313.17538813 -197.64053822 316.63780499 C-195.23594997 318.26798405 -192.78125933 319.72848121 -190.25 321.15625 C-189.40097107 321.63835686 -189.40097107 321.63835686 -188.53479004 322.13020325 C-186.6925648 323.17500266 -184.84654308 324.21285354 -183 325.25 C-180.44695485 326.68970648 -177.89519691 328.13168212 -175.34375 329.57421875 C-174.71134399 329.93114304 -174.07893799 330.28806732 -173.42736816 330.6558075 C-169.69943359 332.76591405 -166.00793237 334.92472779 -162.34375 337.14453125 C-147.32309474 346.31022108 -147.32309474 346.31022108 -130.09765625 347.32421875 C-124.04127406 345.66632642 -119.37703229 343.205206 -116 337.75 C-114.05954898 333.00139687 -113.71249674 328.67336151 -113.73498535 323.60774231 C-113.73060408 322.8043562 -113.72622281 322.00097008 -113.72170877 321.17323893 C-113.70941958 318.49019131 -113.71119475 315.80734003 -113.71289062 313.12426758 C-113.70686465 311.19723725 -113.69993995 309.27020956 -113.69218445 307.34318542 C-113.67730926 303.19842063 -113.66854978 299.05370391 -113.66447449 294.90891457 C-113.65775946 288.35879832 -113.63600499 281.80878508 -113.61193848 275.25871277 C-113.55882067 260.17668231 -113.52540382 245.09462016 -113.49217987 230.0125351 C-113.46151692 216.18122366 -113.42673239 202.34995651 -113.37586927 188.51870269 C-113.3524812 182.00315866 -113.33877009 175.48768656 -113.33237457 168.97210467 C-113.32645117 164.92612214 -113.31236869 160.88019828 -113.29603004 156.83424568 C-113.29013685 154.95365406 -113.28768537 153.07304814 -113.28886986 151.19244766 C-113.29002317 148.6319416 -113.27905995 146.07176781 -113.26501465 143.51130676 C-113.26831362 142.76151214 -113.2716126 142.01171752 -113.27501154 141.23920184 C-113.24121325 137.52416633 -113.11701935 135.92552902 -111 132.75 C-108.234375 132.36181641 -108.234375 132.36181641 -104.75 132.3515625 C-102.87828125 132.34576172 -102.87828125 132.34576172 -100.96875 132.33984375 C-99.00421875 132.35724609 -99.00421875 132.35724609 -97 132.375 C-95.6903125 132.36339844 -94.380625 132.35179687 -93.03125 132.33984375 C-91.15953125 132.34564453 -91.15953125 132.34564453 -89.25 132.3515625 C-88.10015625 132.35494629 -86.9503125 132.35833008 -85.765625 132.36181641 C-84.85296875 132.48991699 -83.9403125 132.61801758 -83 132.75 C-80.52362854 136.4645572 -80.71790891 139.30467346 -80.73930359 143.6026001 C-80.73547804 144.41129036 -80.73165249 145.21998062 -80.72771102 146.05317664 C-80.71736294 148.77282123 -80.72137675 151.49225539 -80.7253418 154.21191406 C-80.72099595 156.15843909 -80.71581323 158.1049624 -80.70985413 160.05148315 C-80.69642957 165.34968354 -80.69588999 170.64781272 -80.69841743 175.9460268 C-80.69948621 180.37362421 -80.6946054 184.80120717 -80.689812 189.22880149 C-80.67870186 199.68639944 -80.67828588 210.14396149 -80.68432617 220.6015625 C-80.69034886 231.36625143 -80.67810189 242.13080909 -80.6567561 252.89547563 C-80.63908704 262.14835637 -80.63314765 271.40119557 -80.63639385 280.65409255 C-80.63820064 286.17495138 -80.63563234 291.69571689 -80.62167931 297.21656036 C-80.60902158 302.42043404 -80.61111963 307.62410534 -80.62409019 312.82797623 C-80.62643948 314.72772162 -80.62378117 316.62748158 -80.61546707 318.52721024 C-80.54302771 336.38196084 -81.69102216 353.53091132 -94.0625 367.625 C-107.10255941 379.42875581 -123.73569118 380.62909442 -140.39746094 379.93652344 C-159.98464712 378.53271385 -178.69939772 365.21888897 -195.04931641 355.48535156 C-197.8515812 353.83728784 -200.6735507 352.23370205 -203.51171875 350.6484375 C-204.36717285 350.16737549 -205.22262695 349.68631348 -206.10400391 349.19067383 C-207.68082726 348.30674455 -209.26218725 347.43083204 -210.84912109 346.56518555 C-218.22300156 342.39868409 -223.71327406 337.37329302 -227.375 329.625 C-227.85710938 328.63242187 -228.33921875 327.63984375 -228.8359375 326.6171875 C-231.00094401 321.28458758 -231.14854067 316.22178781 -231.14717102 310.52281189 C-231.15084771 309.69804543 -231.1545244 308.87327896 -231.1583125 308.02351958 C-231.16931953 305.26168574 -231.17318813 302.49988957 -231.17700195 299.73803711 C-231.18326892 297.75679404 -231.18991593 295.77555214 -231.19691467 293.79431152 C-231.21793208 287.28866389 -231.22831583 280.78301608 -231.23828125 274.27734375 C-231.24232986 272.03487193 -231.24644682 269.79240023 -231.25063133 267.54992867 C-231.26967897 257.01216291 -231.28391014 246.47440413 -231.2922433 235.93662447 C-231.30201037 223.78725342 -231.32831796 211.63806481 -231.36874419 199.48875803 C-231.39894416 190.08897053 -231.41371592 180.68923522 -231.41702431 171.28940016 C-231.41937061 165.67975327 -231.42827629 160.07030139 -231.45348549 154.46070671 C-231.47683865 149.17881588 -231.48097029 143.89724746 -231.47072411 138.6153183 C-231.47023038 136.68366229 -231.47650243 134.75199001 -231.49028015 132.82038307 C-231.58103239 119.33551123 -230.85328063 107.96562816 -222.26953125 96.8828125 C-215.57136896 90.58815396 -206.9938604 86.33792788 -199.0625 81.8125 C-197.33476359 80.82112539 -195.60702982 79.82974615 -193.87945557 78.83808899 C-192.09776381 77.815892 -190.31531765 76.79502131 -188.53271484 75.77441406 C-182.97347707 72.59035353 -177.42424296 69.38893802 -171.875 66.1875 C-170.26057007 65.25659546 -170.26057007 65.25659546 -168.61352539 64.30688477 C-161.39660431 60.14237883 -154.19423938 55.95354882 -147 51.75 C-135.45270484 45.00298806 -123.87097973 38.31660682 -112.28222656 31.64111328 C-106.8534006 28.51319853 -101.42679331 25.38143954 -96 22.25 C-89.92283836 18.74355517 -83.84559527 15.23725299 -77.76715088 11.73303223 C-76.01658759 10.72380896 -74.26609589 9.71446164 -72.515625 8.70507812 C-70.33607835 7.4483234 -68.15640168 6.19179414 -65.9765625 4.93554688 C-64.47609375 4.07026367 -64.47609375 4.07026367 -62.9453125 3.1875 C-61.48206543 2.34457397 -61.48206543 2.34457397 -59.98925781 1.48461914 C-57.9046919 0.27497843 -55.8263626 -0.94544634 -53.75292969 -2.17407227 C-52.69750977 -2.79854248 -51.64208984 -3.4230127 -50.5546875 -4.06640625 C-49.60835449 -4.63045166 -48.66202148 -5.19449707 -47.68701172 -5.77563477 C-30.77940852 -15.05284862 -15.36393926 -9.07835376 0 0 Z " fill="#669F64" transform="translate(940,684.25)"/>
<path d="M0 0 C1.1783139 0.00648056 1.1783139 0.00648056 2.38043213 0.01309204 C25.84313712 0.16427003 48.8605769 3.1875597 66.703125 19.921875 C77.54248665 31.19193977 82.24129206 44.65528877 82.328125 60.08984375 C82.0625 62.375 82.0625 62.375 80.0625 64.375 C75.60095192 64.83603073 71.10759362 64.69898794 66.625 64.6875 C65.37138672 64.70361328 64.11777344 64.71972656 62.82617188 64.73632812 C61.62669922 64.73697266 60.42722656 64.73761719 59.19140625 64.73828125 C58.08869385 64.74126221 56.98598145 64.74424316 55.84985352 64.74731445 C53.0625 64.375 53.0625 64.375 51.24365234 63.02148438 C49.5691904 60.68734396 48.93080877 58.31193334 48.125 55.5625 C45.32955931 46.82937515 41.00440222 40.52616478 32.80859375 36.1796875 C22.249942 31.60370681 11.05439284 31.00746627 -0.3125 31.0625 C-2.08814331 31.06878418 -2.08814331 31.06878418 -3.8996582 31.07519531 C-15.08931469 31.21988583 -28.95556688 31.55094979 -37.4921875 39.89453125 C-41.31738616 44.33565173 -42.12661688 46.97047481 -42.25 52.75 C-42.28738281 53.89210938 -42.32476563 55.03421875 -42.36328125 56.2109375 C-41.84837945 60.03727198 -40.96120931 61.05964217 -37.9375 63.375 C-32.2786619 66.70781262 -25.70052389 67.98679325 -19.33984375 69.31640625 C-18.51177216 69.48991104 -17.68370056 69.66341583 -16.83053589 69.84217834 C-8.32873768 71.57405571 0.22646954 72.78899848 8.82092285 73.9548645 C67.06824074 81.9161465 67.06824074 81.9161465 81 98.6875 C89.39313117 110.48216394 90.63825972 124.70450109 88.56640625 138.734375 C85.24479815 153.22184085 77.40609999 164.60706924 64.8984375 172.78515625 C34.48229593 189.83662956 -7.10816803 189.23558431 -39.875 180.1875 C-54.99938578 175.61957813 -68.22424514 166.96399303 -76.43359375 153.25 C-80.92840528 144.65732133 -83.06916349 136.31821772 -83.125 126.625 C-83.13917969 125.49578125 -83.15335938 124.3665625 -83.16796875 123.203125 C-82.9375 120.375 -82.9375 120.375 -80.9375 118.375 C-78.171875 118.11621094 -78.171875 118.11621094 -74.6875 118.109375 C-72.81578125 118.10550781 -72.81578125 118.10550781 -70.90625 118.1015625 C-68.94171875 118.11316406 -68.94171875 118.11316406 -66.9375 118.125 C-65.6278125 118.11726562 -64.318125 118.10953125 -62.96875 118.1015625 C-61.7209375 118.10414063 -60.473125 118.10671875 -59.1875 118.109375 C-58.03765625 118.11163086 -56.8878125 118.11388672 -55.703125 118.11621094 C-52.9375 118.375 -52.9375 118.375 -50.9375 120.375 C-50.4813113 122.05253028 -50.03296345 123.73308586 -49.64624023 125.42797852 C-47.76186449 133.6825271 -45.62485564 140.83013839 -38.59765625 146.14453125 C-19.3803022 157.74267004 10.60939851 156.58009298 32.0625 152.375 C39.32944703 150.44011963 47.41387445 147.93914939 51.375 141.11328125 C54.26901262 134.55150957 55.33436319 129.04927144 52.9375 122.125 C47.24173234 113.77120743 36.4011037 112.16825293 27.0390625 110.375 C16.60609906 108.50394023 6.13967097 107.11932254 -4.38793945 105.92675781 C-54.23842172 100.2752093 -54.23842172 100.2752093 -68.9375 83.375 C-77.28787238 72.83762533 -78.8173655 59.38850353 -77.3125 46.375 C-75.04067327 33.03717854 -69.26991255 22.17882049 -58.24169922 14.13867188 C-40.53427458 2.42948255 -20.75761806 -0.21764466 0 0 Z " fill="#669F64" transform="translate(956.9375,811.625)"/>
<path d="M0 0 C2.88863761 3.43155566 5.13305371 6.83544619 7.21484375 10.8046875 C7.81167969 11.93326172 8.40851563 13.06183594 9.0234375 14.22460938 C9.33506836 14.81910889 9.64669922 15.4136084 9.96777344 16.02612305 C11.63161799 19.19840271 13.31348006 22.36108304 14.99609375 25.5234375 C15.33559052 26.16194641 15.67508728 26.80045532 16.02487183 27.45831299 C19.08487356 33.19546064 22.27139488 38.85610635 25.5 44.5 C30.64941829 53.51604638 35.58422167 62.63696607 40.45901489 71.80328369 C44.67490006 79.72538984 48.98380535 87.58379721 53.4375 95.375 C58.82409514 104.80154149 63.94957619 114.35061362 69.02947998 123.94421387 C73.92072747 133.17538578 78.95175452 142.30843533 84.13671875 151.37890625 C88.72519156 159.43698781 93.09902249 167.60427013 97.45223999 175.79074097 C102.32217248 184.94279336 107.34614858 193.99549621 112.47924805 203.00244141 C115.84241457 208.91608398 119.12692665 214.86372174 122.3125 220.875 C122.69196777 221.58938232 123.07143555 222.30376465 123.46240234 223.03979492 C126 227.86920198 126 227.86920198 126 229 C113.84816566 230.21518343 103.9765904 222.55153409 93.875 216.5625 C91.76597714 215.32231764 89.65658939 214.08275562 87.546875 212.84375 C85.92942383 211.89242187 85.92942383 211.89242187 84.27929688 210.921875 C78.91005267 207.77515892 73.51791809 204.66841381 68.125 201.5625 C66.50634033 200.62966187 66.50634033 200.62966187 64.85498047 199.67797852 C62.66417049 198.41550269 60.4732524 197.15321444 58.28222656 195.89111328 C52.85340058 192.76319852 47.42680719 189.63141552 42 186.5 C39.83334417 185.24998121 37.6666775 183.99998122 35.5 182.75 C22.5 175.25 9.5 167.75 -3.5 160.25 C-4.5732251 159.63084717 -5.6464502 159.01169434 -6.75219727 158.3737793 C-8.91159395 157.1279423 -11.07093669 155.88201182 -13.23022461 154.63598633 C-19.88909794 150.79365207 -26.55012869 146.95508742 -33.21240234 143.11865234 C-36.48070472 141.23465061 -39.74647429 139.34632668 -43.01171875 137.45703125 C-46.75486802 135.29144991 -50.50641735 133.14239543 -54.26953125 131.01171875 C-55.80478054 130.13297504 -57.33994382 129.25408102 -58.875 128.375 C-59.55248291 127.99754639 -60.22996582 127.62009277 -60.92797852 127.23120117 C-64.82032158 124.98552126 -67.4262402 122.68603791 -70 119 C-69.69521729 118.48542236 -69.39043457 117.97084473 -69.07641602 117.44067383 C-61.8880295 105.29990436 -54.73258169 93.14033139 -47.60531616 80.96362305 C-42.39342861 72.06092511 -37.14623696 63.18022442 -31.875 54.3125 C-25.8945753 44.24901593 -20.01693671 34.13208754 -14.18481445 23.98217773 C-9.5523763 15.92899677 -4.83174712 7.93506438 0 0 Z " fill="#3E863C" transform="translate(557,477)"/>
<path d="M0 0 C2.41025029 3.04173137 4.26390599 6.17568746 6.08203125 9.6015625 C6.67733643 10.71869629 7.2726416 11.83583008 7.88598633 12.98681641 C8.1996817 13.57924133 8.51337708 14.17166626 8.83657837 14.78204346 C9.82769711 16.65369863 10.82282558 18.52317006 11.8190918 20.39208984 C13.19958224 22.98212287 14.57877109 25.57284201 15.95703125 28.1640625 C19.05936792 33.99305079 22.18349731 39.81028443 25.3125 45.625 C25.89483398 46.70716797 26.47716797 47.78933594 27.07714844 48.90429688 C30.74589079 55.70844935 34.46492954 62.48182258 38.23901367 69.22802734 C42.33477132 76.56238837 46.31920348 83.95652928 50.29370117 91.35717773 C52.67218581 95.77140841 55.06154658 100.1640616 57.640625 104.46484375 C58.02395996 105.10711914 58.40729492 105.74939453 58.80224609 106.41113281 C59.78983306 108.04647254 60.79639573 109.67031297 61.8046875 111.29296875 C63.25420126 114.57569109 62.97321886 115.59712392 62 119 C61.0220356 120.98213048 59.96598131 122.92655389 58.859375 124.83984375 C58.20783447 125.97349365 57.55629395 127.10714355 56.88500977 128.27514648 C56.17357113 129.49606579 55.46189531 130.71684691 54.75 131.9375 C54.01635682 133.20683019 53.28320811 134.4764463 52.55053711 135.74633789 C47.226408 144.95791243 41.82780561 154.12588149 36.39453125 163.2734375 C32.48726565 169.8547054 28.61839514 176.4583504 24.75 183.0625 C24.03493264 184.28272687 23.31984471 185.50294169 22.60473633 186.72314453 C19.22957874 192.48299531 15.8567005 198.24417254 12.48699951 204.00721741 C10.94593547 206.64245453 9.40398852 209.27717448 7.86193848 211.91183472 C7.13094028 213.1613489 6.40037725 214.41111779 5.67028809 215.66116333 C1.87024012 222.16747003 -1.96219665 228.63811217 -6 235 C-8.87502149 232.4032064 -10.31112961 230.80599772 -11 227 C-11.09849535 224.16662562 -11.14348121 221.35786148 -11.14044189 218.5244751 C-11.14341302 217.66098882 -11.14638414 216.79750255 -11.1494453 215.90785003 C-11.15812942 213.00919493 -11.15964031 210.11058114 -11.16113281 207.21191406 C-11.16576119 205.13565991 -11.17078588 203.05940661 -11.17617798 200.9831543 C-11.18930216 195.33840625 -11.19574699 189.69367011 -11.20018864 184.04890919 C-11.20311936 180.52240908 -11.20722417 176.99591223 -11.21169281 173.46941376 C-11.22536786 162.43615809 -11.23503445 151.40290986 -11.2388947 140.36964631 C-11.24337546 127.63276545 -11.2609242 114.89599191 -11.2898953 102.15914369 C-11.31151077 92.31443126 -11.32159891 82.46974902 -11.32293582 72.62501311 C-11.32398395 66.74500514 -11.32989356 60.86509804 -11.34775543 54.98511505 C-11.36423368 49.45295437 -11.36639273 43.92097042 -11.35761642 38.38879395 C-11.35684592 36.36032386 -11.36119052 34.33184428 -11.37107468 32.30339813 C-11.38379491 29.52987528 -11.37791686 26.7569783 -11.36749268 23.98345947 C-11.37554908 23.18460964 -11.38360548 22.38575982 -11.39190602 21.56270242 C-11.33672783 15.26653381 -10.25712568 9.5549109 -5.95703125 4.6875 C-5.24933594 4.130625 -4.54164063 3.57375 -3.8125 3 C-2.73935547 2.13375 -2.73935547 2.13375 -1.64453125 1.25 C-1.10183594 0.8375 -0.55914062 0.425 0 0 Z " fill="#629F56" transform="translate(494,361)"/>
<path d="M0 0 C2.72558594 1.3034668 2.72558594 1.3034668 5.484375 2.94921875 C6.50273438 3.55056641 7.52109375 4.15191406 8.5703125 4.77148438 C9.61960937 5.40376953 10.66890625 6.03605469 11.75 6.6875 C12.78382812 7.30044922 13.81765625 7.91339844 14.8828125 8.54492188 C17.92802935 10.35325909 20.96492035 12.17470255 24 14 C24.84722626 14.39173401 25.69445251 14.78346802 26.56735229 15.18707275 C33.48966901 18.64680871 33.48966901 18.64680871 34.87036133 22.30784607 C35.15928702 25.13933447 35.12698094 27.80627736 34.9765625 30.6484375 C34.96241302 31.66096588 34.94826355 32.67349426 34.9336853 33.71670532 C34.8778619 36.93919306 34.752468 40.15462919 34.625 43.375 C34.5748227 45.56370137 34.52919822 47.75251218 34.48828125 49.94140625 C34.37824636 55.29666176 34.21111502 60.64782738 34 66 C33.26475098 66.42297363 32.52950195 66.84594727 31.77197266 67.28173828 C28.99453344 68.88012946 26.21757435 70.47935093 23.44091797 72.07910156 C22.24839573 72.7659482 21.05569303 73.45248165 19.86279297 74.13867188 C18.12938559 75.13585493 16.39672209 76.1343307 14.6640625 77.1328125 C13.53387695 77.78024414 12.40369141 78.42767578 11.23925781 79.09472656 C9.17591332 80.30834884 7.13519715 81.56193072 5.12792969 82.86621094 C4.26844727 83.4234082 3.40896484 83.98060547 2.5234375 84.5546875 C1.78786621 85.05210449 1.05229492 85.54952148 0.29443359 86.06201172 C-2.87846509 87.35912565 -4.72001186 86.89732562 -8 86 C-10.72558594 84.6965332 -10.72558594 84.6965332 -13.484375 83.05078125 C-14.50273438 82.44943359 -15.52109375 81.84808594 -16.5703125 81.22851562 C-17.61960937 80.59623047 -18.66890625 79.96394531 -19.75 79.3125 C-21.30074219 78.39307617 -21.30074219 78.39307617 -22.8828125 77.45507812 C-24.94676595 76.2294433 -26.99611001 74.97885835 -29.02978516 73.70361328 C-31.90671407 71.92964296 -31.90671407 71.92964296 -34.91943359 70.99560547 C-38.23598401 69.71661185 -39.78955586 68.81937045 -42 66 C-44.30029472 58.77333258 -44.1339247 51.00718142 -44.125 43.5 C-44.13956238 41.91915115 -44.13956238 41.91915115 -44.15441895 40.30636597 C-44.12587319 22.18207183 -44.12587319 22.18207183 -39.79394531 16.58642578 C-34.3626141 11.67974461 -28.14433061 9.26254256 -21.21679688 7.15283203 C-16.63894383 5.51222623 -12.79288666 2.9631329 -8.76269531 0.27319336 C-5.26775024 -1.33745869 -3.66039534 -1.07746471 0 0 Z " fill="#669F64" transform="translate(1650,438)"/>
<path d="M0 0 C7.29803441 6.13130134 11.18809382 13.54703734 12.375 22.98046875 C12.78828358 32.96385031 10.21494279 40.81132396 3.75 48.4375 C-0.13914323 52.45394742 -3.72248232 55.16664546 -9 57 C-10.216875 57.433125 -11.43375 57.86625 -12.6875 58.3125 C-21.25645953 60.16433801 -30.11921442 58.87613965 -37.71484375 54.578125 C-45.41228213 49.26228721 -51.19315237 42.33537942 -53 33 C-53.84744787 21.96928507 -52.85390724 13.35497903 -45.6875 4.6875 C-32.77750897 -8.82168892 -15.6336861 -10.35704449 0 0 Z M-42.59375 10.90234375 C-46.79341547 17.16684475 -48.02385327 23.51889028 -47 31 C-44.91796848 38.47300601 -40.38287247 44.95514731 -34.00390625 49.38671875 C-26.94677813 53.07714355 -18.72231838 53.46599444 -11.15625 51.1171875 C-3.26721023 47.52910014 1.69898735 41.99192536 5 34 C7.27901362 25.9198608 5.75998797 19.29672665 2 12 C-1.8059319 5.85104127 -7.12038475 2.14810545 -14 0 C-25.79785723 -1.78053551 -35.15935383 1.52167877 -42.59375 10.90234375 Z " fill="#669F64" transform="translate(1191,769)"/>
<path d="M0 0 C3.3825 -0.0825 6.765 -0.165 10.25 -0.25 C11.30993164 -0.28641602 12.36986328 -0.32283203 13.46191406 -0.36035156 C20.38931317 -0.44247369 20.38931317 -0.44247369 23.609375 1.890625 C26.17159947 5.77714526 26.24204436 8.32047576 26 13 C25 15.4375 25 15.4375 24 17 C23.34 17 22.68 17 22 17 C22.70576172 18.25683594 22.70576172 18.25683594 23.42578125 19.5390625 C25.11210739 23.24646935 25.69319665 26.34452652 26.1875 30.375 C26.34605469 31.62023437 26.50460937 32.86546875 26.66796875 34.1484375 C26.77753906 35.08945312 26.88710937 36.03046875 27 37 C24.03 37 21.06 37 18 37 C17.80083984 35.60974609 17.80083984 35.60974609 17.59765625 34.19140625 C17.42105469 32.99386719 17.24445313 31.79632812 17.0625 30.5625 C16.88847656 29.36753906 16.71445313 28.17257812 16.53515625 26.94140625 C16.31014787 24.12044324 16.31014787 24.12044324 15 23 C12.69 22.67 10.38 22.34 8 22 C8 26.95 8 31.9 8 37 C5.36 37 2.72 37 0 37 C0 24.79 0 12.58 0 0 Z M8 6 C8 8.97 8 11.94 8 15 C10.64 15 13.28 15 16 15 C17.29042763 12.73398135 17.29042763 12.73398135 18 10 C17.21750908 7.5392464 17.21750908 7.5392464 15 6 C11.37436186 5.66619186 11.37436186 5.66619186 8 6 Z " fill="#669F64" transform="translate(1158,777)"/>
</svg>
