<?xml version="1.0" encoding="UTF-8"?>
<svg version="1.1" xmlns="http://www.w3.org/2000/svg" width="360" height="232">
<path d="M0 0 C0.99 0.495 0.99 0.495 2 1 C2.67950791 11.81550083 0.61207564 19.77584077 -5 29 C8.69265415 25.83581638 22.27206613 22.36958253 35.82006836 18.63632202 C58.46122658 12.40316886 81.1895137 6.57823553 104 1 C105.71936377 6.15809131 102.70616343 11.11829188 100.81518555 16.02441406 C100.06878717 17.98349795 99.36554289 19.95484292 98.66210938 21.9296875 C98.18488668 23.18328262 97.7051468 24.43592296 97.22265625 25.6875 C96.79734619 26.82574219 96.37203613 27.96398437 95.93383789 29.13671875 C92.31104914 34.50069634 84.44251049 35.52083066 78.41674805 37.09716797 C77.34886803 37.37838501 77.34886803 37.37838501 76.25941467 37.6652832 C73.92787206 38.27822892 71.59482896 38.88523873 69.26171875 39.4921875 C67.61463392 39.92395704 65.96764778 40.35610322 64.320755 40.78860474 C59.99061923 41.92471088 55.65918844 43.05579934 51.32745361 44.18579102 C46.98250137 45.3201216 42.63875277 46.45904058 38.29492188 47.59765625 C33.37525532 48.88687556 28.45547218 50.17563762 23.53483582 51.46115112 C22.78273236 51.65768343 22.03062891 51.85421574 21.25573444 52.05670357 C19.76980482 52.4447381 18.28375785 52.83232358 16.79758739 53.21943474 C12.77663014 54.26811975 8.75973987 55.33042756 4.74649048 56.40826416 C3.8784998 56.6401903 3.01050913 56.87211643 2.11621571 57.11107063 C0.44099677 57.55908921 -1.23343839 58.01005175 -2.9069643 58.46435356 C-6.01591591 59.29367201 -8.76711714 60 -12 60 C-12 68.91 -12 77.82 -12 87 C-8.02839844 85.9378125 -4.05679688 84.875625 0.03515625 83.78125 C49.35396607 70.59892903 49.35396607 70.59892903 67.125 66 C68.35226807 65.68095703 69.57953613 65.36191406 70.84399414 65.03320312 C71.9293042 64.75412109 73.01461426 64.47503906 74.1328125 64.1875 C75.49237061 63.83751953 75.49237061 63.83751953 76.87939453 63.48046875 C79 63 79 63 81 63 C79.89312706 69.30032659 77.5822206 75.14141376 75.375 81.125 C74.96121094 82.31738281 74.54742187 83.50976562 74.12109375 84.73828125 C73.69699219 85.87910156 73.27289063 87.01992187 72.8359375 88.1953125 C72.27205322 89.75789795 72.27205322 89.75789795 71.69677734 91.35205078 C68.12129182 96.93186603 60.32355141 97.86299879 54.21875 99.41796875 C53.3793689 99.63650513 52.53998779 99.8550415 51.6751709 100.0802002 C48.95146023 100.78795181 46.22580822 101.4878747 43.5 102.1875 C41.61837225 102.67443287 39.73686267 103.16182262 37.85546875 103.6496582 C34.06066139 104.63271296 30.2650517 105.61257614 26.46875 106.58984375 C21.44539442 107.8836314 16.42539386 109.18998566 11.40625 110.5 C9.27459446 111.05511986 7.14283126 111.60982304 5.01098633 112.16421509 C3.67473577 112.51192494 2.33863426 112.86020813 1.00268555 113.20907593 C-0.83092009 113.68735123 -2.66543497 114.16213676 -4.5 114.63671875 C-5.5209375 114.90186279 -6.541875 115.16700684 -7.59375 115.44018555 C-10 116 -10 116 -12 116 C-12 124.91 -12 133.82 -12 143 C-8.97199219 142.19175781 -5.94398438 141.38351563 -2.82421875 140.55078125 C0.1779577 139.7496778 3.18016403 138.94868644 6.18237305 138.14770508 C8.23513852 137.59997006 10.28787395 137.05212242 12.34057617 136.50415039 C17.30395951 135.17920514 22.26786055 133.85628586 27.23291016 132.53759766 C31.00700583 131.53444127 34.77705856 130.51783944 38.54443359 129.48974609 C39.4109404 129.25563522 40.2774472 129.02152435 41.17021179 128.78031921 C42.78485806 128.34406989 44.39825391 127.90315388 46.01008606 127.45661926 C49.75279938 126.45176811 53.11677017 125.74182054 57 126 C55.00802842 132.91533149 52.80196568 139.70820956 50.25 146.4375 C49.7859375 147.76297852 49.7859375 147.76297852 49.3125 149.11523438 C48.82523437 150.38657227 48.82523437 150.38657227 48.328125 151.68359375 C47.90901855 152.82139282 47.90901855 152.82139282 47.48144531 153.98217773 C44.02536534 158.68957737 36.51732856 159.80842591 31.09960938 161.1730957 C30.34239594 161.36872101 29.5851825 161.56434631 28.80502319 161.76589966 C27.17152891 162.18729614 25.53739649 162.60622529 23.9026947 163.02291298 C21.30048107 163.68682053 18.7003799 164.35848506 16.10070801 165.03227234 C8.71222297 166.94588582 1.32047029 168.84668041 -6.07324219 170.73999023 C-10.60932179 171.90212278 -15.14276976 173.07410462 -19.67485046 174.25172997 C-21.38636657 174.69435191 -23.09883904 175.13329541 -24.81233215 175.56820107 C-39.41276577 179.2748172 -53.13828236 183.85147896 -66.1875 191.5625 C-67.06841309 192.07425781 -67.94932617 192.58601562 -68.85693359 193.11328125 C-77.59510059 198.24440515 -86.0550366 203.78727838 -94.51074219 209.36669922 C-98.73283797 212.13698372 -102.98728311 214.85526852 -107.25 217.5625 C-108.39299561 218.29533203 -108.39299561 218.29533203 -109.55908203 219.04296875 C-120.37862354 225.9000537 -127.97819651 229.2295735 -141 227 C-146.2115148 225.4965776 -151.09338087 223.28674424 -156 221 C-156.84175781 220.65324219 -157.68351562 220.30648437 -158.55078125 219.94921875 C-164.51544672 217.03989981 -166.04147362 212.19900849 -168.1875 206.15625 C-168.93163486 203.26557229 -169.17685461 200.9623148 -169 198 C-166.49593376 198.99091391 -164.00546968 199.99762489 -161.53515625 201.0703125 C-155.02189504 203.84969611 -155.02189504 203.84969611 -148 204 C-146.03177114 202.03177114 -146.33751619 198.65191291 -146 196 C-142.7 196 -139.4 196 -136 196 C-136 193.36 -136 190.72 -136 188 C-133 187 -133 187 -129.875 187.4375 C-123.9791913 186.77184418 -120.83628401 183.3425153 -117 179 C-114.27452986 174.07318859 -114.82000758 169.34872478 -116 164 C-119.63377341 151.85604222 -125.90714712 145.00790305 -137 139 C-140.76300374 137.74566542 -144.27210909 137.89304578 -148.1875 137.9375 C-149.31188477 137.94426758 -149.31188477 137.94426758 -150.45898438 137.95117188 C-152.30602383 137.96293646 -154.15302213 137.98087135 -156 138 C-154.86448455 114.07586418 -154.86448455 114.07586418 -148 106 C-147.0409375 104.7315625 -147.0409375 104.7315625 -146.0625 103.4375 C-142.91965963 100.93605562 -140.50303127 99.96630454 -136.75 98.625 C-130.44726625 96.34861761 -125.94139857 93.47357385 -121 89 C-120.09701172 88.25169922 -120.09701172 88.25169922 -119.17578125 87.48828125 C-110.42783175 79.6839308 -105.50675526 67.93644936 -102 57 C-102.65484375 57.4846875 -103.3096875 57.969375 -103.984375 58.46875 C-111.83987663 64.23832747 -119.89906445 69.64308612 -128.0390625 75 C-133.98526134 78.93340285 -139.80578168 82.98378638 -145.52734375 87.23828125 C-148 89 -148 89 -150.61474609 90.0625 C-154.58893564 93.29066461 -155.05128797 97.8520522 -156.2265625 102.6875 C-156.50092133 103.74155029 -156.77528015 104.79560059 -157.05795288 105.8815918 C-157.93229326 109.24992007 -158.78031043 112.62412463 -159.625 116 C-160.48001206 119.37489591 -161.34066622 122.74806842 -162.21347046 126.1184082 C-162.75555647 128.21565767 -163.28686346 130.31572872 -163.80630493 132.41870117 C-164.05020966 133.3697876 -164.29411438 134.32087402 -164.54541016 135.30078125 C-164.7546109 136.13778564 -164.96381165 136.97479004 -165.17935181 137.8371582 C-166.08959125 140.23612029 -167.07975181 141.33358716 -169 143 C-169.66 143.66 -170.32 144.32 -171 145 C-171.02253443 147.44963177 -171.02253443 147.44963177 -170.625 150.125 C-170.315625 152.538125 -170.315625 152.538125 -170 155 C-173.96 154.01 -177.92 153.02 -182 152 C-181.67 155.3 -181.34 158.6 -181 162 C-182.340625 161.690625 -183.68125 161.38125 -185.0625 161.0625 C-189.03186473 160.1769297 -192.96709613 159.51483879 -197 159 C-195.90073597 160.77388086 -194.79539498 162.54399684 -193.6875 164.3125 C-193.07261719 165.29863281 -192.45773438 166.28476563 -191.82421875 167.30078125 C-190.15555239 169.95399578 -190.15555239 169.95399578 -188.26953125 171.73046875 C-187 173 -187 173 -187 175 C-192.3990791 174.68240711 -196.55551396 173.46220781 -201.5625 171.375 C-206.61641051 169.34295534 -209.61401007 168.62710061 -215 170 C-223.62947704 170.84880102 -230.07282999 167.56755972 -236.75 162.1875 C-240.37977493 158.88535321 -243.21416905 155.02057653 -246 151 C-238.53903796 139.10023776 -229.56845845 128.25360733 -220 118 C-228.13924506 119.86429635 -235.91105026 122.26775572 -243.75 125.109375 C-246.98630467 125.99624695 -247.951301 125.94277703 -251 125 C-250.53440674 124.6596875 -250.06881348 124.319375 -249.58911133 123.96875 C-239.10235038 116.29470136 -228.68171167 108.54219702 -218.37744141 100.62426758 C-214.71978439 97.81604019 -211.07037706 95.0153825 -207.2890625 92.375 C-200.23809076 87.40202245 -195.65834877 82.24019494 -191 75 C-173.01744561 47.25326812 -152.82198104 28.6431042 -119.66601562 21.50244141 C-116.78732108 20.93535912 -113.89817718 20.45568824 -111 20 C-109.700625 19.773125 -108.40125 19.54625 -107.0625 19.3125 C-95.18818329 18.10237855 -83.25879689 19.178515 -71.42578125 20.28833008 C-47.53480767 22.50345255 -27.35928702 14.9421058 -6.67724609 3.46875 C-5.41195068 2.77265625 -5.41195068 2.77265625 -4.12109375 2.0625 C-3.3727124 1.64097656 -2.62433105 1.21945312 -1.85327148 0.78515625 C-0.9359021 0.39650391 -0.9359021 0.39650391 0 0 Z " fill="#000000" transform="translate(253,0)"/>
<path d="" fill="#FFFFFF" transform="translate(0,0)"/>
<path d="" fill="#FFFFFF" transform="translate(0,0)"/>
<path d="" fill="#FFFFFF" transform="translate(0,0)"/>
<path d="" fill="#FFFFFF" transform="translate(0,0)"/>
<path d="" fill="#FFFFFF" transform="translate(0,0)"/>
<path d="" fill="#FFFFFF" transform="translate(0,0)"/>
<path d="" fill="#FFFFFF" transform="translate(0,0)"/>
<path d="" fill="#FFFFFF" transform="translate(0,0)"/>
<path d="" fill="#FFFFFF" transform="translate(0,0)"/>
<path d="" fill="#FFFFFF" transform="translate(0,0)"/>
<path d="" fill="#FFFFFF" transform="translate(0,0)"/>
<path d="" fill="#FFFFFF" transform="translate(0,0)"/>
<path d="" fill="#FFFFFF" transform="translate(0,0)"/>
<path d="" fill="#FFFFFF" transform="translate(0,0)"/>
<path d="" fill="#FFFFFF" transform="translate(0,0)"/>
<path d="" fill="#FFFFFF" transform="translate(0,0)"/>
<path d="" fill="#FFFFFF" transform="translate(0,0)"/>
<path d="" fill="#FFFFFF" transform="translate(0,0)"/>
<path d="" fill="#FFFFFF" transform="translate(0,0)"/>
<path d="" fill="#FFFFFF" transform="translate(0,0)"/>
<path d="" fill="#FFFFFF" transform="translate(0,0)"/>
<path d="" fill="#FFFFFF" transform="translate(0,0)"/>
<path d="" fill="#FFFFFF" transform="translate(0,0)"/>
<path d="" fill="#FFFFFF" transform="translate(0,0)"/>
<path d="" fill="#FFFFFF" transform="translate(0,0)"/>
<path d="" fill="#FFFFFF" transform="translate(0,0)"/>
<path d="" fill="#FFFFFF" transform="translate(0,0)"/>
<path d="" fill="#FFFFFF" transform="translate(0,0)"/>
<path d="" fill="#FFFFFF" transform="translate(0,0)"/>
<path d="" fill="#FFFFFF" transform="translate(0,0)"/>
<path d="" fill="#FFFFFF" transform="translate(0,0)"/>
<path d="" fill="#FFFFFF" transform="translate(0,0)"/>
<path d="" fill="#FFFFFF" transform="translate(0,0)"/>
<path d="" fill="#FFFFFF" transform="translate(0,0)"/>
<path d="" fill="#FFFFFF" transform="translate(0,0)"/>
<path d="" fill="#FFFFFF" transform="translate(0,0)"/>
<path d="" fill="#FFFFFF" transform="translate(0,0)"/>
<path d="" fill="#FFFFFF" transform="translate(0,0)"/>
<path d="" fill="#FFFFFF" transform="translate(0,0)"/>
<path d="" fill="#FFFFFF" transform="translate(0,0)"/>
<path d="" fill="#FFFFFF" transform="translate(0,0)"/>
<path d="" fill="#FFFFFF" transform="translate(0,0)"/>
<path d="" fill="#FFFFFF" transform="translate(0,0)"/>
<path d="" fill="#FFFFFF" transform="translate(0,0)"/>
<path d="" fill="#FFFFFF" transform="translate(0,0)"/>
<path d="" fill="#FFFFFF" transform="translate(0,0)"/>
<path d="" fill="#FFFFFF" transform="translate(0,0)"/>
</svg>
