<?xml version="1.0" encoding="UTF-8"?>
<svg version="1.1" xmlns="http://www.w3.org/2000/svg" width="494" height="505">
<path d="M0 0 C3.37845474 0.60584104 3.94852113 0.94174759 6.375 3.6875 C12.9201577 13.61668661 16.10722073 24.22647334 17 36 C17.0825 36.92296875 17.165 37.8459375 17.25 38.796875 C18.01497628 54.95699899 10.25945973 74.05541524 1 87 C0.34 87 -0.32 87 -1 87 C-1.4640625 88.175625 -1.4640625 88.175625 -1.9375 89.375 C-3 92 -3 92 -4 94 C-4.66 94 -5.32 94 -6 94 C-6.2475 94.53625 -6.495 95.0725 -6.75 95.625 C-8.30652537 98.5823982 -10.03435673 101.29724051 -12 104 C-12.66 104 -13.32 104 -14 104 C-14.99 105.98 -14.99 105.98 -16 108 C-16.66 108 -17.32 108 -18 108 C-18 108.66 -18 109.32 -18 110 C-18.66 110 -19.32 110 -20 110 C-20.25507324 110.58410645 -20.51014648 111.16821289 -20.77294922 111.77001953 C-22.12573034 114.22849601 -23.59055844 115.7618193 -25.6328125 117.6796875 C-26.35726562 118.36160156 -27.08171875 119.04351562 -27.828125 119.74609375 C-28.58609375 120.44863281 -29.3440625 121.15117188 -30.125 121.875 C-30.85976563 122.56980469 -31.59453125 123.26460938 -32.3515625 123.98046875 C-37.01384843 128.33904943 -41.84193046 132.24956097 -47 136 C-48.82068998 137.40612542 -50.63457827 138.82116343 -52.4375 140.25 C-53.70400391 141.24773437 -53.70400391 141.24773437 -54.99609375 142.265625 C-57.08425558 143.84881759 -57.08425558 143.84881759 -58 146 C-58.66 146 -59.32 146 -60 146 C-60 146.66 -60 147.32 -60 148 C-62.43564074 150.57482021 -64.99482934 152.99508156 -67.5625 155.4375 C-70.13116752 157.98750233 -70.13116752 157.98750233 -72.1875 161.3125 C-72.785625 162.199375 -73.38375 163.08625 -74 164 C-74.66 164 -75.32 164 -76 164 C-76.26683594 164.69996094 -76.53367188 165.39992187 -76.80859375 166.12109375 C-78.52049801 170.25772797 -80.60908183 174.18337871 -82.66015625 178.16015625 C-87.65540881 188.74776153 -86.79927894 202.23293149 -83 213 C-78.85020589 224.46692225 -72.94464062 234.0139977 -65.5390625 243.65234375 C-64 246 -64 246 -64 249 C-63.34 249 -62.68 249 -62 249 C-62 249.99 -62 250.98 -62 252 C-61.01 252.33 -60.02 252.66 -59 253 C-56.37956283 256.47735739 -54.22746396 260.26156487 -52 264 C-51.48308594 264.85464844 -50.96617187 265.70929688 -50.43359375 266.58984375 C-47 272.46901709 -47 272.46901709 -47 277 C-50.60571107 276.40716913 -52.54429438 274.97258223 -55.25 272.5625 C-55.95640625 271.94503906 -56.6628125 271.32757813 -57.390625 270.69140625 C-59 269 -59 269 -59 267 C-59.66 267 -60.32 267 -61 267 C-62.72824707 265.37341452 -64.36071008 263.71342866 -66 262 C-67.33063702 260.66397579 -68.66414857 259.33081048 -70 258 C-73 255 -76 252 -79 249 C-79.598125 248.443125 -80.19625 247.88625 -80.8125 247.3125 C-82 246 -82 246 -82 244 C-82.66 244 -83.32 244 -84 244 C-84 243.34 -84 242.68 -84 242 C-84.61875 241.773125 -85.2375 241.54625 -85.875 241.3125 C-88.6219805 239.61583557 -88.86635273 237.94748289 -90 235 C-90.99 234.67 -91.98 234.34 -93 234 C-94.33105469 232.5480957 -94.33105469 232.5480957 -95.671875 230.67578125 C-96.16824463 229.98347412 -96.66461426 229.29116699 -97.17602539 228.57788086 C-97.69543701 227.83030518 -98.21484863 227.08272949 -98.75 226.3125 C-99.28423584 225.54881104 -99.81847168 224.78512207 -100.36889648 223.99829102 C-104.96338653 217.29900808 -108.77682888 210.460878 -112 203 C-112.41064697 202.09096924 -112.41064697 202.09096924 -112.82958984 201.16357422 C-115.07090728 195.83362824 -115.5441476 191.00188074 -115.5 185.25 C-115.49355469 184.36965088 -115.48710937 183.48930176 -115.48046875 182.58227539 C-115.13172765 170.09986797 -109.62014685 161.57917245 -102 152 C-101.23042969 151.00033203 -101.23042969 151.00033203 -100.4453125 149.98046875 C-99.3561776 148.60454981 -98.18735068 147.29211691 -97 146 C-96.34 146 -95.68 146 -95 146 C-94.773125 145.443125 -94.54625 144.88625 -94.3125 144.3125 C-91.34086948 139.07677004 -86.10632847 135.25240884 -81.5625 131.375 C-80.95704346 130.85719971 -80.35158691 130.33939941 -79.7277832 129.8059082 C-73.80386526 124.77489724 -67.71446203 119.96983148 -61.56591797 115.21777344 C-60.09832615 114.07646567 -58.64433442 112.91773012 -57.19140625 111.7578125 C-56.38574219 111.11585937 -55.58007812 110.47390625 -54.75 109.8125 C-54.06421875 109.26207031 -53.3784375 108.71164063 -52.671875 108.14453125 C-51 107 -51 107 -49 107 C-49 106.34 -49 105.68 -49 105 C-47.453125 103.66015625 -47.453125 103.66015625 -45.25 102.0625 C-40.65140628 98.5990022 -36.44693158 94.83856735 -32.25097656 90.90844727 C-30.03015144 88.83490655 -27.80729886 86.8497338 -25.41015625 84.98046875 C-7.45217082 70.22406906 0.24310593 49.18917458 2.66796875 26.98046875 C3.19264282 20.69055261 3.05422706 15.38056229 1.5 9.25 C0 3.27777778 0 3.27777778 0 0 Z " fill="#E56F03" transform="translate(295,0)"/>
<path d="M0 0 C-0.33 0.99 -0.66 1.98 -1 3 C-1.58265625 3.05945801 -2.1653125 3.11891602 -2.765625 3.18017578 C-18.86489961 4.89831771 -34.3981177 6.97335298 -47 18 C-46.50224437 19.98627362 -46.50224437 19.98627362 -45 22 C-42.56627214 23.06530772 -40.34080804 23.88238585 -37.8125 24.625 C-37.16474609 24.82867187 -36.51699219 25.03234375 -35.84960938 25.2421875 C-33.90484754 25.84834703 -31.95596267 26.4309521 -30 27 C-28.92105469 27.3285498 -27.84210938 27.65709961 -26.73046875 27.99560547 C-20.75339224 29.60487856 -14.65433241 30.34280283 -8.53149414 31.17724609 C-6.28516261 31.48655245 -4.0422451 31.81485976 -1.79882812 32.14453125 C25.70421469 36.02490189 53.59293229 36.36017335 81.31987381 36.25815201 C83.67507082 36.24982293 86.03026097 36.24445138 88.38546753 36.23959351 C120.68212356 36.16371253 152.55065383 34.93912714 184.6875 31.625 C185.65761017 31.52603424 186.62772034 31.42706848 187.62722778 31.32510376 C208.8708894 29.12044227 230.36485851 26.05405659 250.28515625 18.0859375 C252.16799298 17.33280281 254.07618675 16.64127108 256 16 C257.63915164 12.01920315 258.19637389 9.77146887 257.125 5.5625 C256.75375 4.716875 256.3825 3.87125 256 3 C257.765625 2.3515625 257.765625 2.3515625 260 2 C262.97589832 3.39117198 265.06144128 5.364194 267 8 C268.14230372 12.31957236 267.64443086 15.7404306 265.625 19.6875 C248.32796283 34.92536608 220.90837257 39.50597486 199 44 C198.12682129 44.17917969 197.25364258 44.35835938 196.35400391 44.54296875 C178.70871368 48.04765212 160.80120963 49.55005485 142.90625 51.16796875 C142.14628723 51.2375882 141.38632446 51.30720764 140.60333252 51.37893677 C127.30881635 52.55082635 114.07264591 53.16497765 100.7265625 53.203125 C99.20417761 53.2100644 97.68179297 53.21705947 96.15940857 53.22410583 C91.31460266 53.2432714 86.46983936 53.24802462 81.625 53.25 C80.80029583 53.25073643 79.97559166 53.25147285 79.12589645 53.2522316 C53.65694561 53.27076387 28.37005258 52.81424648 3.01239014 50.20568848 C1.05474846 50.0055959 -0.90401766 49.81660202 -2.86279297 49.62792969 C-10.59329613 48.88011552 -18.29788367 47.99697741 -26 47 C-27.18287598 46.84917969 -28.36575195 46.69835937 -29.58447266 46.54296875 C-43.25008781 44.77618839 -56.77811692 42.97988672 -70 39 C-71.31871094 38.61521484 -71.31871094 38.61521484 -72.6640625 38.22265625 C-75.75064765 37.21379008 -77.63104463 36.53805992 -79.5 33.8125 C-79.665 33.214375 -79.83 32.61625 -80 32 C-80.66 32 -81.32 32 -82 32 C-82.46033307 26.24583659 -81.75334969 23.41018589 -78 19 C-64.38073792 6.46111208 -43.81717855 1.1414499 -26 -2 C-24.90171875 -2.19722656 -24.90171875 -2.19722656 -23.78125 -2.3984375 C-15.76036553 -3.61471916 -6.98882287 -4.65921525 0 0 Z " fill="#5985A1" transform="translate(143,427)"/>
<path d="M0 0 C-0.203125 1.828125 -0.203125 1.828125 -1 4 C-3.046875 5.421875 -3.046875 5.421875 -5.75 6.75 C-10.22949192 9.05407287 -14.58650654 11.48384043 -18.875 14.125 C-19.92429687 14.76695313 -20.97359375 15.40890625 -22.0546875 16.0703125 C-25.03007637 17.94869226 -25.03007637 17.94869226 -27.70703125 20.1953125 C-30.20174988 22.15878781 -31.88148755 22.64359858 -35 23 C-35 23.66 -35 24.32 -35 25 C-36.80078125 26.4453125 -36.80078125 26.4453125 -39.3125 28.125 C-40.22902344 28.75148437 -41.14554687 29.37796875 -42.08984375 30.0234375 C-43.05019531 30.67570312 -44.01054687 31.32796875 -45 32 C-60.13755464 42.41393454 -76.817237 55.36109713 -81.5078125 74.01171875 C-83.27843904 84.76195133 -78.51899807 94.67780383 -72.4375 103.375 C-71.29856181 104.92176758 -70.15338526 106.46397507 -69 108 C-65 113.6374269 -65 113.6374269 -65 116 C-64.34 116 -63.68 116 -63 116 C-55.74032968 128.73353939 -51.9853053 138.21867325 -55.9765625 152.95703125 C-61.77463931 170.19635125 -78.81531784 184.09774179 -94.48828125 192.2578125 C-94.98714844 192.50273437 -95.48601562 192.74765625 -96 193 C-96.495 191.02 -96.495 191.02 -97 189 C-96.25105469 188.46117187 -95.50210937 187.92234375 -94.73046875 187.3671875 C-91.79143342 184.81918262 -90.22206589 182.49785121 -88.3125 179.125 C-87.73113281 178.11695313 -87.14976562 177.10890625 -86.55078125 176.0703125 C-82.66573802 168.37851407 -81.55474318 160.71533378 -83.6875 152.28125 C-85.61794138 147.06905827 -88.29140293 142.86583013 -91.828125 138.59375 C-93 137 -93 137 -93 135 C-93.57878906 134.78214844 -94.15757812 134.56429687 -94.75390625 134.33984375 C-104.57837273 128.47933592 -109.56275762 112.52431574 -112.3125 101.9375 C-115.88076889 86.92502205 -113.06834654 73.15416326 -105 60 C-104.34 60 -103.68 60 -103 60 C-102.85884766 59.14148438 -102.85884766 59.14148438 -102.71484375 58.265625 C-101.83488251 55.47667681 -100.50184848 53.92723114 -98.5625 51.75 C-97.94503906 51.04359375 -97.32757813 50.3371875 -96.69140625 49.609375 C-95 48 -95 48 -93 48 C-92.80535156 47.45601562 -92.61070312 46.91203125 -92.41015625 46.3515625 C-90.38118342 42.96806764 -87.49332932 40.78784486 -84.4375 38.375 C-83.77492188 37.85010986 -83.11234375 37.32521973 -82.4296875 36.78442383 C-71.30664753 28.18096032 -58.97657349 21.5612441 -46.12255859 15.93017578 C-44.59940466 15.26267906 -43.07922845 14.5883718 -41.56103516 13.90966797 C-30.20983037 8.83749077 -18.9568852 4.42499013 -7 1 C-4 0 -4 0 0 0 Z " fill="#E57004" transform="translate(360,103)"/>
<path d="M0 0 C0 0.99 0 1.98 0 3 C-0.68320313 3.20753906 -1.36640625 3.41507812 -2.0703125 3.62890625 C-4.96090972 4.51234964 -7.84814484 5.40622524 -10.73486328 6.30224609 C-12.34898253 6.79946024 -13.96472819 7.2914074 -15.58154297 7.77978516 C-34.12085933 12.12678679 -34.12085933 12.12678679 -48.80078125 22.6796875 C-49.19652344 23.44539063 -49.59226563 24.21109375 -50 25 C-39.0119117 28.64648948 -28.11360571 30.26248584 -16.5625 30.625 C-15.49032227 30.66222168 -14.41814453 30.69944336 -13.31347656 30.73779297 C-0.20873475 31.14767031 12.89094752 31.16634173 26 31 C26.70743347 30.99139954 27.41486694 30.98279907 28.14373779 30.97393799 C66.87428173 30.47935942 105.73223773 27.40738321 143.95019531 20.94018555 C150.61014222 19.83357376 157.25418578 19.31913314 164 19 C162.84550196 22.46349411 162.45311728 22.58796632 159.359375 24.15625 C158.61816406 24.53910156 157.87695312 24.92195313 157.11328125 25.31640625 C155.94345703 25.90228516 155.94345703 25.90228516 154.75 26.5 C153.22334933 27.28005928 151.69729248 28.06128196 150.171875 28.84375 C149.43880127 29.2142749 148.70572754 29.5847998 147.95043945 29.96655273 C145.87639177 31.02099413 145.87639177 31.02099413 143.58984375 32.62890625 C139.54808633 34.76866018 135.26839162 35.51464437 130.8125 36.4375 C129.30574707 36.75618042 129.30574707 36.75618042 127.76855469 37.08129883 C115.91899856 39.52182567 103.98461891 41.36582493 92 43 C91.20835449 43.10940918 90.41670898 43.21881836 89.60107422 43.33154297 C39.48148709 50.02695076 -40.10354006 59.1721662 -86.26953125 34.50390625 C-88.41803274 32.63669841 -88.74585091 31.47941601 -89.125 28.6875 C-89.08375 27.470625 -89.0425 26.25375 -89 25 C-79.01401673 17.10410625 -66.75831165 12.88189142 -54.86669922 8.6640625 C-53.23023229 8.08190319 -51.60080241 7.48004012 -49.97265625 6.875 C-34.24395656 1.47023876 -16.59363838 -0.97133493 0 0 Z " fill="#5784A1" transform="translate(190,276)"/>
<path d="M0 0 C-0.433125 0.8353125 -0.433125 0.8353125 -0.875 1.6875 C-2.0413253 4.08494645 -3.0339881 6.51596939 -4 9 C-0.38974195 10.58121625 2.93873644 11.45011452 6.83203125 12.03515625 C8.51220337 12.28894043 8.51220337 12.28894043 10.22631836 12.54785156 C11.4097583 12.71768555 12.59319824 12.88751953 13.8125 13.0625 C15.03138916 13.2387793 16.25027832 13.41505859 17.50610352 13.59667969 C46.62796519 17.69197173 82.74601799 19.417994 111 10 C118.61054167 9.03358201 122.46738752 11.06191505 128.85546875 15.12109375 C132.93083129 17.55618615 137.16297608 19.2050987 141.6015625 20.859375 C144 22 144 22 146 25 C113.69949701 41.09494241 78.4576445 43.55714044 43 43 C42.17226074 42.99661621 41.34452148 42.99323242 40.49169922 42.98974609 C21.32756477 42.90335972 -1.82843101 38.781046 -18 28 C-18 27.34 -18 26.68 -18 26 C-18.78375 25.7525 -19.5675 25.505 -20.375 25.25 C-23 24 -23 24 -24.3125 22.3125 C-25.55034373 18.14884383 -25.67641624 14.50656345 -23.8828125 10.51171875 C-21.49580605 7.32739271 -19.0916583 6.06064648 -15.5625 4.25 C-14.42941406 3.65703125 -13.29632813 3.0640625 -12.12890625 2.453125 C-7.83564261 0.45924975 -4.7129753 -0.13091598 0 0 Z " fill="#5683A0" transform="translate(181,389)"/>
<path d="M0 0 C0 0.99 0 1.98 0 3 C-1 4 -2 5 -3 6 C-4.19027984 8.59915538 -4.19027984 8.59915538 -5 11 C0.73984489 18.17480612 12.66513407 18.03497116 21.22241211 19.01586914 C58.74927833 22.68474407 97.40658507 20.98417655 134.2980957 13.13183594 C139.97011444 11.96225241 145.14123543 11.19446448 150.30078125 14.453125 C150.96464844 15.04609375 151.62851562 15.6390625 152.3125 16.25 C156.85461471 20.04814764 161.62583415 22.56535701 167 25 C167 25.66 167 26.32 167 27 C158.80281824 29.90374431 150.63073354 32.19870652 142.125 34 C140.9282666 34.25418701 139.7315332 34.50837402 138.49853516 34.77026367 C129.49984085 36.61751153 120.4777195 38.08287305 111.375 39.3125 C110.20469238 39.47169922 109.03438477 39.63089844 107.82861328 39.79492188 C92.41935479 41.75096923 77.00285845 42.16909972 61.48608398 42.13037109 C58.93532393 42.12499541 56.38473928 42.13036812 53.83398438 42.13671875 C39.18811507 42.14455778 24.63055047 41.84674537 10.1875 39.1875 C9.2075708 39.01081787 8.2276416 38.83413574 7.21801758 38.65209961 C0.24770927 37.34542031 -6.44679156 35.76622973 -13 33 C-14.36511719 32.42958984 -14.36511719 32.42958984 -15.7578125 31.84765625 C-21.15920038 29.38317461 -24.86939444 27.11332242 -28 22 C-28.85079054 18.73863627 -28.58463514 17.07932641 -26.984375 14.125 C-23.20706321 9.03556938 -18.42220591 6.30503545 -12.875 3.5 C-12.18212891 3.14953613 -11.48925781 2.79907227 -10.77539062 2.43798828 C-7.05414879 0.66405335 -4.2177749 -0.45952411 0 0 Z " fill="#5684A1" transform="translate(169,334)"/>
<path d="M0 0 C-0.74143651 7.59972423 -4.69931323 13.65139942 -10 19 C-12.27492385 20.5274877 -14.41240103 21.85019333 -16.8125 23.125 C-17.39064453 23.44597656 -17.96878906 23.76695312 -18.56445312 24.09765625 C-20.36486826 25.08838193 -22.1788161 26.04803924 -24 27 C-24.639375 27.33942627 -25.27875 27.67885254 -25.9375 28.02856445 C-30.62873713 30.45886031 -35.33934973 32.34680234 -40.375 33.9375 C-41.16648437 34.18910889 -41.95796875 34.44071777 -42.7734375 34.69995117 C-53.17298515 37.85171957 -63.88322084 39.6591947 -74.57421875 41.52270508 C-77.12622756 41.97144914 -77.12622756 41.97144914 -80 43 C-82.85970189 43.34894081 -85.71149093 43.6591544 -88.578125 43.9375 C-89.84532379 44.06499634 -89.84532379 44.06499634 -91.13812256 44.19506836 C-93.84176893 44.4666237 -96.54584356 44.73357591 -99.25 45 C-101.93980017 45.26709971 -104.62949284 45.53520384 -107.31903076 45.80493164 C-108.99175505 45.97247007 -110.66464055 46.13840924 -112.33770752 46.30249023 C-115.67082264 46.63459078 -118.96397564 46.99421944 -122.27270508 47.52514648 C-127.7513394 48.22311883 -133.2291409 48.35461822 -138.74609375 48.53515625 C-139.9888356 48.57813339 -141.23157745 48.62111053 -142.51197815 48.66539001 C-145.14702098 48.7554545 -147.78206184 48.84397155 -150.41723633 48.92993164 C-154.36499559 49.05898012 -158.31235669 49.19852954 -162.25976562 49.33789062 C-177.84556686 49.87054059 -193.40532597 50.13503501 -209 50 C-209 49.34 -209 48.68 -209 48 C-209.63687744 48.01047363 -210.27375488 48.02094727 -210.92993164 48.03173828 C-226.42349652 48.25064048 -241.59944716 47.68509474 -257 46 C-257.95648438 45.90348145 -258.91296875 45.80696289 -259.8984375 45.70751953 C-297.20694057 41.90040184 -297.20694057 41.90040184 -305 34 C-305 33.34 -305 32.68 -305 32 C-295.12163404 32.60861546 -285.26936645 33.37264244 -275.41625977 34.30224609 C-273.27588586 34.50344174 -271.13504663 34.6990878 -268.99414062 34.89453125 C-267.61715659 35.0231069 -266.24020222 35.15200076 -264.86328125 35.28125 C-263.63907471 35.39533203 -262.41486816 35.50941406 -261.15356445 35.62695312 C-258 36 -258 36 -256.0447998 36.5038147 C-252.5012767 37.36367593 -248.86072517 37.38851447 -245.23046875 37.5546875 C-244.32113083 37.59673309 -243.41179291 37.63877869 -242.47489929 37.68209839 C-230.15170442 38.18877577 -217.81935339 38.1507533 -205.48803711 38.13037109 C-202.00232873 38.12465749 -198.51669642 38.12807481 -195.0309906 38.13380909 C-177.60042018 38.15819441 -160.2068957 38.13912295 -142.875 36.0625 C-136.56670821 35.34584599 -130.26250892 34.77412337 -123.93139648 34.29882812 C-114.80027917 33.60693603 -105.98720937 32.63790256 -97.015625 30.7734375 C-93.25826097 30.01028182 -89.48817159 29.51169576 -85.6862793 29.02612305 C-59.43480465 25.63812683 -21.90652584 0 0 0 Z " fill="#5E89A4" transform="translate(433,455)"/>
<path d="M0 0 C1.93359375 1.5 1.93359375 1.5 2.93359375 4.5 C3.54976563 4.79777344 4.1659375 5.09554688 4.80078125 5.40234375 C9.54458649 7.84375267 11.99292475 13.98445529 13.796875 18.80859375 C15.28995036 24.50665685 14.88464272 29.73720823 13.93359375 35.5 C13.65515625 37.3871875 13.65515625 37.3871875 13.37109375 39.3125 C8.38022802 57.34519005 -7.51580955 68.30694747 -22.73144531 77.17822266 C-31.28232695 82.01871546 -40.1585345 85.68578076 -49.44140625 88.875 C-50.52917358 89.25180908 -50.52917358 89.25180908 -51.63891602 89.63623047 C-56.78235251 91.31919531 -61.67371497 92.04263171 -67.06640625 92.5 C-66.73974609 90.6184082 -66.73974609 90.6184082 -66.06640625 88.5 C-63.94687782 87.05215312 -61.9527343 85.86528118 -59.69140625 84.6875 C-58.40264814 83.98098352 -57.11489702 83.2726273 -55.828125 82.5625 C-55.18794434 82.21316406 -54.54776367 81.86382812 -53.88818359 81.50390625 C-46.04896692 77.18403772 -39.169403 72.13982683 -32.48022461 66.23120117 C-29.81207411 63.88747115 -27.36133655 61.87354926 -24.06640625 60.5 C-24.06640625 59.84 -24.06640625 59.18 -24.06640625 58.5 C-23.40640625 58.5 -22.74640625 58.5 -22.06640625 58.5 C-21.67775391 57.65501953 -21.67775391 57.65501953 -21.28125 56.79296875 C-19.93996548 54.26134813 -18.34560609 52.10512495 -16.62890625 49.8125 C-10.5499017 41.12458933 -8.87114993 33.11282538 -10.06640625 22.5 C-12.33678937 14.58276656 -16.69928877 8.73224399 -23.80859375 4.57421875 C-31.71404147 0.81297632 -39.59034416 1.40631457 -48.06640625 2.5 C-49.21302734 2.64695312 -49.21302734 2.64695312 -50.3828125 2.796875 C-51.94681657 3.01172808 -53.50732045 3.25196362 -55.06640625 3.5 C-55.06640625 0.5 -55.06640625 0.5 -52.75390625 -2 C-38.16391426 -13.10180999 -14.41399837 -8.63490698 0 0 Z " fill="#5783A0" transform="translate(418.06640625,279.5)"/>
<path d="M0 0 C-0.203125 1.828125 -0.203125 1.828125 -1 4 C-3.046875 5.421875 -3.046875 5.421875 -5.75 6.75 C-10.22949192 9.05407287 -14.58650654 11.48384043 -18.875 14.125 C-19.92429687 14.76695313 -20.97359375 15.40890625 -22.0546875 16.0703125 C-25.03007637 17.94869226 -25.03007637 17.94869226 -27.70703125 20.1953125 C-30.20174988 22.15878781 -31.88148755 22.64359858 -35 23 C-35 23.66 -35 24.32 -35 25 C-36.75 26.2890625 -36.75 26.2890625 -39 27.625 C-39.7425 28.07101563 -40.485 28.51703125 -41.25 28.9765625 C-42.11625 29.48316406 -42.11625 29.48316406 -43 30 C-43.33 29.34 -43.66 28.68 -44 28 C-43.67 27.34 -43.34 26.68 -43 26 C-40.4375 25.375 -40.4375 25.375 -38 25 C-38.33 22.36 -38.66 19.72 -39 17 C-41.31 17 -43.62 17 -46 17 C-46 17.66 -46 18.32 -46 19 C-47.65 19.33 -49.3 19.66 -51 20 C-51 20.99 -51 21.98 -51 23 C-53.64 23 -56.28 23 -59 23 C-57.71768344 20.43536687 -56.75494947 20.29591341 -54.1328125 19.23046875 C-53.33488281 18.90143555 -52.53695313 18.57240234 -51.71484375 18.23339844 C-50.86019531 17.88825195 -50.00554687 17.54310547 -49.125 17.1875 C-47.37707936 16.46872283 -45.62967977 15.74867721 -43.8828125 15.02734375 C-43.03750977 14.67913574 -42.19220703 14.33092773 -41.32128906 13.97216797 C-38.51567165 12.79716076 -35.75487941 11.5390908 -33 10.25 C-10.7173913 0 -10.7173913 0 0 0 Z " fill="#E37E1F" transform="translate(360,103)"/>
<path d="M0 0 C-2.67113153 1.38316454 -5.07947643 2.29504603 -8 3 C-8.33 3.33 -8.66 3.66 -9 4 C-8.01 4.33 -7.02 4.66 -6 5 C-6 5.66 -6 6.32 -6 7 C-5.34 7.33 -4.68 7.66 -4 8 C-14.02554473 13.44966537 -27.17534338 12.92078134 -38.0234375 10.2578125 C-40.0450315 9.58819935 -42.03007173 8.80907768 -44 8 C-43.67 7.01 -43.34 6.02 -43 5 C-40.9375 4.3125 -40.9375 4.3125 -39 4 C-39 3.34 -39 2.68 -39 2 C-35.31958974 0.77319658 -31.77887695 0.63521196 -27.9375 0.4375 C-27.15197754 0.3950415 -26.36645508 0.35258301 -25.55712891 0.30883789 C-17.03804267 -0.11145056 -8.52672665 -0.09070986 0 0 Z " fill="#5984A0" transform="translate(299,492)"/>
<path d="M0 0 C0.87672363 -0.00555908 1.75344727 -0.01111816 2.65673828 -0.0168457 C6.91573407 0.03129947 9.79378429 0.17044535 13.5625 2.3125 C12.5725 2.9725 11.5825 3.6325 10.5625 4.3125 C9.9025 5.3025 9.2425 6.2925 8.5625 7.3125 C7.9025 7.3125 7.2425 7.3125 6.5625 7.3125 C7.0575 10.7775 7.0575 10.7775 7.5625 14.3125 C7.0159375 14.01730469 6.469375 13.72210938 5.90625 13.41796875 C-2.77039427 9.32548487 -11.0941243 8.95468569 -20.4375 10.3125 C-21.58025391 10.46138672 -21.58025391 10.46138672 -22.74609375 10.61328125 C-24.31299543 10.82451347 -25.87606091 11.06408924 -27.4375 11.3125 C-27.4375 8.3125 -27.4375 8.3125 -25.125 5.8125 C-17.71740463 0.17591594 -8.9486518 0.0490095 0 0 Z " fill="#638CA6" transform="translate(390.4375,271.6875)"/>
<path d="M0 0 C-0.33 0.99 -0.66 1.98 -1 3 C-1.58265625 3.05945801 -2.1653125 3.11891602 -2.765625 3.18017578 C-16.35667363 4.63063557 -28.69282738 6.84641369 -41 13 C-41 12.01 -41 11.02 -41 10 C-35.74285714 6 -35.74285714 6 -33 6 C-33 5.34 -33 4.68 -33 4 C-36.3 3.67 -39.6 3.34 -43 3 C-33.29297671 -3.47134886 -10.13877761 -6.75918507 0 0 Z " fill="#658DA5" transform="translate(143,427)"/>
<path d="M0 0 C0 0.99 0 1.98 0 3 C-0.68320313 3.20753906 -1.36640625 3.41507812 -2.0703125 3.62890625 C-3.07835937 3.93699219 -4.08640625 4.24507813 -5.125 4.5625 C-6.2903125 4.91828125 -7.455625 5.2740625 -8.65625 5.640625 C-12.0024127 6.67588415 -15.3300527 7.76172989 -18.65625 8.859375 C-19.63964355 9.18091553 -20.62303711 9.50245605 -21.63623047 9.83374023 C-23.61678359 10.48233013 -25.59502882 11.13801357 -27.57080078 11.80102539 C-28.48845215 12.10000732 -29.40610352 12.39898926 -30.3515625 12.70703125 C-31.17479004 12.9800708 -31.99801758 13.25311035 -32.84619141 13.53442383 C-35 14 -35 14 -38 13 C-37.67 10.69 -37.34 8.38 -37 6 C-41.455 6.495 -41.455 6.495 -46 7 C-41.68070581 4.8403529 -37.69298353 3.89826638 -33 3 C-32.04287109 2.81171631 -32.04287109 2.81171631 -31.06640625 2.61962891 C-20.58592764 0.58843523 -10.68265819 -0.42541559 0 0 Z " fill="#6A91A9" transform="translate(190,276)"/>
<path d="M0 0 C1.88041992 0.07250977 1.88041992 0.07250977 3.79882812 0.14648438 C5.10916016 0.20255859 6.41949219 0.25863281 7.76953125 0.31640625 C9.10479755 0.3696486 10.44008397 0.42238885 11.77539062 0.47460938 C15.04450269 0.60442971 18.31332044 0.73940161 21.58203125 0.87890625 C21.25203125 2.52890625 20.92203125 4.17890625 20.58203125 5.87890625 C24.54203125 6.20890625 28.50203125 6.53890625 32.58203125 6.87890625 C32.58203125 7.53890625 32.58203125 8.19890625 32.58203125 8.87890625 C2.32755109 9.34574096 2.32755109 9.34574096 -7.41796875 6.87890625 C-7.74796875 6.21890625 -8.07796875 5.55890625 -8.41796875 4.87890625 C-10.4426013 4.22677333 -10.4426013 4.22677333 -12.41796875 3.87890625 C-11.42796875 3.87890625 -10.43796875 3.87890625 -9.41796875 3.87890625 C-9.41796875 2.88890625 -9.41796875 1.89890625 -9.41796875 0.87890625 C-6.0020072 -0.2597476 -3.59334666 -0.14633538 0 0 Z " fill="#57829E" transform="translate(191.41796875,494.12109375)"/>
<path d="M0 0 C-1.15449804 3.46349411 -1.54688272 3.58796632 -4.640625 5.15625 C-5.38183594 5.53910156 -6.12304688 5.92195313 -6.88671875 6.31640625 C-7.66660156 6.70699219 -8.44648438 7.09757812 -9.25 7.5 C-10.77665067 8.28005928 -12.30270752 9.06128196 -13.828125 9.84375 C-14.92314331 10.39808716 -14.92314331 10.39808716 -16.0402832 10.96362305 C-18.1415369 12.03586798 -18.1415369 12.03586798 -20.55859375 13.67578125 C-23.83068428 15.45056315 -27.18675541 16.05256099 -30.8125 16.6875 C-31.85180664 16.88182617 -31.85180664 16.88182617 -32.91210938 17.08007812 C-34.60644764 17.39557559 -36.30302158 17.69902647 -38 18 C-38 17.34 -38 16.68 -38 16 C-36.35 16 -34.7 16 -33 16 C-33 15.34 -33 14.68 -33 14 C-28.545 13.505 -28.545 13.505 -24 13 C-24.66 11.68 -25.32 10.36 -26 9 C-26 7.68 -26 6.36 -26 5 C-27.32 5 -28.64 5 -30 5 C-30 5.66 -30 6.32 -30 7 C-36.6 7 -43.2 7 -50 7 C-50 6.67 -50 6.34 -50 6 C-49.00371582 5.87939209 -49.00371582 5.87939209 -47.98730469 5.75634766 C-32.22570962 3.86794104 -32.22570962 3.86794104 -16.546875 1.40625 C-11.07946321 0.53414751 -5.53744947 0 0 0 Z " fill="#6E92A8" transform="translate(354,295)"/>
<path d="M0 0 C-0.71175824 7.295522 -4.57287577 14.0650732 -10 19 C-13.24088584 21.17552552 -16.57728273 23.12581307 -20 25 C-20.99 24.34 -21.98 23.68 -23 23 C-22.34 23 -21.68 23 -21 23 C-20.67 21.68 -20.34 20.36 -20 19 C-19.34 19 -18.68 19 -18 19 C-18 18.01 -18 17.02 -18 16 C-18.804375 15.87625 -19.60875 15.7525 -20.4375 15.625 C-21.283125 15.41875 -22.12875 15.2125 -23 15 C-23.33 14.34 -23.66 13.68 -24 13 C-22.60587891 12.34644531 -22.60587891 12.34644531 -21.18359375 11.6796875 C-15.34876242 8.88719697 -5.44210414 0 0 0 Z " fill="#54809E" transform="translate(433,455)"/>
<path d="M0 0 C0 0.66 0 1.32 0 2 C-0.66 2 -1.32 2 -2 2 C-2 2.66 -2 3.32 -2 4 C-3.65 4 -5.3 4 -7 4 C-6.814375 4.78375 -6.62875 5.5675 -6.4375 6.375 C-6 9 -6 9 -7 11 C-5.68 11 -4.36 11 -3 11 C-2.67 10.01 -2.34 9.02 -2 8 C-1.01 8 -0.02 8 1 8 C1 8.66 1 9.32 1 10 C2.32 10.66 3.64 11.32 5 12 C-1.32589627 13.13955862 -7.52278338 13.1142637 -13.9375 13.0625 C-15.53561523 13.05573242 -15.53561523 13.05573242 -17.16601562 13.04882812 C-19.77740291 13.03711787 -22.38867124 13.02071724 -25 13 C-25 12.67 -25 12.34 -25 12 C-22.03 11.34 -19.06 10.68 -16 10 C-16 9.01 -16 8.02 -16 7 C-17.32 6.67 -18.64 6.34 -20 6 C-19.67 5.67 -19.34 5.34 -19 5 C-19.99 4.34 -20.98 3.68 -22 3 C-18.7 3 -15.4 3 -12 3 C-15.3 2.67 -18.6 2.34 -22 2 C-22 1.67 -22 1.34 -22 1 C-14.64479068 0.36338219 -7.38395674 -0.12515181 0 0 Z " fill="#6F96AD" transform="translate(309,490)"/>
<path d="M0 0 C0.33 0.99 0.66 1.98 1 3 C0.360625 3.2475 -0.27875 3.495 -0.9375 3.75 C-3.18741541 4.81562433 -3.18741541 4.81562433 -3.75 7.125 C-3.8325 7.74375 -3.915 8.3625 -4 9 C-3.401875 8.814375 -2.80375 8.62875 -2.1875 8.4375 C0 8 0 8 3 9 C3.33 8.34 3.66 7.68 4 7 C4.66 7.66 5.32 8.32 6 9 C2.86000372 10.16227404 -0.2878514 11.30167048 -3.4375 12.4375 C-4.31599609 12.76298828 -5.19449219 13.08847656 -6.09960938 13.42382812 C-11.79771871 15.46337279 -16.96006228 16.56374814 -23 17 C-22.67993164 15.12280273 -22.67993164 15.12280273 -22 13 C-19.81843289 11.51108785 -17.76244207 10.27842141 -15.4375 9.0625 C-14.16208849 8.3671164 -12.88734533 7.67050553 -11.61328125 6.97265625 C-10.99404785 6.63766113 -10.37481445 6.30266602 -9.73681641 5.95751953 C-6.39870299 4.1171933 -3.2092171 2.05389895 0 0 Z " fill="#60889F" transform="translate(374,355)"/>
<path d="M0 0 C-0.66 0.99 -1.32 1.98 -2 3 C-5.125 3.1875 -5.125 3.1875 -8 3 C-8.33 3.66 -8.66 4.32 -9 5 C-9.89203125 4.90460938 -10.7840625 4.80921875 -11.703125 4.7109375 C-12.87359375 4.60007812 -14.0440625 4.48921875 -15.25 4.375 C-16.41015625 4.25898438 -17.5703125 4.14296875 -18.765625 4.0234375 C-21.88106263 3.75124529 -21.88106263 3.75124529 -23.92529297 4.98809814 C-26.30844751 6.15043985 -27.79427011 6.22302481 -30.4296875 6.16699219 C-31.2973877 6.15327576 -32.16508789 6.13955933 -33.05908203 6.12542725 C-34.45296143 6.08654388 -34.45296143 6.08654388 -35.875 6.046875 C-36.83647949 6.02659241 -37.79795898 6.00630981 -38.78857422 5.9854126 C-40.81945688 5.93988173 -42.85022799 5.88911662 -44.88085938 5.83349609 C-47.98813267 5.75031768 -51.09531891 5.68844465 -54.203125 5.62890625 C-56.17711412 5.58200759 -58.15107432 5.53387201 -60.125 5.484375 C-61.05425293 5.46654968 -61.98350586 5.44872437 -62.94091797 5.43035889 C-63.80861816 5.40403381 -64.67631836 5.37770874 -65.5703125 5.35058594 C-66.33102051 5.33122986 -67.09172852 5.31187378 -67.87548828 5.29193115 C-70.25575047 4.96485709 -71.92171139 4.17967466 -74 3 C-73.40103912 2.99191315 -72.80207825 2.98382629 -72.18496704 2.97549438 C-65.85619619 2.88831505 -59.52769882 2.78878806 -53.19921875 2.68261719 C-50.84868016 2.64472599 -48.49809138 2.60980999 -46.14746094 2.578125 C-33.50546271 2.40568513 -21.03308564 2.0762143 -8.48974609 0.41552734 C-5.60719581 0.07229938 -2.89565322 -0.0860095 0 0 Z " fill="#81A0AF" transform="translate(277,352)"/>
<path d="M0 0 C3.3 0 6.6 0 10 0 C10.33 1.32 10.66 2.64 11 4 C10.01 4.495 10.01 4.495 9 5 C8.34786708 7.02463255 8.34786708 7.02463255 8 9 C9.32 9.66 10.64 10.32 12 11 C8.04 11 4.08 11 0 11 C-0.33 10.34 -0.66 9.68 -1 9 C-1.66 9.66 -2.32 10.32 -3 11 C-4.32 11 -5.64 11 -7 11 C-7.82638376 8.10765685 -8 6.11257569 -8 3 C-5.03 3.495 -5.03 3.495 -2 4 C-2 3.34 -2 2.68 -2 2 C-1.34 2 -0.68 2 0 2 C0 1.34 0 0.68 0 0 Z " fill="#527F9C" transform="translate(309,490)"/>
<path d="M0 0 C1.68424346 0.00502662 3.36848837 0.00958747 5.05273438 0.01367188 C9.13935953 0.02458173 13.22591328 0.04178179 17.3125 0.0625 C17.3125 0.3925 17.3125 0.7225 17.3125 1.0625 C14.0125 1.3925 10.7125 1.7225 7.3125 2.0625 C6.6525 3.7125 5.9925 5.3625 5.3125 7.0625 C5.9725 7.3925 6.6325 7.7225 7.3125 8.0625 C6.6525 9.3825 5.9925 10.7025 5.3125 12.0625 C5.3125 10.7425 5.3125 9.4225 5.3125 8.0625 C1.3525 8.0625 -2.6075 8.0625 -6.6875 8.0625 C-7.0175 7.4025 -7.3475 6.7425 -7.6875 6.0625 C-7.0275 6.0625 -6.3675 6.0625 -5.6875 6.0625 C-6.0175 5.0725 -6.3475 4.0825 -6.6875 3.0625 C-18.0725 2.5675 -18.0725 2.5675 -29.6875 2.0625 C-29.6875 1.7325 -29.6875 1.4025 -29.6875 1.0625 C-19.79805856 -0.16177558 -9.94368773 -0.05194829 0 0 Z " fill="#7498AF" transform="translate(218.6875,492.9375)"/>
<path d="M0 0 C1.06347656 -0.00515625 2.12695312 -0.0103125 3.22265625 -0.015625 C5.9375 0.25 5.9375 0.25 7.9375 2.25 C6.1875 7.125 6.1875 7.125 3.9375 8.25 C2.39726004 8.31950541 0.85415012 8.33452357 -0.6875 8.3125 C-1.91339844 8.29896484 -1.91339844 8.29896484 -3.1640625 8.28515625 C-4.10378906 8.26775391 -4.10378906 8.26775391 -5.0625 8.25 C-4.4025 6.93 -3.7425 5.61 -3.0625 4.25 C-3.7225 3.92 -4.3825 3.59 -5.0625 3.25 C-5.0625 3.91 -5.0625 4.57 -5.0625 5.25 C-5.7225 5.91 -6.3825 6.57 -7.0625 7.25 C-7.0625 8.24 -7.0625 9.23 -7.0625 10.25 C-9.7025 10.58 -12.3425 10.91 -15.0625 11.25 C-13.3125 7.375 -13.3125 7.375 -11.0625 6.25 C-11.0625 5.59 -11.0625 4.93 -11.0625 4.25 C-10.4025 4.25 -9.7425 4.25 -9.0625 4.25 C-9.0625 3.59 -9.0625 2.93 -9.0625 2.25 C-5.58864567 -0.06590289 -4.09819994 -0.01991835 0 0 Z " fill="#54819F" transform="translate(383.0625,450.75)"/>
<path d="M0 0 C0 0.99 0 1.98 0 3 C-1.65 3.66 -3.3 4.32 -5 5 C-5.19551338 6.60320974 -5.38111983 8.20762986 -5.5625 9.8125 C-5.66691406 10.70582031 -5.77132812 11.59914063 -5.87890625 12.51953125 C-6.15658709 15.13375572 -6.15658709 15.13375572 -5 18 C-5.66 18.66 -6.32 19.32 -7 20 C-4.94766315 22.2477975 -3.99332739 23.0022242 -1 24 C-1 24.66 -1 25.32 -1 26 C-6.08905039 24.9094892 -8.73460805 22.86031856 -11.84765625 18.85546875 C-13 17 -13 17 -13.8125 14.0625 C-12.21667666 8.04747357 -7.82241539 4.06031441 -2.5625 1 C-1.716875 0.67 -0.87125 0.34 0 0 Z " fill="#6B8EA5" transform="translate(154,339)"/>
<path d="M0 0 C1.77049689 -0.05410687 3.54146849 -0.09284119 5.3125 -0.125 C6.29863281 -0.14820313 7.28476563 -0.17140625 8.30078125 -0.1953125 C11 0 11 0 14 2 C13.01 2.495 13.01 2.495 12 3 C12.66 3.66 13.32 4.32 14 5 C13.175 5.45375 12.35 5.9075 11.5 6.375 C10.675 6.91125 9.85 7.4475 9 8 C9 8.66 9 9.32 9 10 C6.03 10 3.06 10 0 10 C-1.125 3.375 -1.125 3.375 0 0 Z " fill="#53809C" transform="translate(225,494)"/>
<path d="M0 0 C11.05277595 0.61947712 22.00774498 1.70309019 33 3 C33 3.33 33 3.66 33 4 C31.60974609 4.07347656 31.60974609 4.07347656 30.19140625 4.1484375 C28.99386719 4.22320312 27.79632813 4.29796875 26.5625 4.375 C24.77005859 4.47941406 24.77005859 4.47941406 22.94140625 4.5859375 C21.97074219 4.72257812 21.00007813 4.85921875 20 5 C19.67 5.66 19.34 6.32 19 7 C15.22549954 8.18158275 12.67126224 7.92726043 8.9375 6.75 C7.68259766 6.37101562 7.68259766 6.37101562 6.40234375 5.984375 C3.87731982 4.94973105 2.03046026 3.81944245 0 2 C0 1.34 0 0.68 0 0 Z " fill="#7A9AAD" transform="translate(128,487)"/>
<path d="M0 0 C0.33 0.99 0.66 1.98 1 3 C-1.15343189 6.23014784 -2.27059611 7.75686537 -6 9 C-6.639375 9.639375 -7.27875 10.27875 -7.9375 10.9375 C-9.91768123 12.91768123 -11.51929756 13.80241951 -14 15 C-14.33 15.66 -14.66 16.32 -15 17 C-15.66 17 -16.32 17 -17 17 C-17 17.66 -17 18.32 -17 19 C-18.75 21.125 -18.75 21.125 -21 23 C-22.32 23 -23.64 23 -25 23 C-25 23.66 -25 24.32 -25 25 C-26.32 24.67 -27.64 24.34 -29 24 C-27.21326795 22.4941255 -25.42046492 20.9954515 -23.625 19.5 C-22.62726563 18.6646875 -21.62953125 17.829375 -20.6015625 16.96875 C-18 15 -18 15 -16 15 C-16 14.34 -16 13.68 -16 13 C-14.27734375 11.484375 -14.27734375 11.484375 -11.9375 9.75 C-7.8162864 6.63952707 -3.89034058 3.39370135 0 0 Z " fill="#E29247" transform="translate(262,92)"/>
<path d="M0 0 C2.28125 0.1875 2.28125 0.1875 5 1 C6.84375 3.1875 6.84375 3.1875 8.5 6 C9.08910156 6.99128906 9.67820313 7.98257812 10.28515625 9.00390625 C11.13400391 10.48697266 11.13400391 10.48697266 12 12 C12.51433594 12.85464844 13.02867187 13.70929688 13.55859375 14.58984375 C17 20.4490085 17 20.4490085 17 25 C13.40094092 24.44449305 12.00090201 23.25112752 9.75 20.4375 C9.22921875 19.79683594 8.7084375 19.15617187 8.171875 18.49609375 C7.78515625 18.00238281 7.3984375 17.50867188 7 17 C7.99 17 8.98 17 10 17 C9.690625 16.278125 9.38125 15.55625 9.0625 14.8125 C8.07439461 12.19692691 7.4712246 9.74881018 7 7 C6.34 7 5.68 7 5 7 C5 6.34 5 5.68 5 5 C4.01 5.33 3.02 5.66 2 6 C1.34 4.02 0.68 2.04 0 0 Z " fill="#DE8C39" transform="translate(231,252)"/>
<path d="M0 0 C0.886875 0.37125 1.77375 0.7425 2.6875 1.125 C6.40826005 2.10784228 7.67438135 1.76062164 11 0 C11 0.66 11 1.32 11 2 C11.66 2 12.32 2 13 2 C14.4216319 5.3171411 15.39009109 8.44219804 16 12 C14.35 12 12.7 12 11 12 C11 11.34 11 10.68 11 10 C10.34 10 9.68 10 9 10 C5.65354983 6.91774326 2.7760079 3.59852875 0 0 Z " fill="#E28129" transform="translate(225,257)"/>
<path d="M0 0 C0.33 0 0.66 0 1 0 C3.83531243 17.34097337 3.24542328 30.80679037 -4 47 C-4.66 45.68 -5.32 44.36 -6 43 C-5.34 43 -4.68 43 -4 43 C-3.67 39.7 -3.34 36.4 -3 33 C-2.34 33 -1.68 33 -1 33 C0.46560818 22.06028181 0.09470423 11.01045894 0 0 Z " fill="#DE9A54" transform="translate(309,22)"/>
<path d="M0 0 C1.05832031 -0.020625 2.11664063 -0.04125 3.20703125 -0.0625 C4.22152344 -0.06765625 5.23601562 -0.0728125 6.28125 -0.078125 C7.21001953 -0.0874707 8.13878906 -0.09681641 9.09570312 -0.10644531 C11.5 0.25 11.5 0.25 14.5 3.25 C-1.01 3.25 -16.52 3.25 -32.5 3.25 C-32.5 2.92 -32.5 2.59 -32.5 2.25 C-31.23542969 2.18941406 -29.97085938 2.12882812 -28.66796875 2.06640625 C-27.00780129 1.98199096 -25.34764563 1.89734345 -23.6875 1.8125 C-22.85412109 1.77318359 -22.02074219 1.73386719 -21.16210938 1.69335938 C-20.35966797 1.65146484 -19.55722656 1.60957031 -18.73046875 1.56640625 C-17.62288208 1.51141968 -17.62288208 1.51141968 -16.49291992 1.45532227 C-2.48462054 0.01210534 -2.48462054 0.01210534 0 0 Z " fill="#9CB5C9" transform="translate(211.5,319.75)"/>
<path d="M0 0 C-0.33 0.99 -0.66 1.98 -1 3 C0.093125 3.12375 1.18625 3.2475 2.3125 3.375 C6 4 6 4 9 6 C7.37750059 6.83819158 5.75191503 7.6704116 4.125 8.5 C3.22007812 8.9640625 2.31515625 9.428125 1.3828125 9.90625 C-1 11 -1 11 -3 11 C-3.33 9.35 -3.66 7.7 -4 6 C-4.94875 6.04125 -5.8975 6.0825 -6.875 6.125 C-10 6 -10 6 -12 4 C-10.3767313 3.3291288 -8.75132422 2.66342971 -7.125 2 C-6.22007812 1.62875 -5.31515625 1.2575 -4.3828125 0.875 C-2 0 -2 0 0 0 Z " fill="#6B92A7" transform="translate(393,446)"/>
<path d="M0 0 C1.125 3.75 1.125 3.75 0 6 C3.465 5.505 3.465 5.505 7 5 C2.22276042 8.98103298 -2.88933687 12.46719209 -8 16 C-8.66 15.67 -9.32 15.34 -10 15 C-9.52399091 10.71591822 -6.98016551 8.91085934 -4 6 C-2.56213727 4.05058996 -1.28961943 2.05383835 0 0 Z " fill="#DA8936" transform="translate(273,280)"/>
<path d="M0 0 C0.66 0.33 1.32 0.66 2 1 C2.20140476 4.62528568 1.85776765 6.86501708 0 10 C-0.99 10 -1.98 10 -3 10 C-2.67 11.32 -2.34 12.64 -2 14 C-5.63 13.67 -9.26 13.34 -13 13 C-11.817872 10.26632899 -10.90010847 8.38839036 -8.08984375 7.17578125 C-7.02443359 6.84126953 -7.02443359 6.84126953 -5.9375 6.5 C-2.47442222 5.44401621 -2.47442222 5.44401621 -0.5 2.3125 C-0.335 1.549375 -0.17 0.78625 0 0 Z " fill="#55819F" transform="translate(404,437)"/>
<path d="M0 0 C-0.17578125 1.80859375 -0.17578125 1.80859375 -1 4 C-3.29296875 5.59765625 -3.29296875 5.59765625 -6.1875 7.0625 C-7.1775 7.57167969 -8.1675 8.08085938 -9.1875 8.60546875 C-10.115625 9.06566406 -11.04375 9.52585937 -12 10 C-13.0209375 10.52013672 -13.0209375 10.52013672 -14.0625 11.05078125 C-15.36861687 11.7132588 -16.68305255 12.35932286 -18 13 C-18 12.01 -18 11.02 -18 10 C-17.01 10 -16.02 10 -15 10 C-15 9.34 -15 8.68 -15 8 C-13.68 7.67 -12.36 7.34 -11 7 C-11 6.34 -11 5.68 -11 5 C-12.98 5 -14.96 5 -17 5 C-17 4.67 -17 4.34 -17 4 C-14.91891315 3.32635339 -12.8350329 2.66133202 -10.75 2 C-9.58984375 1.62875 -8.4296875 1.2575 -7.234375 0.875 C-4 0 -4 0 0 0 Z " fill="#E1A063" transform="translate(360,103)"/>
<path d="M0 0 C0.99 0.33 1.98 0.66 3 1 C2.071875 2.7325 2.071875 2.7325 1.125 4.5 C-4.40002447 15.68768301 -2.84310726 24.42233724 1 36 C-0.98 35.34 -2.96 34.68 -5 34 C-5.5701159 21.63111625 -5.83735416 11.23690676 0 0 Z " fill="#E29432" transform="translate(281,163)"/>
<path d="M0 0 C1.32 0 2.64 0 4 0 C4 2 4 2 1.8125 4.3125 C0.02268223 6.02277032 -1.76880208 7.73129954 -3.5625 9.4375 C-6.13116752 11.98750233 -6.13116752 11.98750233 -8.1875 15.3125 C-8.785625 16.199375 -9.38375 17.08625 -10 18 C-10.66 18 -11.32 18 -12 18 C-12.28875 18.804375 -12.5775 19.60875 -12.875 20.4375 C-14 23 -14 23 -16 24 C-15.42415568 21.61435923 -14.77772405 19.33317216 -14 17 C-13.34 17 -12.68 17 -12 17 C-11.8453125 15.9171875 -11.8453125 15.9171875 -11.6875 14.8125 C-10.61808467 10.43761909 -9.14015657 7.80645221 -5.4375 5.1875 C-3 4 -3 4 -1 4 C-0.67 2.68 -0.34 1.36 0 0 Z " fill="#DC852F" transform="translate(231,146)"/>
<path d="M0 0 C4.97002661 0.06570949 8.12988521 0.56575681 12.25 3.3125 C11.92 4.3025 11.59 5.2925 11.25 6.3125 C5.52959989 7.1445582 0.02759884 7.43286664 -5.75 7.3125 C-5.75 6.6525 -5.75 5.9925 -5.75 5.3125 C-2.12 5.3125 1.51 5.3125 5.25 5.3125 C5.25 4.3225 5.25 3.3325 5.25 2.3125 C0.96 2.3125 -3.33 2.3125 -7.75 2.3125 C-5.0881996 -0.3493004 -3.70750737 0.01383398 0 0 Z " fill="#7A99AB" transform="translate(130.75,423.6875)"/>
<path d="M0 0 C1.134375 0.020625 2.26875 0.04125 3.4375 0.0625 C3.4375 0.7225 3.4375 1.3825 3.4375 2.0625 C2.1175 2.3925 0.7975 2.7225 -0.5625 3.0625 C-0.5625 3.7225 -0.5625 4.3825 -0.5625 5.0625 C-1.5525 5.0625 -2.5425 5.0625 -3.5625 5.0625 C-3.5625 6.0525 -3.5625 7.0425 -3.5625 8.0625 C-6.84946233 8.86203138 -8.27273192 9.15908936 -11.5625 8.0625 C-11.5625 7.4025 -11.5625 6.7425 -11.5625 6.0625 C-12.8825 6.3925 -14.2025 6.7225 -15.5625 7.0625 C-14.15232699 4.24215397 -12.47424979 4.08777016 -9.5625 3 C-1.67054805 0.02930786 -1.67054805 0.02930786 0 0 Z " fill="#E0720C" transform="translate(345.5625,107.9375)"/>
<path d="M0 0 C0.66 0 1.32 0 2 0 C3.83292414 6.40766041 4.04559253 11.41276707 3 18 C2.67 18 2.34 18 2 18 C1.731875 19.216875 1.46375 20.43375 1.1875 21.6875 C0.29793389 25.21444169 -0.72832655 28.09225798 -3 31 C-3.99 31 -4.98 31 -6 31 C-4.85850901 28.10236903 -3.67045423 25.23545382 -2.4375 22.375 C-0.27042139 17.28707631 0.12447295 13.27088658 0.0625 7.8125 C0.05798828 7.06291016 0.05347656 6.31332031 0.04882812 5.54101562 C0.03706354 3.69397617 0.01912865 1.84697787 0 0 Z " fill="#7F9DB3" transform="translate(408,299)"/>
<path d="M0 0 C-0.33 1.98 -0.66 3.96 -1 6 C-0.01 6.33 0.98 6.66 2 7 C0.44033408 7.36644578 -1.12292651 7.71760862 -2.6875 8.0625 C-3.55761719 8.25972656 -4.42773438 8.45695312 -5.32421875 8.66015625 C-8.16001276 9.02032279 -10.24789982 8.70909969 -13 8 C-9.22350028 3.03660037 -6.61538509 0 0 0 Z " fill="#7A98A8" transform="translate(375,274)"/>
<path d="M0 0 C2.4375 0.625 2.4375 0.625 5 2 C5.8125 5.125 5.8125 5.125 6 8 C6.66 8 7.32 8 8 8 C8.66 8.66 9.32 9.32 10 10 C10.845625 10.763125 11.69125 11.52625 12.5625 12.3125 C15.121586 15.13405636 15.50693569 16.35132408 16 20 C16.66 20.66 17.32 21.32 18 22 C17.34 22.66 16.68 23.32 16 24 C12 18.25 12 18.25 12 16 C11.42765625 15.79375 10.8553125 15.5875 10.265625 15.375 C7.1297003 13.47181811 5.73773642 11.06258648 3.75 8 C3.04359375 6.9275 2.3371875 5.855 1.609375 4.75 C0 2 0 2 0 0 Z " fill="#DD8633" transform="translate(255,222)"/>
<path d="M0 0 C1.20446777 0.01047363 2.40893555 0.02094727 3.64990234 0.03173828 C5.60283203 0.04140625 5.60283203 0.04140625 7.59521484 0.05126953 C8.9754258 0.06798149 10.35563413 0.08491139 11.73583984 0.10205078 C13.12385436 0.11208072 14.51187574 0.12120655 15.89990234 0.12939453 C19.3037201 0.15303215 22.70719491 0.18598211 26.11083984 0.22705078 C26.44083984 1.21705078 26.77083984 2.20705078 27.11083984 3.22705078 C16.39623678 3.36741676 5.79881665 2.9596416 -4.88916016 2.22705078 C-2.88916016 0.22705078 -2.88916016 0.22705078 0 0 Z " fill="#85A1B5" transform="translate(173.88916015625,476.77294921875)"/>
<path d="M0 0 C0.69287109 0.00451172 1.38574219 0.00902344 2.09960938 0.01367188 C3.79561068 0.02536844 5.49156703 0.04330076 7.1875 0.0625 C7.1875 1.0525 7.1875 2.0425 7.1875 3.0625 C5.58493892 3.56762244 3.98038208 4.06641627 2.375 4.5625 C1.03501953 4.98015625 1.03501953 4.98015625 -0.33203125 5.40625 C-2.8125 6.0625 -2.8125 6.0625 -5.8125 6.0625 C-5.8125 5.4025 -5.8125 4.7425 -5.8125 4.0625 C-8.1225 3.4025 -10.4325 2.7425 -12.8125 2.0625 C-12.8125 1.7325 -12.8125 1.4025 -12.8125 1.0625 C-8.52952469 0.00630997 -4.38264354 -0.05452092 0 0 Z " fill="#5D8395" transform="translate(182.8125,275.9375)"/>
<path d="M0 0 C0.99 0 1.98 0 3 0 C3.33 1.32 3.66 2.64 4 4 C5.98567708 4.1953125 7.97135417 4.390625 9.95703125 4.5859375 C12 5 12 5 15 7 C15.33 6.01 15.66 5.02 16 4 C16.99 4 17.98 4 19 4 C20.4606285 6.64738916 21 7.89448334 21 11 C16.59759475 10.41432875 12.89276282 9.30527385 8.8125 7.5625 C7.27529297 6.91474609 7.27529297 6.91474609 5.70703125 6.25390625 C3 5 3 5 0 3 C0 2.01 0 1.02 0 0 Z " fill="#6790AA" transform="translate(163,414)"/>
<path d="M0 0 C0.66 0.33 1.32 0.66 2 1 C-0.07334515 4.11001772 -1.71245064 5.35622532 -5 7 C-7.46150294 9.74552251 -8.75326318 12.54749804 -10 16 C-12.97 15.505 -12.97 15.505 -16 15 C-16 15.66 -16 16.32 -16 17 C-17.32 17.33 -18.64 17.66 -20 18 C-16.35561983 13.3054263 -12.47934552 9.7639449 -7.75 6.1875 C-6.49451657 5.22301425 -5.23929421 4.25818852 -3.984375 3.29296875 C-2.99953125 2.53628906 -2.0146875 1.77960938 -1 1 C-0.67 0.67 -0.34 0.34 0 0 Z " fill="#DF8833" transform="translate(231,117)"/>
<path d="M0 0 C0.33 0 0.66 0 1 0 C0.67 3.96 0.34 7.92 0 12 C-0.66 12 -1.32 12 -2 12 C-2.20894534 25.53705542 -2.20894534 25.53705542 -1 39 C-6.99627644 27.56172477 -5.42700826 17.36572268 -1.77905273 5.53735352 C-1.19525677 3.68863164 -0.59893755 1.84387204 0 0 Z " fill="#E4AC6E" transform="translate(251,170)"/>
<path d="M0 0 C0.66 0.33 1.32 0.66 2 1 C1.46351765 5.19499396 0.14637983 7.54248558 -2.5 10.8125 C-3.1290625 11.60269531 -3.758125 12.39289063 -4.40625 13.20703125 C-4.9321875 13.79871094 -5.458125 14.39039063 -6 15 C-6.33 15 -6.66 15 -7 15 C-8.40932642 9.97927461 -8.40932642 9.97927461 -8 7 C-5.68189483 4.17497434 -2.98413124 2.08954485 0 0 Z " fill="#6489A0" transform="translate(429,459)"/>
<path d="M0 0 C0 3 0 3 -1.3125 4.4375 C-1.869375 4.953125 -2.42625 5.46875 -3 6 C-4.01800576 7.31963709 -5.02248365 8.65009646 -6 10 C-6 9.01 -6 8.02 -6 7 C-7.32 7.33 -8.64 7.66 -10 8 C-10 7.34 -10 6.68 -10 6 C-11.32 5.34 -12.64 4.68 -14 4 C-4.58997722 -0.59225513 -4.58997722 -0.59225513 0 0 Z " fill="#618CA3" transform="translate(169,334)"/>
<path d="M0 0 C-0.66 1.65 -1.32 3.3 -2 5 C-3.41433206 5.2236337 -4.83167618 5.42826476 -6.25 5.625 C-7.03890625 5.74101562 -7.8278125 5.85703125 -8.640625 5.9765625 C-11.32152459 6.00319395 -12.72694089 5.36592084 -15 4 C-15 3.34 -15 2.68 -15 2 C-14.29875 1.87625 -13.5975 1.7525 -12.875 1.625 C-9.92892938 1.05357214 -9.92892938 1.05357214 -6.9375 -0.125 C-3.99952293 -1.0001421 -2.80111341 -1.07735131 0 0 Z " fill="#6188A6" transform="translate(172,280)"/>
<path d="M0 0 C0.99 0.33 1.98 0.66 3 1 C-8.17241379 12.63793103 -8.17241379 12.63793103 -14 16 C-14.99 16 -15.98 16 -17 16 C-16.34 14.35 -15.68 12.7 -15 11 C-14.01 11 -13.02 11 -12 11 C-11.67 10.01 -11.34 9.02 -11 8 C-9.35 7.67 -7.7 7.34 -6 7 C-6 6.01 -6 5.02 -6 4 C-3.5625 2.375 -3.5625 2.375 -1 1 C-0.67 0.67 -0.34 0.34 0 0 Z " fill="#D78A3D" transform="translate(262,120)"/>
<path d="M0 0 C2.4032938 0.38944633 3.70665601 0.70586533 5.44921875 2.453125 C7.84587977 5.93092963 9.60690145 8.67591596 10 13 C9.34 12.67 8.68 12.34 8 12 C8 11.34 8 10.68 8 10 C7.34 10 6.68 10 6 10 C6 9.01 6 8.02 6 7 C5.34 7 4.68 7 4 7 C4 9.97 4 12.94 4 16 C1.72525723 12.58788584 1.43370356 10.3431471 0.875 6.3125 C0.70742188 5.13300781 0.53984375 3.95351563 0.3671875 2.73828125 C0.24601562 1.83464844 0.12484375 0.93101562 0 0 Z " fill="#DE8A40" transform="translate(295,0)"/>
<path d="M0 0 C12.34949162 0.81331141 24.67285401 1.90556354 37 3 C37 3.33 37 3.66 37 4 C33.7 4 30.4 4 27 4 C26.67 4.66 26.34 5.32 26 6 C24.88625 5.505 24.88625 5.505 23.75 5 C18.4878448 3.59675861 13.4142163 3.84230438 8 4 C8 3.34 8 2.68 8 2 C6.35 2.66 4.7 3.32 3 4 C1.97895449 3.02149805 0.9793879 2.02019573 0 1 C0 0.67 0 0.34 0 0 Z " fill="#80A2B2" transform="translate(188,402)"/>
<path d="M0 0 C0.99 0.33 1.98 0.66 3 1 C3 5.95 3 10.9 3 16 C3.66 16 4.32 16 5 16 C4.67 16.99 4.34 17.98 4 19 C3.01 19 2.02 19 1 19 C0.896875 19.639375 0.79375 20.27875 0.6875 20.9375 C0.460625 21.618125 0.23375 22.29875 0 23 C-0.99 23.33 -1.98 23.66 -3 24 C-2.7834375 23.44054687 -2.566875 22.88109375 -2.34375 22.3046875 C0.25702254 14.81542583 0.30619227 7.87027546 0 0 Z " fill="#E08C38" transform="translate(277,256)"/>
<path d="M0 0 C2.58133775 2.58133775 3.76294838 4.18035943 5.375 7.3125 C6.96660191 10.2876829 8.57672305 12.84787535 10.8125 15.375 C13 18 13 18 13 21 C13.66 21 14.32 21 15 21 C14.67 21.66 14.34 22.32 14 23 C10.125 20.375 10.125 20.375 9 17 C8.01 17 7.02 17 6 17 C5.67 14.36 5.34 11.72 5 9 C3.35 9 1.7 9 0 9 C0 6.03 0 3.06 0 0 Z " fill="#DE8B42" transform="translate(218,228)"/>
<path d="M0 0 C1.32 0.33 2.64 0.66 4 1 C3.67 3.31 3.34 5.62 3 8 C2.34 8 1.68 8 1 8 C1 8.66 1 9.32 1 10 C-0.32 10 -1.64 10 -3 10 C-4.125 7.6875 -4.125 7.6875 -5 5 C-4.34 4.01 -3.68 3.02 -3 2 C-2.01 2 -1.02 2 0 2 C0 1.34 0 0.68 0 0 Z " fill="#52809E" transform="translate(325,490)"/>
<path d="M0 0 C0.33 0.99 0.66 1.98 1 3 C0.360625 3.2475 -0.27875 3.495 -0.9375 3.75 C-3.18741541 4.81562433 -3.18741541 4.81562433 -3.75 7.125 C-3.8325 7.74375 -3.915 8.3625 -4 9 C-3.401875 8.814375 -2.80375 8.62875 -2.1875 8.4375 C0 8 0 8 3 9 C3.33 8.34 3.66 7.68 4 7 C4.66 7.66 5.32 8.32 6 9 C1.05 10.485 1.05 10.485 -4 12 C-4.33 10.68 -4.66 9.36 -5 8 C-5.66 8 -6.32 8 -7 8 C-7.33 8.66 -7.66 9.32 -8 10 C-8.99 9.01 -9.98 8.02 -11 7 C-3.70159453 1.62870159 -3.70159453 1.62870159 0 0 Z " fill="#6C94AA" transform="translate(374,355)"/>
<path d="M0 0 C0.66 0.33 1.32 0.66 2 1 C-0.11637137 4.76094021 -2.49662376 7.91261423 -5.375 11.125 C-6.50035156 12.39730469 -6.50035156 12.39730469 -7.6484375 13.6953125 C-9.95649756 15.95736472 -12.16756024 17.46868098 -15 19 C-15 18.01 -15 17.02 -15 16 C-14.01 16 -13.02 16 -12 16 C-12 15.34 -12 14.68 -12 14 C-11.34 14 -10.68 14 -10 14 C-10 13.01 -10 12.02 -10 11 C-9.34 11 -8.68 11 -8 11 C-7.67 9.68 -7.34 8.36 -7 7 C-6.34 7 -5.68 7 -5 7 C-5 5.68 -5 4.36 -5 3 C-4.360625 2.87625 -3.72125 2.7525 -3.0625 2.625 C-2.381875 2.41875 -1.70125 2.2125 -1 2 C-0.67 1.34 -0.34 0.68 0 0 Z " fill="#DD8B3C" transform="translate(297,264)"/>
<path d="M0 0 C0.66 0.33 1.32 0.66 2 1 C0.68 3.64 -0.64 6.28 -2 9 C-2.99 9 -3.98 9 -5 9 C-5 10.98 -5 12.96 -5 15 C-5.66 15 -6.32 15 -7 15 C-7 14.34 -7 13.68 -7 13 C-7.78375 13.515625 -8.5675 14.03125 -9.375 14.5625 C-10.24125 15.036875 -11.1075 15.51125 -12 16 C-12.66 15.67 -13.32 15.34 -14 15 C-12.625 13 -12.625 13 -11 11 C-10.34 11 -9.68 11 -9 11 C-8.773125 10.443125 -8.54625 9.88625 -8.3125 9.3125 C-6.63575448 6.35823409 -4.45423315 4.33152149 -2 2 C-1.34 1.34 -0.68 0.68 0 0 Z " fill="#DD8E3D" transform="translate(209,135)"/>
<path d="M0 0 C0.66 0 1.32 0 2 0 C2.10822792 3.06345144 2.18741479 6.1230601 2.25 9.1875 C2.28351563 10.05181641 2.31703125 10.91613281 2.3515625 11.80664062 C2.41837569 16.16620157 2.41222114 18.36329409 -0.015625 22.11328125 C-0.67046875 22.73589844 -1.3253125 23.35851562 -2 24 C-1.85790331 21.3122562 -1.7114277 18.62486698 -1.5625 15.9375 C-1.52318359 15.18533203 -1.48386719 14.43316406 -1.44335938 13.65820312 C-1.18419281 9.05301259 -0.7200579 4.55633276 0 0 Z " fill="#E28E3B" transform="translate(299,16)"/>
<path d="M0 0 C3.96 0 7.92 0 12 0 C12 0.99 12 1.98 12 3 C11.01 3 10.02 3 9 3 C8.20046862 6.28696233 7.90341064 7.71023192 9 11 C9.99 11.33 10.98 11.66 12 12 C8.37 11.67 4.74 11.34 1 11 C1.99 10.67 2.98 10.34 4 10 C4.144375 9.236875 4.28875 8.47375 4.4375 7.6875 C5 5 5 5 6 2 C3.03 1.505 3.03 1.505 0 1 C0 0.67 0 0.34 0 0 Z " fill="#638BA6" transform="translate(313,489)"/>
<path d="M0 0 C0.66 0 1.32 0 2 0 C2 0.99 2 1.98 2 3 C2.66 3 3.32 3 4 3 C7.1721786 5.67652569 8.90688122 7.99189779 10 12 C10.15038128 14.69182496 10.09154169 17.29952004 10 20 C7.81024227 16.71536341 7.00193437 13.79303725 6 10 C3.02425724 9.29733387 3.02425724 9.29733387 0 9 C0 6.03 0 3.06 0 0 Z " fill="#DF7C1C" transform="translate(299,7)"/>
<path d="M0 0 C1.18916016 0.19916016 1.18916016 0.19916016 2.40234375 0.40234375 C14.88329479 2.29172529 27.39534444 2.63195902 40 3 C40 3.33 40 3.66 40 4 C35.89234358 4.02496472 31.78471736 4.04298366 27.67700195 4.05493164 C26.28343943 4.05991957 24.88988202 4.06671231 23.49633789 4.07543945 C15.93069922 4.12158795 8.50545574 4.05558458 1 3 C0.67 2.01 0.34 1.02 0 0 Z " fill="#8CA3B7" transform="translate(147,304)"/>
<path d="M0 0 C3.44050027 1.47817901 6.72486605 3.18767291 10 5 C6.43904445 6.87501642 2.8877114 7.95330847 -1 9 C-2.43088528 6.13822943 -1.59991697 4.06624227 -1 1 C-5.455 1.495 -5.455 1.495 -10 2 C-5.78885268 -0.10557366 -4.54803157 -0.58955965 0 0 Z " fill="#6B8EA6" transform="translate(154,281)"/>
<path d="M0 0 C0.66 0 1.32 0 2 0 C2 0.66 2 1.32 2 2 C2.99 2 3.98 2 5 2 C5.33 3.32 5.66 4.64 6 6 C6.66 6 7.32 6 8 6 C8 6.66 8 7.32 8 8 C8.66 7.67 9.32 7.34 10 7 C10.33 6.01 10.66 5.02 11 4 C11.66 4 12.32 4 13 4 C12.835 4.5775 12.67 5.155 12.5 5.75 C11.85537969 8.26664369 11.85537969 8.26664369 12 12 C12.66 12.66 13.32 13.32 14 14 C13.01 15.485 13.01 15.485 12 17 C11.731875 16.195625 11.46375 15.39125 11.1875 14.5625 C10.795625 13.716875 10.40375 12.87125 10 12 C9.01 11.67 8.02 11.34 7 11 C5.17578125 8.75 5.17578125 8.75 3.3125 6 C2.68988281 5.0925 2.06726563 4.185 1.42578125 3.25 C0 1 0 1 0 0 Z " fill="#E19246" transform="translate(195,223)"/>
<path d="M0 0 C0.66 0.33 1.32 0.66 2 1 C1.67 3.31 1.34 5.62 1 8 C0.01 8.33 -0.98 8.66 -2 9 C-3.22520264 12.00847418 -3.22520264 12.00847418 -4 15 C-4.66 15 -5.32 15 -6 15 C-6.33 16.32 -6.66 17.64 -7 19 C-7.31563182 13.73946963 -6.66590937 10.55426184 -4 6 C-3.34 6 -2.68 6 -2 6 C-1.855625 5.38125 -1.71125 4.7625 -1.5625 4.125 C-1 2 -1 2 0 0 Z " fill="#DC8630" transform="translate(259,157)"/>
<path d="M0 0 C0.33 0 0.66 0 1 0 C1.63810914 4.01819218 2.13522773 7.92694082 2 12 C-0.25 14.8125 -0.25 14.8125 -3 16 C-3.99 15.67 -4.98 15.34 -6 15 C-4.7677465 10.92408457 -3.19619973 7.6285039 -1 4 C-0.30420546 1.80869466 -0.30420546 1.80869466 0 0 Z " fill="#E38C35" transform="translate(294,48)"/>
<path d="M0 0 C2.8992226 0.46761655 3.86675182 0.86675182 6 3 C6 3.99 6 4.98 6 6 C5.34 6 4.68 6 4 6 C3.814375 7.670625 3.814375 7.670625 3.625 9.375 C3 13 3 13 1 15 C-1.125 14.625 -1.125 14.625 -3 14 C-2.34 14 -1.68 14 -1 14 C0.85072153 8.85910687 1.21474076 6.04468729 -1 1 C-0.67 0.67 -0.34 0.34 0 0 Z " fill="#7695A8" transform="translate(400,429)"/>
<path d="M0 0 C0 0.33 0 0.66 0 1 C-1.65 1 -3.3 1 -5 1 C-5 1.66 -5 2.32 -5 3 C-5.66 3 -6.32 3 -7 3 C-6.67 3.99 -6.34 4.98 -6 6 C-6.99 6.33 -7.98 6.66 -9 7 C-9.66 6.67 -10.32 6.34 -11 6 C-10.67 4.68 -10.34 3.36 -10 2 C-10.639375 2.33 -11.27875 2.66 -11.9375 3 C-16.01236841 4.33056928 -19.75190425 4.16659199 -24 4 C-24 3.67 -24 3.34 -24 3 C-22.87980469 2.79503906 -21.75960938 2.59007812 -20.60546875 2.37890625 C-19.13279176 2.10688311 -17.66013664 1.83474151 -16.1875 1.5625 C-15.44951172 1.42779297 -14.71152344 1.29308594 -13.95117188 1.15429688 C-3.34433605 -0.81348715 -3.34433605 -0.81348715 0 0 Z " fill="#7998B4" transform="translate(379,452)"/>
<path d="M0 0 C4.95 0.33 9.9 0.66 15 1 C15 1.33 15 1.66 15 2 C11.48026001 2.50790159 7.95905958 3.00488523 4.4375 3.5 C3.44685547 3.64308594 2.45621094 3.78617187 1.43554688 3.93359375 C-3.76467588 4.65920623 -8.74952418 5.17673411 -14 5 C-13.34 4.67 -12.68 4.34 -12 4 C-12.33 3.01 -12.66 2.02 -13 1 C-12.22914063 1.0721875 -11.45828125 1.144375 -10.6640625 1.21875 C-9.66117187 1.3115625 -8.65828125 1.404375 -7.625 1.5 C-6.12839844 1.63921875 -6.12839844 1.63921875 -4.6015625 1.78125 C-2.10296264 2.02792947 -2.10296264 2.02792947 0 2 C0 1.34 0 0.68 0 0 Z " fill="#83A2B6" transform="translate(281,369)"/>
<path d="M0 0 C0.19491452 1.45736087 0.38069358 2.91594593 0.5625 4.375 C0.66691406 5.18710937 0.77132812 5.99921875 0.87890625 6.8359375 C1 9 1 9 0 11 C-0.66 10.67 -1.32 10.34 -2 10 C-2 8.68 -2 7.36 -2 6 C-3.65 6.33 -5.3 6.66 -7 7 C-5 4 -5 4 -3 2 C-4.65 2.33 -6.3 2.66 -8 3 C-8.33 2.34 -8.66 1.68 -9 1 C-5.47051709 -0.66670026 -3.71727674 -1.13583456 0 0 Z " fill="#628DA8" transform="translate(100,431)"/>
<path d="M0 0 C0.99 0.33 1.98 0.66 3 1 C3.33 1.99 3.66 2.98 4 4 C3.01 4.33 2.02 4.66 1 5 C1.33 6.32 1.66 7.64 2 9 C-0.3260857 9.38063221 -2.66055264 9.71269945 -5 10 C-6 9 -6 9 -6.375 6.625 C-6.25125 5.75875 -6.1275 4.8925 -6 4 C-3.5625 2.25 -3.5625 2.25 -1 1 C-0.67 0.67 -0.34 0.34 0 0 Z " fill="#51809B" transform="translate(108,298)"/>
<path d="M0 0 C0.58203125 1.9140625 0.58203125 1.9140625 1 4 C0.02351983 5.02297922 -0.98131338 6.01904252 -2 7 C-2.28875 7.94875 -2.5775 8.8975 -2.875 9.875 C-4.21032124 13.58422566 -6.09213838 15.39822907 -9 18 C-9.66 17.67 -10.32 17.34 -11 17 C-8.03442929 10.47836883 -4.9001752 5.24204789 0 0 Z " fill="#E18334" transform="translate(194,151)"/>
<path d="M0 0 C1.140625 3.6953125 1.140625 3.6953125 -0.125 6.4375 C-2.1831937 9.25036473 -4.53848822 11.53848822 -7 14 C-7.33 14.721875 -7.66 15.44375 -8 16.1875 C-9.42996439 18.77931046 -11.26113837 19.13509633 -14 20 C-12.71403484 17.20363236 -11.32806763 15.07491234 -9.25 12.8125 C-5.72814531 8.82222128 -2.86275255 4.47685772 0 0 Z " fill="#DE9850" transform="translate(287,63)"/>
<path d="M0 0 C0 0.66 0 1.32 0 2 C-7.75902901 5.55622163 -14.43134216 7.30602349 -23 7 C-19.18786401 4.86998146 -15.08792756 3.66010088 -10.9375 2.375 C-10.21755859 2.14554687 -9.49761719 1.91609375 -8.75585938 1.6796875 C-5.73506798 0.7372679 -3.18325133 0 0 0 Z " fill="#7597AB" transform="translate(402,472)"/>
<path d="M0 0 C-0.33 0.99 -0.66 1.98 -1 3 C-1.66 3 -2.32 3 -3 3 C-3 3.66 -3 4.32 -3 5 C-3.66 5 -4.32 5 -5 5 C-4.979375 6.27875 -4.95875 7.5575 -4.9375 8.875 C-4.875 12.75 -4.875 12.75 -6 15 C-6.99 14.67 -7.98 14.34 -9 14 C-8.67 12.35 -8.34 10.7 -8 9 C-9.32 8.67 -10.64 8.34 -12 8 C-10.37982158 6.66081194 -8.75370657 5.3288031 -7.125 4 C-6.22007812 3.2575 -5.31515625 2.515 -4.3828125 1.75 C-2 0 -2 0 0 0 Z " fill="#DD812D" transform="translate(286,135)"/>
<path d="M0 0 C3.63 0 7.26 0 11 0 C7.74658227 2.44006329 5.54858018 3.75644862 1.875 5.1875 C0.57175781 5.70376953 0.57175781 5.70376953 -0.7578125 6.23046875 C-3 7 -3 7 -5 7 C-5 6.01 -5 5.02 -5 4 C-4.360625 3.71125 -3.72125 3.4225 -3.0625 3.125 C-0.84793921 2.17176549 -0.84793921 2.17176549 0 0 Z " fill="#658CA1" transform="translate(400,480)"/>
<path d="M0 0 C-0.99 1.485 -0.99 1.485 -2 3 C-5.125 3.1875 -5.125 3.1875 -8 3 C-8.33 3.66 -8.66 4.32 -9 5 C-13.62 4.34 -18.24 3.68 -23 3 C-23 2.67 -23 2.34 -23 2 C-20.10452736 1.66324721 -17.20868928 1.33048266 -14.3125 1 C-13.49587891 0.90460938 -12.67925781 0.80921875 -11.83789062 0.7109375 C-7.87139948 0.26129478 -3.99997537 -0.13034543 0 0 Z " fill="#6991A8" transform="translate(277,352)"/>
<path d="M0 0 C0.66 0.33 1.32 0.66 2 1 C1.5625 3.3125 1.5625 3.3125 0 6 C-3.59166587 7.86260559 -7.24190533 9.33001777 -11.2890625 8.5703125 C-11.85367187 8.38210937 -12.41828125 8.19390625 -13 8 C-12.31292969 7.59007812 -11.62585938 7.18015625 -10.91796875 6.7578125 C-10.01691406 6.21898437 -9.11585938 5.68015625 -8.1875 5.125 C-7.29417969 4.59132812 -6.40085937 4.05765625 -5.48046875 3.5078125 C-3.62705276 2.38116908 -1.80470083 1.20313389 0 0 Z " fill="#E27F24" transform="translate(299,126)"/>
<path d="M0 0 C1.5003479 0.07069702 1.5003479 0.07069702 3.03100586 0.14282227 C4.1105957 0.19116211 5.19018555 0.23950195 6.30249023 0.28930664 C7.43879883 0.34538086 8.57510742 0.40145508 9.74584961 0.45922852 C11.45611328 0.53753906 11.45611328 0.53753906 13.20092773 0.61743164 C16.02864984 0.74757785 18.85605961 0.8825573 21.68334961 1.02172852 C21.68334961 1.35172852 21.68334961 1.68172852 21.68334961 2.02172852 C10.00258473 2.68581261 -1.6153089 3.18129226 -13.31665039 3.02172852 C-13.31665039 2.69172852 -13.31665039 2.36172852 -13.31665039 2.02172852 C-12.60637695 1.96114258 -11.89610352 1.90055664 -11.16430664 1.83813477 C-9.7856543 1.71245117 -9.7856543 1.71245117 -8.37915039 1.58422852 C-7.46262695 1.50301758 -6.54610352 1.42180664 -5.60180664 1.33813477 C-2.90721568 0.96503756 -2.73617529 0.02566336 0 0 Z " fill="#91B2C1" transform="translate(241.316650390625,318.978271484375)"/>
<path d="M0 0 C0.99 0.33 1.98 0.66 3 1 C2.51845826 7.18400967 1.8362027 13.05934422 0 19 C-0.66 19.33 -1.32 19.66 -2 20 C-2.09765625 13.84765625 -2.09765625 13.84765625 -2 12 C-1.67 11.67 -1.34 11.34 -1 11 C-0.76636119 9.15108054 -0.58696365 7.29511969 -0.4375 5.4375 C-0.35371094 4.42558594 -0.26992188 3.41367187 -0.18359375 2.37109375 C-0.12300781 1.58863281 -0.06242187 0.80617188 0 0 Z " fill="#708DA1" transform="translate(430,304)"/>
<path d="M0 0 C5.28 0 10.56 0 16 0 C12.4390538 3.5609462 10.88499191 3.57149194 6 4 C2.88742431 4 0.89234315 3.82638376 -2 3 C-1.01 2.67 -0.02 2.34 1 2 C0.67 1.34 0.34 0.68 0 0 Z " fill="#517E98" transform="translate(146,491)"/>
<path d="M0 0 C1.09570312 0.00902344 2.19140625 0.01804687 3.3203125 0.02734375 C4.16335937 0.03894531 5.00640625 0.05054688 5.875 0.0625 C5.875 1.0525 5.875 2.0425 5.875 3.0625 C-0.56 3.5575 -0.56 3.5575 -7.125 4.0625 C-7.455 3.0725 -7.785 2.0825 -8.125 1.0625 C-5.36047967 -0.31976016 -3.0788637 -0.03275387 0 0 Z " fill="#4F819E" transform="translate(130.125,425.9375)"/>
<path d="M0 0 C1.134375 0.4125 2.26875 0.825 3.4375 1.25 C3.7675 2.24 4.0975 3.23 4.4375 4.25 C0.92973216 5.85355101 -1.70604879 6.47036864 -5.5625 6.25 C-4.9025 4.93 -4.2425 3.61 -3.5625 2.25 C-4.2225 1.59 -4.8825 0.93 -5.5625 0.25 C-3.5625 -0.75 -3.5625 -0.75 0 0 Z " fill="#62899C" transform="translate(331.5625,356.75)"/>
<path d="M0 0 C0 0.99 0 1.98 0 3 C-0.66 3.66 -1.32 4.32 -2 5 C-1.67 5.66 -1.34 6.32 -1 7 C-2.72526042 7.9765625 -4.45052083 8.953125 -6.17578125 9.9296875 C-7.81982289 10.89428581 -9.41400588 11.94267059 -11 13 C-13.1875 12.625 -13.1875 12.625 -15 12 C-14.08476562 11.30132812 -13.16953125 10.60265625 -12.2265625 9.8828125 C-11.02598274 8.96361862 -9.82546514 8.04434356 -8.625 7.125 C-8.02171875 6.66480469 -7.4184375 6.20460938 -6.796875 5.73046875 C-4.41748609 3.90627059 -2.12258788 2.12258788 0 0 Z " fill="#90AABB" transform="translate(390,342)"/>
<path d="M0 0 C2.64 0 5.28 0 8 0 C7.75 1.875 7.75 1.875 7 4 C4.06004981 6.02755186 2.72295997 6 -1 6 C-0.67 4.02 -0.34 2.04 0 0 Z " fill="#517E9B" transform="translate(375,274)"/>
<path d="M0 0 C0 0.99 0 1.98 0 3 C-1.32 3 -2.64 3 -4 3 C-4 3.66 -4 4.32 -4 5 C-5.65 5.33 -7.3 5.66 -9 6 C-9 6.99 -9 7.98 -9 9 C-11.64 9 -14.28 9 -17 9 C-15.2906168 5.58123361 -11.32482694 4.798198 -7.9375 3.375 C-7.17888672 3.05015625 -6.42027344 2.7253125 -5.63867188 2.390625 C-3.76162201 1.58786154 -1.8811244 0.79316857 0 0 Z " fill="#E09642" transform="translate(318,117)"/>
<path d="M0 0 C1.32 0 2.64 0 4 0 C4 0.99 4 1.98 4 3 C4.99 3.33 5.98 3.66 7 4 C6.67 4.66 6.34 5.32 6 6 C3.6859378 6.73075648 1.35171131 7.40138258 -1 8 C-1.93065133 5.39417629 -2.14917407 4.35801776 -1.0625 1.75 C-0.711875 1.1725 -0.36125 0.595 0 0 Z " fill="#618CA6" transform="translate(381,355)"/>
<path d="M0 0 C1.47855858 0.19223635 2.95761462 0.38075969 4.4375 0.5625 C5.613125 0.706875 6.78875 0.85125 8 1 C8 1.33 8 1.66 8 2 C-2.04584053 2.15723924 -11.9811352 1.67192387 -22 1 C-22 0.67 -22 0.34 -22 0 C-19.64628886 -0.1968999 -17.2925305 -0.38270974 -14.9375 -0.5625 C-13.62652344 -0.66691406 -12.31554687 -0.77132813 -10.96484375 -0.87890625 C-7.13966166 -0.99573447 -3.7628039 -0.6450521 0 0 Z " fill="#91A9BF" transform="translate(170,320)"/>
<path d="M0 0 C0.33 0 0.66 0 1 0 C1.144375 1.051875 1.28875 2.10375 1.4375 3.1875 C1.87526966 6.15460549 2.37804866 9.06794366 3 12 C3.66 12 4.32 12 5 12 C5.53229326 13.26607607 6.05044544 14.53810412 6.5625 15.8125 C6.85253906 16.52019531 7.14257812 17.22789062 7.44140625 17.95703125 C8 20 8 20 7 23 C0.16129032 10.09677419 0.16129032 10.09677419 -1 3 C-0.67 2.01 -0.34 1.02 0 0 Z " fill="#DF954E" transform="translate(182,192)"/>
<path d="M0 0 C-0.33 1.98 -0.66 3.96 -1 6 C-1.99 5.67 -2.98 5.34 -4 5 C-4.391875 5.495 -4.78375 5.99 -5.1875 6.5 C-7.55091715 8.45593143 -9.01435003 8.24207973 -12 8 C-4.21621622 0 -4.21621622 0 0 0 Z " fill="#88A1B6" transform="translate(433,455)"/>
<path d="M0 0 C-7.77729519 3.21819111 -14.64259099 3.32098157 -23 3 C-23 2.67 -23 2.34 -23 2 C-5.50320924 -1.83440308 -5.50320924 -1.83440308 0 0 Z " fill="#95ABB8" transform="translate(353,485)"/>
<path d="M0 0 C-2.2218629 3.39126442 -4.35301064 5.21891217 -8 7 C-11.3125 7.6875 -11.3125 7.6875 -14 8 C-5.75 -0.47916667 -5.75 -0.47916667 0 0 Z " fill="#64899D" transform="translate(78,440)"/>
<path d="M0 0 C0.66 0.99 1.32 1.98 2 3 C0.7934375 3.433125 0.7934375 3.433125 -0.4375 3.875 C-3.1326468 4.73262568 -3.1326468 4.73262568 -4 7 C-2.68 7.33 -1.36 7.66 0 8 C-4.455 8.495 -4.455 8.495 -9 9 C-8 5 -8 5 -6.15234375 3.515625 C-5.42144531 3.09796875 -4.69054687 2.6803125 -3.9375 2.25 C-3.20402344 1.82203125 -2.47054688 1.3940625 -1.71484375 0.953125 C-1.14894531 0.63859375 -0.58304687 0.3240625 0 0 Z " fill="#86A3B2" transform="translate(360,363)"/>
<path d="M0 0 C3.96 0 7.92 0 12 0 C12 0.33 12 0.66 12 1 C11.28972656 1.04898437 10.57945312 1.09796875 9.84765625 1.1484375 C8.46900391 1.26058594 8.46900391 1.26058594 7.0625 1.375 C6.14597656 1.44460938 5.22945313 1.51421875 4.28515625 1.5859375 C3.15400391 1.79089844 3.15400391 1.79089844 2 2 C0.7018576 4.2236068 0.7018576 4.2236068 1 8 C-0.98 7.34 -2.96 6.68 -5 6 C-4.67 5.01 -4.34 4.02 -4 3 C-1.9375 2.3125 -1.9375 2.3125 0 2 C0 1.34 0 0.68 0 0 Z " fill="#517D9A" transform="translate(260,494)"/>
<path d="M0 0 C1.54078615 2.98440561 2.86973276 6.01007758 4.125 9.125 C4.47820312 9.99382812 4.83140625 10.86265625 5.1953125 11.7578125 C6 14 6 14 6 16 C5.34 16 4.68 16 4 16 C4 15.01 4 14.02 4 13 C3.0409375 12.8453125 3.0409375 12.8453125 2.0625 12.6875 C1.381875 12.460625 0.70125 12.23375 0 12 C-1.03159626 8.90521121 -0.97482862 7.47368607 -0.5625 4.3125 C-0.46066406 3.50425781 -0.35882813 2.69601563 -0.25390625 1.86328125 C-0.17011719 1.24839844 -0.08632812 0.63351563 0 0 Z " fill="#DE893B" transform="translate(209,207)"/>
<path d="M0 0 C0 0.66 0 1.32 0 2 C-1.98 2 -3.96 2 -6 2 C-6.33 2.66 -6.66 3.32 -7 4 C-10.06146896 5.96808719 -12.40164967 6.19990835 -16 6 C-15.67 5.01 -15.34 4.02 -15 3 C-12.3828125 2.05078125 -12.3828125 2.05078125 -9.125 1.3125 C-8.05507813 1.06113281 -6.98515625 0.80976563 -5.8828125 0.55078125 C-3 0 -3 0 0 0 Z " fill="#527C95" transform="translate(354,295)"/>
<path d="M0 0 C0.66 0 1.32 0 2 0 C2 0.99 2 1.98 2 3 C3.65 2.67 5.3 2.34 7 2 C6.67 3.32 6.34 4.64 6 6 C3.36 6.33 0.72 6.66 -2 7 C-1.34 4.69 -0.68 2.38 0 0 Z " fill="#E0730B" transform="translate(275,279)"/>
<path d="M0 0 C0.33 0 0.66 0 1 0 C1.10481309 5.76471999 0.73291127 11.2852729 0 17 C-0.09539062 17.77472656 -0.19078125 18.54945313 -0.2890625 19.34765625 C-0.52173549 21.23230746 -0.76024825 23.11623622 -1 25 C-1.33 25 -1.66 25 -2 25 C-2.05834353 21.77090994 -2.09371115 18.54195662 -2.125 15.3125 C-2.14175781 14.40048828 -2.15851563 13.48847656 -2.17578125 12.54882812 C-2.20936169 7.93151773 -2.23556185 4.18067669 0 0 Z " fill="#E4A55E" transform="translate(182,170)"/>
<path d="M0 0 C0 0.99 0 1.98 0 3 C-0.99 3.495 -0.99 3.495 -2 4 C-2.65555119 6.52733235 -2.65555119 6.52733235 -3 9 C-5.31 9 -7.62 9 -10 9 C-9.23587913 7.87043002 -8.46340197 6.74651022 -7.6875 5.625 C-7.25824219 4.99851562 -6.82898438 4.37203125 -6.38671875 3.7265625 C-4.55585355 1.4470064 -3.02079342 0 0 0 Z " fill="#50809E" transform="translate(415,471)"/>
<path d="M0 0 C3.82350061 3.39866721 6.71296575 7.43530459 9 12 C9 12.99 9 13.98 9 15 C8.34 15 7.68 15 7 15 C6.67 13.35 6.34 11.7 6 10 C5.34 10 4.68 10 4 10 C3.67 8.68 3.34 7.36 3 6 C1.68 5.67 0.36 5.34 -1 5 C-0.67 3.35 -0.34 1.7 0 0 Z " fill="#E39C58" transform="translate(282,199)"/>
<path d="M0 0 C0.66 0.33 1.32 0.66 2 1 C1.00310405 3.49223987 0.38477686 4.76416902 -1.9375 6.1875 C-3.60515774 6.84445608 -5.29958645 7.43319548 -7 8 C-7.99 7.01 -8.98 6.02 -10 5 C-8.38007835 4.13624104 -6.75388139 3.28424146 -5.125 2.4375 C-4.22007812 1.96183594 -3.31515625 1.48617188 -2.3828125 0.99609375 C-1.20332031 0.50302734 -1.20332031 0.50302734 0 0 Z " fill="#779BAD" transform="translate(419,463)"/>
<path d="M0 0 C0.66 0.66 1.32 1.32 2 2 C4.57061311 2.64767793 4.57061311 2.64767793 7 3 C4.60236815 5.39763185 3.66726502 5.34280586 0.375 5.625 C-0.44226563 5.69976562 -1.25953125 5.77453125 -2.1015625 5.8515625 C-2.72804688 5.90054687 -3.35453125 5.94953125 -4 6 C-4.33 4.68 -4.66 3.36 -5 2 C-3.35 1.34 -1.7 0.68 0 0 Z " fill="#7398AE" transform="translate(319,360)"/>
<path d="M0 0 C-5 3 -5 3 -10 6 C-10.89332031 6.56074219 -11.78664063 7.12148437 -12.70703125 7.69921875 C-15 9 -15 9 -17 9 C-17 8.34 -17 7.68 -17 7 C-15.68 7 -14.36 7 -13 7 C-13 6.01 -13 5.02 -13 4 C-10.35261084 2.5393715 -9.10551666 2 -6 2 C-6 1.34 -6 0.68 -6 0 C-3.50907189 -1.24546405 -2.58919267 -0.7767578 0 0 Z " fill="#E1964E" transform="translate(342,117)"/>
<path d="M0 0 C1.65 0.33 3.3 0.66 5 1 C0.98745115 4.51098025 -3.20983041 6.76537994 -8 9 C-8 8.01 -8 7.02 -8 6 C-7.01 6 -6.02 6 -5 6 C-5 5.34 -5 4.68 -5 4 C-4.360625 3.896875 -3.72125 3.79375 -3.0625 3.6875 C-2.381875 3.460625 -1.70125 3.23375 -1 3 C-0.67 2.01 -0.34 1.02 0 0 Z " fill="#DD8E3F" transform="translate(350,107)"/>
<path d="M0 0 C0.99 0 1.98 0 3 0 C3.33 1.32 3.66 2.64 4 4 C6.01822917 4.16276042 8.03645833 4.32552083 10.0546875 4.48828125 C12 5 12 5 14 8 C8.29290936 7.53411505 4.84060277 6.06242216 0 3 C0 2.01 0 1.02 0 0 Z " fill="#7896A9" transform="translate(163,414)"/>
<path d="M0 0 C-1.28548409 1.33929505 -2.57858155 2.67128643 -3.875 4 C-4.59429687 4.7425 -5.31359375 5.485 -6.0546875 6.25 C-8 8 -8 8 -10 8 C-10 6.35 -10 4.7 -10 3 C-9.01 3.33 -8.02 3.66 -7 4 C-7 3.01 -7 2.02 -7 1 C-3.375 -1.125 -3.375 -1.125 0 0 Z " fill="#DF8E3B" transform="translate(275,112)"/>
<path d="M0 0 C-1.32 0.33 -2.64 0.66 -4 1 C-4 1.66 -4 2.32 -4 3 C-10.6 3 -17.2 3 -24 3 C-24 2.67 -24 2.34 -24 2 C-21.31306278 1.66148822 -18.62559711 1.329064 -15.9375 1 C-14.80924805 0.85691406 -14.80924805 0.85691406 -13.65820312 0.7109375 C-9.06578683 0.15428098 -4.6257865 -0.09829028 0 0 Z " fill="#8DA5BC" transform="translate(328,299)"/>
<path d="M0 0 C0.66 0 1.32 0 2 0 C1.53898164 4.70238725 0.96823597 8.23262357 -2 12 C-2.99 12 -3.98 12 -5 12 C-3.41037341 7.96479403 -1.71767682 3.98188718 0 0 Z " fill="#7999AB" transform="translate(407,318)"/>
<path d="M0 0 C0 0.66 0 1.32 0 2 C1.32 2.33 2.64 2.66 4 3 C1.36 3.33 -1.28 3.66 -4 4 C-4 3.34 -4 2.68 -4 2 C-6.31 1.34 -8.62 0.68 -11 0 C-11 -0.33 -11 -0.66 -11 -1 C-6.70700357 -2.26264601 -4.12168689 -1.62950412 0 0 Z " fill="#84A1B4" transform="translate(181,278)"/>
<path d="M0 0 C0.886875 0.12375 1.77375 0.2475 2.6875 0.375 C2.3575 1.695 2.0275 3.015 1.6875 4.375 C-1.2825 3.88 -1.2825 3.88 -4.3125 3.375 C-4.3125 4.035 -4.3125 4.695 -4.3125 5.375 C-5.6325 5.705 -6.9525 6.035 -8.3125 6.375 C-4.12788462 0.46730769 -4.12788462 0.46730769 0 0 Z " fill="#DD8329" transform="translate(219.3125,128.625)"/>
<path d="M0 0 C3.29279709 0.31865778 4.86535088 1.54515351 7 4 C4.09399739 5.25664978 2.20395416 6 -1 6 C-1.625 4.125 -1.625 4.125 -2 2 C-1.34 1.34 -0.68 0.68 0 0 Z " fill="#6F92AA" transform="translate(299,418)"/>
<path d="M0 0 C0.33 0.66 0.66 1.32 1 2 C2.65 1.67 4.3 1.34 6 1 C3.11912454 3.40072955 0.43595166 5.47291037 -3 7 C-3.33 5.68 -3.66 4.36 -4 3 C-2.68 2.01 -1.36 1.02 0 0 Z " fill="#D7A46D" transform="translate(267,289)"/>
<path d="M0 0 C1.32 0 2.64 0 4 0 C4 0.66 4 1.32 4 2 C3.34 2 2.68 2 2 2 C1.7525 2.53625 1.505 3.0725 1.25 3.625 C-0.30652537 6.5823982 -2.03435673 9.29724051 -4 12 C-4.66 12 -5.32 12 -6 12 C-4.87548273 9.0280615 -3.77706209 6.66559313 -2 4 C-1.34 4 -0.68 4 0 4 C0 2.68 0 1.36 0 0 Z " fill="#DE9449" transform="translate(287,92)"/>
<path d="M0 0 C0.33 0 0.66 0 1 0 C0.67 3.96 0.34 7.92 0 12 C-0.66 12 -1.32 12 -2 12 C-2.33 13.65 -2.66 15.3 -3 17 C-4.56393356 13.02623171 -3.36145292 10.18622097 -2.0625 6.25 C-1.68222656 5.07953125 -1.30195313 3.9090625 -0.91015625 2.703125 C-0.60980469 1.81109375 -0.30945313 0.9190625 0 0 Z " fill="#E3A05D" transform="translate(251,170)"/>
<path d="M0 0 C1 3 1 3 0.0390625 5.04296875 C-0.42757813 5.75066406 -0.89421875 6.45835938 -1.375 7.1875 C-1.83648437 7.90292969 -2.29796875 8.61835937 -2.7734375 9.35546875 C-3.17820312 9.89816406 -3.58296875 10.44085938 -4 11 C-4.33 11 -4.66 11 -5 11 C-5 8.36 -5 5.72 -5 3 C-4.01 3.33 -3.02 3.66 -2 4 C-1.34 2.68 -0.68 1.36 0 0 Z " fill="#E29452" transform="translate(303,70)"/>
<path d="M0 0 C3.96 0 7.92 0 12 0 C12 0.99 12 1.98 12 3 C11.01 3 10.02 3 9 3 C9 3.66 9 4.32 9 5 C8.01 4.67 7.02 4.34 6 4 C6 3.34 6 2.68 6 2 C3.03 1.505 3.03 1.505 0 1 C0 0.67 0 0.34 0 0 Z " fill="#7897AE" transform="translate(313,489)"/>
<path d="M0 0 C0.66 0.99 1.32 1.98 2 3 C0.68 3.33 -0.64 3.66 -2 4 C-2.33 3.34 -2.66 2.68 -3 2 C-5.35599235 1.53248212 -5.35599235 1.53248212 -8.0625 1.375 C-8.98160156 1.30023438 -9.90070313 1.22546875 -10.84765625 1.1484375 C-11.55792969 1.09945313 -12.26820313 1.05046875 -13 1 C-13 0.67 -13 0.34 -13 0 C-8.38311132 -1.01346337 -4.62162537 -1.06652893 0 0 Z " fill="#89A4B4" transform="translate(317,347)"/>
<path d="M0 0 C0 1.65 0 3.3 0 5 C-5.75 4.125 -5.75 4.125 -8 3 C-8 2.34 -8 1.68 -8 1 C-5.23735711 0.40267181 -2.83967231 0 0 0 Z " fill="#537E9E" transform="translate(165,281)"/>
<path d="M0 0 C-1 3 -1 3 -3 5 C-5.625 5.125 -5.625 5.125 -8 5 C-8.33 4.01 -8.66 3.02 -9 2 C-3.375 0 -3.375 0 0 0 Z " fill="#4D8199" transform="translate(329,358)"/>
<path d="M0 0 C0 0.66 0 1.32 0 2 C-5.50016964 3.30267176 -10.47032059 2.71033431 -16 2 C-16 1.67 -16 1.34 -16 1 C-10.65097076 0.40801257 -5.39115154 -0.14187241 0 0 Z " fill="#7DA3B4" transform="translate(303,302)"/>
<path d="M0 0 C1.32 0.33 2.64 0.66 4 1 C2.54634731 2.17249353 1.08692581 3.33783816 -0.375 4.5 C-1.18710937 5.1496875 -1.99921875 5.799375 -2.8359375 6.46875 C-5 8 -5 8 -7 8 C-6.875 6.1875 -6.875 6.1875 -6 4 C-2.9375 2.25 -2.9375 2.25 0 1 C0 0.67 0 0.34 0 0 Z " fill="#E28C43" transform="translate(312,133)"/>
<path d="M0 0 C0.99 0.33 1.98 0.66 3 1 C1.6905332 2.33631236 0.37734515 3.66897925 -0.9375 5 C-1.66839844 5.7425 -2.39929688 6.485 -3.15234375 7.25 C-5 9 -5 9 -6 9 C-6.3125 6.6875 -6.3125 6.6875 -6 4 C-3.5625 2.25 -3.5625 2.25 -1 1 C-0.67 0.67 -0.34 0.34 0 0 Z " fill="#DD944F" transform="translate(262,120)"/>
<path d="M0 0 C0.33 0.99 0.66 1.98 1 3 C-2.19990508 5.74277578 -5.00499382 7.6302836 -9 9 C-8.06725891 7.87105124 -7.12859878 6.74699124 -6.1875 5.625 C-5.66542969 4.99851562 -5.14335937 4.37203125 -4.60546875 3.7265625 C-3 2 -3 2 0 0 Z " fill="#E19A51" transform="translate(272,83)"/>
<path d="M0 0 C0.33 0 0.66 0 1 0 C1.33 3.96 1.66 7.92 2 12 C0.68 11.67 -0.64 11.34 -2 11 C-2.19622241 6.78121808 -1.80230168 3.82989106 0 0 Z " fill="#DF8228" transform="translate(294,48)"/>
<path d="M0 0 C-0.99 0.33 -1.98 0.66 -3 1 C-3 1.66 -3 2.32 -3 3 C-8.28 3 -13.56 3 -19 3 C-19 2.67 -19 2.34 -19 2 C-16.95928485 1.66089006 -14.91737379 1.32897296 -12.875 1 C-11.73804688 0.814375 -10.60109375 0.62875 -9.4296875 0.4375 C-6.23862398 0.03043951 -3.21182209 -0.07809902 0 0 Z " fill="#8BAABE" transform="translate(280,402)"/>
<path d="M0 0 C-0.99 0.33 -1.98 0.66 -3 1 C-3 1.66 -3 2.32 -3 3 C-7.455 4.485 -7.455 4.485 -12 6 C-12 5.34 -12 4.68 -12 4 C-10.56988027 3.13353333 -9.13059381 2.28218171 -7.6875 1.4375 C-6.48673828 0.72400391 -6.48673828 0.72400391 -5.26171875 -0.00390625 C-3 -1 -3 -1 0 0 Z " fill="#7C9FB1" transform="translate(171,393)"/>
<path d="M0 0 C1.65 0 3.3 0 5 0 C5 3 5 3 3.6875 4.4375 C3.130625 4.953125 2.57375 5.46875 2 6 C0.98199424 7.31963709 -0.02248365 8.65009646 -1 10 C-1.33 8.35 -1.66 6.7 -2 5 C-1.34 5 -0.68 5 0 5 C0 4.34 0 3.68 0 3 C0.66 3 1.32 3 2 3 C2 2.34 2 1.68 2 1 C1.34 0.67 0.68 0.34 0 0 Z " fill="#83A1AF" transform="translate(164,334)"/>
<path d="M0 0 C0.99 0.66 1.98 1.32 3 2 C5.32387947 2.39387788 7.65793749 2.73486085 10 3 C10 3.33 10 3.66 10 4 C4.21408489 4.10477512 -1.29309366 3.99250545 -7 3 C-4.66785852 1.79371992 -2.50357861 0.8345262 0 0 Z " fill="#8EABBA" transform="translate(183,498)"/>
<path d="M0 0 C-3.96 1.98 -3.96 1.98 -8 4 C-8.66 3.34 -9.32 2.68 -10 2 C-9.34 2 -8.68 2 -8 2 C-8 1.01 -8 0.02 -8 -1 C-4.23350139 -2.34517808 -3.97399267 -1.98699633 0 0 Z " fill="#6F94A9" transform="translate(420,476)"/>
<path d="M0 0 C0.66 0 1.32 0 2 0 C1.835 0.5775 1.67 1.155 1.5 1.75 C0.85537969 4.26664369 0.85537969 4.26664369 1 8 C1.66 8.66 2.32 9.32 3 10 C2.01 11.485 2.01 11.485 1 13 C-0.60967724 10.41553813 -2.0412116 7.89779063 -3 5 C-1.875 2 -1.875 2 0 0 Z " fill="#DD7F2D" transform="translate(206,227)"/>
<path d="M0 0 C2.375 0.4375 2.375 0.4375 5 2 C6.07001562 4.94119871 6.57343918 7.90584243 7 11 C5.66104368 9.33784732 4.32869858 7.67036393 3 6 C2.4225 5.278125 1.845 4.55625 1.25 3.8125 C0 2 0 2 0 0 Z " fill="#E19E53" transform="translate(255,222)"/>
<path d="M0 0 C0.33 0 0.66 0 1 0 C1.144375 0.763125 1.28875 1.52625 1.4375 2.3125 C1.9632594 5.08172908 1.9632594 5.08172908 3 8 C3.66 8.165 4.32 8.33 5 8.5 C5.66 8.665 6.32 8.83 7 9 C7.33 9.99 7.66 10.98 8 12 C5.5625 11.1875 5.5625 11.1875 3 10 C2.67 9.01 2.34 8.02 2 7 C1.34 7 0.68 7 0 7 C0 4.69 0 2.38 0 0 Z " fill="#90A5B9" transform="translate(61,452)"/>
<path d="M0 0 C0.33 0.66 0.66 1.32 1 2 C-2.68400584 3.23104155 -5.91474976 2.90767252 -9.75 2.5625 C-10.92046875 2.46066406 -12.0909375 2.35882813 -13.296875 2.25390625 C-14.63492187 2.12822266 -14.63492187 2.12822266 -16 2 C-16 1.67 -16 1.34 -16 1 C-14.27111445 0.83044205 -12.54187557 0.66448486 -10.8125 0.5 C-9.84957031 0.4071875 -8.88664062 0.314375 -7.89453125 0.21875 C-5.24812333 0.01875156 -2.65239135 -0.03879183 0 0 Z " fill="#91B2C0" transform="translate(329,459)"/>
<path d="M0 0 C0.99 0.99 1.98 1.98 3 3 C1.71086513 3.67154933 0.41859796 4.33708859 -0.875 5 C-1.59429687 5.37125 -2.31359375 5.7425 -3.0546875 6.125 C-5 7 -5 7 -7 7 C-6.67 5.68 -6.34 4.36 -6 3 C-4.02 3.495 -4.02 3.495 -2 4 C-1.34 2.68 -0.68 1.36 0 0 Z " fill="#809CB0" transform="translate(324,411)"/>
<path d="M0 0 C0.99 0.33 1.98 0.66 3 1 C3 1.66 3 2.32 3 3 C5.97 3.33 8.94 3.66 12 4 C11.67 4.66 11.34 5.32 11 6 C1.40546697 4.25740319 1.40546697 4.25740319 -2 1 C-1.34 0.67 -0.68 0.34 0 0 Z " fill="#7EA1B4" transform="translate(156,364)"/>
<path d="M0 0 C-0.7115625 0.6496875 -0.7115625 0.6496875 -1.4375 1.3125 C-3.23686957 3.02309613 -3.23686957 3.02309613 -4 6 C-4.99 6.33 -5.98 6.66 -7 7 C-6.74438677 4.6568787 -6.40729228 2.32156597 -6 0 C-3.50907189 -1.24546405 -2.58919267 -0.7767578 0 0 Z " fill="#7496B0" transform="translate(144,295)"/>
<path d="M0 0 C-0.66 1.32 -1.32 2.64 -2 4 C-5.85645121 4.22036864 -8.49223216 3.60355101 -12 2 C-12 1.67 -12 1.34 -12 1 C-7.95858806 0.36605303 -4.0934693 -0.12404452 0 0 Z " fill="#7A9DB3" transform="translate(162,279)"/>
<path d="M0 0 C1.32 0 2.64 0 4 0 C4 0.99 4 1.98 4 3 C5.32 3.33 6.64 3.66 8 4 C7.67 5.32 7.34 6.64 7 8 C3.75700849 5.61042731 1.49097658 3.7952131 0 0 Z " fill="#DE8F40" transform="translate(217,249)"/>
<path d="M0 0 C1.32 0 2.64 0 4 0 C4 2 4 2 1.6875 4.5625 C-1 7 -1 7 -4 8 C-3.67 6.68 -3.34 5.36 -3 4 C-2.34 4 -1.68 4 -1 4 C-0.67 2.68 -0.34 1.36 0 0 Z " fill="#E29848" transform="translate(231,146)"/>
<path d="M0 0 C2.97 0.33 5.94 0.66 9 1 C8.01 2.485 8.01 2.485 7 4 C4.03 3.505 4.03 3.505 1 3 C0.67 2.01 0.34 1.02 0 0 Z " fill="#618093" transform="translate(128,487)"/>
<path d="M0 0 C3.63 0 7.26 0 11 0 C11 1.32 11 2.64 11 4 C10.29875 3.690625 9.5975 3.38125 8.875 3.0625 C5.91063343 1.96697322 3.12301892 1.43577008 0 1 C0 0.67 0 0.34 0 0 Z " fill="#668DA5" transform="translate(280,401)"/>
<path d="M0 0 C-0.99 1.485 -0.99 1.485 -2 3 C-5.96 2.67 -9.92 2.34 -14 2 C-14 1.67 -14 1.34 -14 1 C-4.58997722 -0.14806378 -4.58997722 -0.14806378 0 0 Z " fill="#7EA1B2" transform="translate(277,352)"/>
<path d="M0 0 C-3.41016497 2.86453858 -6.90694544 4.34703566 -11 6 C-10.03628506 3.59071265 -9.34789837 2.23992991 -7.1875 0.75 C-4.67678635 -0.11081611 -2.63651351 -0.14647297 0 0 Z " fill="#7C9BAD" transform="translate(353,297)"/>
<path d="M0 0 C0 0.99 0 1.98 0 3 C-6.435 3.495 -6.435 3.495 -13 4 C-10.34531286 2.23020858 -8.92500069 1.57859829 -5.9375 0.875 C-5.24527344 0.70742188 -4.55304688 0.53984375 -3.83984375 0.3671875 C-2 0 -2 0 0 0 Z " fill="#7591A6" transform="translate(144,283)"/>
<path d="M0 0 C6.625 -0.25 6.625 -0.25 10 2 C4.06 2.495 4.06 2.495 -2 3 C-1.34 2.67 -0.68 2.34 0 2 C0 1.34 0 0.68 0 0 Z " fill="#7B94AC" transform="translate(320,471)"/>
<path d="M0 0 C4 4.5 4 4.5 4 9 C2.68 8.67 1.36 8.34 0 8 C0 5.36 0 2.72 0 0 Z " fill="#D69B5E" transform="translate(244,268)"/>
<path d="M0 0 C0.66 0.33 1.32 0.66 2 1 C2 1.66 2 2.32 2 3 C2.66 3 3.32 3 4 3 C4.33 4.32 4.66 5.64 5 7 C4.38125 6.814375 3.7625 6.62875 3.125 6.4375 C0.95839822 5.76313824 0.95839822 5.76313824 -1 7 C-0.67 4.69 -0.34 2.38 0 0 Z " fill="#E28E3D" transform="translate(293,216)"/>
<path d="M0 0 C0.66 0 1.32 0 2 0 C1.39301257 4.12751449 -0.03810791 7.3321148 -2 11 C-2.98120464 7.94736336 -2.98120464 6.05263664 -2 3 C-1.34 3 -0.68 3 0 3 C0 2.01 0 1.02 0 0 Z " fill="#E0964E" transform="translate(213,170)"/>
<path d="M0 0 C0.33 1.32 0.66 2.64 1 4 C-0.8125 6.25 -0.8125 6.25 -3 8 C-3.66 8 -4.32 8 -5 8 C-5 8.66 -5 9.32 -5 10 C-5.66 9.67 -6.32 9.34 -7 9 C-4.69 6.03 -2.38 3.06 0 0 Z " fill="#E1A05F" transform="translate(194,151)"/>
<path d="M0 0 C0.99 0.33 1.98 0.66 3 1 C1.50260417 2.23697917 0.00520833 3.47395833 -1.4921875 4.7109375 C-2.71051161 5.75250992 -3.86660097 6.86660097 -5 8 C-5 6.35 -5 4.7 -5 3 C-4.01 3 -3.02 3 -2 3 C-2 2.34 -2 1.68 -2 1 C-1.34 0.67 -0.68 0.34 0 0 Z " fill="#DA8C41" transform="translate(241,138)"/>
<path d="M0 0 C0 0.66 0 1.32 0 2 C-2.75 4.1875 -2.75 4.1875 -6 6 C-8.203125 5.61328125 -8.203125 5.61328125 -10 5 C-8.71186658 4.16121545 -7.41936744 3.32913217 -6.125 2.5 C-5.40570313 2.0359375 -4.68640625 1.571875 -3.9453125 1.09375 C-2 0 -2 0 0 0 Z " fill="#E09754" transform="translate(296,129)"/>
<path d="M0 0 C0.99 0 1.98 0 3 0 C3 0.66 3 1.32 3 2 C1.25 3.2890625 1.25 3.2890625 -1 4.625 C-1.7425 5.07101563 -2.485 5.51703125 -3.25 5.9765625 C-3.8275 6.31429687 -4.405 6.65203125 -5 7 C-5.33 6.34 -5.66 5.68 -6 5 C-5.67 4.34 -5.34 3.68 -5 3 C-2.4375 2.375 -2.4375 2.375 0 2 C0 1.34 0 0.68 0 0 Z " fill="#DB9B53" transform="translate(322,126)"/>
<path d="M0 0 C0.33 0.99 0.66 1.98 1 3 C-0.9375 5.6875 -0.9375 5.6875 -3 8 C-3.99 7.67 -4.98 7.34 -6 7 C-4.02 4.69 -2.04 2.38 0 0 Z " fill="#DA822E" transform="translate(262,92)"/>
<path d="M0 0 C6.93 0.495 6.93 0.495 14 1 C14 1.33 14 1.66 14 2 C9.05 2.33 4.1 2.66 -1 3 C-0.67 2.01 -0.34 1.02 0 0 Z " fill="#94ADC9" transform="translate(234,502)"/>
<path d="M0 0 C0 0.66 0 1.32 0 2 C-6.4 3.23076923 -6.4 3.23076923 -9.4375 2.0625 C-9.953125 1.711875 -10.46875 1.36125 -11 1 C-6.8204355 -1.78637633 -4.85331323 -0.79562512 0 0 Z " fill="#7296AD" transform="translate(157,494)"/>
<path d="M0 0 C-3.60051153 2.40034102 -6.96144535 4.32187705 -11.375 3.625 C-11.91125 3.41875 -12.4475 3.2125 -13 3 C-12.01 3 -11.02 3 -10 3 C-10 2.34 -10 1.68 -10 1 C-6.21812119 -0.83691257 -4.05431692 -1.15837626 0 0 Z " fill="#80A0B4" transform="translate(378,461)"/>
<path d="M0 0 C0.825 0.144375 1.65 0.28875 2.5 0.4375 C6.32686278 1.05253152 10.15216707 1.53560637 14 2 C14 2.33 14 2.66 14 3 C12.37585622 3.19477739 10.75063577 3.38059458 9.125 3.5625 C8.22007813 3.66691406 7.31515625 3.77132813 6.3828125 3.87890625 C4 4 4 4 2 3 C2 2.34 2 1.68 2 1 C1.34 0.67 0.68 0.34 0 0 Z " fill="#86A8B7" transform="translate(114,455)"/>
<path d="M0 0 C0.66 0.66 1.32 1.32 2 2 C1.875 4 1.875 4 1 6 C-1.0625 7.25 -1.0625 7.25 -3 8 C-3.33 6.68 -3.66 5.36 -4 4 C-3.01 4 -2.02 4 -1 4 C-0.67 2.68 -0.34 1.36 0 0 Z " fill="#6991AA" transform="translate(405,443)"/>
<path d="M0 0 C0 1.32 0 2.64 0 4 C-3.3 3.67 -6.6 3.34 -10 3 C-6.64781163 0.76520776 -4.01177204 0 0 0 Z " fill="#7498AD" transform="translate(110,427)"/>
<path d="M0 0 C0.99 0.33 1.98 0.66 3 1 C3.33 1.99 3.66 2.98 4 4 C3 5 3 5 0.4375 5.0625 C-0.7690625 5.0315625 -0.7690625 5.0315625 -2 5 C-1.34 3.35 -0.68 1.7 0 0 Z " fill="#507F9E" transform="translate(117,426)"/>
<path d="M0 0 C0.99 0.33 1.98 0.66 3 1 C2.67 4.3 2.34 7.6 2 11 C0 9 0 9 -0.1953125 6.8359375 C-0.17210937 6.02382813 -0.14890625 5.21171875 -0.125 4.375 C-0.10695313 3.55773437 -0.08890625 2.74046875 -0.0703125 1.8984375 C-0.04710937 1.27195312 -0.02390625 0.64546875 0 0 Z " fill="#93B3C5" transform="translate(430,304)"/>
<path d="M0 0 C0.66 0 1.32 0 2 0 C2.33 0.66 2.66 1.32 3 2 C3.99 2.33 4.98 2.66 6 3 C6 4.65 6 6.3 6 8 C5.34 7.67 4.68 7.34 4 7 C4 6.34 4 5.68 4 5 C3.34 5 2.68 5 2 5 C2 4.34 2 3.68 2 3 C1.01 2.67 0.02 2.34 -1 2 C-0.67 1.34 -0.34 0.68 0 0 Z " fill="#E08D43" transform="translate(209,239)"/>
<path d="M0 0 C1.65 0 3.3 0 5 0 C3.02 2.31 1.04 4.62 -1 7 C-2 4 -2 4 -1.0625 1.8125 C-0.5365625 0.9153125 -0.5365625 0.9153125 0 0 Z " fill="#DC9140" transform="translate(300,141)"/>
<path d="M0 0 C1.32 0.33 2.64 0.66 4 1 C4.33 1.99 4.66 2.98 5 4 C4.01 4 3.02 4 2 4 C2 5.65 2 7.3 2 9 C1.67 9 1.34 9 1 9 C0.67 6.03 0.34 3.06 0 0 Z " fill="#DFA970" transform="translate(295,0)"/>
<path d="M0 0 C0.66 0 1.32 0 2 0 C2 0.66 2 1.32 2 2 C1.34 2 0.68 2 0 2 C0 3.65 0 5.3 0 7 C-0.99 7.495 -0.99 7.495 -2 8 C-2 7.34 -2 6.68 -2 6 C-2.66 5.67 -3.32 5.34 -4 5 C-2.71937515 3.2925002 -1.38232443 1.62626404 0 0 Z " fill="#E08C3C" transform="translate(265,151)"/>
<path d="M0 0 C6.0546875 -0.1953125 6.0546875 -0.1953125 8 0 C8.66 0.66 9.32 1.32 10 2 C6.7 2.33 3.4 2.66 0 3 C0 2.01 0 1.02 0 0 Z " fill="#80A2BA" transform="translate(269,427)"/>
<path d="M0 0 C1.24546405 2.49092811 0.7767578 3.41080733 0 6 C-1.98 6.33 -3.96 6.66 -6 7 C-5.67 6.34 -5.34 5.68 -5 5 C-4.34 5 -3.68 5 -3 5 C-3 4.34 -3 3.68 -3 3 C-2.34 3 -1.68 3 -1 3 C-0.67 2.01 -0.34 1.02 0 0 Z " fill="#849FAF" transform="translate(397,335)"/>
<path d="M0 0 C0.33 0.66 0.66 1.32 1 2 C1.66 2.33 2.32 2.66 3 3 C0.36 3.99 -2.28 4.98 -5 6 C-5 4.68 -5 3.36 -5 2 C-4.360625 1.855625 -3.72125 1.71125 -3.0625 1.5625 C-1.02454854 1.18992819 -1.02454854 1.18992819 0 0 Z " fill="#749BB0" transform="translate(150,288)"/>
<path d="M0 0 C1.98 0.99 1.98 0.99 4 2 C4 3.32 4 4.64 4 6 C3.01 6 2.02 6 1 6 C0.67 4.02 0.34 2.04 0 0 Z " fill="#E16F05" transform="translate(237,263)"/>
<path d="M0 0 C0.66 0 1.32 0 2 0 C0.44499019 3.81684226 -2.03595495 6.19195732 -5 9 C-4.42676569 5.13066838 -2.61046448 2.84777943 0 0 Z " fill="#E1AC69" transform="translate(289,154)"/>
<path d="M0 0 C-0.66 1.32 -1.32 2.64 -2 4 C-2.66 4 -3.32 4 -4 4 C-4 4.66 -4 5.32 -4 6 C-4.99 5.67 -5.98 5.34 -7 5 C-6 2 -6 2 -4.0625 0.8125 C-2 0 -2 0 0 0 Z " fill="#E29243" transform="translate(281,104)"/>
<path d="M0 0 C0.99 0 1.98 0 3 0 C2.34 1.65 1.68 3.3 1 5 C0.34 5 -0.32 5 -1 5 C-1.33 5.66 -1.66 6.32 -2 7 C-2.125 4.625 -2.125 4.625 -2 2 C-1.34 1.34 -0.68 0.68 0 0 Z " fill="#E3944D" transform="translate(295,82)"/>
<path d="M0 0 C0.33 0.66 0.66 1.32 1 2 C1.99 2.33 2.98 2.66 4 3 C1.69 3.66 -0.62 4.32 -3 5 C-3 4.01 -3 3.02 -3 2 C-2.01 1.34 -1.02 0.68 0 0 Z " fill="#7398AE" transform="translate(398,482)"/>
<path d="M0 0 C0.66 0.99 1.32 1.98 2 3 C-0.5654594 5.5654594 -2.47686668 5.54046087 -6 6 C-4 4 -2 2 0 0 Z " fill="#6F90A3" transform="translate(70,442)"/>
<path d="M0 0 C1.98 0.66 3.96 1.32 6 2 C6 2.66 6 3.32 6 4 C3.69 4 1.38 4 -1 4 C-0.34 3.67 0.32 3.34 1 3 C0.67 2.01 0.34 1.02 0 0 Z " fill="#7C99B2" transform="translate(268,370)"/>
<path d="M0 0 C0.99 0.66 1.98 1.32 3 2 C-1.95 3.485 -1.95 3.485 -7 5 C-6.34 3.68 -5.68 2.36 -5 1 C-3.35 1.33 -1.7 1.66 0 2 C0 1.34 0 0.68 0 0 Z " fill="#91B0C2" transform="translate(377,362)"/>
<path d="M0 0 C4.75 0.875 4.75 0.875 7 2 C7 2.99 7 3.98 7 5 C2.25 3.125 2.25 3.125 0 2 C0 1.34 0 0.68 0 0 Z " fill="#7D9FAF" transform="translate(102,307)"/>
<path d="M0 0 C1.32 0 2.64 0 4 0 C3.67 1.32 3.34 2.64 3 4 C1.68 4 0.36 4 -1 4 C-0.67 2.68 -0.34 1.36 0 0 Z " fill="#DC7819" transform="translate(278,281)"/>
<path d="M0 0 C-0.33 1.32 -0.66 2.64 -1 4 C-2.98 3.34 -4.96 2.68 -7 2 C-4 0 -4 0 0 0 Z " fill="#56819D" transform="translate(374,276)"/>
<path d="M0 0 C3.3 0 6.6 0 10 0 C10 0.99 10 1.98 10 3 C6.7 2.34 3.4 1.68 0 1 C0 0.67 0 0.34 0 0 Z " fill="#9CB2B8" transform="translate(180,276)"/>
<path d="M0 0 C-0.66 0.66 -1.32 1.32 -2 2 C-2 2.66 -2 3.32 -2 4 C-4.97 3.505 -4.97 3.505 -8 3 C-5.45189726 -0.82215411 -4.39145359 -1.46381786 0 0 Z " fill="#7D9FB7" transform="translate(140,489)"/>
<path d="M0 0 C2.475 0.99 2.475 0.99 5 2 C1.77208445 4.1519437 0.71599191 4.20086443 -3 4 C-2.34 3.67 -1.68 3.34 -1 3 C-0.67 2.01 -0.34 1.02 0 0 Z " fill="#4F7E95" transform="translate(97,466)"/>
<path d="M0 0 C-3.18762365 2.12508244 -5.26512223 2.5020163 -9 3 C-8.34 2.67 -7.68 2.34 -7 2 C-7 1.34 -7 0.68 -7 0 C-3.86650268 -1.04449911 -3.01031744 -0.93423645 0 0 Z " fill="#849DB2" transform="translate(317,418)"/>
<path d="M0 0 C2.475 0.99 2.475 0.99 5 2 C5 2.66 5 3.32 5 4 C3.35 4.33 1.7 4.66 0 5 C0 3.35 0 1.7 0 0 Z " fill="#97ACBC" transform="translate(331,357)"/>
<path d="M0 0 C0.86625 0.3403125 0.86625 0.3403125 1.75 0.6875 C0 2.25 0 2.25 -2.25 3.6875 C-4.5 3.375 -4.5 3.375 -6.25 2.6875 C-2.80384615 -0.38942308 -2.80384615 -0.38942308 0 0 Z " fill="#7599AC" transform="translate(381.25,351.3125)"/>
<path d="M0 0 C0.99 0.33 1.98 0.66 3 1 C3 1.66 3 2.32 3 3 C3.99 3.33 4.98 3.66 6 4 C5.34 4.66 4.68 5.32 4 6 C3.01 5.67 2.02 5.34 1 5 C0.67 3.35 0.34 1.7 0 0 Z " fill="#6E90A1" transform="translate(418,281)"/>
<path d="M0 0 C0.66 0 1.32 0 2 0 C1.50168276 3.68754757 0.89932357 5.60490662 -2 8 C-2 6.35 -2 4.7 -2 3 C-1.34 3 -0.68 3 0 3 C0 2.01 0 1.02 0 0 Z " fill="#DC9042" transform="translate(301,256)"/>
<path d="M0 0 C3 1 3 1 5 4 C4.625 6.1875 4.625 6.1875 4 8 C0 2.25 0 2.25 0 0 Z " fill="#DA9146" transform="translate(190,215)"/>
<path d="M0 0 C-1.65 1.65 -3.3 3.3 -5 5 C-5.66 4.67 -6.32 4.34 -7 4 C-6.67 2.68 -6.34 1.36 -6 0 C-2.25 -1.125 -2.25 -1.125 0 0 Z " fill="#DC8836" transform="translate(297,149)"/>
<path d="M0 0 C0.66 0.33 1.32 0.66 2 1 C-0.35380297 4.92300495 -2.64464931 5.83857315 -7 7 C-4.66666667 4.66666667 -2.33333333 2.33333333 0 0 Z " fill="#E19E5B" transform="translate(231,117)"/>
<path d="M0 0 C0.66 0 1.32 0 2 0 C1.8125 1.875 1.8125 1.875 1 4 C-1.5625 5.25 -1.5625 5.25 -4 6 C-2.84826645 3.53199953 -1.95216435 1.95216435 0 0 Z " fill="#D98B38" transform="translate(277,77)"/>
<path d="" fill="#FFFFFF" transform="translate(0,0)"/>
<path d="" fill="#FFFFFF" transform="translate(0,0)"/>
<path d="" fill="#FFFFFF" transform="translate(0,0)"/>
<path d="" fill="#FFFFFF" transform="translate(0,0)"/>
<path d="" fill="#FFFFFF" transform="translate(0,0)"/>
<path d="" fill="#FFFFFF" transform="translate(0,0)"/>
<path d="" fill="#FFFFFF" transform="translate(0,0)"/>
<path d="" fill="#FFFFFF" transform="translate(0,0)"/>
<path d="" fill="#FFFFFF" transform="translate(0,0)"/>
<path d="" fill="#FFFFFF" transform="translate(0,0)"/>
<path d="" fill="#FFFFFF" transform="translate(0,0)"/>
<path d="" fill="#FFFFFF" transform="translate(0,0)"/>
<path d="" fill="#FFFFFF" transform="translate(0,0)"/>
<path d="" fill="#FFFFFF" transform="translate(0,0)"/>
<path d="" fill="#FFFFFF" transform="translate(0,0)"/>
<path d="" fill="#FFFFFF" transform="translate(0,0)"/>
<path d="" fill="#FFFFFF" transform="translate(0,0)"/>
<path d="" fill="#FFFFFF" transform="translate(0,0)"/>
<path d="" fill="#FFFFFF" transform="translate(0,0)"/>
<path d="" fill="#FFFFFF" transform="translate(0,0)"/>
<path d="" fill="#FFFFFF" transform="translate(0,0)"/>
<path d="" fill="#FFFFFF" transform="translate(0,0)"/>
<path d="" fill="#FFFFFF" transform="translate(0,0)"/>
<path d="" fill="#FFFFFF" transform="translate(0,0)"/>
<path d="" fill="#FFFFFF" transform="translate(0,0)"/>
<path d="" fill="#FFFFFF" transform="translate(0,0)"/>
<path d="" fill="#FFFFFF" transform="translate(0,0)"/>
<path d="" fill="#FFFFFF" transform="translate(0,0)"/>
<path d="" fill="#FFFFFF" transform="translate(0,0)"/>
<path d="" fill="#FFFFFF" transform="translate(0,0)"/>
<path d="" fill="#FFFFFF" transform="translate(0,0)"/>
<path d="" fill="#FFFFFF" transform="translate(0,0)"/>
<path d="" fill="#FFFFFF" transform="translate(0,0)"/>
<path d="" fill="#FFFFFF" transform="translate(0,0)"/>
<path d="" fill="#FFFFFF" transform="translate(0,0)"/>
<path d="" fill="#FFFFFF" transform="translate(0,0)"/>
<path d="" fill="#FFFFFF" transform="translate(0,0)"/>
<path d="" fill="#FFFFFF" transform="translate(0,0)"/>
<path d="" fill="#FFFFFF" transform="translate(0,0)"/>
<path d="" fill="#FFFFFF" transform="translate(0,0)"/>
<path d="" fill="#FFFFFF" transform="translate(0,0)"/>
<path d="" fill="#FFFFFF" transform="translate(0,0)"/>
<path d="" fill="#FFFFFF" transform="translate(0,0)"/>
<path d="" fill="#FFFFFF" transform="translate(0,0)"/>
<path d="" fill="#FFFFFF" transform="translate(0,0)"/>
<path d="" fill="#FFFFFF" transform="translate(0,0)"/>
<path d="" fill="#FFFFFF" transform="translate(0,0)"/>
<path d="" fill="#FFFFFF" transform="translate(0,0)"/>
<path d="" fill="#FFFFFF" transform="translate(0,0)"/>
<path d="" fill="#FFFFFF" transform="translate(0,0)"/>
<path d="" fill="#FFFFFF" transform="translate(0,0)"/>
<path d="" fill="#FFFFFF" transform="translate(0,0)"/>
<path d="" fill="#FFFFFF" transform="translate(0,0)"/>
<path d="" fill="#FFFFFF" transform="translate(0,0)"/>
<path d="" fill="#FFFFFF" transform="translate(0,0)"/>
<path d="" fill="#FFFFFF" transform="translate(0,0)"/>
<path d="" fill="#FFFFFF" transform="translate(0,0)"/>
<path d="" fill="#FFFFFF" transform="translate(0,0)"/>
<path d="" fill="#FFFFFF" transform="translate(0,0)"/>
<path d="" fill="#FFFFFF" transform="translate(0,0)"/>
<path d="" fill="#FFFFFF" transform="translate(0,0)"/>
<path d="" fill="#FFFFFF" transform="translate(0,0)"/>
<path d="" fill="#FFFFFF" transform="translate(0,0)"/>
<path d="" fill="#FFFFFF" transform="translate(0,0)"/>
<path d="" fill="#FFFFFF" transform="translate(0,0)"/>
<path d="" fill="#FFFFFF" transform="translate(0,0)"/>
</svg>
