<?xml version="1.0" encoding="UTF-8"?>
<svg version="1.1" xmlns="http://www.w3.org/2000/svg" width="512" height="512">
<path d="M0 0 C6.67091346 6.68404518 11.11410379 15.06053299 15.796875 23.17578125 C16.53861486 24.45245594 17.28089446 25.72881718 18.02368164 27.00488281 C19.56832488 29.6594423 21.11064251 32.31533237 22.65136719 34.97216797 C26.74238954 42.02137659 30.87406046 49.04685496 35.00042725 56.07540894 C38.41536136 61.89245587 41.82884139 67.71001622 45.203125 73.55078125 C45.67113525 74.35741211 46.13914551 75.16404297 46.62133789 75.99511719 C47.45821576 77.43856263 48.29106943 78.88435268 49.11889648 80.33300781 C50.96043588 83.74200698 50.96043588 83.74200698 53.984375 85.98828125 C54.36589722 84.95018311 54.36589722 84.95018311 54.75512695 83.89111328 C56.14971022 80.59784714 57.84069045 77.62702144 59.65234375 74.54296875 C60.0102449 73.93244659 60.36814606 73.32192444 60.7368927 72.69290161 C61.4942466 71.40269393 62.25328901 70.11347609 63.01391602 68.82519531 C64.15470126 66.89237848 65.28970403 64.95626245 66.42382812 63.01953125 C83.64275568 33.69076705 83.64275568 33.69076705 98.484375 29.23828125 C108.86176054 28.2005427 117.50808321 29.63106241 126 36 C131.99353299 42.00533128 136.11710312 49.36133307 140.296875 56.67578125 C141.53079942 58.81276024 142.76519562 60.94946686 144 63.0859375 C144.64646484 64.20758301 145.29292969 65.32922852 145.95898438 66.48486328 C149.09941482 71.92526008 152.28012515 77.34211594 155.45932007 82.75991821 C156.55188262 84.62181502 157.64378567 86.48409738 158.7355957 88.34643555 C163.48311105 96.4421838 168.25102391 104.52571903 173.03149414 112.60205078 C177.90739117 120.84497991 182.7480556 129.10843321 187.58789062 137.37255859 C192.71777465 146.13117497 197.86725389 154.8778876 203.0378418 163.61254883 C207.47929824 171.12090457 211.88948967 178.64740505 216.296875 186.17578125 C221.83179777 195.62982647 227.39202259 205.06805288 232.984375 214.48828125 C238.94197727 224.52376718 244.86027691 234.58140229 250.7562561 244.65316772 C255.37693794 252.54633608 260.01226054 260.43050879 264.671875 268.30078125 C266.77768512 271.86231237 268.88159434 275.42496072 270.984375 278.98828125 C271.60570312 280.04080078 272.22703125 281.09332031 272.8671875 282.17773438 C274.80603812 285.46644215 276.73960434 288.75820396 278.671875 292.05078125 C279.57329224 293.57795776 279.57329224 293.57795776 280.49291992 295.13598633 C281.05084229 296.08884521 281.60876465 297.0417041 282.18359375 298.0234375 C282.67690186 298.86269775 283.17020996 299.70195801 283.6784668 300.56665039 C288.49278616 309.49415716 288.81805897 321.29320259 286.14453125 331.0546875 C281.80047733 339.46489289 273.80389918 345.04316186 264.984375 347.98828125 C260.73874004 349.04750878 256.60926452 349.13043978 252.25993061 349.11970901 C251.48557058 349.12176165 250.71121055 349.12381428 249.91338506 349.12592912 C247.30920957 349.13159985 244.70508696 349.13014177 242.10090637 349.12872314 C240.21868364 349.13130674 238.33646145 349.13431988 236.45424002 349.13772655 C231.27432093 349.14580047 226.0944157 349.14758634 220.91449106 349.14832401 C215.33082798 349.15017388 209.7471721 349.15772087 204.16351318 349.16445923 C191.95071838 349.17804575 179.73792685 349.18406774 167.52512574 349.18846989 C159.90081541 349.1912317 152.27650635 349.19546894 144.65219688 349.19997406 C123.54667778 349.21216702 102.44115952 349.22250174 81.33563709 349.22584915 C79.97098344 349.22607078 78.60632979 349.22629257 77.24167613 349.2265145 C75.87374064 349.22673514 74.50580515 349.22695563 73.13786966 349.22717595 C70.39358954 349.2276185 67.64930942 349.22806562 64.9050293 349.22851562 C63.88439766 349.22867971 63.88439766 349.22867971 62.84314721 349.22884711 C40.78111819 349.23247764 18.71912204 349.24839785 -3.3428944 349.27170599 C-26.67194192 349.29630764 -50.00096811 349.31001542 -73.33003122 349.31121707 C-86.0455771 349.31213414 -98.76107996 349.31789455 -111.476614 349.33603668 C-122.30368242 349.35142987 -133.13069452 349.35656272 -143.9577718 349.34829858 C-149.48198974 349.34438936 -155.00609422 349.34533505 -160.53029823 349.35935593 C-165.58912785 349.37207825 -170.64775855 349.37091189 -175.70658783 349.35876521 C-177.53500448 349.35680534 -179.36343513 349.35990004 -181.19183209 349.36860958 C-195.49805267 349.432433 -205.88103362 348.42509135 -216.703125 338.4296875 C-223.42070583 331.42660948 -225.4367026 322.77560795 -225.546875 313.30078125 C-224.05703503 304.01119086 -219.63628183 296.06667463 -214.828125 288.11328125 C-213.57534059 286.00401329 -212.32274493 283.89463322 -211.0703125 281.78515625 C-210.4112793 280.68236328 -209.75224609 279.57957031 -209.07324219 278.44335938 C-206.95362263 274.89167391 -204.86080555 271.32461927 -202.7734375 267.75390625 C-202.41869858 267.14711029 -202.06395966 266.54031433 -201.69847107 265.91513062 C-200.97847958 264.68334188 -200.25854463 263.45152009 -199.53866577 262.21966553 C-193.70983204 252.25177157 -187.84718841 242.3038863 -181.96411133 232.36791992 C-178.95001913 227.27369925 -175.94893259 222.17206934 -172.9609375 217.0625 C-172.60955719 216.46171127 -172.25817688 215.86092255 -171.89614868 215.2419281 C-171.54096161 214.63462357 -171.18577454 214.02731903 -170.81982422 213.40161133 C-170.09344258 212.15965738 -169.36704275 210.91771407 -168.640625 209.67578125 C-168.28035217 209.05980072 -167.92007935 208.44382019 -167.54888916 207.80917358 C-162.55301137 199.27153388 -157.49972374 190.77134151 -152.390625 182.30078125 C-146.68594989 172.84089202 -141.1357365 163.30062094 -135.64013672 153.71801758 C-130.74758927 145.20671824 -125.71472245 136.7867864 -120.640625 128.3828125 C-116.17530979 120.9685287 -111.82128003 113.49626721 -107.515625 105.98828125 C-102.00607769 96.38100813 -96.36481602 86.86350387 -90.640625 77.3828125 C-86.17530861 69.96852674 -81.82135502 62.49622607 -77.515625 54.98828125 C-70.71923836 43.13954718 -63.73277163 31.41207603 -56.66479492 19.72363281 C-54.54299088 16.20435931 -52.44290872 12.67225546 -50.34667969 9.13769531 C-45.43722116 1.20980227 -38.71340603 -4.28527209 -29.5 -6.66015625 C-18.56411821 -8.20768669 -8.9173854 -6.68803905 0 0 Z M-22.015625 46.98828125 C-22.51449219 47.88804687 -23.01335937 48.7878125 -23.52734375 49.71484375 C-28.44017252 58.5333714 -33.50282574 67.25425024 -38.65307617 75.93603516 C-43.30082728 83.77117659 -47.91308199 91.62654387 -52.515625 99.48828125 C-58.01046207 108.87174179 -63.52353245 118.24406429 -69.0625 127.6015625 C-73.56781604 135.21822303 -78.04345315 142.85213819 -82.515625 150.48828125 C-90.16237806 163.54409121 -97.85099992 176.57474685 -105.55859375 189.59472656 C-112.60700987 201.50335405 -119.62468256 213.42961607 -126.61804199 225.37063599 C-131.74314559 234.12111466 -136.88736413 242.85997586 -142.05371094 251.58618164 C-145.14155755 256.80567873 -148.21689505 262.03231372 -151.28125 267.265625 C-151.64968521 267.89483856 -152.01812042 268.52405212 -152.39772034 269.17233276 C-153.88930949 271.72005264 -155.38071054 274.26788226 -156.87155151 276.81604004 C-161.73366598 285.12513841 -166.6343139 293.4079825 -171.64453125 301.62890625 C-173.09936605 303.67757658 -173.09936605 303.67757658 -173.015625 304.98828125 C-160.49959064 305.5700015 -147.98681015 306.01287907 -135.45996761 306.28358555 C-129.64087161 306.41359962 -123.83107345 306.58945644 -118.01733398 306.87426758 C-93.76555874 309.45330273 -93.76555874 309.45330273 -71.51031494 302.66326904 C-66.15025642 296.91609855 -63.36879676 290.39301679 -61.00540161 282.97531128 C-59.73175034 279.13158073 -57.96750613 276.14663845 -55.796875 272.73828125 C-54.70133048 270.82263974 -53.60751986 268.90600537 -52.515625 266.98828125 C-46.98081885 257.33187333 -41.31297213 247.76473536 -35.56591797 238.23339844 C-29.57492133 228.28637771 -23.73148067 218.25652838 -17.89599609 208.21777344 C-14.42674814 202.25942342 -10.94030519 196.31114898 -7.453125 190.36328125 C-7.09224792 189.74770355 -6.73137085 189.13212585 -6.35955811 188.49789429 C-2.20251881 181.40808532 1.96053855 174.3218713 6.1418457 167.24633789 C7.19024927 165.47178265 8.2370059 163.69625321 9.28198242 161.91967773 C12.04811465 157.22458423 14.85499454 152.55906017 17.7109375 147.91796875 C18.32098633 146.91564209 18.93103516 145.91331543 19.55957031 144.88061523 C20.73180616 142.95609401 21.91552131 141.03850326 23.11230469 139.12915039 C23.63469727 138.26668701 24.15708984 137.40422363 24.6953125 136.515625 C25.16243652 135.76015381 25.62956055 135.00468262 26.11083984 134.22631836 C27.23463243 131.34711024 26.91292995 129.91032941 25.984375 126.98828125 C24.96774701 124.82108813 24.96774701 124.82108813 23.640625 122.70703125 C23.14498047 121.88009766 22.64933594 121.05316406 22.13867188 120.20117188 C21.59275391 119.30591797 21.04683594 118.41066406 20.484375 117.48828125 C19.29608705 115.50958757 18.10862989 113.53039479 16.921875 111.55078125 C16.28507813 110.49246094 15.64828125 109.43414062 14.9921875 108.34375 C11.81363413 103.03173182 8.69177003 97.68682189 5.56820679 92.34234619 C3.76761982 89.26215864 1.96413037 86.18367347 0.16015625 83.10546875 C-0.36719368 82.20560745 -0.36719368 82.20560745 -0.90519714 81.28756714 C-4.88654516 74.49754879 -8.89241677 67.72203163 -12.90625 60.95117188 C-15.64989426 56.31899794 -18.35881042 51.67083807 -21.015625 46.98828125 C-21.345625 46.98828125 -21.675625 46.98828125 -22.015625 46.98828125 Z M104.984375 84.98828125 C104.21147001 86.12678072 103.49031559 87.30039558 102.7890625 88.484375 C102.32725586 89.25942383 101.86544922 90.03447266 101.38964844 90.83300781 C100.63216309 92.11643066 100.63216309 92.11643066 99.859375 93.42578125 C98.77883181 95.24229814 97.69809287 97.0586986 96.6171875 98.875 C96.03614258 99.85388184 95.45509766 100.83276367 94.85644531 101.84130859 C91.49972447 107.48399661 88.11503009 113.10991462 84.734375 118.73828125 C83.43738496 120.89967056 82.14050029 123.0611231 80.84375 125.22265625 C79.890625 126.81119792 78.9375 128.39973958 77.984375 129.98828125 C80.64442581 134.65875966 83.31258537 139.32451184 85.984375 143.98828125 C86.78101563 145.38022705 86.78101563 145.38022705 87.59375 146.80029297 C95.04822745 159.81414844 102.60602962 172.75181684 110.35766602 185.59106445 C115.47200798 194.08258866 120.42816068 202.65900754 125.359375 211.2578125 C129.64939366 218.72065746 134.03520527 226.11934388 138.484375 233.48828125 C143.58331788 241.9334054 148.57657729 250.43066892 153.484375 258.98828125 C160.81074639 271.7587547 168.30292871 284.42763302 175.984375 296.98828125 C176.28302963 297.67617737 176.58168427 298.36407349 176.88938904 299.07281494 C178.04974191 301.4590908 179.0644256 303.14725211 180.984375 304.98828125 C184.87014443 306.10579242 188.61381655 305.92166085 192.62890625 305.76953125 C193.7538298 305.75821167 194.87875336 305.74689209 196.0377655 305.73522949 C199.6258779 305.69049433 203.20997358 305.5901259 206.796875 305.48828125 C209.23106203 305.44815106 211.66531178 305.41164951 214.09960938 305.37890625 C220.06256515 305.29076855 226.02318318 305.15695769 231.984375 304.98828125 C230.56645339 301.36689924 228.98283338 298.02264137 227.078125 294.62890625 C226.50457275 293.60482666 225.93102051 292.58074707 225.34008789 291.52563477 C224.72770264 290.44080811 224.11531738 289.35598145 223.484375 288.23828125 C222.85072021 287.11156006 222.21706543 285.98483887 221.56420898 284.82397461 C217.73518072 278.03454248 213.85340832 271.28080811 209.87597656 264.57739258 C206.10822267 258.22441478 202.4193207 251.8270824 198.734375 245.42578125 C193.84292176 236.93171826 188.93050199 228.45062555 183.984375 219.98828125 C177.23718007 208.44109399 170.55098102 196.85925957 163.87548828 185.27050781 C160.74757352 179.84168183 157.61579052 174.41508844 154.484375 168.98828125 C153.23435621 166.82162542 151.98435622 164.65495875 150.734375 162.48828125 C150.115625 161.41578125 149.496875 160.34328125 148.859375 159.23828125 C143.234375 149.48828125 143.234375 149.48828125 141.35839844 146.23657227 C140.11167244 144.07559137 138.86492773 141.91462127 137.61816406 139.75366211 C133.79571503 133.12831691 129.97393181 126.50258831 126.15283203 119.87646484 C124.27740574 116.62537589 122.40044161 113.37517818 120.5234375 110.125 C118.21835826 106.13225102 115.92180267 102.13480512 113.6328125 98.1328125 C113.11944336 97.23812256 112.60607422 96.34343262 112.07714844 95.42163086 C111.12166025 93.75620161 110.16903408 92.08912602 109.21972656 90.42016602 C108.16939347 88.59308348 107.08138539 86.78772517 105.984375 84.98828125 C105.654375 84.98828125 105.324375 84.98828125 104.984375 84.98828125 Z M51.984375 174.98828125 C50.71070018 176.82732794 49.5480944 178.74291547 48.421875 180.67578125 C47.85291504 181.64439087 47.85291504 181.64439087 47.27246094 182.63256836 C46.37288094 184.16622492 45.47689037 185.70198968 44.58349609 187.23925781 C42.75250095 190.38689222 40.91017146 193.52780656 39.06640625 196.66796875 C36.50140156 201.03785867 33.9386059 205.40902748 31.37882996 209.78198242 C24.76852564 221.07390984 18.10680909 232.3352581 11.44140625 243.59472656 C4.63963201 255.0866411 -2.13790362 266.59248878 -8.890625 278.11328125 C-9.24547974 278.7186673 -9.60033447 279.32405334 -9.96594238 279.94778442 C-11.66315773 282.8436692 -13.35925941 285.74019154 -15.05371094 288.63769531 C-16.39192229 290.92311251 -17.73325888 293.20640181 -19.07910156 295.48730469 C-19.72073242 296.57817383 -20.36236328 297.66904297 -21.0234375 298.79296875 C-21.59980957 299.76991699 -22.17618164 300.74686523 -22.77001953 301.75341797 C-24.09676526 303.70743898 -24.09676526 303.70743898 -24.015625 304.98828125 C26.804375 304.98828125 77.624375 304.98828125 129.984375 304.98828125 C125.82919381 296.65637132 125.82919381 296.65637132 121.234375 288.67578125 C116.64719545 281.14330911 112.18704069 273.53814678 107.734375 265.92578125 C106.23991721 263.37220029 104.74508187 260.81884062 103.25 258.265625 C102.69986237 257.32610237 102.69986237 257.32610237 102.13861084 256.36759949 C98.9351147 250.89918403 95.71313772 245.44181523 92.484375 239.98828125 C87.46096087 231.5019482 82.46824545 222.99786824 77.484375 214.48828125 C72.18390294 205.43950676 66.8771875 196.39452664 61.546875 187.36328125 C61.00933594 186.45126953 60.47179687 185.53925781 59.91796875 184.59960938 C59.42554688 183.76623047 58.933125 182.93285156 58.42578125 182.07421875 C57.99982666 181.35282715 57.57387207 180.63143555 57.13500977 179.88818359 C56.12909279 178.22723602 55.06149592 176.60396264 53.984375 174.98828125 C53.324375 174.98828125 52.664375 174.98828125 51.984375 174.98828125 Z " fill="#00838F" transform="translate(225.015625,89.01171875)"/>
<path d="M0 0 C6.67087599 6.68400763 11.11426371 15.06048806 15.796875 23.17578125 C16.53935381 24.45391694 17.28236579 25.73174305 18.02587891 27.00927734 C19.57118498 29.6653418 21.11419558 32.32272038 22.65576172 34.98095703 C25.64978709 40.13911569 28.67097047 45.28123714 31.69287109 50.4230957 C33.12826224 52.86588554 34.55949486 55.31103148 35.98681641 57.75854492 C39.13427738 63.15304198 42.30122278 68.53110277 45.56640625 73.85546875 C46.0970166 74.73315918 46.62762695 75.61084961 47.17431641 76.51513672 C48.13957162 78.10920833 49.11875386 79.69496988 50.11474609 81.27001953 C51.37109375 83.36328125 51.37109375 83.36328125 52.984375 86.98828125 C51.94584396 90.39899282 50.28784332 93.39059537 48.515625 96.47265625 C48.03125977 97.31803955 47.54689453 98.16342285 47.04785156 99.03442383 C46.5319043 99.92669678 46.01595703 100.81896973 45.484375 101.73828125 C44.95553711 102.65826904 44.42669922 103.57825684 43.88183594 104.52612305 C38.9738737 113.04750272 33.99637628 121.52775696 28.984375 129.98828125 C25.32978401 128.77008425 25.08024137 127.92846779 23.2265625 124.66015625 C22.69216553 123.72993652 22.15776855 122.7997168 21.60717773 121.84130859 C20.74201538 120.30531006 20.74201538 120.30531006 19.859375 118.73828125 C18.59827852 116.53740374 17.33653124 114.33689904 16.07421875 112.13671875 C15.40217155 110.95931528 14.73013395 109.78190634 14.05810547 108.60449219 C10.56299962 102.49483282 6.98759748 96.43188502 3.421875 90.36328125 C2.34444163 88.52803473 1.26720628 86.69267209 0.18998718 84.8572998 C-0.51680635 83.65319381 -1.22374473 82.44917283 -1.93083191 81.24523926 C-4.24090476 77.31137819 -6.54353113 73.37322826 -8.84375 69.43359375 C-10.00503907 67.45172373 -11.16648765 65.46994716 -12.328125 63.48828125 C-12.84898682 62.59286621 -13.36984863 61.69745117 -13.90649414 60.77490234 C-14.39239014 59.94812988 -14.87828613 59.12135742 -15.37890625 58.26953125 C-15.79438721 57.55861328 -16.20986816 56.84769531 -16.63793945 56.11523438 C-18.26946761 53.59638389 -20.11097223 51.30518226 -22.015625 48.98828125 C-22.39146729 49.64497803 -22.76730957 50.3016748 -23.15454102 50.97827148 C-30.16625396 63.21564501 -37.224909 75.41439172 -44.515625 87.48828125 C-49.61461169 95.93337401 -54.60798439 104.43058293 -59.515625 112.98828125 C-65.02517231 122.59555437 -70.66643398 132.11305863 -76.390625 141.59375 C-80.85594111 149.00803529 -85.20990749 156.48033003 -89.515625 163.98828125 C-95.0533596 173.64304106 -100.71823963 183.21176373 -106.46533203 192.74316406 C-112.45632867 202.69018479 -118.29976933 212.72003412 -124.13525391 222.75878906 C-127.60450174 228.71713888 -131.09090034 234.6654398 -134.578125 240.61328125 C-134.93999908 241.23052063 -135.30187317 241.84776001 -135.67471313 242.48370361 C-147.7201519 263.02560788 -159.87563388 283.50204624 -172.015625 303.98828125 C-139.675625 303.98828125 -107.335625 303.98828125 -74.015625 303.98828125 C-74.675625 306.62828125 -75.335625 309.26828125 -76.015625 311.98828125 C-77.13801622 321.34589179 -75.17535989 330.33842744 -69.328125 337.86328125 C-64.08570812 343.38370509 -57.31532223 346.27984147 -50.015625 347.98828125 C-50.015625 348.31828125 -50.015625 348.64828125 -50.015625 348.98828125 C-69.00931224 349.05846577 -88.00297305 349.11131562 -106.99676323 349.14371777 C-115.81657123 349.15916476 -124.63629851 349.18021269 -133.45605469 349.21459961 C-141.14633558 349.2445685 -148.83655798 349.263872 -156.52689564 349.27054673 C-160.59617871 349.27444634 -164.66529449 349.28356542 -168.73452377 349.30547142 C-172.57092299 349.32595513 -176.40708728 349.33209126 -180.243536 349.32760429 C-181.64549858 349.32842421 -183.04746968 349.33431881 -184.44938469 349.34589767 C-197.77829535 349.45051118 -206.8371387 347.54202207 -216.703125 338.4296875 C-223.42070583 331.42660948 -225.4367026 322.77560795 -225.546875 313.30078125 C-224.05703503 304.01119086 -219.63628183 296.06667463 -214.828125 288.11328125 C-213.57534059 286.00401329 -212.32274493 283.89463322 -211.0703125 281.78515625 C-210.4112793 280.68236328 -209.75224609 279.57957031 -209.07324219 278.44335938 C-206.95362263 274.89167391 -204.86080555 271.32461927 -202.7734375 267.75390625 C-202.41869858 267.14711029 -202.06395966 266.54031433 -201.69847107 265.91513062 C-200.97847958 264.68334188 -200.25854463 263.45152009 -199.53866577 262.21966553 C-193.70983204 252.25177157 -187.84718841 242.3038863 -181.96411133 232.36791992 C-178.95001913 227.27369925 -175.94893259 222.17206934 -172.9609375 217.0625 C-172.60955719 216.46171127 -172.25817688 215.86092255 -171.89614868 215.2419281 C-171.54096161 214.63462357 -171.18577454 214.02731903 -170.81982422 213.40161133 C-170.09344258 212.15965738 -169.36704275 210.91771407 -168.640625 209.67578125 C-168.28035217 209.05980072 -167.92007935 208.44382019 -167.54888916 207.80917358 C-162.55301137 199.27153388 -157.49972374 190.77134151 -152.390625 182.30078125 C-146.68594989 172.84089202 -141.1357365 163.30062094 -135.64013672 153.71801758 C-130.74758927 145.20671824 -125.71472245 136.7867864 -120.640625 128.3828125 C-116.17530979 120.9685287 -111.82128003 113.49626721 -107.515625 105.98828125 C-102.00607769 96.38100813 -96.36481602 86.86350387 -90.640625 77.3828125 C-86.17530861 69.96852674 -81.82135502 62.49622607 -77.515625 54.98828125 C-70.71923836 43.13954718 -63.73277163 31.41207603 -56.66479492 19.72363281 C-54.54299088 16.20435931 -52.44290872 12.67225546 -50.34667969 9.13769531 C-45.43722116 1.20980227 -38.71340603 -4.28527209 -29.5 -6.66015625 C-18.56411821 -8.20768669 -8.9173854 -6.68803905 0 0 Z " fill="#1CE9B6" transform="translate(225.015625,89.01171875)"/>
<path d="M0 0 C5.99353299 6.00533128 10.11710312 13.36133307 14.296875 20.67578125 C15.53079942 22.81276024 16.76519562 24.94946686 18 27.0859375 C18.64646484 28.20758301 19.29292969 29.32922852 19.95898438 30.48486328 C23.09941482 35.92526008 26.28012515 41.34211594 29.45932007 46.75991821 C30.55188262 48.62181502 31.64378567 50.48409738 32.7355957 52.34643555 C37.48311105 60.4421838 42.25102391 68.52571903 47.03149414 76.60205078 C51.90739117 84.84497991 56.7480556 93.10843321 61.58789062 101.37255859 C66.71777465 110.13117497 71.86725389 118.8778876 77.0378418 127.61254883 C81.47929824 135.12090457 85.88948967 142.64740505 90.296875 150.17578125 C95.83179777 159.62982647 101.39202259 169.06805288 106.984375 178.48828125 C112.94197727 188.52376718 118.86027691 198.58140229 124.7562561 208.65316772 C129.37693794 216.54633608 134.01226054 224.43050879 138.671875 232.30078125 C140.77768512 235.86231237 142.88159434 239.42496072 144.984375 242.98828125 C145.60570312 244.04080078 146.22703125 245.09332031 146.8671875 246.17773438 C148.80603812 249.46644215 150.73960434 252.75820396 152.671875 256.05078125 C153.57329224 257.57795776 153.57329224 257.57795776 154.49291992 259.13598633 C155.05084229 260.08884521 155.60876465 261.0417041 156.18359375 262.0234375 C156.67690186 262.86269775 157.17020996 263.70195801 157.6784668 264.56665039 C162.49278616 273.49415716 162.81805897 285.29320259 160.14453125 295.0546875 C155.80047733 303.46489289 147.80389918 309.04316186 138.984375 311.98828125 C135.66772536 312.75152365 132.60731181 313.11242175 129.20707703 313.10853577 C127.80843163 313.11059776 127.80843163 313.11059776 126.38153076 313.11270142 C125.3709259 313.10910614 124.36032104 313.10551086 123.3190918 313.10180664 C122.2454689 313.10195267 121.17184601 313.10209869 120.06568909 313.10224915 C116.52163666 313.10155321 112.97763698 313.09377569 109.43359375 313.0859375 C106.97451303 313.08407219 104.51543193 313.08264882 102.05635071 313.08164978 C95.58730034 313.07783352 89.11827245 313.06801081 82.64923096 313.0569458 C76.04675602 313.04671255 69.44427745 313.04214805 62.84179688 313.03710938 C49.88931333 313.02638777 36.93684536 313.00951451 23.984375 312.98828125 C23.984375 312.65828125 23.984375 312.32828125 23.984375 311.98828125 C24.76941406 311.818125 25.55445313 311.64796875 26.36328125 311.47265625 C37.08826421 308.99867245 44.35253419 305.5903094 50.671875 296.17578125 C55.9861873 287.15147734 54.984375 279.88635649 54.984375 268.98828125 C71.814375 268.98828125 88.644375 268.98828125 105.984375 268.98828125 C92.83329548 245.94479677 79.63627962 222.93061695 66.2512207 200.02197266 C60.0849237 189.46181041 53.97932461 178.86685579 47.87548828 168.27050781 C44.74757352 162.84168183 41.61579052 157.41508844 38.484375 151.98828125 C37.23435621 149.82162542 35.98435622 147.65495875 34.734375 145.48828125 C34.115625 144.41578125 33.496875 143.34328125 32.859375 142.23828125 C27.234375 132.48828125 27.234375 132.48828125 25.35913086 129.23779297 C24.11001982 127.07271054 22.86083371 124.90767143 21.61157227 122.74267578 C18.47235191 117.30212419 15.33446937 111.86080909 12.19921875 106.41796875 C-4.06498459 77.99884047 -4.06498459 77.99884047 -21.015625 49.98828125 C-21.41241455 50.68163574 -21.8092041 51.37499023 -22.21801758 52.08935547 C-35.57779976 75.40873865 -35.57779976 75.40873865 -42.328125 86.61328125 C-42.77712158 87.3697998 -43.22611816 88.12631836 -43.6887207 88.90576172 C-44.7411273 90.6356384 -45.87013547 92.31858465 -47.015625 93.98828125 C-47.675625 93.98828125 -48.335625 93.98828125 -49.015625 93.98828125 C-50.35327148 92.08666992 -50.35327148 92.08666992 -51.88671875 89.40625 C-52.45632324 88.41947266 -53.02592773 87.43269531 -53.61279297 86.41601562 C-54.22010254 85.34673828 -54.82741211 84.27746094 -55.453125 83.17578125 C-56.0733252 82.09748047 -56.69352539 81.01917969 -57.33251953 79.90820312 C-58.60889064 77.6883704 -59.8823035 75.46683425 -61.15283203 73.24365234 C-63.39686317 69.32203882 -65.66191037 65.41289782 -67.92993164 61.50512695 C-69.96297437 58.00209545 -71.98924029 54.49516745 -74.015625 50.98828125 C-73.025625 50.49328125 -73.025625 50.49328125 -72.015625 49.98828125 C-71.32790865 48.33018944 -70.66606939 46.6613456 -70.015625 44.98828125 C-68.82642075 42.82114829 -67.59971706 40.67440388 -66.34765625 38.54296875 C-65.9897551 37.93244659 -65.63185394 37.32192444 -65.2631073 36.69290161 C-64.5057534 35.40269393 -63.74671099 34.11347609 -62.98608398 32.82519531 C-61.84529874 30.89237848 -60.71029597 28.95626245 -59.57617188 27.01953125 C-42.35724432 -2.30923295 -42.35724432 -2.30923295 -27.515625 -6.76171875 C-17.13823946 -7.7994573 -8.49191679 -6.36893759 0 0 Z " fill="#00BEA5" transform="translate(351.015625,125.01171875)"/>
</svg>
