<?xml version="1.0" encoding="UTF-8"?>
<svg version="1.1" xmlns="http://www.w3.org/2000/svg" width="494" height="505">
<path d="M0 0 C1.04873291 0.28883057 1.04873291 0.28883057 2.11865234 0.58349609 C26.08828547 7.31704476 45.6334153 18.7734525 65.34692383 33.80078125 C66.99721924 35.06661787 66.99721924 35.06661787 69 36 C69 36.66 69 37.32 69 38 C69.66 38 70.32 38 71 38 C71 38.66 71 39.32 71 40 C72.0828125 40.37125 72.0828125 40.37125 73.1875 40.75 C76.27606582 42.12269592 78.51011418 43.72353296 81 46 C81 46.66 81 47.32 81 48 C81.54140625 48.2371875 82.0828125 48.474375 82.640625 48.71875 C85.63250137 50.34347757 88.11159399 52.3501877 90.75 54.5 C91.73484375 55.2940625 92.7196875 56.088125 93.734375 56.90625 C94.48203125 57.5971875 95.2296875 58.288125 96 59 C96 59.66 96 60.32 96 61 C96.66 61 97.32 61 98 61 C98 61.66 98 62.32 98 63 C98.66 63 99.32 63 100 63 C100 63.66 100 64.32 100 65 C100.66 65 101.32 65 102 65 C102 65.66 102 66.32 102 67 C102.66 67 103.32 67 104 67 C104 67.66 104 68.32 104 69 C104.55719727 69.23267578 105.11439453 69.46535156 105.68847656 69.70507812 C108.59923645 71.33569393 110.62181133 73.36239194 112.984375 75.71875 C114.38623047 77.11673828 114.38623047 77.11673828 115.81640625 78.54296875 C116.2973877 79.02813965 116.77836914 79.51331055 117.27392578 80.01318359 C118.75204848 81.50206339 120.24059911 82.97991651 121.73046875 84.45703125 C122.65988281 85.38902344 123.58929688 86.32101563 124.546875 87.28125 C125.40120117 88.13783203 126.25552734 88.99441406 127.13574219 89.87695312 C129 92 129 92 129 94 C129.66 94 130.32 94 131 94 C131 94.66 131 95.32 131 96 C131.66 96 132.32 96 133 96 C134.69921875 97.87109375 134.69921875 97.87109375 136.6875 100.4375 C137.39648438 101.34757812 138.10546875 102.25765625 138.8359375 103.1953125 C139.55007813 104.12085938 140.26421875 105.04640625 141 106 C141.65226562 106.82242188 142.30453125 107.64484375 142.9765625 108.4921875 C145.92747936 112.22164413 148.61127942 115.88049429 151 120 C151.32943604 120.56726807 151.65887207 121.13453613 151.99829102 121.71899414 C162.71333915 140.26528733 170.7103609 158.35248656 172 180 C172.05414063 180.81597656 172.10828125 181.63195312 172.1640625 182.47265625 C172.62690034 196.08429643 169.36360784 209.51628419 165.625 222.5 C165.34519287 223.47799561 165.06538574 224.45599121 164.77709961 225.46362305 C161.98295584 234.78823805 157.99613745 243.42275236 153.3125 251.9375 C151.48728647 255.26821116 149.66903243 258.58793864 148 262 C147.34 262 146.68 262 146 262 C145.76023437 262.70253906 145.52046875 263.40507812 145.2734375 264.12890625 C143.78632548 267.48175084 141.87029898 270.03949783 139.625 272.9375 C137.24162748 276.0263189 134.92260896 279.08451808 132.8359375 282.37890625 C132.23007812 283.24386719 131.62421875 284.10882813 131 285 C130.34 285 129.68 285 129 285 C128.71125 285.598125 128.4225 286.19625 128.125 286.8125 C127 289 127 289 125 292 C124.34 292 123.68 292 123 292 C122.76023437 292.54785156 122.52046875 293.09570312 122.2734375 293.66015625 C120.69518217 296.5600794 118.74058323 298.90372008 116.625 301.4375 C113.16848989 305.59304186 113.16848989 305.59304186 109.8359375 309.84765625 C109.23007812 310.55792969 108.62421875 311.26820313 108 312 C107.34 312 106.68 312 106 312 C106 312.66 106 313.32 106 314 C105.34 314 104.68 314 104 314 C103.75894531 314.56847656 103.51789063 315.13695312 103.26953125 315.72265625 C101.75031912 318.44788908 99.92581019 320.26690339 97.6875 322.4375 C96.88183594 323.22511719 96.07617188 324.01273437 95.24609375 324.82421875 C94.13427734 325.90123047 94.13427734 325.90123047 93 327 C92.0925 327.9075 91.185 328.815 90.25 329.75 C87.83333333 332.16666667 85.41666667 334.58333333 83 337 C82.31679688 337.69480469 81.63359375 338.38960938 80.9296875 339.10546875 C76.45426502 343.63398946 71.92217594 347.96160627 67 352 C66.071875 352.78375 65.14375 353.5675 64.1875 354.375 C62 356 62 356 60 356 C60 356.66 60 357.32 60 358 C57.96582797 359.4699714 55.94372252 360.80866486 53.8125 362.125 C53.17900635 362.52243408 52.5455127 362.91986816 51.89282227 363.3293457 C50.57465522 364.15473696 49.25455302 364.97704507 47.93261719 365.79638672 C46.1559872 366.90285284 44.39269043 368.02730698 42.6328125 369.16015625 C17.32400274 385.2179463 -11.42868163 391.77860381 -41.125 385.375 C-44.11051712 384.66697476 -47.05556466 383.86207398 -50 383 C-51.12341797 382.67854004 -51.12341797 382.67854004 -52.26953125 382.35058594 C-67.67221667 377.84392287 -83.8577304 371.36924807 -97 362 C-97 361.34 -97 360.68 -97 360 C-98.051875 359.62875 -98.051875 359.62875 -99.125 359.25 C-102.39514548 357.82819762 -105.141122 356.12753712 -108 354 C-108 353.34 -108 352.68 -108 352 C-109.03447266 351.67708984 -109.03447266 351.67708984 -110.08984375 351.34765625 C-113.84586565 349.6082904 -116.50363818 347.18783354 -119.5625 344.4375 C-125.12158979 339.53381637 -130.83241881 335.04373281 -136.8671875 330.7421875 C-137.57101563 330.16726563 -138.27484375 329.59234375 -139 329 C-139 328.34 -139 327.68 -139 327 C-139.66 327 -140.32 327 -141 327 C-141 326.34 -141 325.68 -141 325 C-141.66 325 -142.32 325 -143 325 C-143 324.34 -143 323.68 -143 323 C-144.32 322.34 -145.64 321.68 -147 321 C-147 320.34 -147 319.68 -147 319 C-147.53625 318.773125 -148.0725 318.54625 -148.625 318.3125 C-153.79977949 315.45275344 -157.90293435 311.20211862 -162 307 C-163.13501953 305.87464844 -163.13501953 305.87464844 -164.29296875 304.7265625 C-167.17156361 301.82719856 -169.9757017 298.87363509 -172.75 295.875 C-173.49056641 295.08802734 -173.49056641 295.08802734 -174.24609375 294.28515625 C-176.48308432 291.86430345 -177.94485592 290.16543223 -179 287 C-179.66 287 -180.32 287 -181 287 C-181 286.34 -181 285.68 -181 285 C-181.66 285 -182.32 285 -183 285 C-184.5078125 283.3203125 -184.5078125 283.3203125 -186.125 281.125 C-186.66382813 280.40570313 -187.20265625 279.68640625 -187.7578125 278.9453125 C-189 277 -189 277 -189 275 C-189.66 275 -190.32 275 -191 275 C-195.02123574 270.67215977 -197.95841014 265.51609664 -200.72265625 260.33203125 C-202.0394793 257.92792312 -203.47638955 255.63130126 -204.9375 253.3125 C-220.38833223 227.65379146 -223.64932564 199.01833156 -216.55224609 170.29516602 C-210.16874367 145.87524084 -199.49695986 122.38491686 -183 103 C-182.34 103 -181.68 103 -181 103 C-180.74347656 102.26007813 -180.48695313 101.52015625 -180.22265625 100.7578125 C-178.94425459 97.87426115 -177.58890656 96.16114111 -175.4375 93.875 C-172.29979379 90.45826002 -169.29904099 86.97686437 -166.375 83.375 C-165.62863281 82.45847656 -164.88226563 81.54195313 -164.11328125 80.59765625 C-162.79785658 78.98072944 -161.48270334 77.36358172 -160.16796875 75.74609375 C-158.82297318 74.12620858 -157.41801892 72.55636223 -156 71 C-155.34 71 -154.68 71 -154 71 C-153.59466286 70.10766914 -153.59466286 70.10766914 -153.18113708 69.1973114 C-152.00819207 67.01523999 -150.84237605 65.58898479 -149.10180664 63.84301758 C-148.516819 63.25172562 -147.93183136 62.66043365 -147.32911682 62.05122375 C-146.69585983 61.42201523 -146.06260284 60.7928067 -145.41015625 60.14453125 C-144.75099716 59.48345871 -144.09183807 58.82238617 -143.41270447 58.14128113 C-142.01384255 56.74105868 -140.61245359 55.34335692 -139.20874023 53.94799805 C-137.09456872 51.84440822 -134.99111666 49.73053664 -132.88867188 47.61523438 C-117.47727632 32.18650342 -117.47727632 32.18650342 -110 27 C-109.34 27 -108.68 27 -108 27 C-108 26.34 -108 25.68 -108 25 C-104.50344613 22.3979134 -101.10839064 20.45002023 -97 19 C-97 18.34 -97 17.68 -97 17 C-95.02 16.34 -93.04 15.68 -91 15 C-91 14.34 -91 13.68 -91 13 C-81.2283728 7.88575875 -71.58271242 3.23937058 -61 0 C-59.75476563 -0.39316406 -58.50953125 -0.78632812 -57.2265625 -1.19140625 C-38.52643905 -6.60720107 -18.56933284 -5.19907641 0 0 Z " fill="#3764AF" transform="translate(277,67)"/>
<path d="M0 0 C6.31292668 -0.10243299 12.62563476 -0.17189283 18.93920898 -0.21972656 C21.08154305 -0.2396927 23.22382368 -0.26687538 25.3659668 -0.30175781 C48.19603138 -0.6638862 48.19603138 -0.6638862 59 4 C59 4.66 59 5.32 59 6 C60.32 6.66 61.64 7.32 63 8 C63 8.66 63 9.32 63 10 C63.66 10 64.32 10 65 10 C69.39214124 18.6012766 69.57040106 29.32287554 67.015625 38.55859375 C64.93456653 43.70343275 62.49046249 48.66701208 59 53 C58.34 53 57.68 53 57 53 C56.7628125 53.58523438 56.525625 54.17046875 56.28125 54.7734375 C54.71538538 57.49460467 53.04593926 58.79611325 50.5 60.625 C49.7059375 61.21539062 48.911875 61.80578125 48.09375 62.4140625 C39.57162273 66.78272875 29.74029818 66.39351992 20.375 66.625 C18.43947266 66.68300781 18.43947266 66.68300781 16.46484375 66.7421875 C13.3100313 66.83566342 10.15521273 66.92142313 7 67 C5.38956424 72.27242665 4.28783875 77.50456853 3.375 82.9375 C2.92125 85.598125 2.4675 88.25875 2 91 C-4.6 91 -11.2 91 -18 91 C-18 86.38524284 -17.43432222 84.22011191 -16 80 C-15.49429114 77.2877662 -15.03534401 74.59274823 -14.62109375 71.8671875 C-13.03099512 61.89736349 -11.07141695 52.01755345 -9.0625 42.125 C-8.72432956 40.44927519 -8.38643858 38.77349397 -8.04882812 37.09765625 C-7.54460947 34.59521979 -7.03974234 32.09292644 -6.53237915 29.59112549 C-5.6385954 25.18270053 -4.7562792 20.77234458 -3.89013672 16.35839844 C-3.70897812 15.43920624 -3.52781952 14.52001404 -3.34117126 13.57296753 C-2.99289113 11.80351724 -2.64689953 10.03361457 -2.30348206 8.26321411 C-1.11172239 2.22344478 -1.11172239 2.22344478 0 0 Z " fill="#F8FBFC" transform="translate(306,222)"/>
<path d="M0 0 C6.34961125 -0.07664932 12.69910128 -0.12884898 19.04907227 -0.16479492 C21.2050421 -0.17979494 23.36098187 -0.20020161 25.5168457 -0.22631836 C28.63240012 -0.2630907 31.74754788 -0.27981469 34.86328125 -0.29296875 C35.81270096 -0.30845261 36.76212067 -0.32393646 37.74031067 -0.33988953 C45.50731596 -0.34180226 53.28367241 0.62787601 59.9375 4.875 C65.4754287 10.58074472 68.28600345 14.50672871 68.25 22.5625 C68.04146232 33.74243664 66.55918543 41.79191276 60 51 C59.319375 51.97453125 59.319375 51.97453125 58.625 52.96875 C53.09845869 60.12813307 44.94273164 64.75046066 36 66 C30.8299391 66.23141342 25.67251541 66.18938312 20.5 66.125 C19.09115219 66.11495069 17.68229745 66.10582829 16.2734375 66.09765625 C12.8487795 66.07419969 9.42448061 66.04137384 6 66 C5.94521484 66.78866455 5.89042969 67.5773291 5.83398438 68.38989258 C5.41559814 73.94924225 4.94320834 79.28268478 3.5 84.6875 C3.2421875 85.68136719 2.984375 86.67523438 2.71875 87.69921875 C2 90 2 90 1 91 C-0.41570123 91.08651611 -1.835595 91.10704904 -3.25390625 91.09765625 C-4.10791016 91.09443359 -4.96191406 91.09121094 -5.84179688 91.08789062 C-6.73962891 91.07951172 -7.63746094 91.07113281 -8.5625 91.0625 C-9.46419922 91.05798828 -10.36589844 91.05347656 -11.29492188 91.04882812 C-13.53001314 91.03700225 -15.76497437 91.0205222 -18 91 C-16.11728947 77.59440371 -13.72147604 64.34530528 -10.90722656 51.10449219 C-9.71681577 45.49052199 -8.57432269 39.87445273 -7.54272461 34.22900391 C-7.36362549 33.26655762 -7.18452637 32.30411133 -7 31.3125 C-6.86369171 30.5765712 -6.72738342 29.8406424 -6.58694458 29.08241272 C-5.36645355 22.6254039 -3.92208091 16.24139375 -2.375 9.85546875 C-2.14554688 8.90039429 -1.91609375 7.94531982 -1.6796875 6.96130371 C-1.12179381 4.6403788 -0.56187542 2.31996356 0 0 Z " fill="#F8FAFC" transform="translate(146,222)"/>
<path d="M0 0 C6.6 0 13.2 0 20 0 C19.42198589 8.55460878 17.93769165 16.65208316 16 25 C17.04172363 24.97643433 17.04172363 24.97643433 18.10449219 24.95239258 C21.31957509 24.88916866 24.53452652 24.85073609 27.75 24.8125 C28.84183594 24.78736328 29.93367188 24.76222656 31.05859375 24.73632812 C39.76763702 24.65902892 48.45683461 25.36496407 56.125 29.8125 C60.1944871 34.56023495 60.37268552 39.6613579 60.2578125 45.67578125 C59.50503366 55.38206598 57.43531592 64.8991098 54.69140625 74.22265625 C53.54429432 78.83054653 53.01175318 83.51897865 52.4296875 88.2265625 C52 91 52 91 51 92 C49.5112814 92.08669432 48.018555 92.10703494 46.52734375 92.09765625 C45.62822266 92.09443359 44.72910156 92.09121094 43.80273438 92.08789062 C42.38444336 92.07532227 42.38444336 92.07532227 40.9375 92.0625 C39.98810547 92.05798828 39.03871094 92.05347656 38.06054688 92.04882812 C35.70696935 92.0370011 33.35351523 92.02052025 31 92 C31.48226323 86.94148566 32.08119066 82.09972916 33.4375 77.1875 C34.7837595 72.05201253 35.75688342 66.93588319 36.5703125 61.69140625 C36.85103134 59.9330855 37.1711489 58.1804841 37.53515625 56.4375 C37.98631545 54.07175765 38.2330089 51.84315167 38.3125 49.4375 C38.34988281 48.69371094 38.38726562 47.94992188 38.42578125 47.18359375 C38.10862275 44.89105426 38.10862275 44.89105426 36.65234375 42.76953125 C32.46523711 39.9760713 28.17731269 40.32217102 23.25 40.25 C22.26644531 40.22035156 21.28289062 40.19070312 20.26953125 40.16015625 C17.84627224 40.08957589 15.42396846 40.03682299 13 40 C11.76377969 46.03402976 10.61879641 52.07728268 9.55395508 58.14379883 C6.84469668 73.5447148 6.84469668 73.5447148 4.61328125 80.48828125 C3.69419483 84.25243773 3.42789322 88.14896101 3 92 C-3.6 92 -10.2 92 -17 92 C-14.65781905 75.60473334 -11.74373074 59.33963194 -8.4375 43.11328125 C-6.63096083 34.23242814 -4.91262973 25.33444495 -3.1875 16.4375 C-2.87005087 14.80175489 -2.55258702 13.16601263 -2.23510742 11.53027344 C-1.48926302 7.68700498 -0.74466432 3.84349796 0 0 Z " fill="#F7FAFC" transform="translate(233,197)"/>
<path d="M0 0 C3.49971199 -0.1173794 6.99890955 -0.18763961 10.5 -0.25 C11.48226562 -0.28351563 12.46453125 -0.31703125 13.4765625 -0.3515625 C19.76271614 -0.43537788 24.85517113 0.12996713 30 4 C33.24422164 8.86633246 32.55392657 14.04428246 31.5 19.66796875 C29.60284605 26.79307535 26.88066947 30.82480061 20.9375 35.3125 C16.8377859 37.66765491 13.70701736 38.1262623 9.015625 38.09765625 C8.08105469 38.09443359 7.14648438 38.09121094 6.18359375 38.08789062 C5.21550781 38.07951172 4.24742187 38.07113281 3.25 38.0625 C1.77466797 38.05573242 1.77466797 38.05573242 0.26953125 38.04882812 C-2.15370791 38.03706483 -4.57682273 38.02062684 -7 38 C-6.1924523 30.06763272 -4.52744974 22.3040415 -2.9375 14.5 C-2.65272536 13.09120027 -2.36821787 11.68234651 -2.08398438 10.2734375 C-1.39240374 6.84832956 -0.69720395 3.42396827 0 0 Z " fill="#3C67AF" transform="translate(162,236)"/>
<path d="M0 0 C3.49971199 -0.1173794 6.99890955 -0.18763961 10.5 -0.25 C11.48226563 -0.28351563 12.46453125 -0.31703125 13.4765625 -0.3515625 C20.13236365 -0.44030652 24.33875497 0.42865384 30 4 C33.44698235 10.8939647 30.65126971 20.97527746 28.36328125 27.9375 C26.19010762 32.856293 22.56059896 35.10222912 17.703125 37.1328125 C9.65460284 39.01759301 1.21053935 38.37159522 -7 38 C-6.39249758 30.0480654 -5.03757447 22.31966445 -3.5 14.5 C-3.27441406 13.32179687 -3.04882812 12.14359375 -2.81640625 10.9296875 C-1.13375235 2.2675047 -1.13375235 2.2675047 0 0 Z " fill="#3865AE" transform="translate(322,236)"/>
<path d="M0 0 C1.38244101 3.81436064 0.64547415 6.76444499 -0.1796875 10.671875 C-0.31190704 11.31312317 -0.44412659 11.95437134 -0.58035278 12.61505127 C-1.00371435 14.66184271 -1.43870669 16.70592968 -1.875 18.75 C-4.35677324 30.30486305 -4.35677324 30.30486305 -6 42 C-9.24271506 41.4409112 -10.93057424 40.5867822 -13 38 C-13 37.34 -13 36.68 -13 36 C-19.6 36 -26.2 36 -33 36 C-33 35.67 -33 35.34 -33 35 C-26.73 34.67 -20.46 34.34 -14 34 C-13.5875 31.133125 -13.175 28.26625 -12.75 25.3125 C-11.53133962 17.24278541 -9.72632345 9.70843736 -7 2 C-6.67 3.32 -6.34 4.64 -6 6 C-5.34 6 -4.68 6 -4 6 C-3.67 4.68 -3.34 3.36 -3 2 C-2.34 2 -1.68 2 -1 2 C-0.67 1.34 -0.34 0.68 0 0 Z " fill="#3E68AB" transform="translate(298,254)"/>
<path d="M0 0 C3.54150893 -0.08761663 7.08273633 -0.14059739 10.625 -0.1875 C11.62402344 -0.21263672 12.62304688 -0.23777344 13.65234375 -0.26367188 C19.30805032 -0.31985439 23.21096571 -0.11368953 28 3 C25 4 25 4 21.75 3.0625 C15.35925137 1.27260988 8.57793233 1.84582971 2 2 C2.226875 2.598125 2.45375 3.19625 2.6875 3.8125 C2.790625 4.534375 2.89375 5.25625 3 6 C2.01111009 7.01098801 1.00980321 8.00990027 0 9 C-0.53916077 11.46976772 -0.53916077 11.46976772 -0.625 14.125 C-0.91666667 18.91666667 -0.91666667 18.91666667 -2 20 C-2.144375 21.155 -2.28875 22.31 -2.4375 23.5 C-2.623125 24.655 -2.80875 25.81 -3 27 C-3.66 27.33 -4.32 27.66 -5 28 C-3.76595745 7.53191489 -3.76595745 7.53191489 0 0 Z " fill="#5978AE" transform="translate(322,236)"/>
<path d="M0 0 C0.33 0 0.66 0 1 0 C1.33 3.63 1.66 7.26 2 11 C2.99 11.33 3.98 11.66 5 12 C5.33 15.3 5.66 18.6 6 22 C1.25 20.8125 1.25 20.8125 -1 18 C-1 17.34 -1 16.68 -1 16 C-7.6 16 -14.2 16 -21 16 C-21 15.67 -21 15.34 -21 15 C-14.73 14.67 -8.46 14.34 -2 14 C-1.34 9.38 -0.68 4.76 0 0 Z " fill="#5176B3" transform="translate(286,274)"/>
<path d="M0 0 C2.25574377 3.38361566 3.11222106 6.61097894 4.0625 10.5 C4.2387793 11.21760498 4.41505859 11.93520996 4.59667969 12.67456055 C5.96238868 18.44009856 6.79241997 24.07043133 7 30 C7.03996094 30.87785156 7.07992188 31.75570312 7.12109375 32.66015625 C7.29868253 39.92040344 6.2706351 46.86402249 5 54 C4.67 54 4.34 54 4 54 C4.02094727 53.18547363 4.04189453 52.37094727 4.06347656 51.53173828 C4.59770543 30.29576142 4.59770543 30.29576142 0.875 9.46875 C0.03777266 6.1497416 -0.16806739 3.40336474 0 0 Z " fill="#778FBD" transform="translate(442,217)"/>
<path d="M0 0 C26.9576474 -0.61916858 26.9576474 -0.61916858 39 3 C39 3.33 39 3.66 39 4 C37.41676312 4.027193 35.83338938 4.04648306 34.25 4.0625 C32.92742187 4.07990234 32.92742187 4.07990234 31.578125 4.09765625 C29 4 29 4 27.19140625 3.51367188 C24.55449438 2.89557221 22.0659394 2.78437008 19.359375 2.68359375 C18.28945312 2.64169922 17.21953125 2.59980469 16.1171875 2.55664062 C15.00601563 2.51732422 13.89484375 2.47800781 12.75 2.4375 C11.06003906 2.37272461 11.06003906 2.37272461 9.3359375 2.30664062 C6.55741046 2.20067985 3.77879609 2.09860858 1 2 C0.67 1.34 0.34 0.68 0 0 Z " fill="#6B87B8" transform="translate(233,63)"/>
<path d="M0 0 C3.41637953 -0.11632513 6.83224897 -0.18728897 10.25 -0.25 C11.70212891 -0.30027344 11.70212891 -0.30027344 13.18359375 -0.3515625 C20.4019949 -0.45112665 20.4019949 -0.45112665 23.671875 2.015625 C24.32929688 2.99789062 24.32929688 2.99789062 25 4 C23.68 4 22.36 4 21 4 C21 3.34 21 2.68 21 2 C15.06 2.33 9.12 2.66 3 3 C2.34 5.31 1.68 7.62 1 10 C-1.56687367 6.1496895 -0.83288724 4.41430237 0 0 Z " fill="#4B6FA7" transform="translate(246,237)"/>
<path d="M0 0 C0.99 1.32 1.98 2.64 3 4 C2.01 4.495 2.01 4.495 1 5 C0.3268065 6.66404108 -0.33861219 8.33123147 -1 10 C-2.1392389 11.80226016 -3.32858753 13.57368806 -4.5625 15.3125 C-5.18253906 16.19550781 -5.80257813 17.07851563 -6.44140625 17.98828125 C-7.21291016 18.98408203 -7.21291016 18.98408203 -8 20 C-8.33 20 -8.66 20 -9 20 C-9.33 17.69 -9.66 15.38 -10 13 C-9.01 13.33 -8.02 13.66 -7 14 C-6.67 13.34 -6.34 12.68 -6 12 C-5.34 12 -4.68 12 -4 12 C-4 11.01 -4 10.02 -4 9 C-3.34 9 -2.68 9 -2 9 C-2 8.34 -2 7.68 -2 7 C-2.66 7 -3.32 7 -4 7 C-4 6.34 -4 5.68 -4 5 C-3.34 5 -2.68 5 -2 5 C-1.855625 4.360625 -1.71125 3.72125 -1.5625 3.0625 C-1 1 -1 1 0 0 Z " fill="#4B70B1" transform="translate(422,324)"/>
<path d="M0 0 C0.66 0.66 1.32 1.32 2 2 C1.60467975 4.45098556 0.78698574 6.63904279 0 9 C5.94 8.67 11.88 8.34 18 8 C18 8.99 18 9.98 18 11 C11.4 11 4.8 11 -2 11 C-2 6.54610667 -1.51059728 4.0597302 0 0 Z " fill="#D4E5F9" transform="translate(290,302)"/>
<path d="M0 0 C6.6 0 13.2 0 20 0 C20 1.98 20 3.96 20 6 C19.67 6 19.34 6 19 6 C19 4.35 19 2.7 19 1 C17.10333474 1.08772455 15.20761007 1.19591301 13.3125 1.3125 C12.25675781 1.37050781 11.20101562 1.42851562 10.11328125 1.48828125 C6.65401547 2.05686822 4.73103184 2.80748148 2 5 C0.76984757 7.46038085 0.76984757 7.46038085 0.1875 10.1875 C-0.04582031 11.08855469 -0.27914062 11.98960937 -0.51953125 12.91796875 C-0.67808594 13.60503906 -0.83664063 14.29210937 -1 15 C-2.74087818 9.88693122 -1.04405628 5.15886631 0 0 Z " fill="#C3D5EC" transform="translate(233,197)"/>
<path d="M0 0 C0.33 0.66 0.66 1.32 1 2 C0.01667938 4.37066422 -1.02073565 6.59714197 -2.1875 8.875 C-2.49236328 9.50019531 -2.79722656 10.12539063 -3.11132812 10.76953125 C-4.96830344 14.45233765 -6.90573652 17.26936393 -10 20 C-10.55981122 16.16129451 -10.80154437 14.10777542 -8.4765625 10.89453125 C-7.2244664 9.53255733 -5.94239163 8.19740261 -4.62890625 6.89453125 C-2.88186845 4.86260479 -2.56484849 3.5610121 -2 1 C-1.34 0.67 -0.68 0.34 0 0 Z " fill="#4C6FAF" transform="translate(435,306)"/>
<path d="M0 0 C0.66 0 1.32 0 2 0 C2.54928691 16.32602768 2.54928691 16.32602768 -2.125 23.0625 C-2.74375 23.701875 -3.3625 24.34125 -4 25 C-3.25 18.375 -3.25 18.375 -1 15 C-0.70008931 12.41114829 -0.49134775 9.90850918 -0.375 7.3125 C-0.33632813 6.61060547 -0.29765625 5.90871094 -0.2578125 5.18554688 C-0.1637666 3.45745345 -0.0808032 1.72876325 0 0 Z " fill="#5174AB" transform="translate(351,242)"/>
<path d="M0 0 C0.33 0.99 0.66 1.98 1 3 C-1.7979144 8.30188449 -5.78832735 12.15726947 -11 15 C-11.66 15 -12.32 15 -13 15 C-13 14.34 -13 13.68 -13 13 C-12.34 13 -11.68 13 -11 13 C-11.33 12.01 -11.66 11.02 -12 10 C-8.77208445 7.8480563 -7.71599191 7.79913557 -4 8 C-3.67 6.02 -3.34 4.04 -3 2 C-2.01 2 -1.02 2 0 2 C0 1.34 0 0.68 0 0 Z " fill="#5174AC" transform="translate(191,258)"/>
<path d="M0 0 C1.2684375 0.495 1.2684375 0.495 2.5625 1 C6.20989216 2.06105954 9.22274664 2.15109013 13 2 C13.33 2.99 13.66 3.98 14 5 C13.01 5 12.02 5 11 5 C11 5.66 11 6.32 11 7 C12.32 7 13.64 7 15 7 C14.67 7.99 14.34 8.98 14 10 C10.37 8.02 6.74 6.04 3 4 C3 3.34 3 2.68 3 2 C2.01 1.67 1.02 1.34 0 1 C0 0.67 0 0.34 0 0 Z " fill="#5E7DB4" transform="translate(177,425)"/>
<path d="M0 0 C0.33 1.32 0.66 2.64 1 4 C0.01 4.33 -0.98 4.66 -2 5 C-2.94775771 6.73210892 -3.89341131 8.46550738 -4.81640625 10.2109375 C-6.70323576 13.06297682 -9.05444329 14.32638823 -12 16 C-12.66 15.67 -13.32 15.34 -14 15 C-12.88200014 13.66079162 -11.75538103 12.32877444 -10.625 11 C-9.68527344 9.88625 -9.68527344 9.88625 -8.7265625 8.75 C-7.87191406 7.88375 -7.87191406 7.88375 -7 7 C-6.34 7 -5.68 7 -5 7 C-4.731875 6.401875 -4.46375 5.80375 -4.1875 5.1875 C-3.01506533 3.02775192 -1.80630718 1.64209744 0 0 Z " fill="#6F8BBB" transform="translate(128,131)"/>
<path d="M0 0 C0.33 0.66 0.66 1.32 1 2 C0.54625 2.556875 0.0925 3.11375 -0.375 3.6875 C-2.11050352 5.94954292 -2.11050352 5.94954292 -3 8.6875 C-3.33 9.450625 -3.66 10.21375 -4 11 C-4.99 11.33 -5.98 11.66 -7 12 C-7.33 12.66 -7.66 13.32 -8 14 C-8.99 15.485 -8.99 15.485 -10 17 C-10.66 17 -11.32 17 -12 17 C-10.64340201 13.00086217 -8.87434915 10.45013089 -6 7.375 C-3.75561506 4.95733534 -1.83557682 2.75336523 0 0 Z " fill="#7692BE" transform="translate(108,153)"/>
<path d="M0 0 C3.28323968 0.56607581 4.90789751 1.39336137 7 4 C7.35644531 6.00537109 7.35644531 6.00537109 7.328125 8.2734375 C7.32296875 9.0984375 7.3178125 9.9234375 7.3125 10.7734375 C7.291875 11.63195312 7.27125 12.49046875 7.25 13.375 C7.24484375 14.22578125 7.2396875 15.0765625 7.234375 15.953125 C7.18291355 20.08290643 7.0270669 23.97456039 6 28 C5.67 28 5.34 28 5 28 C5.01047363 27.42556152 5.02094727 26.85112305 5.03173828 26.25927734 C5.07357099 23.63123023 5.099412 21.00325346 5.125 18.375 C5.14175781 17.47136719 5.15851563 16.56773437 5.17578125 15.63671875 C5.21143206 10.75255752 5.19280727 6.48726785 3 2 C2.01 1.67 1.02 1.34 0 1 C0 0.67 0 0.34 0 0 Z " fill="#6A89B8" transform="translate(208,230)"/>
<path d="M0 0 C8 8 8 8 8 13 C6.35 12.67 4.7 12.34 3 12 C2.01 8.04 1.02 4.08 0 0 Z " fill="#6586BB" transform="translate(426,186)"/>
<path d="M0 0 C0.66 0 1.32 0 2 0 C2 0.99 2 1.98 2 3 C2.66 3 3.32 3 4 3 C5.125 8.75 5.125 8.75 4 11 C4.66 11 5.32 11 6 11 C6 13.31 6 15.62 6 18 C3.40052213 15.40052213 2.9315565 13.07261547 1.875 9.5625 C1.52179687 8.40878906 1.16859375 7.25507813 0.8046875 6.06640625 C0 3 0 3 0 0 Z " fill="#6687BA" transform="translate(59,285)"/>
<path d="M0 0 C0.33 0.66 0.66 1.32 1 2 C-0.25 4.4375 -0.25 4.4375 -2 7 C-2.391875 7.5775 -2.78375 8.155 -3.1875 8.75 C-6.19000331 10.82069194 -9.4066132 10.7054601 -13 11 C-10.34333967 8.81216208 -7.70512928 6.8092013 -4.8125 4.9375 C-1.82087525 3.13270458 -1.82087525 3.13270458 0 0 Z " fill="#5677B0" transform="translate(203,275)"/>
<path d="M0 0 C4.67623588 7.01435382 5.41199432 15.76011369 5 24 C4.67 24 4.34 24 4 24 C3.32533928 21.12666819 2.6600766 18.25168518 2 15.375 C1.80921875 14.56675781 1.6184375 13.75851563 1.421875 12.92578125 C0.42074457 8.52795831 -0.2353082 4.54438961 0 0 Z " fill="#5F80B2" transform="translate(442,217)"/>
<path d="M0 0 C6.59189297 -0.26905686 12.20906558 0.75707672 18 4 C18 4.66 18 5.32 18 6 C11.68878497 4.9007105 5.93661416 3.41862058 0 1 C0 0.67 0 0.34 0 0 Z " fill="#6F90BE" transform="translate(209,443)"/>
<path d="M0 0 C2 4 2 4 2 6 C1.34 6 0.68 6 0 6 C0.020625 6.804375 0.04125 7.60875 0.0625 8.4375 C0 11 0 11 -1 12 C-2.41570123 12.08651611 -3.835595 12.10704904 -5.25390625 12.09765625 C-6.10791016 12.09443359 -6.96191406 12.09121094 -7.84179688 12.08789062 C-8.73962891 12.07951172 -9.63746094 12.07113281 -10.5625 12.0625 C-11.46419922 12.05798828 -12.36589844 12.05347656 -13.29492188 12.04882812 C-15.53001314 12.03700225 -17.76497437 12.0205222 -20 12 C-20 11.67 -20 11.34 -20 11 C-14.06 10.67 -8.12 10.34 -2 10 C-1.34 6.7 -0.68 3.4 0 0 Z " fill="#5D7CAE" transform="translate(149,302)"/>
<path d="M0 0 C5.75 -0.125 5.75 -0.125 8 1 C8 1.66 8 2.32 8 3 C8.804375 3.12375 9.60875 3.2475 10.4375 3.375 C11.7059375 3.684375 11.7059375 3.684375 13 4 C13.33 4.66 13.66 5.32 14 6 C9.45319073 5.45438289 5.2274734 4.81177431 1 3 C0.67 2.01 0.34 1.02 0 0 Z " fill="#5C7AB0" transform="translate(351,220)"/>
<path d="M0 0 C0.33 0.66 0.66 1.32 1 2 C-0.42514969 5.94011972 -1.48607389 7.67486308 -5.0625 9.9375 C-6.031875 10.288125 -7.00125 10.63875 -8 11 C-8.66 10.67 -9.32 10.34 -10 10 C-6.7 6.7 -3.4 3.4 0 0 Z " fill="#5B7CAE" transform="translate(149,110)"/>
<path d="M0 0 C0.33 1.32 0.66 2.64 1 4 C-2.99613521 7.71069698 -5.37082652 9.59791618 -11 10 C-8.4177456 7.28308817 -5.61509336 5.27731006 -2.5234375 3.18359375 C-0.84949692 2.05894057 -0.84949692 2.05894057 0 0 Z " fill="#5778AF" transform="translate(363,275)"/>
<path d="M0 0 C0.33 0 0.66 0 1 0 C1.02685938 2.14576637 1.04633088 4.29162645 1.0625 6.4375 C1.07410156 7.63246094 1.08570313 8.82742188 1.09765625 10.05859375 C1 13 1 13 0 14 C-0.36760731 16.32817964 -0.70241581 18.6618385 -1 21 C-1.66 21 -2.32 21 -3 21 C-2.29411026 13.94110263 -1.21786614 6.98795036 0 0 Z " fill="#5B7AB0" transform="translate(242,252)"/>
<path d="M0 0 C2.375 0.1875 2.375 0.1875 5 1 C7.24878527 5.07212468 7.21059813 8.73300019 7.125 13.3125 C7.10695313 14.56675781 7.08890625 15.82101563 7.0703125 17.11328125 C7.04710937 18.06589844 7.02390625 19.01851562 7 20 C6.67 20 6.34 20 6 20 C5.85304688 18.46279297 5.85304688 18.46279297 5.703125 16.89453125 C5.55297049 15.53375598 5.40187913 14.17308386 5.25 12.8125 C5.1571875 11.80219727 5.1571875 11.80219727 5.0625 10.77148438 C4.51044531 6.05601722 3.26873438 3.42154107 0 0 Z " fill="#6485B5" transform="translate(287,226)"/>
<path d="M0 0 C3.49623553 1.35824977 6.88317997 2.84683088 10.25 4.5 C11.55710937 5.13421875 11.55710937 5.13421875 12.890625 5.78125 C15 7 15 7 16 9 C11.545 8.01 11.545 8.01 7 7 C7 6.01 7 5.02 7 4 C4.03 3.505 4.03 3.505 1 3 C0.67 2.01 0.34 1.02 0 0 Z " fill="#7F99C6" transform="translate(304,77)"/>
<path d="M0 0 C1.39859201 4.89507202 1.0592882 8.36660155 -1 13 C-1.99 12.01 -2.98 11.02 -4 10 C-2.66666667 6.66666667 -1.33333333 3.33333333 0 0 Z " fill="#587ABA" transform="translate(212,260)"/>
<path d="M0 0 C0.33 1.32 0.66 2.64 1 4 C0.360625 4.433125 -0.27875 4.86625 -0.9375 5.3125 C-3.26746003 6.91239177 -3.26746003 6.91239177 -4 10 C-4.99 10.495 -4.99 10.495 -6 11 C-6.33 11.99 -6.66 12.98 -7 14 C-7.66 14 -8.32 14 -9 14 C-7.65070536 10.16336928 -5.92248975 7.34827431 -3.375 4.1875 C-2.42753906 3.00220703 -2.42753906 3.00220703 -1.4609375 1.79296875 C-0.97882813 1.20128906 -0.49671875 0.60960937 0 0 Z " fill="#859CC6" transform="translate(93,172)"/>
<path d="M0 0 C-0.33 1.32 -0.66 2.64 -1 4 C-2.65 4.33 -4.3 4.66 -6 5 C-6 5.66 -6 6.32 -6 7 C-7.65 7.33 -9.3 7.66 -11 8 C-9.37660195 6.29115995 -7.70680947 4.62553283 -6 3 C-5.34 3 -4.68 3 -4 3 C-4 2.34 -4 1.68 -4 1 C-2 0 -2 0 0 0 Z " fill="#6E8DBD" transform="translate(184,83)"/>
<path d="M0 0 C0.33 0 0.66 0 1 0 C1.0272415 1.41655793 1.04650467 2.83327045 1.0625 4.25 C1.07410156 5.03890625 1.08570313 5.8278125 1.09765625 6.640625 C1.00385306 8.90691002 0.63241063 10.8288895 0 13 C-0.66 13 -1.32 13 -2 13 C-2.33 13.99 -2.66 14.98 -3 16 C-2.52013969 10.43109483 -1.70084819 5.32932432 0 0 Z " fill="#6C8ABC" transform="translate(290,258)"/>
<path d="M0 0 C0.98908078 3.07714019 1.10785845 4.95338928 0 8 C-1.4375 10.75 -1.4375 10.75 -3 13 C-3.66 13 -4.32 13 -5 13 C-3.78184562 8.31479085 -2.30440013 4.29456388 0 0 Z " fill="#6A89B8" transform="translate(74,200)"/>
<path d="M0 0 C0.66 0 1.32 0 2 0 C0.55007731 4.10811428 -1.45407573 7.46855666 -4 11 C-4.33 11 -4.66 11 -5 11 C-5.33 8.69 -5.66 6.38 -6 4 C-5.01 4.33 -4.02 4.66 -3 5 C-2.67 4.34 -2.34 3.68 -2 3 C-1.34 3 -0.68 3 0 3 C0 2.01 0 1.02 0 0 Z " fill="#5E7DB2" transform="translate(418,333)"/>
<path d="M0 0 C0.66 0 1.32 0 2 0 C1.34 5.28 0.68 10.56 0 16 C-0.33 16 -0.66 16 -1 16 C-1.02701408 13.89590361 -1.04640223 11.79170822 -1.0625 9.6875 C-1.07410156 8.51574219 -1.08570313 7.34398437 -1.09765625 6.13671875 C-1 3 -1 3 0 0 Z " fill="#5A78AF" transform="translate(231,198)"/>
<path d="M0 0 C1.33855056 0.78281305 2.67073644 1.57651877 4 2.375 C5.11375 3.03628906 5.11375 3.03628906 6.25 3.7109375 C6.8275 4.13632813 7.405 4.56171875 8 5 C8 5.66 8 6.32 8 7 C8.66 7 9.32 7 10 7 C9.67 7.66 9.34 8.32 9 9 C8.01 8.67 7.02 8.34 6 8 C6 7.34 6 6.68 6 6 C3.03 5.505 3.03 5.505 0 5 C0 3.35 0 1.7 0 0 Z " fill="#728DBB" transform="translate(338,98)"/>
<path d="M0 0 C-0.66 0 -1.32 0 -2 0 C-2 0.66 -2 1.32 -2 2 C-4.40545638 3.20272819 -5.94996953 3.10071472 -8.625 3.0625 C-9.85089844 3.04896484 -9.85089844 3.04896484 -11.1015625 3.03515625 C-12.04128906 3.01775391 -12.04128906 3.01775391 -13 3 C-9.54666565 -0.45333435 -4.63654999 -1.85462 0 0 Z " fill="#6E8ABC" transform="translate(220,68)"/>
<path d="M0 0 C0.33 0 0.66 0 1 0 C0.39174965 4.34464536 -0.26167392 8.67551867 -1 13 C-3.1202151 9.81967735 -3.2495865 9.45432601 -2.75 5.9375 C-2.66234375 5.24527344 -2.5746875 4.55304688 -2.484375 3.83984375 C-2 2 -2 2 0 0 Z " fill="#5375AF" transform="translate(143,230)"/>
<path d="M0 0 C2.875 -0.1875 2.875 -0.1875 6 0 C8 3 8 3 7.625 5.1875 C7.41875 5.785625 7.2125 6.38375 7 7 C5.83040013 6.02433888 4.66438823 5.044375 3.5 4.0625 C2.8503125 3.51722656 2.200625 2.97195313 1.53125 2.41015625 C1.0259375 1.94480469 0.520625 1.47945313 0 1 C0 0.67 0 0.34 0 0 Z " fill="#6687B8" transform="translate(120,378)"/>
<path d="M0 0 C0.33 0 0.66 0 1 0 C0.42085333 6.01326751 -0.22337945 12.00892722 -1 18 C-1.33 18 -1.66 18 -2 18 C-2.054348 15.9377952 -2.09294961 13.87517184 -2.125 11.8125 C-2.14820313 10.66394531 -2.17140625 9.51539063 -2.1953125 8.33203125 C-2.00484152 5.08259628 -1.39360127 2.91339479 0 0 Z " fill="#5174AC" transform="translate(131,288)"/>
<path d="M0 0 C2.31 1.65 4.62 3.3 7 5 C6.360625 5.28875 5.72125 5.5775 5.0625 5.875 C2.84793921 6.82823451 2.84793921 6.82823451 2 9 C1.34 8.67 0.68 8.34 0 8 C0 5.36 0 2.72 0 0 Z " fill="#5C80B8" transform="translate(330,92)"/>
<path d="M0 0 C2.96404505 2.80804268 5.44499019 5.18315774 7 9 C3.34683329 7.75023244 2.21934164 7.32901247 0 4 C0 2.68 0 1.36 0 0 Z " fill="#6A86BC" transform="translate(416,172)"/>
<path d="M0 0 C0.99 0 1.98 0 3 0 C3 1.32 3 2.64 3 4 C3.66 4.33 4.32 4.66 5 5 C4.67 5.99 4.34 6.98 4 8 C2.35 6.68 0.7 5.36 -1 4 C-0.67 2.68 -0.34 1.36 0 0 Z " fill="#6383BB" transform="translate(114,368)"/>
<path d="M0 0 C1.875 0.125 1.875 0.125 4 1 C5.76708665 4.78661425 6.1914033 7.04865524 5 11 C4.16151196 9.54462432 3.32936066 8.08559627 2.5 6.625 C1.80390625 5.40683594 1.80390625 5.40683594 1.09375 4.1640625 C0 2 0 2 0 0 Z " fill="#6B8BB8" transform="translate(69,313)"/>
<path d="M0 0 C1.875 0.25 1.875 0.25 4 1 C5.25 3.0625 5.25 3.0625 6 5 C5.34 5 4.68 5 4 5 C3.67 5.66 3.34 6.32 3 7 C2.01 6.34 1.02 5.68 0 5 C-0.1875 2.375 -0.1875 2.375 0 0 Z " fill="#567AB8" transform="translate(400,156)"/>
<path d="M0 0 C0.33 0.66 0.66 1.32 1 2 C0.00390625 4.3828125 0.00390625 4.3828125 -1.4375 7.125 C-1.91058594 8.03507812 -2.38367188 8.94515625 -2.87109375 9.8828125 C-3.24363281 10.58148438 -3.61617188 11.28015625 -4 12 C-4.33 12 -4.66 12 -5 12 C-5.125 9.625 -5.125 9.625 -5 7 C-4.34 6.34 -3.68 5.68 -3 5 C-2.835 4.319375 -2.67 3.63875 -2.5 2.9375 C-2.335 2.298125 -2.17 1.65875 -2 1 C-1.34 0.67 -0.68 0.34 0 0 Z " fill="#6E8BBB" transform="translate(435,306)"/>
<path d="M0 0 C0.33 0 0.66 0 1 0 C0.88512252 1.58409994 0.75765492 3.16728963 0.625 4.75 C0.52058594 6.07257813 0.52058594 6.07257813 0.4140625 7.421875 C0.00149945 9.99066382 -0.71160957 11.75841015 -2 14 C-3.81975482 8.87160006 -1.8599099 4.82315618 0 0 Z " fill="#496CAA" transform="translate(222,248)"/>
<path d="M0 0 C0.66 0 1.32 0 2 0 C1.71572583 1.58467728 1.42225182 3.1677057 1.125 4.75 C0.88136719 6.07257813 0.88136719 6.07257813 0.6328125 7.421875 C0.03203736 9.86947744 -0.77997117 11.80599857 -2 14 C-1.85970581 11.8537974 -1.71261836 9.70803782 -1.5625 7.5625 C-1.48128906 6.36753906 -1.40007812 5.17257812 -1.31640625 3.94140625 C-1 1 -1 1 0 0 Z " fill="#7091BD" transform="translate(444,274)"/>
<path d="M0 0 C0 0.66 0 1.32 0 2 C-2.8125 3.5625 -2.8125 3.5625 -6 5 C-6.99 4.67 -7.98 4.34 -9 4 C-8.34 4 -7.68 4 -7 4 C-7 3.01 -7 2.02 -7 1 C-4.53721199 -0.231394 -2.7204945 -0.07159196 0 0 Z " fill="#5476AD" transform="translate(347,267)"/>
<path d="M0 0 C0.99 0 1.98 0 3 0 C2.44687265 4.02992782 1.8441938 8.02022924 1 12 C0.67 12 0.34 12 0 12 C0 8.04 0 4.08 0 0 Z " fill="#4A6DA6" transform="translate(268,252)"/>
<path d="M0 0 C0.33 0 0.66 0 1 0 C1 2.31 1 4.62 1 7 C0.34 7 -0.32 7 -1 7 C-1.33 8.32 -1.66 9.64 -2 11 C-2.95465783 8.83032311 -3.14401212 7.43671207 -2.3984375 5.17578125 C-1.64129615 3.4315257 -0.82390802 1.71372869 0 0 Z " fill="#6C89BA" transform="translate(68,214)"/>
<path d="M0 0 C-1.44253657 3.36591866 -3.33264727 5.51047079 -6 8 C-6.33 7.01 -6.66 6.02 -7 5 C-2.25 0 -2.25 0 0 0 Z " fill="#5A79B1" transform="translate(400,359)"/>
<path d="M0 0 C-0.99 0.33 -1.98 0.66 -3 1 C-3 1.66 -3 2.32 -3 3 C-6.3 3 -9.6 3 -13 3 C-8.72352613 0.14901742 -5.0682068 -0.14480591 0 0 Z " fill="#6B87BB" transform="translate(233,64)"/>
<path d="M0 0 C2.15377564 2.62198774 3.40072174 4.64404172 4 8 C2.68 8.33 1.36 8.66 0 9 C0 6 0 3 0 0 Z " fill="#6386BB" transform="translate(436,203)"/>
<path d="M0 0 C3.8063457 0.67170806 7.35206816 1.72746564 11 3 C11 3.33 11 3.66 11 4 C6.78121808 4.19622241 3.82989106 3.80230168 0 2 C0 1.34 0 0.68 0 0 Z " fill="#6E91BE" transform="translate(288,71)"/>
<path d="M0 0 C0.66 0 1.32 0 2 0 C1.67 2.97 1.34 5.94 1 9 C-0.32 8.67 -1.64 8.34 -3 8 C-2.34 7.34 -1.68 6.68 -1 6 C-0.60235737 4.01178687 -0.26224651 2.01055661 0 0 Z " fill="#E6F5FD" transform="translate(147,303)"/>
<path d="M0 0 C0.66 0 1.32 0 2 0 C1.67 2.64 1.34 5.28 1 8 C0.34 7.67 -0.32 7.34 -1 7 C-1.04254356 5.00045254 -1.04080783 2.99958364 -1 1 C-0.67 0.67 -0.34 0.34 0 0 Z " fill="#5D7BAD" transform="translate(144,222)"/>
<path d="M0 0 C3.26460973 1.80412643 4.88929795 2.83394693 7 6 C5.35 6 3.7 6 2 6 C2 4.68 2 3.36 2 2 C1.34 2 0.68 2 0 2 C0 1.34 0 0.68 0 0 Z " fill="#768FC2" transform="translate(362,118)"/>
<path d="M0 0 C-2.31 1.32 -4.62 2.64 -7 4 C-7.33 2.68 -7.66 1.36 -8 0 C-4.71303767 -0.79953138 -3.28976808 -1.09658936 0 0 Z " fill="#6581B8" transform="translate(331,429)"/>
<path d="M0 0 C1.65 0.33 3.3 0.66 5 1 C3.35 2.65 1.7 4.3 0 6 C-1.125 2.25 -1.125 2.25 0 0 Z " fill="#6382B2" transform="translate(364,394)"/>
<path d="M0 0 C0.99 0 1.98 0 3 0 C2.34 1.65 1.68 3.3 1 5 C0.34 5 -0.32 5 -1 5 C-1.33 5.66 -1.66 6.32 -2 7 C-2.125 4.625 -2.125 4.625 -2 2 C-1.34 1.34 -0.68 0.68 0 0 Z " fill="#668DC0" transform="translate(407,347)"/>
<path d="M0 0 C0.33 0.66 0.66 1.32 1 2 C1.66 2.33 2.32 2.66 3 3 C5 4 5 4 6 6 C3.03 5.505 3.03 5.505 0 5 C0 3.35 0 1.7 0 0 Z " fill="#627FB2" transform="translate(380,134)"/>
<path d="" fill="#FFFFFF" transform="translate(0,0)"/>
<path d="" fill="#FFFFFF" transform="translate(0,0)"/>
<path d="" fill="#FFFFFF" transform="translate(0,0)"/>
<path d="" fill="#FFFFFF" transform="translate(0,0)"/>
<path d="" fill="#FFFFFF" transform="translate(0,0)"/>
<path d="" fill="#FFFFFF" transform="translate(0,0)"/>
<path d="" fill="#FFFFFF" transform="translate(0,0)"/>
<path d="" fill="#FFFFFF" transform="translate(0,0)"/>
<path d="" fill="#FFFFFF" transform="translate(0,0)"/>
<path d="" fill="#FFFFFF" transform="translate(0,0)"/>
<path d="" fill="#FFFFFF" transform="translate(0,0)"/>
<path d="" fill="#FFFFFF" transform="translate(0,0)"/>
<path d="" fill="#FFFFFF" transform="translate(0,0)"/>
<path d="" fill="#FFFFFF" transform="translate(0,0)"/>
<path d="" fill="#FFFFFF" transform="translate(0,0)"/>
<path d="" fill="#FFFFFF" transform="translate(0,0)"/>
<path d="" fill="#FFFFFF" transform="translate(0,0)"/>
<path d="" fill="#FFFFFF" transform="translate(0,0)"/>
<path d="" fill="#FFFFFF" transform="translate(0,0)"/>
<path d="" fill="#FFFFFF" transform="translate(0,0)"/>
<path d="" fill="#FFFFFF" transform="translate(0,0)"/>
<path d="" fill="#FFFFFF" transform="translate(0,0)"/>
<path d="" fill="#FFFFFF" transform="translate(0,0)"/>
<path d="" fill="#FFFFFF" transform="translate(0,0)"/>
<path d="" fill="#FFFFFF" transform="translate(0,0)"/>
<path d="" fill="#FFFFFF" transform="translate(0,0)"/>
<path d="" fill="#FFFFFF" transform="translate(0,0)"/>
<path d="" fill="#FFFFFF" transform="translate(0,0)"/>
<path d="" fill="#FFFFFF" transform="translate(0,0)"/>
<path d="" fill="#FFFFFF" transform="translate(0,0)"/>
<path d="" fill="#FFFFFF" transform="translate(0,0)"/>
<path d="" fill="#FFFFFF" transform="translate(0,0)"/>
<path d="" fill="#FFFFFF" transform="translate(0,0)"/>
<path d="" fill="#FFFFFF" transform="translate(0,0)"/>
</svg>
