<?xml version="1.0" encoding="UTF-8"?>
<svg version="1.1" xmlns="http://www.w3.org/2000/svg" width="500" height="500">
<path d="M0 0 C2.01876812 0.28582049 4.03966929 0.55701227 6.0625 0.8125 C20.3026112 3.12170722 31.18079507 10.01995726 39.98828125 21.16015625 C42.65956796 24.93107943 44.44072251 28.67264732 46 33 C46.50390259 34.15390228 47.00780518 35.30780457 47.52697754 36.49667358 C49.38455907 41.47706324 49.43634037 46.14786061 49.41992188 51.41650391 C49.42839142 52.4290625 49.43686096 53.44162109 49.44558716 54.48486328 C49.46888756 57.81555935 49.46998061 61.14579125 49.46875 64.4765625 C49.475858 66.80813783 49.48355793 69.13971143 49.49182129 71.47128296 C49.50525185 76.35509094 49.50684221 81.23873734 49.50097656 86.12255859 C49.49509553 92.34955292 49.52561357 98.57576353 49.56609344 104.80260658 C49.59208098 109.6190908 49.59483757 114.4353894 49.59120178 119.25193405 C49.59288407 121.54582048 49.60243969 123.83971632 49.62034607 126.13353348 C49.73635525 142.83722667 48.98593744 155.96509926 37.76953125 169.3046875 C36 171 36 171 34 171 C34 171.66 34 172.32 34 173 C17.23330707 186.91082765 -1.24810708 187.21297427 -21.92911148 186.98346901 C-24.51270559 186.95632315 -27.09620802 186.93877632 -29.67990112 186.92399597 C-37.01479131 186.88173326 -44.34949928 186.83361597 -51.68408203 186.75317383 C-56.20007462 186.70433518 -60.71582914 186.67557432 -65.23205185 186.65942955 C-66.93592016 186.64962191 -68.63976466 186.63255167 -70.34347916 186.60764503 C-79.38994018 186.47820617 -87.09581294 186.66295816 -95.62350464 190.13749695 C-98 191 -98 191 -102 191 C-102.33 191.66 -102.66 192.32 -103 193 C-105.93704456 195.0095568 -107.39222485 196 -111 196 C-111 196.66 -111 197.32 -111 198 C-112.2719019 199.03135308 -113.59546473 199.99922235 -114.9375 200.9375 C-128.14019134 210.98483115 -135.28302167 224.86275301 -138 241 C-138.34333276 245.55448057 -138.33044609 250.06789548 -138.2578125 254.6328125 C-138.25119598 255.87247772 -138.24457947 257.11214294 -138.23776245 258.38937378 C-138.21458483 262.30151574 -138.1708694 266.21306423 -138.125 270.125 C-138.08796441 274.07253704 -138.05917055 278.02011442 -138.03366089 281.96774292 C-138.01670535 284.41288419 -137.99358107 286.85799213 -137.96365356 289.30300903 C-137.95389496 290.40200531 -137.94413635 291.50100159 -137.93408203 292.63330078 C-137.92281281 293.60002716 -137.91154358 294.56675354 -137.89993286 295.56277466 C-138 298 -138 298 -139 301 C-145.74010698 301.12792274 -152.47989523 301.21481647 -159.22094727 301.2746582 C-161.50882668 301.29963329 -163.7966277 301.33362548 -166.08422852 301.37719727 C-182.70380523 301.68557186 -195.73157672 301.51423831 -208.86328125 290.07421875 C-229.00645132 270.52024561 -234.06118965 236.78543283 -235 210 C-235.04125 208.87464844 -235.0825 207.74929688 -235.125 206.58984375 C-235.35815656 193.8973834 -233.66516635 181.36763798 -231.5625 168.875 C-231.45252686 168.20106201 -231.34255371 167.52712402 -231.22924805 166.83276367 C-230.47796721 162.61773789 -229.29022222 158.80506132 -227.68676758 154.85766602 C-226.97751818 152.93918801 -226.53138595 151.06498911 -226.125 149.0625 C-223.06092456 136.63731218 -213.17859566 126.39674368 -202.75 119.5 C-192.11580282 113.3961231 -179.74318193 110.86937708 -167.53956604 110.87974548 C-166.28464859 110.87837082 -165.02973114 110.87699615 -163.73678589 110.87557983 C-162.3643186 110.87911802 -160.99185157 110.88275282 -159.61938477 110.88647461 C-158.16024274 110.88675697 -156.70110057 110.88659779 -155.24195862 110.8860321 C-151.29620543 110.88574605 -147.35048285 110.89161173 -143.40473676 110.89860606 C-139.27543625 110.90487158 -135.14613498 110.90544593 -131.01683044 110.90663147 C-123.20429444 110.90973537 -115.39177248 110.91793605 -107.57924265 110.92798096 C-98.68203267 110.93917136 -89.78482201 110.94465992 -80.88760674 110.94967639 C-62.59172965 110.96011946 -44.29586647 110.97790288 -26 111 C-26.33 105.06 -26.66 99.12 -27 93 C-57.69 93 -88.38 93 -120 93 C-121.12700535 81.72994652 -121.12700535 81.72994652 -121.1328125 77.328125 C-121.13514893 76.34497314 -121.13748535 75.36182129 -121.13989258 74.34887695 C-121.11370073 68.89882627 -121.06910681 63.44968144 -121 58 C-120.98912354 56.47850342 -120.98912354 56.47850342 -120.97802734 54.92626953 C-120.85156445 41.96060777 -120.65514097 28.86893526 -112.3125 18.125 C-110 16 -110 16 -108 16 C-108 15.34 -108 14.68 -108 14 C-107.34 14 -106.68 14 -106 14 C-106 13.34 -106 12.68 -106 12 C-76.20993597 -4.70309948 -32.61125966 -8.2776029 0 0 Z M-92 44 C-92 44.66 -92 45.32 -92 46 C-92.64066406 46.23332031 -93.28132812 46.46664062 -93.94140625 46.70703125 C-96.18945511 47.81550207 -96.18945511 47.81550207 -96.71484375 50.13671875 C-97.22787097 56.01403062 -97.05374401 59.87407256 -94 65 C-93.01 65.33 -92.02 65.66 -91 66 C-91 66.66 -91 67.32 -91 68 C-86.36464101 70.04964853 -83.26889052 71.3383708 -78.25 70 C-74.10604462 67.44987361 -71.1713934 64.91682557 -68.625 60.75 C-67.69774886 56.67009497 -67.85687868 53.03023543 -69 49 C-71.18802581 46.06145926 -71.18802581 46.06145926 -74 44 C-74.61230469 43.46890625 -75.22460938 42.9378125 -75.85546875 42.390625 C-78.43517204 40.71781194 -79.94913754 40.59709577 -83 40.625 C-83.845625 40.61726563 -84.69125 40.60953125 -85.5625 40.6015625 C-88.46840714 41.07656655 -89.87790253 41.98597231 -92 44 Z " fill="#0376BC" transform="translate(281,54)"/>
<path d="M0 0 C6.6710674 -0.07644383 13.34202063 -0.12876442 20.01342773 -0.16479492 C22.28007224 -0.17982508 24.54668794 -0.20025482 26.81323242 -0.22631836 C30.08259213 -0.26295588 33.35156527 -0.2797846 36.62109375 -0.29296875 C37.62458359 -0.30845261 38.62807343 -0.32393646 39.66197205 -0.33988953 C48.00181489 -0.34185737 54.84892094 1.45095357 62.0625 5.6875 C62.81660156 6.12449219 63.57070313 6.56148437 64.34765625 7.01171875 C64.89292969 7.33785156 65.43820312 7.66398438 66 8 C66 8.66 66 9.32 66 10 C66.58265625 10.08121094 67.1653125 10.16242188 67.765625 10.24609375 C74.72287168 12.59355635 78.97949445 22.26115083 82.1875 28.5 C95.17967295 55.20873526 99.44632873 90.99370991 94 120 C93.7021885 121.81713159 93.40827586 123.63490431 93.1171875 125.453125 C89.78135538 146.01401173 85.69052621 163.83773464 68.84375 177.78515625 C63.04816953 181.89035908 56.62946254 184.5307265 50 187 C49.09636719 187.35578125 48.19273437 187.7115625 47.26171875 188.078125 C38.21245224 190.635762 28.60104429 190.13901235 19.27880859 190.11352539 C17.81922406 190.11324278 16.35963938 190.1134027 14.90005493 190.1139679 C10.96687557 190.11425297 7.03372716 190.10840325 3.10055494 190.10139394 C-1.02072013 190.095112 -5.14199603 190.09455279 -9.26327515 190.09336853 C-17.05446171 190.09026942 -24.84563412 190.08207529 -32.63681448 190.07201904 C-41.512329 190.06081365 -50.38784423 190.05533633 -59.26336408 190.05032361 C-77.50891739 190.0398914 -95.75445755 190.02231963 -114 190 C-113.67 190.66 -113.34 191.32 -113 192 C-112.90284658 194.33168218 -112.87021783 196.66629957 -112.875 199 C-112.87113281 200.8871875 -112.87113281 200.8871875 -112.8671875 202.8125 C-113 206 -113 206 -114 208 C-112.82458145 207.99777939 -111.6491629 207.99555878 -110.43812561 207.99327087 C-99.38661323 207.97304098 -88.33510458 207.9580286 -77.28357792 207.94818783 C-71.60123488 207.94295861 -65.91890673 207.93586027 -60.23657227 207.92456055 C-54.75770864 207.91373304 -49.27885938 207.90772346 -43.79998589 207.90512276 C-41.70470389 207.90326826 -39.60942272 207.89964718 -37.5141468 207.89426994 C-34.59022416 207.88706132 -31.66636167 207.88600898 -28.74243164 207.88647461 C-27.8670575 207.88287933 -26.99168335 207.87928406 -26.08978271 207.87557983 C-20.11405216 207.88594784 -20.11405216 207.88594784 -19 209 C-18.89093146 210.5932847 -18.85094094 212.19136223 -18.83886719 213.78833008 C-18.82925964 214.8106221 -18.8196521 215.83291412 -18.80975342 216.88618469 C-18.8033786 218.56094124 -18.8033786 218.56094124 -18.796875 220.26953125 C-18.79117493 221.4160466 -18.78547485 222.56256195 -18.77960205 223.74382019 C-18.77012798 226.18263827 -18.76360858 228.62146928 -18.75976562 231.06030273 C-18.75014045 234.75853658 -18.71917327 238.45619556 -18.6875 242.15429688 C-18.68096205 244.52603837 -18.6757147 246.89778385 -18.671875 249.26953125 C-18.6533548 250.91088799 -18.6533548 250.91088799 -18.63446045 252.58540344 C-18.66949264 264.92349499 -21.16748321 276.38040407 -29.59375 285.77734375 C-51.23027133 305.83194961 -90.07456559 305.19305275 -117.75897217 304.313797 C-137.44675843 303.51821858 -156.90868219 300.6308677 -172 287 C-173.299375 285.8553125 -173.299375 285.8553125 -174.625 284.6875 C-184.98084824 272.96904015 -188.12184354 262.31903257 -188.19287109 246.86474609 C-188.20104858 245.87023437 -188.20922607 244.87572266 -188.21765137 243.85107422 C-188.24236696 240.57520123 -188.25898643 237.29937118 -188.2734375 234.0234375 C-188.28142302 232.33632597 -188.28142302 232.33632597 -188.28956985 230.61513138 C-188.31624217 224.66090834 -188.33563539 218.70670583 -188.35009766 212.75244141 C-188.36342596 207.8446993 -188.39126775 202.93737401 -188.43212891 198.02978516 C-188.4816336 192.08238446 -188.50624025 186.13536111 -188.51332474 180.18776321 C-188.52000569 177.93210346 -188.5351445 175.67645109 -188.55921555 173.42090988 C-188.73256098 156.19454375 -187.64423758 142.96492477 -175 130 C-159.30458955 115.30019394 -141.13551423 113.79525583 -120.70098114 113.95540047 C-118.36007557 113.97312415 -116.01924129 113.983194 -113.67828369 113.99131775 C-107.03105955 114.0154757 -100.38393206 114.05103761 -93.73681641 114.09594727 C-89.64457068 114.12306561 -85.55237947 114.13988603 -81.46006012 114.15081596 C-79.9214196 114.15692965 -78.38278831 114.16680845 -76.84420013 114.18089485 C-58.95876892 114.34319854 -43.45444719 113.03100738 -28.03125 103.171875 C-26 102 -26 102 -24 102 C-24 101.34 -24 100.68 -24 100 C-22.50390625 98.5625 -22.50390625 98.5625 -20.5625 97 C-17.84811762 94.85474956 -17.84811762 94.85474956 -16 92 C-15.34 92 -14.68 92 -14 92 C-13.731875 91.278125 -13.46375 90.55625 -13.1875 89.8125 C-11.53261373 85.89303253 -9.29061746 82.45408978 -7 78.875 C-0.71052815 67.79010708 -0.86234727 54.46067512 -0.68359375 42.08984375 C-0.6524221 40.27777184 -0.6524221 40.27777184 -0.62062073 38.42909241 C-0.55562961 34.59861527 -0.49647635 30.76807399 -0.4375 26.9375 C-0.39426674 24.32876961 -0.35065097 21.72004552 -0.30664062 19.11132812 C-0.20000042 12.74095175 -0.09814361 6.37051263 0 0 Z M-69.4375 237.75 C-71.36323166 241.75552186 -71.70746414 244.64167151 -71 249 C-69.30240105 253.80986369 -66.64422607 257.69249145 -62 260 C-57.50774539 261.00078704 -53.7291501 260.90561053 -49.61328125 258.75 C-45.30080479 255.65875411 -45.30080479 255.65875411 -43 251 C-42.61461703 246.21235777 -42.44237567 241.63802147 -44 237.0625 C-47.66611449 233.28181944 -51.89080124 231.34435898 -57.0625 230.5 C-62.49989654 231.4255143 -65.87174171 233.72709322 -69.4375 237.75 Z " fill="#FCBF06" transform="translate(349,145)"/>
<path d="M0 0 C49.5 0 99 0 150 0 C150 0.33 150 0.66 150 1 C101.16 1 52.32 1 2 1 C2.33 1.66 2.66 2.32 3 3 C3.09715342 5.33168218 3.12978217 7.66629957 3.125 10 C3.12757813 11.258125 3.13015625 12.51625 3.1328125 13.8125 C3 17 3 17 2 19 C3.17541855 18.99777939 4.3508371 18.99555878 5.56187439 18.99327087 C16.61338677 18.97304098 27.66489542 18.9580286 38.71642208 18.94818783 C44.39876512 18.94295861 50.08109327 18.93586027 55.76342773 18.92456055 C61.24229136 18.91373304 66.72114062 18.90772346 72.20001411 18.90512276 C74.29529611 18.90326826 76.39057728 18.89964718 78.4858532 18.89426994 C81.40977584 18.88706132 84.33363833 18.88600898 87.25756836 18.88647461 C88.57062958 18.8810817 88.57062958 18.8810817 89.91021729 18.87557983 C95.88594784 18.88594784 95.88594784 18.88594784 97 20 C97.10906854 21.5932847 97.14905906 23.19136223 97.16113281 24.78833008 C97.17074036 25.8106221 97.1803479 26.83291412 97.19024658 27.88618469 C97.19449646 29.00268906 97.19874634 30.11919342 97.203125 31.26953125 C97.20882507 32.4160466 97.21452515 33.56256195 97.22039795 34.74382019 C97.22987202 37.18263827 97.23639142 39.62146928 97.24023438 42.06030273 C97.24985955 45.75853658 97.28082673 49.45619556 97.3125 53.15429688 C97.31903795 55.52603837 97.3242853 57.89778385 97.328125 60.26953125 C97.3404718 61.36376907 97.3528186 62.4580069 97.36553955 63.58540344 C97.34417768 71.10890365 96.13454181 77.79084422 94 85 C93.67 85 93.34 85 93 85 C92.71078672 78.49270117 93.76606407 73.78664762 95 67 C95 52.15 95 37.3 95 22 C48.47 21.505 48.47 21.505 1 21 C0.67 14.07 0.34 7.14 0 0 Z " fill="#F7DC70" transform="translate(233,334)"/>
<path d="M0 0 C0.99 0 1.98 0 3 0 C2.02501803 6.61159645 -4.26993365 11.73066298 -9.17578125 15.80859375 C-14.97553409 19.8906867 -21.37867344 22.53375691 -28 25 C-28.91110346 25.34727583 -29.82220692 25.69455166 -30.76091957 26.052351 C-34.24949436 27.07299389 -37.0901391 27.24627959 -40.71981812 27.24050903 C-41.69530985 27.24307231 -41.69530985 27.24307231 -42.69050848 27.24568737 C-44.85547296 27.24896456 -47.02012299 27.2380082 -49.18505859 27.22705078 C-50.74257398 27.22648628 -52.3000899 27.22680398 -53.85760498 27.22793579 C-58.07617026 27.2285088 -62.29462143 27.21676291 -66.51316023 27.20278788 C-70.92540373 27.19027186 -75.33764994 27.18910933 -79.74990845 27.18673706 C-88.1008189 27.18052486 -96.45167689 27.16411754 -104.80256426 27.14403808 C-114.31158404 27.12167101 -123.82060634 27.11068362 -133.32964587 27.10064721 C-152.88645985 27.0797511 -172.44322662 27.04458015 -192 27 C-188.53129364 24.6875291 -187.20692958 24.7461981 -183.11479187 24.73498535 C-181.27101204 24.72257561 -181.27101204 24.72257561 -179.38998413 24.70991516 C-178.02520741 24.71073982 -176.66043078 24.71173748 -175.2956543 24.71289062 C-173.85981355 24.70686666 -172.42397634 24.69994247 -170.98814392 24.69218445 C-167.89266103 24.67728114 -164.79724281 24.66854238 -161.70172691 24.66447449 C-156.79545546 24.65775549 -151.8893214 24.63598937 -146.98310852 24.61193848 C-136.55127129 24.56293289 -126.11940466 24.53070524 -115.6875 24.5 C-104.46232333 24.46687194 -93.23720029 24.43066522 -82.01210529 24.37586927 C-77.14794395 24.35268453 -72.28387672 24.33882023 -67.41966569 24.33237457 C-64.371753 24.32637655 -61.32391494 24.31222832 -58.27604103 24.29603004 C-56.87739166 24.2902224 -55.47872377 24.28766733 -54.08006287 24.28886986 C-42.1364744 24.2962016 -30.52783208 23.22779298 -19 20 C-19 19.01 -19 18.02 -19 17 C-18.360625 16.87625 -17.72125 16.7525 -17.0625 16.625 C-16.381875 16.41875 -15.70125 16.2125 -15 16 C-14.67 15.34 -14.34 14.68 -14 14 C-12.68 14 -11.36 14 -10 14 C-10 13.34 -10 12.68 -10 12 C-9.34 12 -8.68 12 -8 12 C-7.95875 11.278125 -7.9175 10.55625 -7.875 9.8125 C-6.61719712 5.76956216 -4.32953708 4.56651817 -1 2 C-0.67 1.34 -0.34 0.68 0 0 Z " fill="#F4C42F" transform="translate(427,307)"/>
<path d="M0 0 C0 0.99 0 1.98 0 3 C-0.680625 3.391875 -1.36125 3.78375 -2.0625 4.1875 C-5.63623735 6.39257198 -7.75469524 9.09469651 -10.3515625 12.35546875 C-12 14 -12 14 -15 14 C-16.88391785 17.26545761 -17.49287967 20.28111761 -18 24 C-18.66 24 -19.32 24 -20 24 C-21.03406602 29.98412229 -21.17053388 35.82728407 -21.20532227 41.89233398 C-21.21522186 42.96624893 -21.22512146 44.04016388 -21.23532104 45.1466217 C-21.26679056 48.67975698 -21.29163578 52.21290569 -21.31640625 55.74609375 C-21.33698834 58.20231974 -21.35798514 60.6585423 -21.37937927 63.11476135 C-21.43447025 69.56730352 -21.4839366 76.01987697 -21.53222656 82.47247314 C-21.58253649 89.06175507 -21.63817294 95.6509918 -21.69335938 102.24023438 C-21.8007822 115.16011734 -21.9024432 128.08003896 -22 141 C-22.33 141 -22.66 141 -23 141 C-23.97725518 135.25889323 -24.1661349 129.6820491 -24.19287109 123.86474609 C-24.20104858 122.87023437 -24.20922607 121.87572266 -24.21765137 120.85107422 C-24.24236696 117.57520123 -24.25898643 114.29937118 -24.2734375 111.0234375 C-24.28142302 109.33632597 -24.28142302 109.33632597 -24.28956985 107.61513138 C-24.31624217 101.66090834 -24.33563539 95.70670583 -24.35009766 89.75244141 C-24.36342596 84.8446993 -24.39126775 79.93737401 -24.43212891 75.02978516 C-24.4816336 69.08238446 -24.50624025 63.13536111 -24.51332474 57.18776321 C-24.52000569 54.93210346 -24.5351445 52.67645109 -24.55921555 50.42090988 C-24.72010082 34.432784 -24.0931271 21.91396157 -13.1953125 9.234375 C-4.12237762 0 -4.12237762 0 0 0 Z " fill="#F3CD56" transform="translate(185,268)"/>
<path d="M0 0 C0.33 0 0.66 0 1 0 C1.33 5.94 1.66 11.88 2 18 C46.55 18.495 46.55 18.495 92 19 C92 19.66 92 20.32 92 21 C61.31 21 30.62 21 -1 21 C-2.13059428 9.69405723 -2.13059428 9.69405723 -1.625 5.4375 C-1.53476563 4.61121094 -1.44453125 3.78492188 -1.3515625 2.93359375 C-1 1 -1 1 0 0 Z " fill="#3A87B6" transform="translate(162,126)"/>
<path d="M0 0 C2 2 2 2 2.24723816 4.15647888 C2.24581314 5.04899857 2.24438812 5.94151825 2.24291992 6.86108398 C2.24753487 8.3779203 2.24753487 8.3779203 2.25224304 9.92539978 C2.24505753 11.02122879 2.23787201 12.1170578 2.23046875 13.24609375 C2.23001053 14.36814713 2.22955231 15.4902005 2.2290802 16.64625549 C2.22605487 19.02272598 2.21816027 21.39919444 2.20581055 23.77563477 C2.18759324 27.41885384 2.18530056 31.06181833 2.18554688 34.70507812 C2.18063028 37.01041887 2.17480135 39.31575789 2.16796875 41.62109375 C2.16685593 42.71489853 2.1657431 43.80870331 2.16459656 44.93565369 C2.15821671 45.95003006 2.15183685 46.96440643 2.14526367 48.00952148 C2.13954597 49.3494944 2.13954597 49.3494944 2.13371277 50.71653748 C2 53 2 53 1 56 C-5.90507881 56.05068981 -12.81010966 56.08572927 -19.71533203 56.10986328 C-22.06463413 56.11992384 -24.41392369 56.13357373 -26.76318359 56.15087891 C-30.13902885 56.17512452 -33.5147086 56.18648259 -36.890625 56.1953125 C-37.94179504 56.20563507 -38.99296509 56.21595764 -40.07598877 56.22659302 C-41.05670349 56.22674408 -42.03741821 56.22689514 -43.04785156 56.22705078 C-44.3402475 56.23371262 -44.3402475 56.23371262 -45.65875244 56.24050903 C-48 56 -48 56 -52 54 C-35.17 54 -18.34 54 -1 54 C-1.01160156 50.18566406 -1.02320313 46.37132812 -1.03515625 42.44140625 C-1.04294542 38.7645679 -1.04902298 35.08773046 -1.05493164 31.41088867 C-1.0599737 28.84708243 -1.06680714 26.28327909 -1.07543945 23.71948242 C-1.08751064 20.04344979 -1.09322942 16.36745502 -1.09765625 12.69140625 C-1.10281754 11.53725723 -1.10797882 10.38310822 -1.11329651 9.19398499 C-1.11337204 8.13296066 -1.11344757 7.07193634 -1.11352539 5.97875977 C-1.115746 5.03944107 -1.11796661 4.10012238 -1.12025452 3.13233948 C-1 1 -1 1 0 0 Z " fill="#2E83B2" transform="translate(141,299)"/>
<path d="M0 0 C-12.95243179 12.95243179 -45.38513632 11.3169985 -62.58480835 11.31942749 C-80.64246558 11.2662568 -80.64246558 11.2662568 -86 10 C-86 9.67 -86 9.34 -86 9 C-73.13 9 -60.26 9 -47 9 C-47 8.34 -47 7.68 -47 7 C-41.39 7 -35.78 7 -30 7 C-30 6.34 -30 5.68 -30 5 C-26.37 5 -22.74 5 -19 5 C-19 4.34 -19 3.68 -19 3 C-17.96875 2.87625 -16.9375 2.7525 -15.875 2.625 C-12.08467136 2.12839499 -12.08467136 2.12839499 -8.9375 0.9375 C-5.798887 -0.064185 -3.27299168 -0.15585675 0 0 Z " fill="#F6D35D" transform="translate(306,438)"/>
<path d="M0 0 C1.84851563 -0.01836914 1.84851563 -0.01836914 3.734375 -0.03710938 C11.17347343 -0.04895507 18.11517845 0.54177883 25.375 2.1875 C25.375 2.5175 25.375 2.8475 25.375 3.1875 C24.07763916 3.18226318 22.78027832 3.17702637 21.44360352 3.17163086 C16.64852585 3.15358531 11.8534512 3.14206963 7.05834961 3.13256836 C4.97956844 3.12752712 2.90079084 3.12069426 0.82202148 3.11206055 C-2.15902586 3.09998578 -5.14002649 3.09426976 -8.12109375 3.08984375 C-9.05650497 3.08468246 -9.9919162 3.07952118 -10.95567322 3.07420349 C-11.81649002 3.07412796 -12.67730682 3.07405243 -13.56420898 3.07397461 C-14.32587875 3.071754 -15.08754852 3.06953339 -15.87229919 3.06724548 C-17.65310605 2.99659045 -17.65310605 2.99659045 -18.625 4.1875 C-20.91304167 4.39816368 -23.20603822 4.55614841 -25.5 4.6875 C-30.65231192 4.96582315 -30.65231192 4.96582315 -35.625 6.1875 C-36.96025717 6.26723476 -38.29912083 6.29521338 -39.63671875 6.28515625 C-40.77270508 6.28032227 -40.77270508 6.28032227 -41.93164062 6.27539062 C-42.71732422 6.26701172 -43.50300781 6.25863281 -44.3125 6.25 C-45.10978516 6.24548828 -45.90707031 6.24097656 -46.72851562 6.23632812 C-48.69404257 6.2245585 -50.65953085 6.20662348 -52.625 6.1875 C-52.625 5.8575 -52.625 5.5275 -52.625 5.1875 C-48.73066022 4.53244974 -44.83430036 3.8902361 -40.9375 3.25 C-39.85404297 3.06759766 -38.77058594 2.88519531 -37.65429688 2.69726562 C-25.09866443 0.6481268 -12.71156516 0.0066903 0 0 Z " fill="#4793BF" transform="translate(251.625,50.8125)"/>
<path d="M0 0 C7.734375 -0.061875 15.46875 -0.12375 23.4375 -0.1875 C25.86150146 -0.21481201 28.28550293 -0.24212402 30.78295898 -0.27026367 C32.72899886 -0.27903496 34.67504428 -0.28667737 36.62109375 -0.29296875 C37.6114563 -0.30831665 38.60181885 -0.32366455 39.62219238 -0.33947754 C48.43188597 -0.34275862 55.25932282 1.83194306 63 6 C59.94736336 6.98120464 58.05263664 6.98120464 55 6 C55 5.34 55 4.68 55 4 C54.0925 4.04125 53.185 4.0825 52.25 4.125 C49 4 49 4 47.07769775 3.01211548 C44.71431315 1.86083246 43.12313967 1.72626103 40.50683594 1.68115234 C39.61399902 1.66109131 38.72116211 1.64103027 37.80126953 1.62036133 C36.87169434 1.60900146 35.94211914 1.5976416 34.984375 1.5859375 C33.69297607 1.55947144 33.69297607 1.55947144 32.37548828 1.5324707 C29.1671803 1.46952396 25.9585626 1.42325422 22.75 1.375 C15.5725 1.25125 8.395 1.1275 1 1 C1 21.46 1 41.92 1 63 C0.34 63 -0.32 63 -1 63 C-0.67 42.21 -0.34 21.42 0 0 Z " fill="#ECC75A" transform="translate(349,145)"/>
<path d="M0 0 C1.12752716 3.38258148 0.87098905 4.32595291 -0.1875 7.625 C-0.42855469 8.42164063 -0.66960937 9.21828125 -0.91796875 10.0390625 C-2 12 -2 12 -4.11328125 12.7734375 C-4.73589844 12.84820312 -5.35851562 12.92296875 -6 13 C-5.87625 13.680625 -5.7525 14.36125 -5.625 15.0625 C-6.43090022 21.37538506 -12.28727019 25.25753809 -17 29 C-17 29.66 -17 30.32 -17 31 C-17.969375 31.28875 -18.93875 31.5775 -19.9375 31.875 C-23.10664203 32.64214682 -23.10664203 32.64214682 -24 35 C-26.64 35 -29.28 35 -32 35 C-28.71533863 31.32117927 -25.33639092 29.24849899 -21 27 C-20.34 27 -19.68 27 -19 27 C-19 26.34 -19 25.68 -19 25 C-17.50390625 23.5625 -17.50390625 23.5625 -15.5625 22 C-12.84811762 19.85474956 -12.84811762 19.85474956 -11 17 C-10.34 17 -9.68 17 -9 17 C-8.731875 16.278125 -8.46375 15.55625 -8.1875 14.8125 C-7.00170378 12.00403526 -5.60341659 9.59013448 -4 7 C-2.65457625 4.67343691 -1.32848796 2.3363064 0 0 Z " fill="#F8BD0E" transform="translate(344,220)"/>
<path d="M0 0 C0.33 0 0.66 0 1 0 C0.67 19.14 0.34 38.28 0 58 C-0.33 58 -0.66 58 -1 58 C-3.09907307 38.49983449 -4.24891652 19.33065623 0 0 Z " fill="#408FBE" transform="translate(49,227)"/>
<path d="M0 0 C0 0.99 0 1.98 0 3 C-1.78881736 4.00508801 -3.58114696 5.00392736 -5.375 6 C-6.37273437 6.556875 -7.37046875 7.11375 -8.3984375 7.6875 C-11 9 -11 9 -13 9 C-13.268125 9.639375 -13.53625 10.27875 -13.8125 10.9375 C-15 13 -15 13 -18 14 C-18 14.66 -18 15.32 -18 16 C-18.66 16.33 -19.32 16.66 -20 17 C-21.62249088 19.43373631 -22.91319888 21.7829972 -24 24.5 C-25.46751192 28.16877979 -27.20210609 31.20210609 -30 34 C-29.24405117 22.15680164 -21.17318925 13.88248758 -13 6 C-5.63687151 0 -5.63687151 0 0 0 Z " fill="#3286B8" transform="translate(85,172)"/>
<path d="M0 0 C0.99 0 1.98 0 3 0 C2.02501803 6.61159645 -4.26993365 11.73066298 -9.17578125 15.80859375 C-15.26099553 20.09160563 -23.43169344 25 -31 25 C-31 24.34 -31 23.68 -31 23 C-25.06 21.515 -25.06 21.515 -19 20 C-19 19.01 -19 18.02 -19 17 C-18.360625 16.87625 -17.72125 16.7525 -17.0625 16.625 C-16.381875 16.41875 -15.70125 16.2125 -15 16 C-14.67 15.34 -14.34 14.68 -14 14 C-12.68 14 -11.36 14 -10 14 C-10 13.34 -10 12.68 -10 12 C-9.34 12 -8.68 12 -8 12 C-7.95875 11.278125 -7.9175 10.55625 -7.875 9.8125 C-6.61719712 5.76956216 -4.32953708 4.56651817 -1 2 C-0.67 1.34 -0.34 0.68 0 0 Z " fill="#F5CD4A" transform="translate(427,307)"/>
<path d="M0 0 C0 0.66 0 1.32 0 2 C-2.95977584 3.47988792 -5.95978009 3.13010399 -9.20361328 3.11352539 C-9.9451767 3.11367142 -10.68674011 3.11381744 -11.45077515 3.1139679 C-13.90731713 3.11327 -16.36378373 3.10548334 -18.8203125 3.09765625 C-20.5213924 3.09579163 -22.22247284 3.09436794 -23.92355347 3.09336853 C-28.40506467 3.08954678 -32.88654357 3.0797194 -37.36804199 3.06866455 C-41.9393673 3.05844308 -46.51069781 3.05386933 -51.08203125 3.04882812 C-60.05470171 3.03809685 -69.02734817 3.02102451 -78 3 C-77.67 2.34 -77.34 1.68 -77 1 C-76.26021408 1.00222061 -75.52042816 1.00444122 -74.75822449 1.00672913 C-67.74205214 1.0268744 -60.72589003 1.04204612 -53.70969677 1.05181217 C-50.10373373 1.05700197 -46.49779485 1.06402757 -42.8918457 1.07543945 C-39.40347879 1.0864085 -35.91513493 1.09230613 -32.42675209 1.09487724 C-30.4667192 1.09758881 -28.50669541 1.10537791 -26.54667664 1.11329651 C-20.10860871 1.11369495 -13.78915421 0.92194195 -7.38764954 0.21531677 C-4.91228152 -0.0079104 -2.48402129 -0.03496431 0 0 Z " fill="#EFC23F" transform="translate(303,258)"/>
<path d="M0 0 C0 0.66 0 1.32 0 2 C4.29 2 8.58 2 13 2 C13 2.33 13 2.66 13 3 C9.37 3 5.74 3 2 3 C1.67 3.66 1.34 4.32 1 5 C-2.0318856 6.88186002 -3.24517355 7 -7 7 C-7 6.34 -7 5.68 -7 5 C-11.55377389 2.64966509 -15.98237317 2.5542191 -21 3 C-21.33 3.33 -21.66 3.66 -22 4 C-24.67058851 4.14115161 -27.32432238 4.04247107 -30 4 C-22.21180221 -1.19213186 -9.06277458 -0.30378015 0 0 Z " fill="#FCC00C" transform="translate(225,259)"/>
<path d="M0 0 C2.76873766 4.15310649 2.9765067 8.11225127 3.625 13 C3.75616211 13.97807617 3.88732422 14.95615234 4.02246094 15.96386719 C5.60037204 28.64043612 5.66218453 41.32584292 4 54 C3.67 54 3.34 54 3 54 C2.98018066 53.04746338 2.96036133 52.09492676 2.93994141 51.11352539 C2.86320563 47.54052668 2.77460022 43.96789966 2.68261719 40.39526367 C2.64460557 38.85627645 2.60970707 37.31720876 2.578125 35.77807617 C2.40849388 27.61192785 2.00583614 19.95864016 0 12 C-0.1953125 8.49609375 -0.1953125 8.49609375 -0.125 5.4375 C-0.10695313 4.40496094 -0.08890625 3.37242187 -0.0703125 2.30859375 C-0.04710937 1.54675781 -0.02390625 0.78492188 0 0 Z " fill="#F8D967" transform="translate(440,208)"/>
<path d="M0 0 C-2.66925912 2.66925912 -5.6693881 3.44906379 -9.1875 4.5625 C-9.89132812 4.78574951 -10.59515625 5.00899902 -11.3203125 5.23901367 C-18.52149137 7.3802733 -25.50706574 7.88157719 -33 8 C-32.01 7.67 -31.02 7.34 -30 7 C-30 6.34 -30 5.68 -30 5 C-26.37 5 -22.74 5 -19 5 C-19 4.34 -19 3.68 -19 3 C-17.96875 2.87625 -16.9375 2.7525 -15.875 2.625 C-12.08467136 2.12839499 -12.08467136 2.12839499 -8.9375 0.9375 C-5.798887 -0.064185 -3.27299168 -0.15585675 0 0 Z " fill="#F6D254" transform="translate(306,438)"/>
<path d="M0 0 C3.81345132 1.90672566 4.59466441 6.16477568 5.95703125 9.9921875 C8.7114727 20.72001208 7.35794186 32.99301236 7 44 C6.67 44 6.34 44 6 44 C5.98541748 43.41734375 5.97083496 42.8346875 5.95581055 42.234375 C5.61185031 29.86639134 4.75235549 18.08266749 2 6 C1.01 6 0.02 6 -1 6 C-0.67 4.02 -0.34 2.04 0 0 Z " fill="#6BADD2" transform="translate(323,80)"/>
<path d="M0 0 C3.01676175 3.01676175 3.5171573 6.6393655 4.625 10.6875 C4.85445313 11.47833984 5.08390625 12.26917969 5.3203125 13.08398438 C6.65155369 17.8819995 7.2531513 22.02357834 7 27 C6.67 26.01 6.34 25.02 6 24 C5.34 24 4.68 24 4 24 C3.67 23.01 3.34 22.02 3 21 C2.34 21 1.68 21 1 21 C1.01740234 19.7315625 1.01740234 19.7315625 1.03515625 18.4375 C1.08489687 12.18439382 0.96940246 6.17994069 0 0 Z " fill="#F6CB49" transform="translate(433,180)"/>
<path d="M0 0 C1.12752716 3.38258148 0.87098905 4.32595291 -0.1875 7.625 C-0.42855469 8.42164063 -0.66960937 9.21828125 -0.91796875 10.0390625 C-2 12 -2 12 -4.11328125 12.7734375 C-4.73589844 12.84820312 -5.35851562 12.92296875 -6 13 C-6.33 14.65 -6.66 16.3 -7 18 C-7.99 18 -8.98 18 -10 18 C-10.33 19.65 -10.66 21.3 -11 23 C-12.98 23.66 -14.96 24.32 -17 25 C-15.28032649 21.97009905 -13.70761694 19.23672704 -11 17 C-10.34 17 -9.68 17 -9 17 C-8.731875 16.278125 -8.46375 15.55625 -8.1875 14.8125 C-7.00170378 12.00403526 -5.60341659 9.59013448 -4 7 C-2.65457625 4.67343691 -1.32848796 2.3363064 0 0 Z " fill="#F4CA44" transform="translate(344,220)"/>
<path d="M0 0 C0.75 2.1875 0.75 2.1875 1 5 C-0.27277889 6.7133562 -1.62294236 8.36927384 -3 10 C-4.78483643 13.27724203 -6.40242191 16.62806265 -8 20 C-9.43088528 17.13822943 -8.59991697 15.06624227 -8 12 C-7.01 12 -6.02 12 -5 12 C-5.33 8.7 -5.66 5.4 -6 2 C-3 0 -3 0 0 0 Z " fill="#2383BD" transform="translate(154,262)"/>
<path d="M0 0 C0.5775 0.37125 1.155 0.7425 1.75 1.125 C0.08333333 2.79166667 -1.58333333 4.45833333 -3.25 6.125 C-3.9615625 6.929375 -3.9615625 6.929375 -4.6875 7.75 C-7.36293372 10.10438167 -10.63096147 12.125 -14.25 12.125 C-13.92 11.135 -13.59 10.145 -13.25 9.125 C-11.765 8.444375 -11.765 8.444375 -10.25 7.75 C-9.26 7.21375 -8.27 6.6775 -7.25 6.125 C-6.59444881 3.59766765 -6.59444881 3.59766765 -6.25 1.125 C-3.80299775 -0.81572592 -2.94395499 -1.14487138 0 0 Z " fill="#F7C72A" transform="translate(320.25,425.875)"/>
<path d="M0 0 C0.94875 0.825 1.8975 1.65 2.875 2.5 C6.7564277 5.25785652 9.85617409 5.66411866 14.5546875 5.44140625 C18.35019663 4.75627441 20.84925034 3.19182585 24 1 C23.70926678 3.81042113 23.18436938 4.83347282 21.0625 6.75 C15.95679344 8.83396186 10.78309074 9.03525597 5.57421875 7.09765625 C3.67226006 6.14836603 1.82872136 5.08368673 0 4 C0 2.68 0 1.36 0 0 Z " fill="#F2CA4D" transform="translate(280,399)"/>
<path d="M0 0 C0.6875 1.625 0.6875 1.625 1 4 C0.0520411 6.02518491 -0.95191959 8.02477154 -2 10 C-2.69907414 12.73572585 -2.69907414 12.73572585 -3 15 C-3.66 15 -4.32 15 -5 15 C-5.33 16.32 -5.66 17.64 -6 19 C-6.66 19 -7.32 19 -8 19 C-7.29347695 12.11140023 -4.57363852 5.2596843 0 0 Z " fill="#3D8FBB" transform="translate(170,71)"/>
<path d="M0 0 C2.58271415 2.15906736 3.88257801 3.314375 4.4609375 6.69140625 C4.43257813 7.63886719 4.40421875 8.58632813 4.375 9.5625 C4.36210937 10.51253906 4.34921875 11.46257812 4.3359375 12.44140625 C4 15 4 15 2 18 C1.01 17.67 0.02 17.34 -1 17 C-0.505 15.515 -0.505 15.515 0 14 C0.06970052 11.60509014 0.08448003 9.20832309 0.0625 6.8125 C0.05347656 5.54019531 0.04445313 4.26789063 0.03515625 2.95703125 C0.02355469 1.98121094 0.01195312 1.00539063 0 0 Z " fill="#F6D14F" transform="translate(305,382)"/>
<path d="M0 0 C0.33 0.66 0.66 1.32 1 2 C0.07470849 4.03564133 -0.93988057 6.03120677 -2 8 C-2.495 9.010625 -2.99 10.02125 -3.5 11.0625 C-7.08695652 18.08695652 -7.08695652 18.08695652 -10 21 C-9.46856534 12.6741904 -5.4204795 6.2235135 0 0 Z " fill="#4E98C1" transform="translate(65,185)"/>
<path d="M0 0 C0 0.33 0 0.66 0 1 C-1.64432706 1.36109542 -3.2905208 1.71370076 -4.9375 2.0625 C-5.85402344 2.25972656 -6.77054688 2.45695312 -7.71484375 2.66015625 C-8.84599609 2.82837891 -8.84599609 2.82837891 -10 3 C-10.33 2.67 -10.66 2.34 -11 2 C-12.49738124 1.9020943 -13.99942892 1.87025136 -15.5 1.875 C-16.3146875 1.87242187 -17.129375 1.86984375 -17.96875 1.8671875 C-19.99530377 1.7754822 -19.99530377 1.7754822 -21 3 C-23.67058851 3.14115161 -26.32432238 3.04247107 -29 3 C-21.17557902 -2.21628065 -8.95421829 -1.37757204 0 0 Z " fill="#F4C021" transform="translate(224,260)"/>
<path d="M0 0 C0.99 0 1.98 0 3 0 C2.40716379 3.39192363 1.23256811 5.2107757 -1.0625 7.75 C-1.61035156 8.36359375 -2.15820312 8.9771875 -2.72265625 9.609375 C-3.14417969 10.06828125 -3.56570313 10.5271875 -4 11 C-4.33 10.01 -4.66 9.02 -5 8 C-5.66 7.67 -6.32 7.34 -7 7 C-5.47005208 5.76302083 -3.94010417 4.52604167 -2.41015625 3.2890625 C-0.86733563 2.0333609 -0.86733563 2.0333609 0 0 Z " fill="#F9CC3C" transform="translate(427,307)"/>
<path d="M0 0 C1.92487426 0.23638807 3.84960576 0.47402229 5.7734375 0.71875 C7.7436411 0.96761782 9.71547167 1.20353054 11.6875 1.4375 C14.75700384 1.9587365 17.14939542 2.79974544 20 4 C21.65919896 4.36871088 23.3247643 4.71281674 25 5 C25 5.33 25 5.66 25 6 C7.72058824 4.60294118 7.72058824 4.60294118 0 1 C0 0.67 0 0.34 0 0 Z " fill="#F6D265" transform="translate(193,441)"/>
<path d="M0 0 C0.33 0 0.66 0 1 0 C1.66268329 7.12384541 -0.74611936 13.30879185 -3 20 C-3.33 20 -3.66 20 -4 20 C-4.125 14.25 -4.125 14.25 -3 12 C-2.72904124 9.73340843 -2.55512003 7.46718841 -2.37890625 5.19140625 C-2 3 -2 3 0 0 Z " fill="#F8CF55" transform="translate(439,277)"/>
<path d="M0 0 C0.99 0.33 1.98 0.66 3 1 C3 1.66 3 2.32 3 3 C3.598125 3.061875 4.19625 3.12375 4.8125 3.1875 C7.87143458 4.3236757 8.55041099 6.17330142 10 9 C8.68 9.33 7.36 9.66 6 10 C5.67 9.01 5.34 8.02 5 7 C4.154375 6.525625 3.30875 6.05125 2.4375 5.5625 C1.633125 5.046875 0.82875 4.53125 0 4 C0 2.68 0 1.36 0 0 Z " fill="#F5CC4F" transform="translate(412,152)"/>
<path d="M0 0 C6.75 0.75 6.75 0.75 9 3 C9.39764263 4.98821313 9.73775349 6.98944339 10 9 C6.55729549 7.46990911 3.81074178 5.5068778 1 3 C0.67 2.01 0.34 1.02 0 0 Z " fill="#F5C740" transform="translate(172,426)"/>
<path d="M0 0 C0.66 0 1.32 0 2 0 C1.835 0.495 1.67 0.99 1.5 1.5 C0.46041108 6.6979446 0.71955702 11.87822809 2 17 C1.01 16.34 0.02 15.68 -1 15 C-1 14.01 -1 13.02 -1 12 C-1.66 12 -2.32 12 -3 12 C-2.49202991 7.6822542 -1.80317221 3.96697886 0 0 Z " fill="#F6CF52" transform="translate(278,382)"/>
<path d="M0 0 C0 3.58644607 -0.69867931 4.14171861 -2.9375 6.8125 C-5.58259064 10.17954479 -6.7810302 12.62060399 -7 17 C-7.66 17 -8.32 17 -9 17 C-9.33 17.99 -9.66 18.98 -10 20 C-11 18 -11 18 -10.46875 16.15234375 C-7.79265847 10.03402158 -4.29168545 5.0993903 0 0 Z " fill="#F5D067" transform="translate(174,275)"/>
<path d="M0 0 C-3.04681061 2.03120707 -3.60118324 2.24659875 -7.01171875 2.1953125 C-7.76904297 2.18886719 -8.52636719 2.18242188 -9.30664062 2.17578125 C-10.09232422 2.15902344 -10.87800781 2.14226563 -11.6875 2.125 C-12.48478516 2.11597656 -13.28207031 2.10695312 -14.10351562 2.09765625 C-16.069139 2.07411585 -18.03460775 2.03824547 -20 2 C-20 1.67 -20 1.34 -20 1 C-6.3667426 -1.48063781 -6.3667426 -1.48063781 0 0 Z " fill="#4193C0" transform="translate(219,55)"/>
<path d="M0 0 C0.33 0 0.66 0 1 0 C1.33 6.27 1.66 12.54 2 19 C1.34 19 0.68 19 0 19 C-2.46209717 15.25497097 -2.06276467 12.1755169 -1.6875 7.8125 C-1.58824219 6.56082031 -1.48898438 5.30914062 -1.38671875 4.01953125 C-1 1 -1 1 0 0 Z " fill="#3A88B7" transform="translate(162,126)"/>
<path d="M0 0 C0 0.66 0 1.32 0 2 C-3.00313748 3.50156874 -5.79067522 3.09281204 -9.125 3.0625 C-10.40632813 3.05347656 -11.68765625 3.04445313 -13.0078125 3.03515625 C-14.48894531 3.01775391 -14.48894531 3.01775391 -16 3 C-16 2.34 -16 1.68 -16 1 C-14.27111445 0.83044205 -12.54187557 0.66448486 -10.8125 0.5 C-9.84957031 0.4071875 -8.88664062 0.314375 -7.89453125 0.21875 C-5.24812333 0.01875156 -2.65239135 -0.03879183 0 0 Z " fill="#F2CB46" transform="translate(303,258)"/>
<path d="M0 0 C0.99 0.33 1.98 0.66 3 1 C1.68 2.32 0.36 3.64 -1 5 C-0.67 3.35 -0.34 1.7 0 0 Z M-1 6 C-5.75 10 -5.75 10 -8 10 C-8 10.66 -8 11.32 -8 12 C-9.32 11.34 -10.64 10.68 -12 10 C-11.01 9.67 -10.02 9.34 -9 9 C-9 8.34 -9 7.68 -9 7 C-3.25 4.875 -3.25 4.875 -1 6 Z " fill="#F7C31E" transform="translate(334,238)"/>
<path d="M0 0 C2.4375 0.375 2.4375 0.375 5 1 C5.33 1.66 5.66 2.32 6 3 C8.30965848 4.05352843 10.6429774 5.05719096 13 6 C13 6.99 13 7.98 13 9 C11.38986415 8.26290216 9.78707609 7.50974143 8.1875 6.75 C7.29417969 6.33234375 6.40085937 5.9146875 5.48046875 5.484375 C2.89071669 3.93460211 1.61819166 2.51599234 0 0 Z " fill="#3E8CBB" transform="translate(74,344)"/>
<path d="M0 0 C-4.73089393 4.73089393 -12.66676858 4.51576903 -19 5 C-19 4.34 -19 3.68 -19 3 C-17.96875 2.87625 -16.9375 2.7525 -15.875 2.625 C-12.08467136 2.12839499 -12.08467136 2.12839499 -8.9375 0.9375 C-5.798887 -0.064185 -3.27299168 -0.15585675 0 0 Z " fill="#F7C93A" transform="translate(306,438)"/>
<path d="M0 0 C1.32 0.66 2.64 1.32 4 2 C3.75 3.875 3.75 3.875 3 6 C0.9375 7.25 0.9375 7.25 -1 8 C-1.66 6.02 -2.32 4.04 -3 2 C-2.01 1.34 -1.02 0.68 0 0 Z " fill="#2E8DBF" transform="translate(316,217)"/>
<path d="M0 0 C0.96164062 0.00515625 1.92328125 0.0103125 2.9140625 0.015625 C4.34878906 0.00789063 4.34878906 0.00789063 5.8125 0 C8.54964908 0.26665636 10.19893707 0.86820413 12.5390625 2.265625 C10.04365811 3.51332719 9.11514137 3.09104764 6.4140625 2.578125 C1.18136512 1.88269358 -2.10268617 3.49866979 -6.4609375 6.265625 C-3.72458805 0.40201903 -3.72458805 0.40201903 0 0 Z " fill="#F6D059" transform="translate(287.4609375,374.734375)"/>
<path d="M0 0 C8.20879121 0.35080304 8.20879121 0.35080304 11.4375 3 C12.2109375 3.99 12.2109375 3.99 13 5 C13.66 5.33 14.32 5.66 15 6 C14.67 7.32 14.34 8.64 14 10 C13.236875 9.21625 12.47375 8.4325 11.6875 7.625 C7.82146944 3.84887712 5.28132742 2.70417699 0 2 C0 1.34 0 0.68 0 0 Z " fill="#539BC0" transform="translate(197,93)"/>
<path d="M0 0 C3.73884332 2.65654657 5.64978174 4.58110387 7 9 C4.36 8.01 1.72 7.02 -1 6 C-0.67 4.02 -0.34 2.04 0 0 Z " fill="#398DBE" transform="translate(316,71)"/>
<path d="M0 0 C0 0.66 0 1.32 0 2 C-1.32 2.33 -2.64 2.66 -4 3 C-4 3.66 -4 4.32 -4 5 C-6.90600261 6.25664978 -8.79604584 7 -12 7 C-12 6.34 -12 5.68 -12 5 C-10.37750059 4.16180842 -8.75191503 3.3295884 -7.125 2.5 C-6.22007812 2.0359375 -5.31515625 1.571875 -4.3828125 1.09375 C-2 0 -2 0 0 0 Z " fill="#458FBC" transform="translate(187,61)"/>
<path d="M0 0 C1.125 3.75 1.125 3.75 0 6 C-0.22467831 7.53668865 -0.40796805 9.07968054 -0.5625 10.625 C-0.64628906 11.44226563 -0.73007812 12.25953125 -0.81640625 13.1015625 C-0.87699219 13.72804687 -0.93757813 14.35453125 -1 15 C-1.99 15.33 -2.98 15.66 -4 16 C-3.47606294 10.13190493 -2.23891142 5.45126259 0 0 Z " fill="#559DC7" transform="translate(54,207)"/>
<path d="M0 0 C0.33 0 0.66 0 1 0 C0.85761163 2.04190981 0.71092972 4.08352045 0.5625 6.125 C0.48128906 7.26195312 0.40007812 8.39890625 0.31640625 9.5703125 C0.02269035 12.7540478 -0.43124313 15.85510907 -1 19 C-1.33 19 -1.66 19 -2 19 C-2.05451714 16.95863605 -2.09302485 14.91684144 -2.125 12.875 C-2.14820313 11.73804688 -2.17140625 10.60109375 -2.1953125 9.4296875 C-1.99672109 5.94242233 -1.2524801 3.2446138 0 0 Z " fill="#F5CC48" transform="translate(442,258)"/>
<path d="M0 0 C2.64 0.33 5.28 0.66 8 1 C5.63707344 3.52588702 4.33537489 4.88820837 1 6 C1 5.34 1 4.68 1 4 C0.01 3.67 -0.98 3.34 -2 3 C-1.34 2.67 -0.68 2.34 0 2 C0 1.34 0 0.68 0 0 Z " fill="#348DBF" transform="translate(162,250)"/>
<path d="M0 0 C1.5 1.0625 1.5 1.0625 3 3 C3.4375 6.4375 3.4375 6.4375 3 10 C1 12.4375 1 12.4375 -1 14 C-0.9278125 13.32453125 -0.855625 12.6490625 -0.78125 11.953125 C-0.6884375 11.06109375 -0.595625 10.1690625 -0.5 9.25 C-0.4071875 8.36828125 -0.314375 7.4865625 -0.21875 6.578125 C0.05636313 3.76695165 0.05636313 3.76695165 0 0 Z " fill="#4B97BF" transform="translate(212,103)"/>
<path d="M0 0 C0.66 0.33 1.32 0.66 2 1 C-1.625 6.875 -1.625 6.875 -5 8 C-5 8.66 -5 9.32 -5 10 C-5.66 9.67 -6.32 9.34 -7 9 C-5.03681826 5.46627288 -2.95929119 2.75520215 0 0 Z " fill="#3E8DBD" transform="translate(72,178)"/>
<path d="M0 0 C0.33 0.66 0.66 1.32 1 2 C-3.67298762 6.89551084 -3.67298762 6.89551084 -7.48046875 7.1953125 C-8.37378906 7.17210937 -9.26710938 7.14890625 -10.1875 7.125 C-11.08855469 7.10695313 -11.98960937 7.08890625 -12.91796875 7.0703125 C-13.60503906 7.04710937 -14.29210937 7.02390625 -15 7 C-15 6.67 -15 6.34 -15 6 C-12.03 6 -9.06 6 -6 6 C-6 5.34 -6 4.68 -6 4 C-4.03852126 2.61061923 -2.03833424 1.2739589 0 0 Z " fill="#F4C83F" transform="translate(303,400)"/>
<path d="M0 0 C2.6875 -0.375 2.6875 -0.375 6 0 C8.06398076 1.823983 9.39041053 3.72763839 11 6 C6.14922412 4.88059018 3.222107 3.8665284 0 0 Z " fill="#F5CF4C" transform="translate(182,435)"/>
<path d="M0 0 C2.31 0 4.62 0 7 0 C7 0.66 7 1.32 7 2 C3.53777385 3.06723961 0.35960734 3.10173486 -3.25 3.0625 C-4.32765625 3.05347656 -5.4053125 3.04445312 -6.515625 3.03515625 C-7.33546875 3.02355469 -8.1553125 3.01195312 -9 3 C-9 2.67 -9 2.34 -9 2 C-4.545 1.505 -4.545 1.505 0 1 C0 0.67 0 0.34 0 0 Z " fill="#4291BB" transform="translate(286,237)"/>
<path d="M0 0 C0.99 0.33 1.98 0.66 3 1 C0.69 3.64 -1.62 6.28 -4 9 C-5 6 -5 6 -5 3 C-3.35 2.67 -1.7 2.34 0 2 C0 1.34 0 0.68 0 0 Z " fill="#549CC4" transform="translate(160,256)"/>
<path d="M0 0 C0 0.66 0 1.32 0 2 C-2.75 4.1875 -2.75 4.1875 -6 6 C-8.203125 5.61328125 -8.203125 5.61328125 -10 5 C-8.71186658 4.16121545 -7.41936744 3.32913217 -6.125 2.5 C-5.40570313 2.0359375 -4.68640625 1.571875 -3.9453125 1.09375 C-2 0 -2 0 0 0 Z " fill="#F2CB5A" transform="translate(322,249)"/>
<path d="M0 0 C2.9719385 1.12451727 5.33440687 2.22293791 8 4 C7.67 4.66 7.34 5.32 7 6 C6.34 6 5.68 6 5 6 C5 5.34 5 4.68 5 4 C2.03 3.505 2.03 3.505 -1 3 C-0.67 2.01 -0.34 1.02 0 0 Z " fill="#4291C2" transform="translate(306,63)"/>
<path d="M0 0 C1.36125 0.37125 1.36125 0.37125 2.75 0.75 C-0.25617269 3.75617269 -3.07381598 3.34585316 -7.25 3.75 C-4.05 -0.31153846 -4.05 -0.31153846 0 0 Z " fill="#F9BF16" transform="translate(403.25,326.25)"/>
<path d="M0 0 C0.75 1.625 0.75 1.625 1 4 C-0.9375 7.25 -0.9375 7.25 -3 10 C-4.04449911 6.86650268 -3.93423645 6.01031744 -3 3 C-2.34 3 -1.68 3 -1 3 C-0.67 2.01 -0.34 1.02 0 0 Z " fill="#F6CD57" transform="translate(434,297)"/>
<path d="M0 0 C0 0.99 0 1.98 0 3 C-1.28650706 3.69710731 -2.57940665 4.38242876 -3.875 5.0625 C-4.95394531 5.63677734 -4.95394531 5.63677734 -6.0546875 6.22265625 C-6.69664062 6.47917969 -7.33859375 6.73570312 -8 7 C-8.66 6.67 -9.32 6.34 -10 6 C-8.71283353 4.99421411 -7.42011342 3.99553202 -6.125 3 C-5.40570313 2.443125 -4.68640625 1.88625 -3.9453125 1.3125 C-2 0 -2 0 0 0 Z " fill="#F5D05F" transform="translate(185,268)"/>
<path d="M0 0 C0 0.33 0 0.66 0 1 C-4.92737019 2.97094808 -8.78020872 3.1799928 -14 3 C-9.25294723 -0.16470185 -5.68228705 -0.10927475 0 0 Z " fill="#F3CD5A" transform="translate(209,260)"/>
<path d="M0 0 C0.33 0 0.66 0 1 0 C1.18451025 9.41002278 1.18451025 9.41002278 0 14 C-0.33 14 -0.66 14 -1 14 C-1.22331199 12.41870971 -1.42804644 10.83478911 -1.625 9.25 C-1.74101562 8.36828125 -1.85703125 7.4865625 -1.9765625 6.578125 C-2.00207817 3.77140122 -1.44843844 2.36615134 0 0 Z " fill="#F6C01B" transform="translate(442,249)"/>
<path d="M0 0 C2.97 0.99 5.94 1.98 9 3 C8.67 3.66 8.34 4.32 8 5 C5.6875 5.3125 5.6875 5.3125 3 5 C1.1875 2.5 1.1875 2.5 0 0 Z " fill="#3088B8" transform="translate(296,58)"/>
<path d="M0 0 C-1.28813342 0.83878455 -2.58063256 1.67086783 -3.875 2.5 C-4.59429687 2.9640625 -5.31359375 3.428125 -6.0546875 3.90625 C-8 5 -8 5 -10 5 C-9 2 -9 2 -6.125 0.25 C-3 -1 -3 -1 0 0 Z " fill="#F5D35E" transform="translate(316,433)"/>
<path d="M0 0 C0 0.66 0 1.32 0 2 C-0.99 2 -1.98 2 -3 2 C-3 2.66 -3 3.32 -3 4 C-5.31 4.33 -7.62 4.66 -10 5 C-7.31217681 1.88778367 -4.19734673 0 0 0 Z " fill="#F2D15D" transform="translate(195,263)"/>
<path d="M0 0 C0.66 0.33 1.32 0.66 2 1 C1.375 3.375 1.375 3.375 0 6 C-3.125 7.3125 -3.125 7.3125 -6 8 C-4.26440562 4.942048 -2.61527381 2.36620011 0 0 Z " fill="#F1CC5A" transform="translate(333,237)"/>
<path d="M0 0 C1.95216435 3.90432869 2.50639991 6.72213252 3 11 C2.67 10.34 2.34 9.68 2 9 C1.34 9 0.68 9 0 9 C0 6.03 0 3.06 0 0 Z " fill="#0C73AD" transform="translate(162,90)"/>
<path d="M0 0 C1.32 0.33 2.64 0.66 4 1 C4.33 2.65 4.66 4.3 5 6 C4.01 6 3.02 6 2 6 C1.34 4.02 0.68 2.04 0 0 Z " fill="#3D91C0" transform="translate(60,325)"/>
<path d="M0 0 C2.31 0.33 4.62 0.66 7 1 C7 1.99 7 2.98 7 4 C4.69 3.34 2.38 2.68 0 2 C0 1.34 0 0.68 0 0 Z " fill="#0D7BC3" transform="translate(288,234)"/>
<path d="M0 0 C1.7074998 1.28062485 3.37373596 2.61767557 5 4 C5 4.66 5 5.32 5 6 C3.68 6.33 2.36 6.66 1 7 C0.67 4.69 0.34 2.38 0 0 Z " fill="#378BC0" transform="translate(185,116)"/>
<path d="M0 0 C0.33 0 0.66 0 1 0 C1 2.31 1 4.62 1 7 C0.01 7 -0.98 7 -2 7 C-1.125 1.125 -1.125 1.125 0 0 Z " fill="#F6CC48" transform="translate(439,277)"/>
<path d="M0 0 C0 3.69418201 -1.28179295 5.77836178 -3 9 C-4.43088528 6.13822943 -3.59991697 4.06624227 -3 1 C-2.01 0.67 -1.02 0.34 0 0 Z " fill="#5BA2C9" transform="translate(149,273)"/>
<path d="M0 0 C0 0.66 0 1.32 0 2 C-2.3125 2.625 -2.3125 2.625 -5 3 C-5.99 2.34 -6.98 1.68 -8 1 C-3.375 -1.125 -3.375 -1.125 0 0 Z " fill="#438EC1" transform="translate(199,58)"/>
<path d="" fill="#FFFFFF" transform="translate(0,0)"/>
<path d="" fill="#FFFFFF" transform="translate(0,0)"/>
<path d="" fill="#FFFFFF" transform="translate(0,0)"/>
<path d="" fill="#FFFFFF" transform="translate(0,0)"/>
<path d="" fill="#FFFFFF" transform="translate(0,0)"/>
<path d="" fill="#FFFFFF" transform="translate(0,0)"/>
<path d="" fill="#FFFFFF" transform="translate(0,0)"/>
<path d="" fill="#FFFFFF" transform="translate(0,0)"/>
<path d="" fill="#FFFFFF" transform="translate(0,0)"/>
<path d="" fill="#FFFFFF" transform="translate(0,0)"/>
<path d="" fill="#FFFFFF" transform="translate(0,0)"/>
<path d="" fill="#FFFFFF" transform="translate(0,0)"/>
<path d="" fill="#FFFFFF" transform="translate(0,0)"/>
<path d="" fill="#FFFFFF" transform="translate(0,0)"/>
<path d="" fill="#FFFFFF" transform="translate(0,0)"/>
<path d="" fill="#FFFFFF" transform="translate(0,0)"/>
<path d="" fill="#FFFFFF" transform="translate(0,0)"/>
<path d="" fill="#FFFFFF" transform="translate(0,0)"/>
<path d="" fill="#FFFFFF" transform="translate(0,0)"/>
<path d="" fill="#FFFFFF" transform="translate(0,0)"/>
<path d="" fill="#FFFFFF" transform="translate(0,0)"/>
<path d="" fill="#FFFFFF" transform="translate(0,0)"/>
<path d="" fill="#FFFFFF" transform="translate(0,0)"/>
<path d="" fill="#FFFFFF" transform="translate(0,0)"/>
<path d="" fill="#FFFFFF" transform="translate(0,0)"/>
<path d="" fill="#FFFFFF" transform="translate(0,0)"/>
<path d="" fill="#FFFFFF" transform="translate(0,0)"/>
<path d="" fill="#FFFFFF" transform="translate(0,0)"/>
<path d="" fill="#FFFFFF" transform="translate(0,0)"/>
<path d="" fill="#FFFFFF" transform="translate(0,0)"/>
<path d="" fill="#FFFFFF" transform="translate(0,0)"/>
<path d="" fill="#FFFFFF" transform="translate(0,0)"/>
<path d="" fill="#FFFFFF" transform="translate(0,0)"/>
<path d="" fill="#FFFFFF" transform="translate(0,0)"/>
<path d="" fill="#FFFFFF" transform="translate(0,0)"/>
<path d="" fill="#FFFFFF" transform="translate(0,0)"/>
<path d="" fill="#FFFFFF" transform="translate(0,0)"/>
<path d="" fill="#FFFFFF" transform="translate(0,0)"/>
<path d="" fill="#FFFFFF" transform="translate(0,0)"/>
<path d="" fill="#FFFFFF" transform="translate(0,0)"/>
<path d="" fill="#FFFFFF" transform="translate(0,0)"/>
<path d="" fill="#FFFFFF" transform="translate(0,0)"/>
<path d="" fill="#FFFFFF" transform="translate(0,0)"/>
<path d="" fill="#FFFFFF" transform="translate(0,0)"/>
<path d="" fill="#FFFFFF" transform="translate(0,0)"/>
</svg>
