<?xml version="1.0" encoding="UTF-8"?>
<svg version="1.1" xmlns="http://www.w3.org/2000/svg" width="960" height="1155">
<path d="M0 0 C1.74862587 -0.00855011 1.74862587 -0.00855011 3.53257751 -0.01727295 C5.99412139 -0.02667125 8.45567756 -0.03323621 10.91723633 -0.03710938 C14.5902461 -0.04671264 18.26267038 -0.07774423 21.93554688 -0.109375 C43.14264954 -0.20515678 63.96662838 1.69302983 84.77734375 5.828125 C86.05649658 6.08118408 87.33564941 6.33424316 88.65356445 6.5949707 C131.06805706 15.21694271 172.1542098 31.84694939 208.58984375 55.203125 C209.65203125 55.8734375 210.71421875 56.54375 211.80859375 57.234375 C226.9633412 67.05998049 241.19330316 78.10918836 254.58984375 90.203125 C255.11626465 90.67314941 255.64268555 91.14317383 256.18505859 91.62744141 C262.08008638 96.89132589 267.79750169 102.31971251 273.40234375 107.890625 C273.91748535 108.40109375 274.43262695 108.9115625 274.96337891 109.4375 C288.49524121 123.02583557 300.43219627 138.36857736 311.21679688 154.19042969 C312.5128509 156.09026421 313.8234486 157.9792336 315.13671875 159.8671875 C360.95429436 226.39383559 380.58842728 311.32594921 367.58984375 391.203125 C367.41291992 392.31204102 367.23599609 393.42095703 367.05371094 394.56347656 C360.37442517 435.4351682 347.81986128 481.22685339 322.0546875 514.53515625 C320.28096419 517.11399971 320.28096419 517.11399971 321.05078125 519.98046875 C321.55867187 521.04394531 322.0665625 522.10742188 322.58984375 523.203125 C322.91629883 523.89680176 323.24275391 524.59047852 323.57910156 525.30517578 C324.7672751 527.80409562 325.99157599 530.28371234 327.21484375 532.765625 C354.53500747 589.4333311 362.34641731 654.18997687 353.58984375 716.203125 C353.450625 717.20794922 353.31140625 718.21277344 353.16796875 719.24804688 C343.63911994 785.64118325 311.4109036 845.32466843 264.46484375 892.578125 C263.95955139 893.08886566 263.45425903 893.59960632 262.93365479 894.12582397 C256.16997888 900.943729 249.15780978 907.27359989 241.58984375 913.203125 C240.91695312 913.73534668 240.2440625 914.26756836 239.55078125 914.81591797 C228.68868045 923.31858056 217.22377995 930.81081734 205.58984375 938.203125 C203.79280186 939.34999896 201.99592854 940.49713709 200.19921875 941.64453125 C195.59433693 944.5819438 190.9840261 947.51072173 186.37207031 950.43701172 C181.77536964 953.35492438 177.18280397 956.27932968 172.58984375 959.203125 C170.75653053 960.36982327 168.92319719 961.53648992 167.08984375 962.703125 C165.72859375 963.569375 165.72859375 963.569375 164.33984375 964.453125 C102.92317708 1003.53645833 41.50651042 1042.61979167 -19.91015625 1081.703125 C-20.81773682 1082.28078613 -21.72531738 1082.85844727 -22.66040039 1083.45361328 C-24.49251791 1084.61928443 -26.3250372 1085.78432436 -28.15795898 1086.94873047 C-32.76340743 1089.87556517 -37.36119728 1092.8132841 -41.9453125 1095.7734375 C-90.53363589 1127.08448246 -141.61677197 1147.87170421 -199.41015625 1154.203125 C-200.23451172 1154.29883789 -201.05886719 1154.39455078 -201.90820312 1154.49316406 C-268.17373044 1161.16756194 -335.89240748 1147.50120299 -395.41015625 1118.203125 C-396.24836914 1117.79094727 -397.08658203 1117.37876953 -397.95019531 1116.95410156 C-421.77797956 1105.10228583 -444.11352285 1090.41179202 -464.41015625 1073.203125 C-465.82748047 1072.06230469 -465.82748047 1072.06230469 -467.2734375 1070.8984375 C-475.92721553 1063.83988214 -483.81735087 1056.01237751 -491.72265625 1048.140625 C-492.28228058 1047.58617706 -492.84190491 1047.03172913 -493.41848755 1046.46047974 C-500.55596957 1039.37504172 -507.16796631 1032.10575182 -513.41015625 1024.203125 C-514.41024036 1022.9942237 -515.41365702 1021.78806357 -516.421875 1020.5859375 C-560.08799148 967.74250845 -589.35174134 896.52104833 -589.61328125 827.6015625 C-589.61898132 826.40745758 -589.6246814 825.21335266 -589.6305542 823.98306274 C-589.63996122 821.46007154 -589.64652098 818.93706828 -589.65039062 816.4140625 C-589.66000436 812.63778875 -589.69103191 808.86208178 -589.72265625 805.0859375 C-589.79068189 789.55800144 -588.82902215 774.54217167 -586.41015625 759.203125 C-586.21131836 757.91067871 -586.01248047 756.61823242 -585.80761719 755.28662109 C-585.30751653 752.24653555 -584.75607864 749.22574432 -584.16015625 746.203125 C-583.95181152 745.13827881 -583.7434668 744.07343262 -583.52880859 742.97631836 C-576.60027582 708.93406032 -563.67939952 671.63860932 -542.921875 643.43359375 C-540.62968868 640.13645256 -540.62968868 640.13645256 -540.78125 636.1640625 C-541.31878906 635.18695312 -541.85632813 634.20984375 -542.41015625 633.203125 C-543.03076391 631.90589446 -543.64623285 630.60619865 -544.2578125 629.3046875 C-544.61117676 628.59094971 -544.96454102 627.87721191 -545.32861328 627.1418457 C-581.99706658 552.98330283 -586.60322021 462.78211254 -560.57128906 384.53564453 C-546.64645553 344.57055249 -525.75974793 308.61055 -497.41015625 277.203125 C-496.42569821 276.09512586 -495.44132166 274.9870543 -494.45703125 273.87890625 C-483.42114985 261.57334485 -471.35181231 250.44284697 -458.14306641 240.5078125 C-456.4458474 239.22999644 -454.76198003 237.93597405 -453.078125 236.640625 C-442.39224287 228.52337664 -431.03224114 221.44754566 -419.69628906 214.28369141 C-414.42120909 210.94385251 -409.16647567 207.57238026 -403.91015625 204.203125 C-401.82692646 202.8696299 -399.74359296 201.5362968 -397.66015625 200.203125 C-396.11328125 199.213125 -396.11328125 199.213125 -394.53515625 198.203125 C-333.07682292 158.86979167 -271.61848958 119.53645833 -210.16015625 80.203125 C-209.12850342 79.54280273 -208.09685059 78.88248047 -207.03393555 78.20214844 C-204.95490775 76.87170064 -202.87564415 75.54162122 -200.79614258 74.21191406 C-195.5199195 70.83744597 -190.24821375 67.45625927 -184.984375 64.0625 C-172.26570142 55.87112393 -159.50976238 47.77477166 -146.41015625 40.203125 C-145.40106201 39.6150708 -145.40106201 39.6150708 -144.37158203 39.01513672 C-101.73784259 14.43879054 -49.11525577 0.19209919 0 0 Z " fill="#FF3E00" transform="translate(589.41015625,-0.203125)"/>
<path d="M0 0 C1.89492187 0.35771484 1.89492187 0.35771484 3.828125 0.72265625 C44.23327751 9.19961664 79.21935282 29.93983038 109 58 C109.78246094 58.72832031 110.56492187 59.45664063 111.37109375 60.20703125 C127.11292875 75.33153938 140.00326164 94.69303494 150 114 C150.34514648 114.6590332 150.69029297 115.31806641 151.04589844 115.99707031 C159.11934948 131.60574232 164.82988361 148.71389366 168 166 C168.20085205 167.01392822 168.20085205 167.01392822 168.40576172 168.04833984 C170.70529876 179.93919676 171.29284495 191.73165248 171.3125 203.8125 C171.31599457 204.4974353 171.31948914 205.18237061 171.3230896 205.88806152 C171.38324404 227.12990047 167.32579343 246.95103673 160.3671875 266.9765625 C159.10548251 270.61818259 158.02387358 274.28480158 157 278 C153.94913934 277.39569894 151.92538943 276.45479677 149.41796875 274.62890625 C148.7415332 274.14228516 148.06509766 273.65566406 147.36816406 273.15429688 C146.64854492 272.62900391 145.92892578 272.10371094 145.1875 271.5625 C143.64546662 270.45832795 142.10248146 269.35548402 140.55859375 268.25390625 C139.78757324 267.70234863 139.01655273 267.15079102 138.22216797 266.58251953 C104.26728288 242.4015082 66.72803182 226.11610267 27 214 C27.01571045 213.40687012 27.0314209 212.81374023 27.04760742 212.20263672 C27.52258229 191.49212924 25.60662427 173.08656279 11.875 156.5625 C-0.59633376 143.92119917 -17.42642928 136.50037625 -35.1875 136.375 C-54.70079749 136.7754839 -69.45814369 145.51487211 -85.30859375 155.9296875 C-90.33978422 159.23397604 -95.41744697 162.46296752 -100.5 165.6875 C-108.51019901 170.77582801 -116.50919223 175.88127389 -124.5 181 C-133.22077159 186.58565688 -141.9516507 192.15504065 -150.69140625 197.7109375 C-157.63602297 202.12751389 -164.56960521 206.56114591 -171.5 211 C-180.22080933 216.58559813 -188.95165051 222.15504052 -197.69140625 227.7109375 C-204.63602297 232.12751389 -211.56960521 236.56114591 -218.5 241 C-226.32560296 246.01222668 -234.15742141 251.014376 -242 256 C-254.01698353 263.64015259 -266.00880356 271.31946045 -278 279 C-282.22893481 281.7086956 -286.4581119 284.41701223 -290.6875 287.125 C-292.23800049 288.11814209 -292.23800049 288.11814209 -293.81982422 289.13134766 C-299.75738456 292.93239565 -305.7047818 296.71734768 -311.66088867 300.48925781 C-316.1151626 303.31386201 -320.55930235 306.15411181 -325 309 C-325.84804199 309.54172852 -326.69608398 310.08345703 -327.56982422 310.64160156 C-343.95258545 321.14866215 -356.45516928 331.57313252 -361.58984375 351.26171875 C-364.17700335 368.53408905 -360.98354489 385.17061843 -351.18359375 399.69140625 C-341.63677543 412.32406484 -327.71737199 421.21027505 -312.203125 424.5703125 C-284.57734675 428.27620958 -263.50637786 415.03841782 -241.32421875 400.48046875 C-236.01750832 397.00089864 -230.6707383 393.58703024 -225.3125 390.1875 C-217.36434042 385.14152022 -209.42748585 380.07840251 -201.5 375 C-190.76939519 368.12932498 -180.03752455 361.26106225 -169.27099609 354.44677734 C-167.35384183 353.22542106 -165.44940249 351.98811583 -163.55078125 350.73828125 C-147.35542584 340.30127443 -129.38429767 332.62989063 -111 327 C-110.33548828 326.79294434 -109.67097656 326.58588867 -108.98632812 326.37255859 C-79.77939312 317.50136313 -46.80931154 317.5923299 -17 323 C-16.09910645 323.16097168 -15.19821289 323.32194336 -14.27001953 323.48779297 C18.42858708 329.56514514 50.08613596 344.15468788 76 365 C76.99773438 365.7940625 77.99546875 366.588125 79.0234375 367.40625 C93.27302094 378.97502098 106.26017228 392.10651222 117 407 C117.45036621 407.61665527 117.90073242 408.23331055 118.36474609 408.86865234 C140.60698746 439.50712603 156.97109311 478.00078839 157.203125 516.390625 C157.21357849 517.55822105 157.21357849 517.55822105 157.22424316 518.74940491 C157.24155167 521.24965883 157.2479636 523.74968865 157.25 526.25 C157.25100708 527.10314789 157.25201416 527.95629578 157.25305176 528.83529663 C157.24355135 540.71598135 156.9606128 552.29565793 154.43994141 563.95410156 C154.00173967 565.99190987 153.628553 568.03421928 153.26171875 570.0859375 C144.5222305 615.47175047 113.53927834 657.0804461 76 683 C72.24430224 685.50540516 68.41003033 687.87314094 64.55078125 690.21484375 C58.8657062 693.66764721 53.28293532 697.2794669 47.6875 700.875 C39.48539036 706.13540148 31.26887136 711.37111267 23.02539062 716.56640625 C14.26079773 722.09174858 5.52369866 727.66014744 -3.21484375 733.2265625 C-5.94457316 734.96470718 -8.67523185 736.70138106 -11.40625 738.4375 C-21.1141009 744.60955325 -30.81259837 750.79589313 -40.5 757 C-51.08706986 763.78028179 -61.68864146 770.53742103 -72.29833984 777.28222656 C-76.86646057 780.18673564 -81.43315077 783.09349229 -86 786 C-87.83332663 787.1666772 -89.66665996 788.33334387 -91.5 789.5 C-92.4075 790.0775 -93.315 790.655 -94.25 791.25 C-97 793 -99.75 794.75 -102.5 796.5 C-103.86161255 797.3664917 -103.86161255 797.3664917 -105.25073242 798.25048828 C-107.08159753 799.41556948 -108.9124894 800.58060864 -110.7434082 801.74560547 C-115.36472713 804.68618321 -119.9855592 807.62752092 -124.60546875 810.5703125 C-133.16446414 816.02122601 -141.72783843 821.46458369 -150.3125 826.875 C-157.7296292 831.55027824 -165.11776773 836.26984317 -172.5 841 C-174.63799393 842.36722957 -176.7760144 843.73441764 -178.9140625 845.1015625 C-182.66630317 847.50172896 -186.41125122 849.91241105 -190.1484375 852.3359375 C-208.30933523 864.0603423 -226.57253541 872.87299629 -247 880 C-247.74419189 880.27191162 -248.48838379 880.54382324 -249.25512695 880.82397461 C-279.37296368 891.51161173 -318.99693411 891.91794357 -350 885 C-350.99741211 884.77957031 -351.99482422 884.55914063 -353.02246094 884.33203125 C-397.16760031 874.20957891 -441.40024879 849.86318009 -470 814 C-470.82628906 812.98808594 -471.65257812 811.97617187 -472.50390625 810.93359375 C-488.20985322 791.50161131 -500.53252062 770.5408925 -509 747 C-509.28359375 746.21512207 -509.5671875 745.43024414 -509.859375 744.62158203 C-514.32781332 732.01457888 -517.0478929 719.22108898 -519 706 C-519.1045752 705.3097876 -519.20915039 704.6195752 -519.31689453 703.90844727 C-523.7209537 670.53135126 -516.85972781 637.75518562 -507 606 C-502.19201664 607.55391097 -498.78776901 610.30075101 -494.875 613.375 C-481.67477648 623.49506884 -467.44714456 632.03978323 -452.8515625 639.98388672 C-451.10912009 640.94011632 -449.38207815 641.92425676 -447.65625 642.91015625 C-425.33690513 655.37520321 -401.36494252 663.61818537 -377 671 C-377.01047363 671.61407715 -377.02094727 672.2281543 -377.03173828 672.86083984 C-377.07384209 675.69884997 -377.09949622 678.53679401 -377.125 681.375 C-377.15013672 682.82326172 -377.15013672 682.82326172 -377.17578125 684.30078125 C-377.27347867 698.85769691 -373.43523169 712.19713438 -364.55078125 723.87890625 C-363 726 -363 726 -362.04296875 728.15234375 C-360.71767994 730.50014004 -359.42401792 730.91751872 -357 732 C-356.0925 732.86625 -355.185 733.7325 -354.25 734.625 C-342.32353071 745.06386667 -326.20962016 749.64925791 -310.6640625 749.28515625 C-305.17980381 748.85834294 -300.22010241 747.6984397 -295 746 C-293.99839844 745.69449219 -292.99679687 745.38898437 -291.96484375 745.07421875 C-282.83501574 741.96306299 -275.33642991 736.94146566 -267.40429688 731.60058594 C-263.08564175 728.72557548 -258.69545397 725.96306181 -254.3125 723.1875 C-252.42955695 721.99109086 -250.54674548 720.79447461 -248.6640625 719.59765625 C-247.25495605 718.70264404 -247.25495605 718.70264404 -245.81738281 717.78955078 C-229.18932613 707.22770889 -212.58789417 696.62479277 -196 686 C-183.11112236 677.74448229 -170.21781053 669.49636081 -157.30126953 661.28417969 C-146.18510642 654.2140684 -135.09351986 647.10556436 -124 640 C-111.11334724 631.74590736 -98.22261592 623.49864311 -85.30786133 615.28857422 C-77.30368824 610.19821677 -69.31463296 605.08440319 -61.32739258 599.9675293 C-55.37038007 596.15262323 -49.40691217 592.34823517 -43.43457031 588.55737305 C-39.8397505 586.27402989 -36.24963569 583.9833447 -32.65966797 581.69238281 C-29.95626659 579.97217184 -27.24575322 578.26353158 -24.53515625 576.5546875 C-7.87884105 565.99099709 5.43942397 555.94034523 11 536 C14.32987197 520.17200859 12.14295078 504.26306922 4.140625 490.2421875 C-5.51833809 475.6127361 -19.52906086 465.91016764 -36.625 461.6875 C-61.25921768 457.61474812 -79.90643518 466.5211623 -100.109375 479.796875 C-105.70861616 483.47558108 -111.35406151 487.08102701 -117 490.6875 C-119.14847985 492.06113169 -121.29691682 493.43483042 -123.4453125 494.80859375 C-124.52586914 495.49937012 -125.60642578 496.19014648 -126.71972656 496.90185547 C-129.97836599 498.98616235 -133.23552306 501.07276508 -136.4921875 503.16015625 C-146.70047391 509.70219574 -156.90905072 516.24326683 -167.17456055 522.6953125 C-171.0764973 525.14779094 -174.96451458 527.61852038 -178.83203125 530.125 C-193.24450619 539.42962209 -207.85130252 547.1172602 -224 553 C-224.66708984 553.24991699 -225.33417969 553.49983398 -226.02148438 553.75732422 C-275.82579732 572.12528528 -335.11788665 567.88921879 -383 546 C-406.46270968 534.87869167 -426.14402353 520.79152619 -445 503 C-445.8559375 502.19820312 -446.711875 501.39640625 -447.59375 500.5703125 C-481.36590804 467.97376756 -505.13802287 418.43084211 -506.19569397 371.32579041 C-506.52134797 352.22678402 -506.81227299 333.61394985 -502 315 C-501.60844969 313.33255272 -501.21915496 311.66457429 -500.83203125 309.99609375 C-495.1283087 286.17521474 -484.18557426 263.25179415 -469 244 C-468.25105469 243.04222656 -467.50210938 242.08445312 -466.73046875 241.09765625 C-459.21244424 231.71000043 -451.36126717 222.59107866 -442 215 C-441.00613281 214.18015625 -440.01226562 213.3603125 -438.98828125 212.515625 C-430.83264424 205.88410542 -422.28030002 200.09552197 -413.38818359 194.50390625 C-410.8531678 192.90753564 -408.32626857 191.29889953 -405.80078125 189.6875 C-401.14750076 186.7189847 -396.48973835 183.75759767 -391.83056641 180.79833984 C-387.21865776 177.8682623 -382.60944299 174.93395422 -378 172 C-376.16668008 170.83331226 -374.33334673 169.66664561 -372.5 168.5 C-371.5925 167.9225 -370.685 167.345 -369.75 166.75 C-315.66666667 132.33333333 -261.58333333 97.91666667 -207.5 63.5 C-206.5922583 62.92233887 -205.6845166 62.34467773 -204.74926758 61.74951172 C-202.91840247 60.58443052 -201.0875106 59.41939136 -199.2565918 58.25439453 C-194.63527287 55.31381679 -190.0144408 52.37247908 -185.39453125 49.4296875 C-180.81236017 46.51107155 -176.2281347 43.59570255 -171.64306641 40.68164062 C-169.05574534 39.03546776 -166.47112387 37.38512073 -163.88671875 35.734375 C-154.72781944 29.8971828 -145.54407921 24.19044118 -136 19 C-134.93265625 18.41863281 -133.8653125 17.83726562 -132.765625 17.23828125 C-114.42105381 7.65690311 -95.27642888 1.90804601 -75 -2 C-73.86546387 -2.22042969 -73.86546387 -2.22042969 -72.70800781 -2.4453125 C-49.01833117 -6.7671555 -23.41373172 -4.63378227 0 0 Z " fill="#FFFEFE" transform="translate(654,135)"/>
</svg>
