<?xml version="1.0" encoding="UTF-8"?>
<svg version="1.1" xmlns="http://www.w3.org/2000/svg" width="700" height="700">
<path d="M0 0 C4.36522442 0.0170902 8.72989937 0.00689641 13.09510517 -0.01032925 C71.37340308 -0.2044266 143.69234459 0.24561467 190.73876953 39.39111328 C191.89699219 40.30570313 191.89699219 40.30570313 193.07861328 41.23876953 C226.50569678 68.90864006 234.39719003 117.22490103 238.92626953 157.82861328 C239.05355438 158.96861786 239.05355438 158.96861786 239.18341064 160.13165283 C247.55854806 236.01659251 255.83231983 352.29164472 206.80126953 416.83642578 C176.70302112 454.11721075 130.76433797 464.86239698 84.98486328 469.77001953 C82.90320985 469.98081577 80.82117342 470.1878644 78.73876953 470.39111328 C77.72443848 470.49020996 76.71010742 470.58930664 75.66503906 470.69140625 C-1.72694817 477.9703037 -112.39612499 485.12102749 -180.06591797 433.11376953 C-184.47451813 429.31633045 -184.47451813 429.31633045 -186.26123047 427.39111328 C-186.26123047 426.73111328 -186.26123047 426.07111328 -186.26123047 425.39111328 C-186.92123047 425.39111328 -187.58123047 425.39111328 -188.26123047 425.39111328 C-189.90318547 423.55383278 -191.40138077 421.7255572 -192.88623047 419.76611328 C-193.55392456 418.88693237 -193.55392456 418.88693237 -194.23510742 417.98999023 C-217.98890935 386.04229416 -224.86263181 345.135138 -228.26123047 306.39111328 C-228.35887695 305.28670898 -228.45652344 304.18230469 -228.55712891 303.04443359 C-235.00805789 226.82790225 -242.938326 114.36061117 -191.26123047 51.39111328 C-190.68888672 50.66666016 -190.11654297 49.94220703 -189.52685547 49.19580078 C-162.10810584 15.9016048 -111.48495263 6.97183052 -71.09703064 2.96520996 C-47.39441266 0.72309367 -23.80041911 -0.09391093 0 0 Z " fill="#007DE3" transform="translate(344.26123046875,113.60888671875)"/>
<path d="M0 0 C7.45750322 4.08999356 16.05757691 10.90558057 19.6875 18.8125 C19.54765705 21.77626836 19.29492346 23.23974338 17.11328125 25.296875 C16.41589844 25.71453125 15.71851563 26.1321875 15 26.5625 C14.20335937 27.05492187 13.40671875 27.54734375 12.5859375 28.0546875 C11.15121094 28.92480469 11.15121094 28.92480469 9.6875 29.8125 C7.80298338 31.01453262 5.92611318 32.22796107 4.04956055 33.44238281 C1.2682034 35.24181469 -1.52246504 37.02656012 -4.3125 38.8125 C-5.44171875 37.67361328 -5.44171875 37.67361328 -6.59375 36.51171875 C-8.63010646 34.48999129 -10.65962495 32.51892074 -12.8125 30.625 C-13.63234375 29.89216797 -13.63234375 29.89216797 -14.46875 29.14453125 C-19.96633201 25.1727612 -25.77854707 25.17925346 -32.3125 25.8125 C-35.9952886 27.19354572 -38.85286285 28.70558992 -41.3125 31.8125 C-43.06580187 37.0724056 -43.16831706 41.9148187 -40.875 47 C-34.1102318 54.42474559 -24.76783947 58.06334232 -15.75 62.0625 C20.51684531 78.46299645 20.51684531 78.46299645 27.625 96.14453125 C31.86656284 108.44098505 32.92529462 123.44331829 27.46484375 135.515625 C22.16412499 145.86262802 16.05320116 152.5113195 5.6875 157.8125 C4.97464844 158.204375 4.26179687 158.59625 3.52734375 159 C-12.63439313 166.75307307 -35.18201094 164.86013321 -51.8203125 160.05859375 C-57.01283472 158.20578101 -61.60563667 155.64795984 -66.3125 152.8125 C-67.02664063 152.46445312 -67.74078125 152.11640625 -68.4765625 151.7578125 C-71.28224342 150.3131853 -73.19744994 148.10204169 -75.3125 145.8125 C-76.055 145.01714844 -76.7975 144.22179687 -77.5625 143.40234375 C-86.3125 133.88110978 -86.3125 133.88110978 -86.3125 127.8125 C-84.93554688 126.53222656 -84.93554688 126.53222656 -83.03125 125.453125 C-82.35449219 125.05996094 -81.67773438 124.66679687 -80.98046875 124.26171875 C-80.26503906 123.86597656 -79.54960937 123.47023438 -78.8125 123.0625 C-77.73935547 122.44568359 -77.73935547 122.44568359 -76.64453125 121.81640625 C-74.87477839 120.80174794 -73.09456939 119.80536723 -71.3125 118.8125 C-73.36135637 116.200533 -75.33792117 113.78838248 -77.75 111.5 C-82.11182455 106.92540353 -85.16632834 101.75574459 -87.3125 95.8125 C-87.663125 95.1525 -88.01375 94.4925 -88.375 93.8125 C-89.4562858 91.50575696 -89.8140293 89.30485351 -90.3125 86.8125 C-90.6425 86.19375 -90.9725 85.575 -91.3125 84.9375 C-92.3125 82.8125 -92.3125 82.8125 -92.75 79.375 C-93.32711432 75.71994263 -94.02325475 73.69525328 -96.3125 70.8125 C-98.39783633 69.93427688 -98.39783633 69.93427688 -100.3125 69.8125 C-100.3125 70.1425 -100.3125 70.4725 -100.3125 70.8125 C-106.9375 70.9375 -106.9375 70.9375 -110.3125 69.8125 C-110.3125 70.4725 -110.3125 71.1325 -110.3125 71.8125 C-111.034375 71.77125 -111.75625 71.73 -112.5 71.6875 C-115.52113012 71.82177245 -117.53679063 72.68721242 -120.3125 73.8125 C-120.9725 73.4825 -121.6325 73.1525 -122.3125 72.8125 C-122.6425 73.4725 -122.9725 74.1325 -123.3125 74.8125 C-124.158125 75.3075 -125.00375 75.8025 -125.875 76.3125 C-126.679375 76.8075 -127.48375 77.3025 -128.3125 77.8125 C-128.3125 78.4725 -128.3125 79.1325 -128.3125 79.8125 C-129.3025 80.3075 -129.3025 80.3075 -130.3125 80.8125 C-131.42913199 85.44019076 -131.44410611 90.04119574 -131.41015625 94.77392578 C-131.40869598 95.54866241 -131.40723572 96.32339905 -131.4057312 97.12161255 C-131.40194158 98.79451262 -131.39584246 100.46740875 -131.38766479 102.14029312 C-131.37485263 104.78826959 -131.3683735 107.43619572 -131.36352539 110.084198 C-131.35212371 115.701988 -131.33287245 121.31973631 -131.3125 126.9375 C-131.28889446 133.45568421 -131.26851207 139.97384473 -131.25656128 146.49206161 C-131.25008139 149.10005623 -131.2375758 151.70797793 -131.22485352 154.31594849 C-131.22122113 155.91391944 -131.21786938 157.51189106 -131.21484375 159.10986328 C-131.20967743 159.83411499 -131.20451111 160.5583667 -131.19918823 161.30456543 C-131.19883815 164.63159026 -131.30979216 167.62950862 -132.3125 170.8125 C-132.89166216 173.56352026 -133.37467229 176.2743513 -133.75 179.0625 C-134.0284375 180.42375 -134.0284375 180.42375 -134.3125 181.8125 C-134.9725 182.1425 -135.6325 182.4725 -136.3125 182.8125 C-136.415625 183.369375 -136.51875 183.92625 -136.625 184.5 C-137.8605826 188.65605057 -140.77821201 191.86485153 -144.4375 194.125 C-147.23476076 195.15066228 -149.30002016 195.8125 -152.3125 195.8125 C-152.6425 196.4725 -152.9725 197.1325 -153.3125 197.8125 C-155.39554538 197.86668326 -157.47899768 197.90537551 -159.5625 197.9375 C-160.72265625 197.96070313 -161.8828125 197.98390625 -163.078125 198.0078125 C-166.19718795 197.81946329 -167.69607652 197.39643349 -170.3125 195.8125 C-171.17875 195.4825 -172.045 195.1525 -172.9375 194.8125 C-175.3125 193.8125 -175.3125 193.8125 -177.3125 191.8125 C-177.76625 191.379375 -178.22 190.94625 -178.6875 190.5 C-182.67881456 186.35517334 -184.6664678 183.62678982 -185.3125 177.8125 C-185.6425 177.1525 -185.9725 176.4925 -186.3125 175.8125 C-187.22153005 170.72720179 -187.44665338 165.76469802 -187.41015625 160.61401367 C-187.40869598 159.82616486 -187.40723572 159.03831604 -187.4057312 158.22659302 C-187.40194657 156.52860568 -187.39585287 154.83062219 -187.38766479 153.13265038 C-187.37484179 150.44733768 -187.3683712 147.76207466 -187.36352539 145.07673645 C-187.35213465 139.38446852 -187.33286709 133.69224195 -187.3125 128 C-187.28891239 121.38547886 -187.26853922 114.7709806 -187.25656128 108.15642738 C-187.2500659 105.50734486 -187.2375629 102.85833325 -187.22485352 100.20927429 C-187.22122293 98.59418805 -187.21787096 96.97910115 -187.21484375 95.36401367 C-187.20709427 94.25518074 -187.20709427 94.25518074 -187.19918823 93.12394714 C-187.13558058 89.34267456 -187.13558058 89.34267456 -188.3125 85.8125 C-187.9825 85.1525 -187.6525 84.4925 -187.3125 83.8125 C-188.3025 83.3175 -188.3025 83.3175 -189.3125 82.8125 C-189.6425 81.8225 -189.9725 80.8325 -190.3125 79.8125 C-195.31070704 74.80154243 -200.42829309 72.7887135 -207.3125 71.8125 C-208.488125 71.60625 -209.66375 71.4 -210.875 71.1875 C-212.0815625 71.001875 -212.0815625 71.001875 -213.3125 70.8125 C-213.3125 70.1525 -213.3125 69.4925 -213.3125 68.8125 C-214.199375 68.52375 -215.08625 68.235 -216 67.9375 C-217.6396875 67.380625 -217.6396875 67.380625 -219.3125 66.8125 C-220.17875 66.544375 -221.045 66.27625 -221.9375 66 C-224.9925055 64.47249725 -226.33995125 62.57406826 -228.3125 59.8125 C-229.1478125 58.8534375 -229.1478125 58.8534375 -230 57.875 C-231.67696588 55.23976791 -231.91191972 52.88361552 -232.3125 49.8125 C-232.6425 49.1525 -232.9725 48.4925 -233.3125 47.8125 C-234.26505942 42.02305554 -234.65459311 36.54689784 -233.3125 30.8125 C-232.3225 30.3175 -232.3225 30.3175 -231.3125 29.8125 C-231.3125 28.8225 -231.3125 27.8325 -231.3125 26.8125 C-230.03405388 23.06847923 -228.7605674 21.02443809 -225.71948242 18.47924805 C-223.88176978 16.30224576 -223.89071092 14.96832276 -223.80078125 12.14453125 C-223.76533203 11.25185547 -223.72988281 10.35917969 -223.69335938 9.43945312 C-223.65952148 8.04629883 -223.65952148 8.04629883 -223.625 6.625 C-223.59083984 5.68462891 -223.55667969 4.74425781 -223.52148438 3.77539062 C-223.43901782 1.45454607 -223.36986597 -0.86592148 -223.3125 -3.1875 C-206.77102931 -3.21082889 -190.22956394 -3.22847912 -173.68808079 -3.23931217 C-166.00811273 -3.24447515 -158.32815487 -3.25151789 -150.64819336 -3.26293945 C-143.95672011 -3.27288623 -137.26525424 -3.27935341 -130.5737738 -3.28158849 C-127.02854399 -3.28289561 -123.48333532 -3.28598153 -119.93811226 -3.29323006 C-115.98681355 -3.3012438 -112.0355358 -3.30149114 -108.08422852 -3.30102539 C-106.90028 -3.30462067 -105.71633148 -3.30821594 -104.49650574 -3.31192017 C-103.42653351 -3.3105455 -102.35656128 -3.30917084 -101.25416565 -3.30775452 C-100.31854577 -3.30867631 -99.38292589 -3.3095981 -98.4189539 -3.31054783 C-96.3125 -3.1875 -96.3125 -3.1875 -95.3125 -2.1875 C-95.22829099 -0.75725379 -95.20429265 0.67665455 -95.20703125 2.109375 C-95.18479492 3.42421875 -95.18479492 3.42421875 -95.16210938 4.765625 C-95.13757917 6.61442794 -95.13203977 8.46359075 -95.14648438 10.3125 C-95.14295767 15.2561952 -95.14295767 15.2561952 -92.9453125 19.49584961 C-91.12875423 21.00494179 -91.12875423 21.00494179 -88.3125 22.8125 C-87.6875 24.875 -87.6875 24.875 -87.3125 26.8125 C-85.70878155 29.16630651 -85.70878155 29.16630651 -83.3125 30.8125 C-80.144668 31.14698259 -80.144668 31.14698259 -77.3125 30.8125 C-77.21195313 30.28140625 -77.11140625 29.7503125 -77.0078125 29.203125 C-73.54040447 17.28147493 -65.74058513 7.15875918 -55.01171875 1.12890625 C-50.57682232 -1.03398824 -46.00053198 -2.66642473 -41.3125 -4.1875 C-28.98893265 -8.29535578 -11.5134637 -5.22697125 0 0 Z " fill="#0076D6" transform="translate(499.3125,342.1875)"/>
<path d="M0 0 C5.55748587 4.21103807 12.03331697 9.53779044 15 16 C14.86015705 18.96376836 14.60742346 20.42724338 12.42578125 22.484375 C11.72839844 22.90203125 11.03101563 23.3196875 10.3125 23.75 C9.51585937 24.24242187 8.71921875 24.73484375 7.8984375 25.2421875 C6.46371094 26.11230469 6.46371094 26.11230469 5 27 C3.11548338 28.20203262 1.23861318 29.41546107 -0.63793945 30.62988281 C-3.4192966 32.42931469 -6.20996504 34.21406012 -9 36 C-9.7528125 35.24074219 -10.505625 34.48148437 -11.28125 33.69921875 C-13.31760646 31.67749129 -15.34712495 29.70642074 -17.5 27.8125 C-18.0465625 27.32394531 -18.593125 26.83539063 -19.15625 26.33203125 C-24.65383201 22.3602612 -30.46604707 22.36675346 -37 23 C-40.6827886 24.38104572 -43.54036285 25.89308992 -46 29 C-47.75330187 34.2599056 -47.85581706 39.1023187 -45.5625 44.1875 C-38.7977318 51.61224559 -29.45533947 55.25084232 -20.4375 59.25 C15.82934531 75.65049645 15.82934531 75.65049645 22.9375 93.33203125 C27.17906284 105.62848505 28.23779462 120.63081829 22.77734375 132.703125 C17.47662499 143.05012802 11.36570116 149.6988195 1 155 C0.28714844 155.391875 -0.42570312 155.78375 -1.16015625 156.1875 C-17.32189313 163.94057307 -39.86951094 162.04763321 -56.5078125 157.24609375 C-61.70033472 155.39328101 -66.29313667 152.83545984 -71 150 C-72.07121094 149.47792969 -72.07121094 149.47792969 -73.1640625 148.9453125 C-75.96974342 147.5006853 -77.88494994 145.28954169 -80 143 C-81.11375 141.80697266 -81.11375 141.80697266 -82.25 140.58984375 C-91 131.06860978 -91 131.06860978 -91 125 C-88.8762207 123.24487305 -88.8762207 123.24487305 -85.92578125 121.51171875 C-84.86552734 120.88845703 -83.80527344 120.26519531 -82.71289062 119.62304688 C-81.02969727 118.66495117 -81.02969727 118.66495117 -79.3125 117.6875 C-78.20970703 117.02943359 -77.10691406 116.37136719 -75.97070312 115.69335938 C-74.90400391 115.07654297 -73.83730469 114.45972656 -72.73828125 113.82421875 C-71.75899658 113.25791748 -70.77971191 112.69161621 -69.77075195 112.1081543 C-66.60571543 110.84230702 -65.18810662 110.90529701 -62 112 C-60.19921875 113.55859375 -60.19921875 113.55859375 -58.6875 115.4375 C-58.17574219 116.05496094 -57.66398437 116.67242187 -57.13671875 117.30859375 C-56 119 -56 119 -56 121 C-55.195625 121.37125 -55.195625 121.37125 -54.375 121.75 C-52 123 -52 123 -49.3125 124.9375 C-41.64860987 129.70935612 -33.97836508 131.08581008 -25 130 C-21.49142698 128.97486138 -18.27010816 127.62320586 -15 126 C-13.90945313 125.51853516 -13.90945313 125.51853516 -12.796875 125.02734375 C-10.73872081 124.07419412 -10.73872081 124.07419412 -9.75 121.4375 C-8.54904444 115.93312034 -8.33317911 111.16716789 -10 105.75 C-14.69792574 99.29035211 -23.31829793 96.24596829 -30.375 92.9375 C-31.25671875 92.51662109 -32.1384375 92.09574219 -33.046875 91.66210938 C-37.40865177 89.59953898 -41.77508942 87.66980962 -46.27734375 85.93359375 C-52.47422405 83.49788568 -57.62562371 79.88995224 -63 76 C-63.68320312 75.51660156 -64.36640625 75.03320312 -65.0703125 74.53515625 C-72.91518363 68.46681423 -79.36328965 57.74438813 -81 48 C-81.23388207 44.58532178 -81.23080244 41.1719648 -81.25 37.75 C-81.270625 36.84636719 -81.29125 35.94273437 -81.3125 35.01171875 C-81.3766106 23.87250114 -77.51381714 14.04196055 -69.9609375 5.765625 C-64.84479019 0.95680809 -59.47360477 -2.32963803 -53 -5 C-52.278125 -5.3196875 -51.55625 -5.639375 -50.8125 -5.96875 C-35.4972859 -11.71195529 -13.49935745 -8.81683921 0 0 Z " fill="#FAFBFB" transform="translate(504,345)"/>
<path d="M0 0 C16.54147373 -0.02254694 33.0829344 -0.04097912 49.62441921 -0.05181217 C57.30438727 -0.05697515 64.98434513 -0.06401789 72.66430664 -0.07543945 C79.35577989 -0.08538623 86.04724576 -0.09185341 92.7387262 -0.09408849 C96.28395601 -0.09539561 99.82916468 -0.09848153 103.37438774 -0.10573006 C107.32568645 -0.1137438 111.2769642 -0.11399114 115.22827148 -0.11352539 C116.41222 -0.11712067 117.59616852 -0.12071594 118.81599426 -0.12442017 C119.88596649 -0.1230455 120.95593872 -0.12167084 122.05833435 -0.12025452 C122.99395423 -0.12117631 123.92957411 -0.1220981 124.8935461 -0.12304783 C127 0 127 0 128 1 C128.26876856 4.9496003 128.27151482 8.90337248 128.29516602 12.86132812 C128.31213218 14.83227034 128.3559652 16.80292299 128.40039062 18.7734375 C128.45418476 26.91704145 127.59533405 33.6267813 124 41 C123 42 123 42 119.03100586 42.11352539 C117.25894393 42.1133662 115.4868774 42.10766785 113.71484375 42.09765625 C112.78402481 42.0962413 111.85320587 42.09482635 110.8941803 42.09336853 C107.90858809 42.08775172 104.92306971 42.0751964 101.9375 42.0625 C99.91862087 42.05748716 97.89974057 42.05292388 95.88085938 42.04882812 C90.92054428 42.03777683 85.96028468 42.02050095 81 42 C81.00092179 42.62783355 81.00184359 43.2556671 81.00279331 43.9025259 C81.02484875 59.15790231 81.04141165 74.41327384 81.05181217 89.66866207 C81.05697508 97.04595956 81.06401767 104.42324643 81.07543945 111.80053711 C81.08538646 118.2283218 81.09185347 124.6560988 81.09408849 131.08389097 C81.09539557 134.48939278 81.09848125 137.89487258 81.10573006 141.30036736 C81.11293606 145.09601041 81.11399113 148.89160712 81.11352539 152.68725586 C81.11712067 153.82445068 81.12071594 154.96164551 81.12442017 156.13330078 C81.1230455 157.16120224 81.12167084 158.1891037 81.12025452 159.24815369 C81.12117631 160.14690185 81.1220981 161.04565001 81.12304783 161.97163296 C81 164 81 164 80 165 C77.63601532 165.1007812 75.30188689 165.13973215 72.9375 165.1328125 C72.23101318 165.13376923 71.52452637 165.13472595 70.79663086 165.13571167 C69.30029207 165.13639333 67.80395033 165.13454005 66.30761719 165.13037109 C64.00969843 165.12502257 61.71197514 165.13031651 59.4140625 165.13671875 C57.96354123 165.13605797 56.51302009 165.1347768 55.0625 165.1328125 C54.0250061 165.13584885 54.0250061 165.13584885 52.96655273 165.13894653 C48.11495224 165.11495224 48.11495224 165.11495224 47 164 C46.90372887 162.26640402 46.87812432 160.52885354 46.87974548 158.79258728 C46.87837082 157.66371597 46.87699615 156.53484467 46.87557983 155.37176514 C46.88097275 153.49765961 46.88097275 153.49765961 46.88647461 151.58569336 C46.88632858 150.27856888 46.88618256 148.9714444 46.8860321 147.62471008 C46.88574414 144.02982901 46.89164072 140.43498103 46.89860606 136.84010768 C46.90483974 133.08713748 46.90544341 129.3341666 46.90663147 125.58119202 C46.90974474 118.46969174 46.91795808 111.35820675 46.92798096 104.24671322 C46.93914222 96.15252934 46.94465258 88.05834474 46.94967639 79.96415508 C46.9601407 63.30942634 46.97848612 46.65471869 47 30 C31.49 30 15.98 30 0 30 C0 20.1 0 10.2 0 0 Z " fill="#FBFBFC" transform="translate(276,339)"/>
<path d="M0 0 C1.485 0.495 1.485 0.495 3 1 C4.125 3.4375 4.125 3.4375 5 6 C5.33 6.66 5.66 7.32 6 8 C5.67 8.66 5.34 9.32 5 10 C5.99 10.495 5.99 10.495 7 11 C6.67 11.66 6.34 12.32 6 13 C6.66 13 7.32 13 8 13 C7.979375 13.7425 7.95875 14.485 7.9375 15.25 C7.88947842 17.87616313 7.88947842 17.87616313 8.4921875 19.8515625 C10.29626902 27.48421508 8.81866005 35.51426534 7 43 C6.34 43 5.68 43 5 43 C5.33 43.99 5.66 44.98 6 46 C5.34 46 4.68 46 4 46 C4.33 46.99 4.66 47.98 5 49 C3.63817703 52.17758693 2.45140787 54.54859213 0 57 C-0.433125 57.598125 -0.86625 58.19625 -1.3125 58.8125 C-3.3420615 61.44341305 -5.6226294 63.68061405 -8 66 C-8.680625 66.70125 -9.36125 67.4025 -10.0625 68.125 C-12.54168356 70.5242099 -14.9500196 72.49091859 -18.0625 74 C-20.05626704 74.89644852 -20.05626704 74.89644852 -21.4375 76.5 C-23.4156595 78.39903312 -25.43558782 79.09899031 -28 80 C-28.33 79.67 -28.66 79.34 -29 79 C-29.99 79.99 -30.98 80.98 -32 82 C-32.66 81.67 -33.32 81.34 -34 81 C-34.66 81.66 -35.32 82.32 -36 83 C-36.66 82.67 -37.32 82.34 -38 82 C-38.33 82.66 -38.66 83.32 -39 84 C-39.33 83.67 -39.66 83.34 -40 83 C-40.66 83.66 -41.32 84.32 -42 85 C-43.485 84.505 -43.485 84.505 -45 84 C-45 84.66 -45 85.32 -45 86 C-46.65 85.67 -48.3 85.34 -50 85 C-50 85.66 -50 86.32 -50 87 C-52.31 86.67 -54.62 86.34 -57 86 C-57 86.66 -57 87.32 -57 88 C-59.75026417 88.05404449 -62.49946203 88.09369306 -65.25 88.125 C-66.02730469 88.14175781 -66.80460937 88.15851563 -67.60546875 88.17578125 C-71.65956035 88.21043161 -74.4477588 88.14826015 -78 86 C-78.99 86 -79.98 86 -81 86 C-82.66666667 85.66666667 -84.33333333 85.33333333 -86 85 C-86.99 85 -87.98 85 -89 85 C-89 84.34 -89 83.68 -89 83 C-89.99 83.33 -90.98 83.66 -92 84 C-92.33 83.34 -92.66 82.68 -93 82 C-93.99 82 -94.98 82 -96 82 C-97.485 81.505 -97.485 81.505 -99 81 C-99 80.34 -99 79.68 -99 79 C-100.8253125 78.62875 -100.8253125 78.62875 -102.6875 78.25 C-106.63164966 77.26396259 -108.97714428 75.77775931 -112 73 C-112.86625 72.319375 -113.7325 71.63875 -114.625 70.9375 C-119.1999128 67.2053343 -122.42197633 63.32791559 -125 58 C-125.66 57.01 -126.32 56.02 -127 55 C-126.9765625 52.22265625 -126.9765625 52.22265625 -126.625 49.0625 C-126.26169407 45.65333852 -126 42.43637055 -126 39 C-124.60658194 35.83314077 -123.45207641 33.45207641 -121 31 C-121.28566879 28.64934822 -121.28566879 28.64934822 -122 26 C-122.33944795 24.00102872 -122.67421616 22.00124361 -123 20 C-121.35 18.68 -119.7 17.36 -118 16 C-117.525625 17.11375 -117.05125 18.2275 -116.5625 19.375 C-113.30522142 25.93642448 -108.08961422 31.94025719 -102 36 C-102 36.66 -102 37.32 -102 38 C-101.43925781 38.10699219 -100.87851562 38.21398437 -100.30078125 38.32421875 C-97.60799906 39.1151378 -95.58660822 40.3568199 -93.1875 41.8125 C-76.2550729 51.10523044 -54.66138954 52.05069039 -36 48 C-23.15372743 44.09752713 -13.36029081 37.23501531 -6.6328125 25.64453125 C-2.47719198 17.51771124 -1.28825331 8.93398432 0 0 Z " fill="#0077D7" transform="translate(531,455)"/>
<path d="M0 0 C3.11080706 0.00540369 6.22147245 0.00000042 9.33227539 -0.00634766 C11.33422883 -0.00568749 13.33618218 -0.00440761 15.33813477 -0.00244141 C16.71490639 -0.00547775 16.71490639 -0.00547775 18.11949158 -0.00857544 C23.39310969 0.01048939 28.43191633 0.40631478 33.65454102 1.13037109 C34.66516602 1.13037109 35.67579102 1.13037109 36.71704102 1.13037109 C41.01754019 1.13037109 45.13970995 1.81331343 49.34204102 2.69287109 C51.9173343 3.25429887 51.9173343 3.25429887 55.65454102 3.13037109 C55.98454102 4.45037109 56.31454102 5.77037109 56.65454102 7.13037109 C49.90454102 9.25537109 49.90454102 9.25537109 47.65454102 8.13037109 C46.99454102 8.79037109 46.33454102 9.45037109 45.65454102 10.13037109 C44.66454102 9.47037109 43.67454102 8.81037109 42.65454102 8.13037109 C42.05641602 8.46037109 41.45829102 8.79037109 40.84204102 9.13037109 C38.02964479 10.41603794 35.7236523 10.13037109 32.65454102 10.13037109 C31.99454102 10.79037109 31.33454102 11.45037109 30.65454102 12.13037109 C29.31612429 11.81807386 27.98315027 11.48206178 26.65454102 11.13037109 C24.60057376 11.53967095 24.60057376 11.53967095 22.65454102 12.13037109 C21.66454102 12.13037109 20.67454102 12.13037109 19.65454102 12.13037109 C10.95341851 13.10243068 10.95341851 13.10243068 2.34204102 14.63037109 C-0.1321546 15.09068656 -2.5282136 15.34548716 -5.03295898 15.56787109 C-10.85743141 16.11636401 -16.56769394 17.15268863 -22.23217773 18.61865234 C-25.06196249 19.30386825 -27.91942304 19.79113371 -30.78295898 20.31787109 C-46.43350124 23.36260939 -61.54754895 28.2584524 -76.34545898 34.13037109 C-77.65450195 34.61763672 -77.65450195 34.61763672 -78.98999023 35.11474609 C-89.00060889 38.89985563 -98.79249864 43.80535902 -107.84545898 49.50537109 C-111.95935946 52.08090946 -115.62823996 53.10115967 -120.34545898 54.13037109 C-120.67545898 54.79037109 -121.00545898 55.45037109 -121.34545898 56.13037109 C-121.94358398 55.96537109 -122.54170898 55.80037109 -123.15795898 55.63037109 C-125.45890234 55.01895869 -125.45890234 55.01895869 -128.34545898 55.13037109 C-130.7757835 54.2726095 -132.02165795 53.80288093 -133.15795898 51.44287109 C-133.49338141 47.30599445 -133.25776649 43.54030088 -130.97045898 40.00537109 C-130.16608398 39.07724609 -130.16608398 39.07724609 -129.34545898 38.13037109 C-128.60295898 36.86193359 -128.60295898 36.86193359 -127.84545898 35.56787109 C-126.49782126 33.37795979 -125.32009959 31.76159594 -123.34545898 30.13037109 C-122.68545898 30.13037109 -122.02545898 30.13037109 -121.34545898 30.13037109 C-121.05670898 29.51162109 -120.76795898 28.89287109 -120.47045898 28.25537109 C-119.34545898 26.13037109 -119.34545898 26.13037109 -117.34545898 24.13037109 C-116.68545898 23.98599609 -116.02545898 23.84162109 -115.34545898 23.69287109 C-112.95905161 23.25578401 -112.95905161 23.25578401 -111.34545898 20.13037109 C-109.52514648 19.17333984 -109.52514648 19.17333984 -107.22045898 18.31787109 C-106.33358398 17.98400391 -105.44670898 17.65013672 -104.53295898 17.30615234 C-103.48108398 16.91814453 -102.42920898 16.53013672 -101.34545898 16.13037109 C-100.03232697 15.62550143 -98.71986456 15.11888789 -97.40795898 14.61083984 C-96.0123307 14.07514907 -94.61649713 13.53999284 -93.22045898 13.00537109 C-92.56416504 12.75166748 -91.90787109 12.49796387 -91.23168945 12.23657227 C-85.14978784 9.93935288 -78.931048 7.71877178 -72.34545898 8.13037109 C-72.34545898 7.47037109 -72.34545898 6.81037109 -72.34545898 6.13037109 C-63.33673837 4.37997201 -54.35684137 2.90691758 -45.22045898 2.00537109 C-44.45958984 1.93012207 -43.6987207 1.85487305 -42.91479492 1.77734375 C-40.39301903 1.54188629 -37.87003471 1.33362939 -35.34545898 1.13037109 C-34.31187256 1.04062012 -33.27828613 0.95086914 -32.21337891 0.85839844 C-21.47471316 0.01980092 -10.76614348 -0.02228838 0 0 Z " fill="#0B89E7" transform="translate(298.345458984375,132.86962890625)"/>
<path d="M0 0 C1.60287798 2.06084311 3.05019329 4.08707884 4.35546875 6.3515625 C6.03678365 9.05923828 7.87446245 11.31639845 10 13.6875 C10.680625 14.45449219 11.36125 15.22148437 12.0625 16.01171875 C14.03440002 18.17372093 14.03440002 18.17372093 17 20 C17 20.66 17 21.32 17 22 C17.56074219 22.10699219 18.12148438 22.21398437 18.69921875 22.32421875 C21.39200094 23.1151378 23.41339178 24.3568199 25.8125 25.8125 C42.7449271 35.10523044 64.33861046 36.05069039 83 32 C92.82335261 29.01583733 103.16644004 23.75033994 109 15 C110.32 15.33 111.64 15.66 113 16 C112.649375 16.78375 112.29875 17.5675 111.9375 18.375 C111.4734375 19.674375 111.4734375 19.674375 111 21 C111.495 21.99 111.495 21.99 112 23 C111.34 23.33 110.68 23.66 110 24 C109.6550855 25.33038449 109.32483418 26.66457061 109 28 C108.03112419 30.01526169 107.0358679 32.01833966 106 34 C105.34 34 104.68 34 104 34 C103.566875 34.721875 103.13375 35.44375 102.6875 36.1875 C100.48989604 39.85017327 97.87132708 43.06433646 94 45 C93.505 45.99 93.505 45.99 93 47 C91.37292584 47.4745633 89.74300779 47.94109882 88.1015625 48.36328125 C85.74794496 49.07636612 83.60578959 50.02917439 81.375 51.0625 C78.22455149 52.50468167 75.43699494 53.45731659 72 54 C70.865625 54.37125 69.73125 54.7425 68.5625 55.125 C64.81732587 56.04486733 62.72261087 55.72833691 59 55 C57.33289561 55.33113717 55.66629733 55.66482525 54 56 C45.28594927 56.47430909 37.74795521 56.33885492 30 52 C29.01 52.66 28.02 53.32 27 54 C26.67 53.01 26.34 52.02 26 51 C25.01 51 24.02 51 23 51 C21.33333333 49.33333333 19.66666667 47.66666667 18 46 C17.01 46 16.02 46 15 46 C14.67 45.34 14.34 44.68 14 44 C12.15811388 41.94729537 12.15811388 41.94729537 10 41 C9.62127066 39.34305915 9.29749946 37.67343448 9 36 C8.608125 34.989375 8.21625 33.97875 7.8125 32.9375 C6.85595138 29.47920884 7.39893619 29.00199465 9 26 C7.70929122 22.56540207 5.5380023 20.22239726 3.0625 17.5625 C0.25844801 14.54879926 -2.09268792 11.66420522 -4 8 C-3.85384384 4.93072068 -3.44619548 3.51758675 -1.4375 1.1875 C-0.963125 0.795625 -0.48875 0.40375 0 0 Z " fill="#0070CC" transform="translate(412,471)"/>
<path d="M0 0 C11.19573244 -0.02312269 22.39145924 -0.04091471 33.58721066 -0.05181217 C38.78528115 -0.05704116 43.98333536 -0.0641391 49.18139648 -0.07543945 C54.19342268 -0.08626776 59.20543318 -0.09227671 64.21747017 -0.09487724 C66.13412282 -0.09673159 68.05077457 -0.1003524 69.96742058 -0.10573006 C72.64228072 -0.11293975 75.31707514 -0.11399097 77.99194336 -0.11352539 C78.7925116 -0.11712067 79.59307983 -0.12071594 80.41790771 -0.12442017 C85.88594784 -0.11405216 85.88594784 -0.11405216 87 1 C87.26876856 4.9496003 87.27151482 8.90337248 87.29516602 12.86132812 C87.31213218 14.83227034 87.3559652 16.80292299 87.40039062 18.7734375 C87.45418476 26.91704145 86.59533405 33.6267813 83 41 C82 42 82 42 78.03100586 42.11352539 C76.25894393 42.1133662 74.4868774 42.10766785 72.71484375 42.09765625 C71.78402481 42.0962413 70.85320587 42.09482635 69.8941803 42.09336853 C66.90858809 42.08775172 63.92306971 42.0751964 60.9375 42.0625 C58.91862087 42.05748716 56.89974057 42.05292388 54.88085938 42.04882812 C49.92054428 42.03777683 44.96028468 42.02050095 40 42 C40.00092179 42.62783355 40.00184359 43.2556671 40.00279331 43.9025259 C40.02484875 59.15790231 40.04141165 74.41327384 40.05181217 89.66866207 C40.05697508 97.04595956 40.06401767 104.42324643 40.07543945 111.80053711 C40.08538646 118.2283218 40.09185347 124.6560988 40.09408849 131.08389097 C40.09539557 134.48939278 40.09848125 137.89487258 40.10573006 141.30036736 C40.11293606 145.09601041 40.11399113 148.89160712 40.11352539 152.68725586 C40.11712067 153.82445068 40.12071594 154.96164551 40.12442017 156.13330078 C40.1230455 157.16120224 40.12167084 158.1891037 40.12025452 159.24815369 C40.12117631 160.14690185 40.1220981 161.04565001 40.12304783 161.97163296 C40 164 40 164 39 165 C36.63601532 165.1007812 34.30188689 165.13973215 31.9375 165.1328125 C31.23101318 165.13376923 30.52452637 165.13472595 29.79663086 165.13571167 C28.30029207 165.13639333 26.80395033 165.13454005 25.30761719 165.13037109 C23.00969843 165.12502257 20.71197514 165.13031651 18.4140625 165.13671875 C16.96354123 165.13605797 15.51302009 165.1347768 14.0625 165.1328125 C13.0250061 165.13584885 13.0250061 165.13584885 11.96655273 165.13894653 C7.11495224 165.11495224 7.11495224 165.11495224 6 164 C5.90372887 162.26640402 5.87812432 160.52885354 5.87974548 158.79258728 C5.87837082 157.66371597 5.87699615 156.53484467 5.87557983 155.37176514 C5.88097275 153.49765961 5.88097275 153.49765961 5.88647461 151.58569336 C5.88632858 150.27856888 5.88618256 148.9714444 5.8860321 147.62471008 C5.88574414 144.02982901 5.89164072 140.43498103 5.89860606 136.84010768 C5.90483974 133.08713748 5.90544341 129.3341666 5.90663147 125.58119202 C5.90974474 118.46969174 5.91795808 111.35820675 5.92798096 104.24671322 C5.93914222 96.15252934 5.94465258 88.05834474 5.94967639 79.96415508 C5.9601407 63.30942634 5.97848612 46.65471869 6 30 C-9.51 30 -25.02 30 -41 30 C-37.90272912 26.90272912 -37.18360308 26.5341665 -33.125 25.8125 C-31.86042969 25.57466797 -31.86042969 25.57466797 -30.5703125 25.33203125 C-28.00847305 25.00109454 -25.58003378 24.94465274 -23 25 C-20.27958781 25 -17.57071321 24.93494682 -14.8515625 24.859375 C-12.77605577 24.82212232 -10.70053406 24.78569715 -8.625 24.75 C-7.5834375 24.71648437 -6.541875 24.68296875 -5.46875 24.6484375 C-3.95667969 24.62910156 -3.95667969 24.62910156 -2.4140625 24.609375 C-1.4957666 24.58842773 -0.5774707 24.56748047 0.36865234 24.54589844 C4.20483349 25.20792265 5.43242659 25.99439652 8 29 C8.73614889 33.24469702 8.57060897 37.4589731 8.47583008 41.75488281 C8.46680664 43.06244537 8.4577832 44.37000793 8.44848633 45.7171936 C8.42319217 49.30000309 8.36689108 52.8817343 8.3050406 56.46407413 C8.24565191 60.20884271 8.21474904 63.95384329 8.18083191 67.69891357 C8.11228432 74.78939472 8.01809843 81.8792945 7.91471261 88.9693439 C7.79825148 97.04163121 7.71035304 105.1141503 7.62486041 113.18681574 C7.44836816 129.7916761 7.23598482 146.39587634 7 163 C7.53666794 162.7868364 8.07333588 162.57367279 8.62626648 162.35404968 C9.69237907 161.94035881 9.69237907 161.94035881 10.7800293 161.51831055 C11.8325312 161.10575264 11.8325312 161.10575264 12.90629578 160.68486023 C15.9177489 159.69980014 18.66283984 159.7116212 21.8125 159.8125 C23.46185547 159.85310547 23.46185547 159.85310547 25.14453125 159.89453125 C26.08683594 159.92933594 27.02914062 159.96414063 28 160 C28.99 160 29.98 160 31 160 C32.67099977 160.31088368 34.33871537 160.64080332 36 161 C35.75663674 159.92410897 35.75663674 159.92410897 35.50835705 158.82648277 C35.01273553 156.07080999 34.87153247 153.57236109 34.86628723 150.77627563 C34.85988976 149.22872841 34.85988976 149.22872841 34.85336304 147.6499176 C34.85404282 145.96816689 34.85404282 145.96816689 34.85473633 144.25244141 C34.85137772 143.06326614 34.8480191 141.87409088 34.84455872 140.64888 C34.83669586 137.39466765 34.8333817 134.14049362 34.83274293 130.88627291 C34.83203098 128.85077804 34.8298939 126.81528981 34.82724571 124.7797966 C34.81800093 117.67187833 34.81390975 110.56397878 34.81469727 103.45605469 C34.81529787 96.841262 34.80474722 90.2265509 34.7889536 83.61177886 C34.77585792 77.92328911 34.77051422 72.23482597 34.77115268 66.54632127 C34.77140706 63.15297917 34.76858878 59.75970962 34.75797462 56.3663826 C34.74817494 52.57963543 34.75105284 48.79309822 34.75708008 45.00634766 C34.75146057 43.88922897 34.74584106 42.77211029 34.74005127 41.62113953 C34.76271359 36.01652842 35.10514428 31.2904233 37 26 C44.625 25 44.625 25 48 25 C49.76477282 24.98314077 51.52954499 24.9662056 53.29431152 24.94869995 C56.24972186 24.92209425 59.20515786 24.9057346 62.16064453 24.89013672 C63.72024212 24.8800454 65.27982065 24.86637331 66.83935547 24.84912109 C69.09086732 24.82488062 71.34213158 24.81352367 73.59375 24.8046875 C74.63915955 24.78920364 74.63915955 24.78920364 75.70568848 24.77340698 C79.37695477 24.77255479 80.85536793 24.90357862 84 27 C83.89171875 26.14728516 83.89171875 26.14728516 83.78125 25.27734375 C82.72232081 16.46764117 83.20683882 9.96580591 85 1 C56.95 1 28.9 1 0 1 C0 0.67 0 0.34 0 0 Z " fill="#EBF0F2" transform="translate(317,339)"/>
<path d="M0 0 C15.51 0 31.02 0 47 0 C47.33 44.22 47.66 88.44 48 134 C63.84 134.495 63.84 134.495 80 135 C79.34 136.32 78.68 137.64 78 139 C73.90658501 139.02469575 69.81319879 139.04285793 65.71972656 139.05493164 C64.32681523 139.0599643 62.9339092 139.06679098 61.54101562 139.07543945 C59.54038754 139.08755152 57.53972112 139.09270412 55.5390625 139.09765625 C54.33459473 139.10289307 53.13012695 139.10812988 51.88916016 139.11352539 C49 139 49 139 47 138 C45.73960266 134.21880798 45.83121236 130.66488808 45.81054688 126.72412109 C45.80225357 125.87982544 45.79396027 125.03552979 45.78541565 124.16564941 C45.76801268 122.33067068 45.75284653 120.4956697 45.73963928 118.66065598 C45.71858808 115.75105814 45.69156249 112.84157016 45.66296387 109.93203735 C45.6032567 103.74640086 45.55117607 97.56071214 45.5 91.375 C45.44063617 84.22631588 45.37811557 77.07768477 45.30812073 69.92909622 C45.28170512 67.07265177 45.2607884 64.21620161 45.2401123 61.35971069 C45.22349075 59.59055332 45.20661732 57.82139829 45.18945312 56.05224609 C45.18526871 55.26645172 45.18108429 54.48065735 45.17677307 53.67105103 C45.15195345 51.44456478 45.08994317 49.22477814 45 47 C44.96889633 46.17768513 44.93779266 45.35537025 44.90574646 44.50813675 C44.85044266 43.69999905 44.79513885 42.89186134 44.73815918 42.05923462 C44.69346245 41.32880762 44.64876572 40.59838062 44.60271454 39.84581947 C44.16375711 37.81091598 44.16375711 37.81091598 42.07886505 36.87129784 C41.39283958 36.58376955 40.70681412 36.29624126 40 36 C39.34 35.34 38.68 34.68 38 34 C37.34 34.66 36.68 35.32 36 36 C35.34 35.01 34.68 34.02 34 33 C31.55936559 32.32852082 31.55936559 32.32852082 29 32 C28.01 31.67 27.02 31.34 26 31 C25.67 31.66 25.34 32.32 25 33 C24.34 32.01 23.68 31.02 23 30 C22.34 30 21.68 30 21 30 C20.67 30.66 20.34 31.32 20 32 C19.34 31.01 18.68 30.02 18 29 C17.01 29.33 16.02 29.66 15 30 C14.34 29.01 13.68 28.02 13 27 C11.82663102 25.8808282 10.63789745 24.7776313 9.4375 23.6875 C6.91227761 21.20952709 6.05071173 20.16798262 5 16.6875 C5 14 5 14 6 12 C4.68 11.67 3.36 11.34 2 11 C0.80712589 7.12315913 0 4.08378077 0 0 Z " fill="#0070CC" transform="translate(276,369)"/>
<path d="M0 0 C4.8977362 2.78856616 8.32614107 7.2230958 11.8125 11.5625 C18.51879026 8.04736719 24.68338942 4.00258637 30.8125 -0.4375 C31.4725 -0.1075 32.1325 0.2225 32.8125 0.5625 C31.53187515 2.2699998 30.19482443 3.93623596 28.8125 5.5625 C28.1525 5.5625 27.4925 5.5625 26.8125 5.5625 C26.379375 6.490625 26.379375 6.490625 25.9375 7.4375 C24.8125 9.5625 24.8125 9.5625 22.8125 11.5625 C23.96423355 14.03050047 24.86033565 15.61033565 26.8125 17.5625 C26.1525 17.5625 25.4925 17.5625 24.8125 17.5625 C24.1525 19.5425 23.4925 21.5225 22.8125 23.5625 C23.4725 23.8925 24.1325 24.2225 24.8125 24.5625 C23.4375 26.0625 23.4375 26.0625 21.8125 27.5625 C21.1525 27.5625 20.4925 27.5625 19.8125 27.5625 C19.8125 28.2225 19.8125 28.8825 19.8125 29.5625 C16.93558769 32.22630769 14.61325007 32.91359145 10.8125 33.5625 C9.9875 33.8925 9.1625 34.2225 8.3125 34.5625 C3.93825474 36.3121981 1.32713374 36.98508996 -3.11328125 35.15625 C-4.5841646 34.47673957 -6.04621741 33.77786596 -7.5 33.0625 C-8.25676025 32.69737305 -9.01352051 32.33224609 -9.79321289 31.95605469 C-16.51025933 28.60587067 -23.27995759 24.84507085 -26.1875 17.5625 C-26.76615799 13.3615933 -26.65475091 9.6691469 -25 5.75 C-18.68440167 -1.87227384 -9.20468933 -4.01791995 0 0 Z " fill="#0171CD" transform="translate(482.1875,368.4375)"/>
<path d="M0 0 C0.495 1.485 0.495 1.485 1 3 C-0.11375 3.28875 -1.2275 3.5775 -2.375 3.875 C-6.00291092 4.69241329 -6.00291092 4.69241329 -8 7 C-9.98982813 7.69643985 -11.99294757 8.354876 -14 9 C-17.34934165 10.29353885 -20.67226964 11.65199562 -24 13 C-25.52066105 13.60460017 -27.04149622 14.20876256 -28.5625 14.8125 C-30.37526039 15.54101909 -32.18771981 16.27028718 -34 17 C-34.61794434 17.24621094 -35.23588867 17.49242187 -35.87255859 17.74609375 C-43.53164588 20.80314649 -51.09256086 23.92858349 -58.4375 27.6875 C-66.36345952 31.73673018 -74.22381292 35.30634986 -83 37 C-86.73639216 35.75453595 -87.18756513 34.36595047 -89 31 C-84.69472115 22.74233402 -81.8036429 18.64288672 -73 15 C-72.13375 14.38125 -71.2675 13.7625 -70.375 13.125 C-64.82001647 9.62741778 -57.66179243 6 -51 6 C-51 5.34 -51 4.68 -51 4 C-11.42721372 -6.08910145 -11.42721372 -6.08910145 0 0 Z " fill="#44A6EE" transform="translate(262,141)"/>
<path d="M0 0 C0.96886574 2.90659722 1.08280309 4.56559567 0.9921875 7.5703125 C0.97542969 8.4675 0.95867187 9.3646875 0.94140625 10.2890625 C0.89767921 12.15646438 0.84580507 14.02369609 0.78515625 15.890625 C0.60419665 27.43913739 4.7703966 37.09993463 12.4375 45.75 C13.283125 46.4925 14.12875 47.235 15 48 C15.680625 48.66708984 15.680625 48.66708984 16.375 49.34765625 C24.61255539 57.07036442 35.00526075 61.78604172 45.48828125 65.58984375 C49.79802561 67.320453 53.88594222 69.35114143 58 71.5 C58.71841064 71.86794678 59.43682129 72.23589355 60.17700195 72.61499023 C65.64239779 75.52501904 70.80694287 78.91759845 73 85 C73.77697792 90.54984229 73.35658817 95.38469126 70 100 C67.49176205 101.98504721 64.94880226 103.74159394 62 105 C61.34 104.67 60.68 104.34 60 104 C60.32226562 103.43023437 60.64453125 102.86046875 60.9765625 102.2734375 C62.05885477 99.86926155 62.32903062 98.2452549 62.375 95.625 C62.40335937 94.89539063 62.43171875 94.16578125 62.4609375 93.4140625 C61.68708897 89.3611948 59.7515083 86.28704058 56.39990234 83.82421875 C54.46913941 82.68841444 52.51005031 81.67620117 50.5 80.6875 C49.76386475 80.30996582 49.02772949 79.93243164 48.26928711 79.54345703 C42.46013717 76.60821811 36.52139496 73.98830525 30.5625 71.375 C23.44520338 68.24621488 17.0452571 64.96408612 11 60 C10.2884375 59.45988281 9.576875 58.91976562 8.84375 58.36328125 C0.89952584 52.00493766 -4.40694602 43.08063666 -6 33 C-7.15499477 21.40408236 -5.99183082 11.589228 -1 1 C-0.67 0.67 -0.34 0.34 0 0 Z " fill="#969B9E" transform="translate(423,369)"/>
<path d="M0 0 C2.07987416 -0.00220455 4.15923151 -0.02048176 6.23901367 -0.03930664 C7.58341294 -0.04223862 8.92781467 -0.04422472 10.2722168 -0.04516602 C11.47064209 -0.0492749 12.66906738 -0.05338379 13.90380859 -0.05761719 C17.7148668 0.20828302 20.76275716 1.01670465 24.38549805 2.18530273 C24.71549805 1.52530273 25.04549805 0.86530273 25.38549805 0.18530273 C26.37549805 1.17530273 27.36549805 2.16530273 28.38549805 3.18530273 C26.01049805 4.74780273 26.01049805 4.74780273 23.38549805 6.18530273 C22.39549805 5.69030273 22.39549805 5.69030273 21.38549805 5.18530273 C21.05549805 5.84530273 20.72549805 6.50530273 20.38549805 7.18530273 C19.39549805 7.18530273 18.40549805 7.18530273 17.38549805 7.18530273 C16.60174805 7.53592773 15.81799805 7.88655273 15.01049805 8.24780273 C11.99019458 9.32648254 10.42336706 9.05326531 7.38549805 8.18530273 C7.05549805 9.17530273 6.72549805 10.16530273 6.38549805 11.18530273 C5.39549805 10.85530273 4.40549805 10.52530273 3.38549805 10.18530273 C1.64944557 10.90592829 -0.0847673 11.63339737 -1.7902832 12.42358398 C-4.33830922 13.48753489 -6.8902071 13.78800974 -9.61450195 14.18530273 C-11.9577649 14.81618122 -14.29014175 15.48799467 -16.61450195 16.18530273 C-18.28116862 16.68530273 -19.94783529 17.18530273 -21.61450195 17.68530273 C-22.46657227 17.94311523 -23.31864258 18.20092773 -24.1965332 18.46655273 C-26.22315225 19.06897261 -28.26144456 19.63193124 -30.30200195 20.18530273 C-33.12205475 21.03663943 -35.71249703 22.06596758 -38.39575195 23.26733398 C-42.59517613 25.00477181 -46.91690748 26.42325911 -51.2121582 27.90405273 C-54.6431675 29.12396185 -54.6431675 29.12396185 -57.8605957 30.84155273 C-60.61450195 32.18530273 -60.61450195 32.18530273 -63.61450195 32.18530273 C-64.10950195 33.17530273 -64.10950195 33.17530273 -64.61450195 34.18530273 C-67.2639379 35.55141815 -69.90378025 36.82766468 -72.61450195 38.06030273 C-73.39180664 38.41745361 -74.16911133 38.77460449 -74.9699707 39.14257812 C-76.50405297 39.84650218 -78.03918372 40.54814652 -79.57543945 41.24731445 C-81.20356905 41.99626966 -82.81786076 42.77528282 -84.42700195 43.56420898 C-89.25737987 45.90176687 -94.16217155 47.77064238 -99.61450195 47.18530273 C-102.36450195 45.37280273 -102.36450195 45.37280273 -103.61450195 42.18530273 C-102.87797279 36.26399593 -100.71160629 31.52341321 -96.61450195 27.18530273 C-95.78091205 26.10216681 -94.94758827 25.01882604 -94.11450195 23.93530273 C-91.6187307 21.18995436 -91.03468395 20.77498929 -87.61450195 20.18530273 C-86.95450195 19.19530273 -86.29450195 18.20530273 -85.61450195 17.18530273 C-83.79418945 16.22827148 -83.79418945 16.22827148 -81.48950195 15.37280273 C-80.58973633 15.03635742 -79.6899707 14.69991211 -78.76293945 14.35327148 C-77.72395508 13.9678418 -76.6849707 13.58241211 -75.61450195 13.18530273 C-74.43114258 12.70706055 -73.2477832 12.22881836 -72.02856445 11.73608398 C-57.02253484 5.72642469 -41.83710996 2.82737921 -25.77587891 1.39013672 C-24.31939482 1.25210553 -22.86461269 1.09494361 -21.41210938 0.91992188 C-14.28308161 0.08910369 -7.16942603 -0.00085057 0 0 Z M-39.36450195 4.49780273 C-40.82460693 4.69756714 -40.82460693 4.69756714 -42.31420898 4.90136719 C-48.90226615 5.84243945 -55.29342903 7.05307479 -61.61450195 9.18530273 C-61.61450195 9.84530273 -61.61450195 10.50530273 -61.61450195 11.18530273 C-62.85200195 11.39155273 -64.08950195 11.59780273 -65.36450195 11.81030273 C-73.1675872 13.52920741 -80.286977 17.38132501 -86.61450195 22.18530273 C-87.85200195 22.64936523 -87.85200195 22.64936523 -89.11450195 23.12280273 C-94.83121467 25.55240564 -96.59551167 29.90924899 -98.88012695 35.35717773 C-99.1224707 35.96045898 -99.36481445 36.56374023 -99.61450195 37.18530273 C-97.25157539 39.71118975 -95.94987684 41.0735111 -92.61450195 42.18530273 C-89.88441716 41.27527447 -87.27697181 40.26706214 -84.61450195 39.18530273 C-83.66188477 38.83209961 -82.70926758 38.47889648 -81.7277832 38.11499023 C-73.12428582 34.91910314 -64.88833422 31.13327846 -56.61450195 27.18530273 C-43.70030992 21.04318701 -43.70030992 21.04318701 -36.80200195 18.90014648 C-33.43455945 17.79971438 -30.18160659 16.43118605 -26.90356445 15.09155273 C-25.06337813 14.3630148 -23.18658335 13.72729111 -21.30200195 13.12280273 C-18.46013344 12.13145325 -16.18181873 10.73920499 -13.61450195 9.18530273 C-11.30200195 8.49780273 -11.30200195 8.49780273 -9.61450195 8.18530273 C-10.27399492 6.14545406 -10.27399492 6.14545406 -11.61450195 4.18530273 C-13.79091312 3.47954067 -13.79091312 3.47954067 -16.30200195 3.43530273 C-17.54530273 3.35022461 -17.54530273 3.35022461 -18.8137207 3.26342773 C-19.73797852 3.23764648 -20.66223633 3.21186523 -21.61450195 3.18530273 C-22.65735352 3.15307617 -23.70020508 3.12084961 -24.7746582 3.08764648 C-29.69871734 3.21287688 -34.48926533 3.82167806 -39.36450195 4.49780273 Z " fill="#2195EB" transform="translate(272.614501953125,135.814697265625)"/>
<path d="M0 0 C3.32656613 1.88505414 3.95908964 2.86817772 5.125 6.625 C5.41375 7.73875 5.7025 8.8525 6 10 C6.66 10.33 7.32 10.66 8 11 C8.93287366 15.01135675 9.27392693 18.89109604 9 23 C8.34 23.99 7.68 24.98 7 26 C6.35912447 27.26290178 5.73504893 28.53442228 5.125 29.8125 C1.93422084 36.21751994 -1.45131914 40.56105531 -7 45 C-7.33 45.66 -7.66 46.32 -8 47 C-13.47361889 46.4560915 -17.58317001 44.44606199 -22.375 41.9375 C-23.11105469 41.56044922 -23.84710938 41.18339844 -24.60546875 40.79492188 C-26.40739646 39.87055636 -28.20423099 38.93627386 -30 38 C-25.59410444 33.18033338 -25.59410444 33.18033338 -22.90234375 32.36328125 C-22.25394531 32.34652344 -21.60554688 32.32976562 -20.9375 32.3125 C-17.53117761 32.04215695 -15.81623138 31.76014461 -13 30 C-13 29.34 -13 28.68 -13 28 C-12.34 28 -11.68 28 -11 28 C-10.67 25.36 -10.34 22.72 -10 20 C-9.34 20 -8.68 20 -8 20 C-8 19.01 -8 18.02 -8 17 C-8.66 16.67 -9.32 16.34 -10 16 C-10.625 13.4375 -10.625 13.4375 -11 11 C-10.54109375 10.62488281 -10.0821875 10.24976563 -9.609375 9.86328125 C-5.96703891 6.82545052 -2.82808093 3.84619007 0 0 Z " fill="#0178D8" transform="translate(515,368)"/>
<path d="M0 0 C13.86 0 27.72 0 42 0 C42.495 2.475 42.495 2.475 43 5 C42.34 5 41.68 5 41 5 C41.495 6.485 41.495 6.485 42 8 C35.67188183 16.55151105 26.64380974 17.61021641 16.63671875 19.4296875 C11.53129324 20.40786987 8.03907331 21.66776452 4 25 C3.67 25.99 3.34 26.98 3 28 C2.01 28.66 1.02 29.32 0 30 C0 20.1 0 10.2 0 0 Z " fill="#0070CC" transform="translate(357,381)"/>
<path d="M0 0 C1.22244667 0.00333092 1.22244667 0.00333092 2.46958923 0.00672913 C3.39046829 0.00680466 4.31134735 0.00688019 5.26013184 0.00695801 C6.2611644 0.01211929 7.26219696 0.01728058 8.29356384 0.02259827 C9.31316696 0.02401321 10.33277008 0.02542816 11.38327026 0.02688599 C14.65417867 0.03250355 17.92501972 0.04505902 21.19590759 0.05775452 C23.40749515 0.06276725 25.61908377 0.06733055 27.83067322 0.07142639 C33.26494116 0.08247868 38.69916957 0.09923389 44.13340759 0.12025452 C43.54924541 5.02721684 42.47846578 7.43013814 40.13340759 12.12025452 C26.27340759 12.12025452 12.41340759 12.12025452 -1.86659241 12.12025452 C-1.86659241 52.38025452 -1.86659241 92.64025452 -1.86659241 134.12025452 C-2.19659241 134.12025452 -2.52659241 134.12025452 -2.86659241 134.12025452 C-2.88992091 116.796481 -2.90757134 99.47271235 -2.91840458 82.14892673 C-2.92356764 74.10575397 -2.93061053 66.06259095 -2.94203186 58.01942444 C-2.95197839 51.01152491 -2.95844576 44.00363244 -2.9606809 36.99572605 C-2.96198806 33.28282259 -2.96507425 29.56993932 -2.97232246 25.85704231 C-2.98033572 21.71894041 -2.98058357 17.58087391 -2.9801178 13.44276428 C-2.98371307 12.20271133 -2.98730835 10.96265839 -2.99101257 9.68502808 C-2.98963791 8.56457092 -2.98826324 7.44411377 -2.98684692 6.28970337 C-2.98776872 5.30983743 -2.98869051 4.32997149 -2.98964024 3.32041264 C-2.83597105 0.57272899 -2.7495411 0.17713816 0 0 Z " fill="#97A8B6" transform="translate(358.86659240722656,368.87974548339844)"/>
<path d="M0 0 C3.25830562 2.90310249 4.78734778 5.31705204 6.1875 9.4375 C6.51105469 10.36433594 6.83460938 11.29117187 7.16796875 12.24609375 C10.93465276 24.71328731 10.25165609 38.96926732 4.3125 50.5625 C-0.93243114 59.61158601 -6.67477465 65.23093498 -16 70 C-16.71285156 70.391875 -17.42570312 70.78375 -18.16015625 71.1875 C-34.32189313 78.94057307 -56.86951094 77.04763321 -73.5078125 72.24609375 C-78.70033472 70.39328101 -83.29313667 67.83545984 -88 65 C-88.71414063 64.65195312 -89.42828125 64.30390625 -90.1640625 63.9453125 C-96.48364398 60.69140033 -101.36079017 53.20521364 -106 48 C-104.515 47.505 -104.515 47.505 -103 47 C-102.57332031 47.556875 -102.14664062 48.11375 -101.70703125 48.6875 C-95.87721948 55.80347642 -87.4042791 63.35653375 -78 65 C-78 65.66 -78 66.32 -78 67 C-76.89591797 67.18175781 -76.89591797 67.18175781 -75.76953125 67.3671875 C-74.79371094 67.53476562 -73.81789063 67.70234375 -72.8125 67.875 C-71.84957031 68.03742188 -70.88664062 68.19984375 -69.89453125 68.3671875 C-67.08967396 68.98039517 -64.62775253 69.85666343 -62 71 C-61.67 70.34 -61.34 69.68 -61 69 C-60.01 69.99 -60.01 69.99 -59 71 C-56.88567117 71.29379492 -56.88567117 71.29379492 -54.45703125 71.23046875 C-53.09288086 71.22756836 -53.09288086 71.22756836 -51.70117188 71.22460938 C-50.74791016 71.21236328 -49.79464844 71.20011719 -48.8125 71.1875 C-47.87857422 71.18685547 -46.94464844 71.18621094 -45.98242188 71.18554688 C-38.84924194 71.1403684 -32.64777603 70.76990668 -26 68 C-25.01 68 -24.02 68 -23 68 C-22.67 67.34 -22.34 66.68 -22 66 C-20.09498755 64.93941818 -18.15030819 63.94936309 -16.1875 63 C-14.60001953 62.2265625 -14.60001953 62.2265625 -12.98046875 61.4375 C-11.21622951 60.58659562 -9.44812492 59.74350772 -7.671875 58.91796875 C-5.39300468 57.66671986 -5.0848793 56.3612079 -4 54 C-3.19746495 52.92995327 -2.38368143 51.8683047 -1.5625 50.8125 C3.63017205 43.59790255 4.572547 35.69154439 5 27 C5.05285156 26.31035156 5.10570312 25.62070312 5.16015625 24.91015625 C5.55335675 16.55037181 2.4874233 8.47304994 -1 1 C-0.67 0.67 -0.34 0.34 0 0 Z " fill="#EAEEF0" transform="translate(521,430)"/>
<path d="M0 0 C4.8977362 2.78856616 8.32614107 7.2230958 11.8125 11.5625 C18.51879026 8.04736719 24.68338942 4.00258637 30.8125 -0.4375 C31.4725 -0.1075 32.1325 0.2225 32.8125 0.5625 C31.53187515 2.2699998 30.19482443 3.93623596 28.8125 5.5625 C28.1525 5.5625 27.4925 5.5625 26.8125 5.5625 C26.5745874 6.15651611 26.3366748 6.75053223 26.09155273 7.36254883 C24.52955022 10.04916929 22.95745819 11.09147672 20.34765625 12.76171875 C19.46529297 13.33083984 18.58292969 13.89996094 17.67382812 14.48632812 C16.75021484 15.06833984 15.82660156 15.65035156 14.875 16.25 C13.95525391 16.84361328 13.03550781 17.43722656 12.08789062 18.04882812 C5.2702939 22.40990203 5.2702939 22.40990203 1.8125 23.5625 C1.22082031 22.86382812 0.62914062 22.16515625 0.01953125 21.4453125 C-0.77066406 20.53523438 -1.56085938 19.62515625 -2.375 18.6875 C-3.15230469 17.78257812 -3.92960937 16.87765625 -4.73046875 15.9453125 C-8.32543776 12.45893556 -10.75887543 11.64108221 -15.73828125 11.3671875 C-17.60033203 11.40199219 -17.60033203 11.40199219 -19.5 11.4375 C-20.75425781 11.45554687 -22.00851562 11.47359375 -23.30078125 11.4921875 C-24.72970703 11.52699219 -24.72970703 11.52699219 -26.1875 11.5625 C-25.6214525 6.09325729 -25.6214525 6.09325729 -23.6640625 3.69921875 C-23.05304688 3.22097656 -22.44203125 2.74273437 -21.8125 2.25 C-21.20664062 1.75886719 -20.60078125 1.26773437 -19.9765625 0.76171875 C-14.4512744 -2.94191323 -5.95084782 -2.5975923 0 0 Z " fill="#949A9F" transform="translate(482.1875,368.4375)"/>
<path d="M0 0 C15.51 0 31.02 0 47 0 C47 3.96 47 7.92 47 12 C32.48 12 17.96 12 3 12 C0 4 0 4 0 0 Z " fill="#9FA4A8" transform="translate(276,369)"/>
<path d="M0 0 C1.60287798 2.06084311 3.05019329 4.08707884 4.35546875 6.3515625 C6.03678365 9.05923828 7.87446245 11.31639845 10 13.6875 C10.680625 14.45449219 11.36125 15.22148437 12.0625 16.01171875 C14.03440002 18.17372093 14.03440002 18.17372093 17 20 C17 20.66 17 21.32 17 22 C17.56074219 22.10699219 18.12148438 22.21398437 18.69921875 22.32421875 C21.39200094 23.1151378 23.41339178 24.3568199 25.8125 25.8125 C42.23689311 34.82641495 61.76606788 35.16278392 80 33 C74.51538527 38.48461473 63.86207102 38.40320468 56.51196289 38.51904297 C55.43551514 38.51275879 54.35906738 38.50647461 53.25 38.5 C52.11618896 38.49500488 50.98237793 38.49000977 49.81420898 38.48486328 C40.38365213 38.2900587 32.64205554 36.82069824 24 33 C22.99066406 32.55398438 21.98132813 32.10796875 20.94140625 31.6484375 C10.95498111 26.68985193 0.73637392 18.32768898 -4 8 C-3.74296207 4.95542998 -3.43790326 3.50796778 -1.4375 1.1875 C-0.963125 0.795625 -0.48875 0.40375 0 0 Z " fill="#949BA0" transform="translate(412,471)"/>
<path d="M0 0 C1.875 2 1.875 2 3 4 C-2.18855931 7.93135819 -7.41954723 10.87968867 -13.3125 13.625 C-14.10333984 14.0065625 -14.89417969 14.388125 -15.70898438 14.78125 C-21.33592912 17.43245061 -26.9950467 19.38950625 -33 21 C-34.07761597 21.32411865 -34.07761597 21.32411865 -35.17700195 21.65478516 C-37 22 -37 22 -38.8125 20.8125 C-40 19 -40 19 -39.8671875 17.1328125 C-37.50424927 11.32126172 -29.88059282 7.82275936 -24.4375 5.44140625 C-20.98194037 4.18653169 -17.52292959 3.04965453 -14 2 C-13.18917969 1.75378906 -12.37835938 1.50757813 -11.54296875 1.25390625 C-7.6589503 0.17707513 -4.01103476 -0.55967927 0 0 Z " fill="#A0D6F7" transform="translate(224,146)"/>
<path d="M0 0 C0 3 0 3 -1.390625 4.88671875 C-5.16901801 7.94676458 -9.34836213 9.79049638 -13.75 11.8125 C-14.68432861 12.24900879 -15.61865723 12.68551758 -16.58129883 13.13525391 C-46.2858725 26.94414065 -46.2858725 26.94414065 -58 30 C-58.33 29.34 -58.66 28.68 -59 28 C-59.99 27.67 -60.98 27.34 -62 27 C-62.6875 24.9375 -62.6875 24.9375 -63 23 C-62.34 23 -61.68 23 -61 23 C-60.773125 22.443125 -60.54625 21.88625 -60.3125 21.3125 C-53.84337031 9.9145096 -39.20601098 5.69679723 -27.4375 2.3125 C-18.08317107 -0.06687146 -9.60886812 -1.57313328 0 0 Z M-31.1875 5.1875 C-32.32034424 5.52696655 -32.32034424 5.52696655 -33.47607422 5.87329102 C-42.68192666 8.72187579 -49.93051735 12.39157056 -57 19 C-56.65648235 21.57638237 -56.3708686 22.69742655 -54.32421875 24.3671875 C-47.02825558 26.35365142 -35.81229191 19.11734103 -29.0625 16 C-28.36552002 15.68047363 -27.66854004 15.36094727 -26.95043945 15.03173828 C-22.23708119 12.79265341 -18.1732731 10.1340356 -14 7 C-16.50336541 3.91237301 -16.50336541 3.91237301 -20.1328125 2.73828125 C-23.96008693 3.08763736 -27.52244365 4.08604006 -31.1875 5.1875 Z " fill="#71BBF2" transform="translate(241,143)"/>
<path d="M0 0 C0.99 0.495 0.99 0.495 2 1 C1.47274826 5.55423241 1.47274826 5.55423241 -0.57421875 7.484375 C-1.27160156 7.90203125 -1.96898437 8.3196875 -2.6875 8.75 C-3.48414063 9.24242187 -4.28078125 9.73484375 -5.1015625 10.2421875 C-6.05804688 10.82226562 -7.01453125 11.40234375 -8 12 C-9.88451662 13.20203262 -11.76138682 14.41546107 -13.63793945 15.62988281 C-16.4192966 17.42931469 -19.20996504 19.21406012 -22 21 C-22.7528125 20.24074219 -23.505625 19.48148437 -24.28125 18.69921875 C-26.31760646 16.67749129 -28.34712495 14.70642074 -30.5 12.8125 C-31.0465625 12.32394531 -31.593125 11.83539063 -32.15625 11.33203125 C-37.65383201 7.3602612 -43.46604707 7.36675346 -50 8 C-53.6827886 9.38104572 -56.54036285 10.89308992 -59 14 C-60.3529491 18.05884731 -60.55043688 21.75584197 -60 26 C-58.20566347 29.40277812 -58.20566347 29.40277812 -56 32 C-55.67 32.66 -55.34 33.32 -55 34 C-57.51622809 33.62444357 -58.71610036 33.31374354 -60.44921875 31.3984375 C-64.00543231 25.58733774 -65.67321392 20.74865868 -64.4375 13.875 C-63.17254187 9.49433962 -60.81531147 7.49462673 -57 5 C-53.9375 3.75 -53.9375 3.75 -51 3 C-50.175 2.773125 -49.35 2.54625 -48.5 2.3125 C-43.03237422 1.62904678 -38.58739268 3.41203504 -33.75 5.8125 C-32.71359375 6.31394531 -31.6771875 6.81539063 -30.609375 7.33203125 C-27.8639003 9.08699786 -27.08162271 9.99879412 -26 13 C-25.62875 13.9075 -25.2575 14.815 -24.875 15.75 C-24.58625 16.4925 -24.2975 17.235 -24 18 C-23.34 18 -22.68 18 -22 18 C-21.6596875 17.071875 -21.6596875 17.071875 -21.3125 16.125 C-19.61583557 13.3780195 -17.94748289 13.13364727 -15 12 C-14.67 11.01 -14.34 10.02 -14 9 C-11.3125 7.5 -11.3125 7.5 -8 6 C-3.26590191 3.89436993 -3.26590191 3.89436993 0 0 Z " fill="#EAEEF0" transform="translate(517,360)"/>
<path d="M0 0 C3.80737481 3.33289953 5.78450066 7.80794752 8.18359375 12.1875 C9.95840252 14.935591 11.28199056 16.26364057 14 18 C14.63421875 18.43441406 15.2684375 18.86882812 15.921875 19.31640625 C17.14895305 20.15281201 18.37815543 20.98610902 19.609375 21.81640625 C20.06828125 22.20699219 20.5271875 22.59757812 21 23 C21 23.66 21 24.32 21 25 C21.53625 25.103125 22.0725 25.20625 22.625 25.3125 C25.64490109 26.18668189 28.20833124 27.55047968 31 29 C32.41438598 29.73358079 33.83112497 30.46263993 35.25 31.1875 C35.91515625 31.53167969 36.5803125 31.87585938 37.265625 32.23046875 C38.9884506 33.13518845 38.9884506 33.13518845 41 33 C41 33.66 41 34.32 41 35 C41.680625 35.103125 42.36125 35.20625 43.0625 35.3125 C48.81021945 36.65771094 53.98513106 39.44032763 59.203125 42.1328125 C61.15919337 43.12391954 61.15919337 43.12391954 64 44 C64.33 44.66 64.66 45.32 65 46 C65.78375 46.391875 66.5675 46.78375 67.375 47.1875 C70.8066603 49.55697973 72.10486561 52.02872917 73 56 C73.22800283 59.68274135 73.17986434 63.31611177 73 67 C72.67 67 72.34 67 72 67 C71.91363281 66.19175781 71.82726562 65.38351562 71.73828125 64.55078125 C71.59777344 63.48214844 71.45726562 62.41351563 71.3125 61.3125 C71.18488281 60.25675781 71.05726563 59.20101562 70.92578125 58.11328125 C69.39311885 52.95913807 65.9595183 50.44188889 61.4609375 47.82421875 C60.10508044 47.10039273 58.74269247 46.38870596 57.375 45.6875 C56.63934814 45.30215088 55.90369629 44.91680176 55.14575195 44.51977539 C49.61053839 41.67853263 43.95335404 39.26635095 38.1875 36.9375 C30.38192049 33.77075925 23.73865009 30.12137407 17 25 C15.99259766 24.28263672 15.99259766 24.28263672 14.96484375 23.55078125 C8.04703127 18.24459102 3.44589826 9.905296 0 2 C0 1.34 0 0.68 0 0 Z " fill="#ECEEF0" transform="translate(424,396)"/>
<path d="M0 0 C0.33 0 0.66 0 1 0 C1.33 37.95 1.66 75.9 2 115 C17.84 115.495 17.84 115.495 34 116 C33.34 117.32 32.68 118.64 32 120 C27.90658501 120.02469575 23.81319879 120.04285793 19.71972656 120.05493164 C18.32681523 120.0599643 16.9339092 120.06679098 15.54101562 120.07543945 C13.54038754 120.08755152 11.53972112 120.09270412 9.5390625 120.09765625 C8.33459473 120.10289307 7.13012695 120.10812988 5.88916016 120.11352539 C3 120 3 120 1 119 C0.03032996 116.09098987 -0.12352446 114.26012509 -0.12025452 111.23542786 C-0.12162918 110.25526199 -0.12300385 109.27509613 -0.12442017 108.26522827 C-0.12082489 107.19132843 -0.11722961 106.11742859 -0.11352539 105.01098633 C-0.11367142 103.87913406 -0.11381744 102.7472818 -0.1139679 101.58113098 C-0.11326995 97.83141173 -0.10548304 94.08174185 -0.09765625 90.33203125 C-0.09579165 87.73557055 -0.09436795 85.13910949 -0.09336853 82.54264832 C-0.08993752 76.40161011 -0.08205206 70.26059235 -0.07201904 64.11956185 C-0.06084438 57.1280921 -0.05534404 50.13662151 -0.05032361 43.14514506 C-0.03986909 28.76342048 -0.02227808 14.38171087 0 0 Z " fill="#42A2E8" transform="translate(322,388)"/>
<path d="M0 0 C0.96886574 2.90659722 1.08280309 4.56559567 0.9921875 7.5703125 C0.97542969 8.4675 0.95867187 9.3646875 0.94140625 10.2890625 C0.89767921 12.15646438 0.84580507 14.02369609 0.78515625 15.890625 C0.66134683 23.79191688 2.16470378 30.09612123 6.25 36.875 C6.8275 37.90625 7.405 38.9375 8 40 C7.67 40.99 7.34 41.98 7 43 C6.505 41.515 6.505 41.515 6 40 C5.21625 39.9175 4.4325 39.835 3.625 39.75 C1 39 1 39 -0.3125 36.9375 C-0.539375 36.298125 -0.76625 35.65875 -1 35 C-1 35.33 -1 35.66 -1 36 C-2.485 36.495 -2.485 36.495 -4 37 C-6.53558117 33.15080449 -6.42304289 29.079188 -6.4375 24.625 C-6.44064209 23.83295166 -6.44378418 23.04090332 -6.44702148 22.22485352 C-6.31040032 15.3862432 -5.09486006 5.09486006 0 0 Z " fill="#9FA6AB" transform="translate(423,369)"/>
<path d="M0 0 C0.66 0.33 1.32 0.66 2 1 C0.71937515 2.7074998 -0.61767557 4.37373596 -2 6 C-2.66 6 -3.32 6 -4 6 C-4.24766113 6.59707764 -4.49532227 7.19415527 -4.75048828 7.80932617 C-7.02691909 11.8004191 -11.10898008 13.82834132 -14.875 16.3125 C-15.69097656 16.87517578 -16.50695312 17.43785156 -17.34765625 18.01757812 C-18.13785156 18.54416016 -18.92804688 19.07074219 -19.7421875 19.61328125 C-20.4626123 20.09579346 -21.18303711 20.57830566 -21.92529297 21.07543945 C-24 22 -24 22 -26.20361328 21.71166992 C-28 21 -28 21 -29 20 C-29.04063832 18.33382885 -29.042721 16.66611905 -29 15 C-27.68 14.34 -26.36 13.68 -25 13 C-25.55728913 9.65626525 -26.35173889 6.96687001 -28 4 C-28.66 4 -29.32 4 -30 4 C-30 3.34 -30 2.68 -30 2 C-26.55571735 3.44781793 -24.63869038 5.27694609 -22.25 8.125 C-21.63640625 8.84945313 -21.0228125 9.57390625 -20.390625 10.3203125 C-19.70226562 11.15175781 -19.70226562 11.15175781 -19 12 C-12.29370974 8.48486719 -6.12911058 4.44008637 0 0 Z " fill="#A3A7AA" transform="translate(513,368)"/>
<path d="M0 0 C2.93576279 1.012332 3.97512741 1.96357942 5.75 4.5625 C7.74316469 10.0437029 7.71134921 14.68811508 6 20.25 C3.35617662 23.88525715 0.14329075 26.23184407 -4 28 C-4.66 27.67 -5.32 27.34 -6 27 C-5.67773438 26.47535156 -5.35546875 25.95070313 -5.0234375 25.41015625 C-3.3333277 21.43001218 -3.64586586 17.27308265 -3.5390625 12.99609375 C-3 10 -3 10 -0.9609375 8.09765625 C0.00972656 7.55431641 0.00972656 7.55431641 1 7 C0.835 6.21625 0.67 5.4325 0.5 4.625 C0 2 0 2 0 0 Z " fill="#A3A5A6" transform="translate(489,446)"/>
<path d="M0 0 C1.40378906 -0.02126953 1.40378906 -0.02126953 2.8359375 -0.04296875 C5.78618154 0.20081892 7.94864112 0.95637492 10.625 2.1875 C9.635 3.6725 9.635 3.6725 8.625 5.1875 C8.625 4.5275 8.625 3.8675 8.625 3.1875 C3.48630395 4.72698227 3.48630395 4.72698227 0.375 8.71875 C-1.375 11.1875 -1.375 11.1875 -4.94921875 12.11328125 C-6.31793591 12.26536093 -7.68947683 12.39359391 -9.0625 12.5 C-9.76439453 12.57283203 -10.46628906 12.64566406 -11.18945312 12.72070312 C-12.91599267 12.89688063 -14.64535862 13.04495883 -16.375 13.1875 C-15.8089525 7.71825729 -15.8089525 7.71825729 -13.8515625 5.32421875 C-13.24054688 4.84597656 -12.62953125 4.36773437 -12 3.875 C-11.39414062 3.38386719 -10.78828125 2.89273437 -10.1640625 2.38671875 C-6.83896431 0.15788655 -3.89093243 0.02665022 0 0 Z " fill="#A7A8A8" transform="translate(472.375,366.8125)"/>
<path d="M0 0 C16.335 0.495 16.335 0.495 33 1 C32.34 2.32 31.68 3.64 31 5 C26.90658501 5.02469575 22.81319879 5.04285793 18.71972656 5.05493164 C17.32681523 5.0599643 15.9339092 5.06679098 14.54101562 5.07543945 C12.54038754 5.08755152 10.53972112 5.09270412 8.5390625 5.09765625 C7.33459473 5.10289307 6.13012695 5.10812988 4.88916016 5.11352539 C2 5 2 5 0 4 C0 2.68 0 1.36 0 0 Z " fill="#909AA1" transform="translate(323,503)"/>
<path d="M0 0 C-1.27100597 3.81301791 -2.72001985 4.71827468 -6 7 C-10.23733039 9.00310164 -14.53479199 10.58420234 -19 12 C-19 11.34 -19 10.68 -19 10 C-19.66 9.67 -20.32 9.34 -21 9 C-18.13476525 5.85227731 -15.49555526 4.00638642 -11.625 2.25 C-10.70976562 1.82203125 -9.79453125 1.3940625 -8.8515625 0.953125 C-5.73993746 -0.08692501 -3.25865534 -0.17302595 0 0 Z " fill="#D9E5EC" transform="translate(212,151)"/>
<path d="M0 0 C0.62865967 0.03552979 1.25731934 0.07105957 1.9050293 0.10766602 C18.97012545 1.07852823 18.97012545 1.07852823 36 0 C31.87056437 4.12943563 24.75160807 4.9632138 19.078125 5.0390625 C3.78634615 3.78634615 3.78634615 3.78634615 0 0 Z " fill="#AFAFAF" transform="translate(456,504)"/>
<path d="M0 0 C0.33 0 0.66 0 1 0 C1.34210402 5.70173361 1.49164428 10.19898911 -2 15 C-4.50823795 16.98504721 -7.05119774 18.74159394 -10 20 C-10.66 19.67 -11.32 19.34 -12 19 C-11.34 17.68 -10.68 16.36 -10 15 C-9.34 15 -8.68 15 -8 15 C-8 14.01 -8 13.02 -8 12 C-7.34 12 -6.68 12 -6 12 C-5.67 11.34 -5.34 10.68 -5 10 C-4.34 9.79375 -3.68 9.5875 -3 9.375 C-0.82949501 8.20634083 -0.82949501 8.20634083 -0.515625 6.09375 C-0.27330851 4.06969459 -0.13124383 2.03427939 0 0 Z " fill="#B8BABD" transform="translate(495,454)"/>
<path d="M0 0 C-3.07555454 2.0503697 -5.84550097 3.11936252 -9.3125 4.375 C-14.03682628 6.15189504 -18.01103249 7.92279649 -22 11 C-22.66 10.67 -23.32 10.34 -24 10 C-22.68 9.34 -21.36 8.68 -20 8 C-20 7.34 -20 6.68 -20 6 C-17.98757061 4.98319357 -15.9645868 3.98726211 -13.9375 3 C-12.24947266 2.1646875 -12.24947266 2.1646875 -10.52734375 1.3125 C-6.76473667 -0.08753984 -3.97932691 -0.2433219 0 0 Z " fill="#38A0ED" transform="translate(211,146)"/>
<path d="M0 0 C-2.24623699 0.69969682 -4.49716414 1.38435043 -6.75 2.0625 C-8.00296875 2.44535156 -9.2559375 2.82820313 -10.546875 3.22265625 C-13.6738008 3.92656828 -15.09466046 4.16653785 -18 3 C-17.34 3 -16.68 3 -16 3 C-15.67 2.01 -15.34 1.02 -15 0 C-13.06325815 -0.19517554 -11.12555991 -0.38087873 -9.1875 -0.5625 C-8.10855469 -0.66691406 -7.02960938 -0.77132813 -5.91796875 -0.87890625 C-3 -1 -3 -1 0 0 Z " fill="#9AA6B0" transform="translate(492,505)"/>
<path d="M0 0 C3.8665284 3.222107 4.88059018 6.14922412 6 11 C3 10 3 10 1.83203125 7.93359375 C1.49558594 7.10988281 1.15914062 6.28617187 0.8125 5.4375 C0.46832031 4.61121094 0.12414062 3.78492188 -0.23046875 2.93359375 C-0.48441406 2.29550781 -0.73835937 1.65742188 -1 1 C-0.67 0.67 -0.34 0.34 0 0 Z " fill="#DEEAF1" transform="translate(521,430)"/>
<path d="M0 0 C3.02990095 1.71967351 5.76327296 3.29238306 8 6 C8 6.66 8 7.32 8 8 C6.68 7.34 5.36 6.68 4 6 C4 5.34 4 4.68 4 4 C2.68 3.34 1.36 2.68 0 2 C0 1.34 0 0.68 0 0 Z " fill="#C7DFF1" transform="translate(505,347)"/>
<path d="M0 0 C0.99 0 1.98 0 3 0 C4.75 2.3125 4.75 2.3125 6 5 C5.67 5.99 5.34 6.98 5 8 C4.67 7.01 4.34 6.02 4 5 C3.01 4.67 2.02 4.34 1 4 C0.3125 1.9375 0.3125 1.9375 0 0 Z " fill="#AAABAB" transform="translate(425,404)"/>
<path d="M0 0 C3.36591866 1.44253657 5.51047079 3.33264727 8 6 C6.35 5.67 4.7 5.34 3 5 C3 4.34 3 3.68 3 3 C1.68 2.34 0.36 1.68 -1 1 C-0.67 0.67 -0.34 0.34 0 0 Z " fill="#D0E4F2" transform="translate(448,466)"/>
</svg>
