<?xml version="1.0" encoding="UTF-8"?>
<svg version="1.1" xmlns="http://www.w3.org/2000/svg" width="512" height="512">
<path d="M0 0 C2 2 2 2 2.38256836 5.18041992 C2.1957945 12.02786636 -0.18936247 18.59355064 -2.12109375 25.11328125 C-2.54559751 26.57413128 -2.96917156 28.03525177 -3.39186096 29.49662781 C-4.50158365 33.32374079 -5.62413355 37.14697347 -6.74938965 40.96954346 C-7.89375614 44.86601291 -9.02527265 48.76620909 -10.15820312 52.66601562 C-11.81315852 58.3551586 -13.47232667 64.04303877 -15.14233398 69.7277832 C-15.47764633 70.86947464 -15.81295868 72.01116608 -16.15843201 73.18745422 C-16.74105262 75.13459001 -17.3572882 77.0718646 -18 79 C-16.74566162 78.74130127 -15.49132324 78.48260254 -14.19897461 78.21606445 C6.5058022 73.99162543 27.28775129 70.17752691 48.07055664 66.35961914 C52.34299132 65.57429948 56.61439109 64.78366045 60.88500977 63.98852539 C66.11249104 63.01523903 71.34151323 62.05069001 76.57176399 61.0924015 C78.54293936 60.72980022 80.51357106 60.36422922 82.48361015 59.99550438 C85.229061 59.4823421 87.97636285 58.9804932 90.72436523 58.48120117 C91.51875504 58.33009384 92.31314484 58.17898651 93.13160706 58.02330017 C107.23454814 55.50349647 107.23454814 55.50349647 111.91908932 58.03850079 C114.73539093 60.32885032 116.71372547 62.31892999 117.33056641 65.94116211 C117.83246929 74.18730907 114.51224693 79.63499332 110.375 86.5625 C109.68734493 87.74987395 109.00191731 88.93854039 108.31860352 90.12841797 C106.91328715 92.5703726 105.49774548 95.00591634 104.07373047 97.43701172 C100.94760997 102.78762289 97.94991907 108.20986413 94.9375 113.625 C93.77947344 115.69317195 92.62061911 117.76088063 91.4609375 119.828125 C90.88956055 120.84712891 90.31818359 121.86613281 89.72949219 122.91601562 C88.5764974 124.97200521 87.4235026 127.02799479 86.27050781 129.08398438 C84.534084 132.18075374 82.79811386 135.27777662 81.0625 138.375 C80.20108398 139.91220703 80.20108398 139.91220703 79.32226562 141.48046875 C75.00839397 149.18484154 70.72011713 156.90322003 66.4375 164.625 C61.30621402 173.87593606 56.1288365 183.09905816 50.91162109 192.30175781 C46.11250644 200.77731882 41.3824394 209.29050355 36.65844727 217.80810547 C30.71367618 228.52472941 24.72776111 239.21800966 18.73388672 249.90722656 C15.82060861 255.10370742 12.91043473 260.30192626 10 265.5 C6.51323215 271.72741207 3.02587556 277.95448933 -0.46484375 284.1796875 C-6.52060086 294.98203312 -12.55608874 305.79513013 -18.5625 316.625 C-23.69378598 325.87593606 -28.8711635 335.09905816 -34.08837891 344.30175781 C-38.88749356 352.77731882 -43.6175606 361.29050355 -48.34155273 369.80810547 C-54.28632382 380.52472941 -60.27223889 391.21800966 -66.26611328 401.90722656 C-68.59564753 406.06247013 -70.92333328 410.21874595 -73.24975586 414.37573242 C-74.40880138 416.44468283 -75.56974643 418.51257035 -76.73266602 420.5793457 C-79.46661025 425.44323666 -82.18081481 430.3150524 -84.82958984 435.22598267 C-85.77113202 436.96954463 -86.71951576 438.70940643 -87.66796875 440.44921875 C-88.85956843 442.63678235 -90.03990327 444.83053271 -91.20703125 447.03125 C-94.16315437 452.42846762 -96.32610163 456.35373739 -102 459 C-105.72072164 459.85448761 -109.06061644 459.44794679 -112.53125 457.79296875 C-115.38196913 455.72258888 -116.6486103 453.90743658 -118.4375 450.875 C-118.76476074 450.32497314 -119.09202148 449.77494629 -119.42919922 449.20825195 C-123.56124881 442.18672836 -127.48259994 435.03846914 -131.44311523 427.91943359 C-135.54222353 420.56044721 -139.73321383 413.26289558 -144 406 C-149.41476301 396.77580266 -154.6863104 387.47984909 -159.89501953 378.13793945 C-164.98624609 369.00862258 -170.16042475 359.92905085 -175.36035156 350.86132812 C-178.15574926 345.98311773 -180.94370875 341.10065746 -183.73248291 336.21865845 C-185.441155 333.22763672 -187.15028974 330.23687939 -188.859375 327.24609375 C-189.55143448 326.03499474 -190.24349177 324.82389448 -190.93554688 323.61279297 C-191.27739014 323.01456726 -191.6192334 322.41634155 -191.97143555 321.79998779 C-211 288.50000001 -211 288.50000001 -211.99996948 286.75004578 C-212.66672911 285.58322151 -213.3334975 284.41640226 -214.00027466 283.24958801 C-215.66559088 280.33537354 -217.33075537 277.42107258 -218.99560547 274.5065918 C-222.01154606 269.22724336 -225.02862341 263.94856056 -228.05130005 258.67306519 C-229.7432784 255.71996984 -231.43437464 252.76637011 -233.125 249.8125 C-233.45755798 249.23149536 -233.79011597 248.65049072 -234.13275146 248.05187988 C-238.84669898 239.81214849 -243.50367995 231.54203158 -248.125 223.25 C-253.22214598 214.10554429 -258.44998746 205.04640908 -263.75048828 196.01855469 C-268.52923087 187.85881504 -273.15176686 179.61791893 -277.75 171.35546875 C-281.74964659 164.18645936 -285.84362972 157.07916232 -290 150 C-295.31075548 140.95117032 -300.48392512 131.83435604 -305.59179688 122.66967773 C-310.18203684 114.44078591 -314.82675304 106.2444235 -319.5 98.0625 C-320.00028717 97.18519226 -320.00028717 97.18519226 -320.51068115 96.29016113 C-324.20574004 89.81230181 -327.9424273 83.37148065 -331.85351562 77.02124023 C-334.15487267 72.96397129 -334.38977363 69.59932882 -334 65 C-331.87622443 60.97999624 -330.21817795 58.67524478 -326 57 C-318.23974545 56.00465034 -310.39010685 57.75756285 -302.78613281 59.15551758 C-301.50018219 59.38478439 -300.21423157 59.61405121 -298.88931274 59.8502655 C-295.38763071 60.47483234 -291.88796675 61.11008681 -288.38860416 61.74750352 C-284.70470671 62.41674323 -281.0190912 63.07639011 -277.3336792 63.73722839 C-271.14262493 64.84874977 -264.95275927 65.96669226 -258.76367188 67.08911133 C-250.85919025 68.52259964 -242.95292705 69.94599085 -235.04600906 71.36597157 C-228.20375703 72.59478589 -221.36225645 73.8277647 -214.52091885 75.06165862 C-212.34427574 75.45411918 -210.16755103 75.84612491 -207.99082184 76.23810768 C-203.90381098 76.97447458 -199.81758862 77.71513296 -195.73144531 78.45629883 C-193.95101334 78.77674667 -193.95101334 78.77674667 -192.13461304 79.10366821 C-184.05112728 80.57476873 -176.02469131 82.23681643 -168 84 C-167.97220459 83.19483948 -167.94440918 82.38967896 -167.91577148 81.56011963 C-166.30148531 34.95504316 -166.30148531 34.95504316 -163.94186401 31.4105072 C-161.00898026 29.28015532 -157.76792349 28.84850238 -154.27392578 28.19750977 C-153.48274384 28.040562 -152.69156191 27.88361423 -151.87640476 27.72191048 C-149.23473218 27.20074691 -146.59016616 26.6961567 -143.9453125 26.19140625 C-142.0739214 25.82547261 -140.20273463 25.4584926 -138.33174133 25.0905304 C-133.30572202 24.10502465 -128.27707313 23.13362398 -123.24775314 22.16512299 C-118.05311064 21.16267072 -112.86074445 20.14857351 -107.66821289 19.13525391 C-101.4126013 17.91519324 -95.15675438 16.69640175 -88.8997345 15.48358154 C-77.24155976 13.22319199 -65.58999054 10.93388984 -53.94843292 8.58939171 C-51.77498125 8.15191825 -49.60126304 7.71579782 -47.4274292 7.28022766 C-46.39046402 7.07243762 -46.39046402 7.07243762 -45.33255005 6.86044979 C-43.97832946 6.58912637 -42.62410192 6.31783766 -41.26986694 6.04658604 C-38.05687217 5.40246961 -34.84474751 4.75440559 -31.63360596 4.10110474 C-28.13111509 3.3894297 -24.62647167 2.68947989 -21.12109375 1.9921875 C-20.12725174 1.78684891 -19.13340973 1.58151031 -18.10945129 1.36994934 C-12.15771263 0.20009318 -6.06700354 -0.80823975 0 0 Z " fill="#9575CC" transform="translate(363,32)"/>
<path d="M0 0 C2 2 2 2 2.37597656 5.19799805 C2.19165885 11.94574827 -0.12013008 18.40473157 -2.015625 24.83203125 C-2.43284915 26.27374411 -2.84923648 27.71569938 -3.26483154 29.15788269 C-4.13605196 32.17302166 -5.01418951 35.18602272 -5.89794922 38.19750977 C-7.02170702 42.02720741 -8.13297483 45.86037788 -9.23959732 49.69505787 C-10.09940198 52.67229431 -10.96347955 55.6482763 -11.8290329 58.62384605 C-12.23953949 60.03520491 -12.64933446 61.44677097 -13.05835724 62.85856056 C-15.19223343 70.20814361 -17.42563167 77.48235501 -20.13989258 84.6424408 C-21.58800639 88.61172878 -22.68009308 92.66551258 -23.75 96.75 C-24.08064453 97.94689453 -24.08064453 97.94689453 -24.41796875 99.16796875 C-25.67371596 103.91796906 -26.33456049 108.08453427 -26 113 C-25.67 113.33 -25.34 113.66 -25 114 C-14.55273982 113.94124751 -4.38096785 111.64677381 5.79052734 109.50854492 C20.73245078 106.38921661 20.73245078 106.38921661 28 107 C30 109 30 109 30.42465591 111.47891045 C29.80035749 116.65536179 27.54877631 120.72121731 25.20550537 125.33743286 C24.68971648 126.37695945 24.1739276 127.41648603 23.64250875 128.48751342 C22.21088549 131.36667136 20.76862891 134.24020148 19.32167649 137.11167693 C17.76283865 140.21166008 16.21785 143.3185354 14.6710968 146.42456055 C11.63978295 152.50616336 8.59563783 158.58125555 5.54701558 164.65419711 C1.99745381 171.72607544 -1.53988828 178.804041 -5.0768629 185.88222073 C-11.3880561 198.51098679 -17.71111693 211.1337739 -24.04052734 223.75341797 C-30.18275446 235.99986397 -36.31542386 248.25103593 -42.43798828 260.50732422 C-49.10450693 273.85247643 -55.77600315 287.1951166 -62.45646071 300.53329742 C-63.16876691 301.95549523 -63.88107207 303.37769356 -64.59337616 304.79989243 C-64.94385531 305.49964366 -65.29433447 306.19939489 -65.65543421 306.92035071 C-68.12537081 311.85246439 -70.59188456 316.78628083 -73.05719757 321.72070694 C-76.06159785 327.73375123 -79.0718558 333.74382036 -82.08955798 339.75020064 C-83.62920792 342.81501084 -85.16629531 345.88103483 -86.69650078 348.95057297 C-88.35616058 352.27631709 -90.02554723 355.59699323 -91.6975708 358.91653442 C-92.18006987 359.88909121 -92.66256894 360.86164799 -93.15968919 361.86367619 C-93.61004462 362.75272267 -94.06040005 363.64176914 -94.52440262 364.55775642 C-94.90867959 365.32457682 -95.29295657 366.09139721 -95.6888783 366.88145459 C-97.20664721 369.33390607 -98.80898163 371.12550376 -101 373 C-104.125 373.375 -104.125 373.375 -107 373 C-109 371 -109 371 -109.21899414 367.40039062 C-109.10432704 363.02248322 -108.3888449 358.87191684 -107.49609375 354.59375 C-107.33748367 353.80381653 -107.1788736 353.01388306 -107.01545715 352.20001221 C-106.49731336 349.63167822 -105.96773156 347.06586328 -105.4375 344.5 C-105.07283246 342.70744007 -104.70857936 340.91479579 -104.34472656 339.12207031 C-101.54477652 325.38895999 -98.56316303 311.69768951 -95.54296875 298.01171875 C-94.18841841 291.86759816 -92.8424379 285.7226415 -91.5625 279.5625 C-91.3984668 278.80614258 -91.23443359 278.04978516 -91.06542969 277.27050781 C-90.0128363 272.10644226 -89.87018395 267.27053178 -90 262 C-97.13823636 261.52355037 -102.82716788 263.24764233 -109.5625 265.5 C-122.41127563 269.78017092 -122.41127563 269.78017092 -128 269 C-131.77169173 263.3424624 -129.19395416 255.71153245 -127.984375 249.30419922 C-127.57866559 247.30318777 -127.16698377 245.30337994 -126.75 243.3046875 C-126.53182617 242.23179474 -126.31365234 241.15890198 -126.08886719 240.05349731 C-125.39816577 236.65949405 -124.69978901 233.26714023 -124 229.875 C-123.3009022 226.47558866 -122.60362576 223.0758426 -121.91113281 219.67507935 C-121.48219665 217.56950251 -121.04947927 215.46469108 -120.61230469 213.36080933 C-119.43359966 207.58502205 -118.35305208 201.89082103 -118 196 C-119.90272446 193.66173641 -119.90272446 193.66173641 -123.15527344 193.76782227 C-127.14787232 194.00892981 -130.64452526 194.717246 -134.515625 195.71484375 C-135.21210144 195.89004044 -135.90857788 196.06523712 -136.62615967 196.2457428 C-139.57246392 196.98713914 -142.51377171 197.74753452 -145.45556641 198.5065918 C-168.46674472 204.41209272 -168.46674472 204.41209272 -172.77294922 202.01171875 C-174.72400491 198.81301225 -174.3656584 195.50073801 -174.2734375 191.87109375 C-174.26226898 191.03758896 -174.25110046 190.20408417 -174.23959351 189.34532166 C-174.03475789 178.23721715 -173.3185729 167.14843204 -172.625 156.0625 C-172.48603671 153.76939105 -172.34744961 151.47625927 -172.20922852 149.18310547 C-171.466498 136.96518025 -170.63810655 124.7582957 -169.7019043 112.55371094 C-168.74124329 99.40824698 -168.24581077 86.23472479 -167.69702148 73.06689453 C-167.3423947 64.56698152 -166.98042226 56.06831508 -166.50390625 47.57421875 C-166.43115479 46.27444092 -166.35840332 44.97466309 -166.28344727 43.63549805 C-165.51443705 33.77216374 -165.51443705 33.77216374 -163.94187927 31.41177368 C-161.0093987 29.27981885 -157.7683991 28.84859099 -154.27392578 28.19750977 C-153.48274384 28.040562 -152.69156191 27.88361423 -151.87640476 27.72191048 C-149.23473218 27.20074691 -146.59016616 26.6961567 -143.9453125 26.19140625 C-142.0739214 25.82547261 -140.20273463 25.4584926 -138.33174133 25.0905304 C-133.30572202 24.10502465 -128.27707313 23.13362398 -123.24775314 22.16512299 C-118.05311064 21.16267072 -112.86074445 20.14857351 -107.66821289 19.13525391 C-101.4126013 17.91519324 -95.15675438 16.69640175 -88.8997345 15.48358154 C-77.24155976 13.22319199 -65.58999054 10.93388984 -53.94843292 8.58939171 C-51.77498125 8.15191825 -49.60126304 7.71579782 -47.4274292 7.28022766 C-46.73611908 7.14170096 -46.04480896 7.00317427 -45.33255005 6.86044979 C-43.97832946 6.58912637 -42.62410192 6.31783766 -41.26986694 6.04658604 C-38.05687217 5.40246961 -34.84474751 4.75440559 -31.63360596 4.10110474 C-28.13111509 3.3894297 -24.62647167 2.68947989 -21.12109375 1.9921875 C-20.12725174 1.78684891 -19.13340973 1.58151031 -18.10945129 1.36994934 C-12.15771263 0.20009318 -6.06700354 -0.80823975 0 0 Z " fill="#FABF2D" transform="translate(363,32)"/>
</svg>
